<svg width="79" height="113" viewBox="0 0 79 113" fill="none" xmlns="http://www.w3.org/2000/svg">
<path d="M5.0794 1H74.0224C76.1598 1 77.8879 2.71757 77.8879 4.84194V86.5622C77.8879 88.6865 76.1598 90.4041 74.0224 90.4041H5.0794C2.94199 90.4041 1.21387 88.6865 1.21387 86.5622V4.79674C1.21387 2.71757 2.94199 1 5.0794 1Z" stroke="white" stroke-width="1.278"/>
<path d="M21.9513 72.234L20.7689 68.4824H21.4511L22.0878 70.652L22.3151 71.4656C22.3151 71.4204 22.4061 71.1944 22.5425 70.6972L23.1792 68.5276H23.8613L24.4526 70.6972L24.6345 71.4204L24.8618 70.6972L25.544 68.5276H26.1807L24.9073 72.2792H24.2252L23.634 70.0644L23.4975 69.4316L22.679 72.2792H21.9513V72.234Z" fill="white"/>
<path d="M27.5449 72.234L26.3625 68.4824H27.0447L27.6814 70.652L27.9088 71.4656C27.9088 71.4204 27.9997 71.1944 28.1361 70.6972L28.7728 68.5276H29.455L30.0462 70.6972L30.2281 71.4204L30.41 70.652L31.0921 68.4824H31.7288L30.4555 72.234H29.7733L29.1366 70.0192L29.0002 69.3864L28.1816 72.234H27.5449Z" fill="white"/>
<path d="M33.1386 72.234L31.9562 68.4824H32.6383L33.275 70.652L33.5024 71.4656C33.5024 71.4204 33.5933 71.1944 33.7298 70.6972L34.3665 68.5276H35.0486L35.6398 70.6972L35.8217 71.4204L36.0491 70.6972L36.7313 68.5276H37.3679L36.0946 72.2792H35.4124L34.8212 70.0644L34.6848 69.4316L33.8662 72.2792H33.1386V72.234Z" fill="white"/>
<path d="M38.232 71.5109H37.4589V72.2341H38.232V71.5109Z" fill="white"/>
<path d="M39.3689 72.2339V68.9796H38.7777V68.4824H39.3689V68.0756C39.3689 67.8044 39.4144 67.6236 39.4599 67.5332C39.5053 67.3524 39.6418 67.262 39.7782 67.1264C39.9601 67.036 40.142 66.9908 40.4604 66.9908C40.6423 66.9908 40.8696 66.9908 41.097 67.036L41.0061 67.5784C40.8696 67.5332 40.7332 67.5332 40.5968 67.5332C40.4149 67.5332 40.233 67.5784 40.1875 67.6688C40.0965 67.7592 40.0511 67.8948 40.0511 68.1208V68.4824H40.8242V68.9796H40.0511V72.2339H39.3689Z" fill="white"/>
<path d="M41.0972 71.104L41.7793 71.0136C41.8248 71.2848 41.9158 71.4656 42.0977 71.6012C42.2796 71.7368 42.507 71.782 42.7798 71.782C43.0982 71.782 43.3255 71.7368 43.462 71.6012C43.5984 71.4656 43.6894 71.33 43.6894 71.1944C43.6894 71.0588 43.6439 70.9232 43.5074 70.878C43.4165 70.8328 43.1891 70.7424 42.8253 70.6521C42.325 70.5165 42.0067 70.4261 41.8248 70.3357C41.6429 70.2453 41.5065 70.1097 41.4155 69.9741C41.3246 69.8385 41.2791 69.6577 41.2791 69.4769C41.2791 69.2961 41.3246 69.1605 41.4155 69.0249C41.5065 68.8893 41.5974 68.7537 41.7338 68.6633C41.8248 68.5729 41.9612 68.5277 42.1431 68.4825C42.325 68.4373 42.507 68.3921 42.7343 68.3921C43.0527 68.3921 43.3255 68.4373 43.5529 68.5277C43.7803 68.6181 43.9622 68.7085 44.0532 68.8893C44.1441 69.0249 44.2351 69.2509 44.2806 69.4769L43.6439 69.5673C43.5984 69.3865 43.5529 69.2057 43.371 69.1153C43.2346 69.0249 43.0527 68.9345 42.7798 68.9345C42.4615 68.9345 42.2796 68.9797 42.1431 69.0701C42.0067 69.1605 41.9612 69.2961 41.9612 69.3865C41.9612 69.4769 42.0067 69.5221 42.0522 69.6125C42.0977 69.6577 42.1886 69.7481 42.325 69.7933C42.3705 69.8385 42.5979 69.8837 42.9162 69.9741C43.371 70.1097 43.6894 70.2001 43.8713 70.2453C44.0532 70.3357 44.1896 70.4261 44.326 70.5617C44.417 70.6973 44.4625 70.878 44.4625 71.104C44.4625 71.33 44.417 71.5108 44.2806 71.6916C44.1441 71.8724 43.9622 72.008 43.7348 72.0984C43.5074 72.1888 43.2346 72.234 42.9162 72.234C42.416 72.234 42.0067 72.1436 41.7793 71.9176C41.37 71.782 41.1881 71.5108 41.0972 71.104Z" fill="white"/>
<path d="M47.6457 70.878L48.2824 70.9684C48.1914 71.3752 48.0095 71.7368 47.7366 71.9628C47.4638 72.1888 47.1 72.3244 46.6452 72.3244C46.0995 72.3244 45.6902 72.1436 45.3718 71.8272C45.0535 71.5108 44.8716 71.0136 44.8716 70.3808C44.8716 69.974 44.9625 69.6124 45.099 69.3412C45.2354 69.0248 45.4628 68.7989 45.7356 68.6633C46.0085 68.5277 46.3268 68.4373 46.6452 68.4373C47.0545 68.4373 47.4183 68.5277 47.6912 68.7536C47.964 68.9796 48.1459 69.2508 48.1914 69.6576L47.5547 69.748C47.5092 69.522 47.3728 69.296 47.2364 69.1604C47.1 69.0248 46.918 68.9796 46.6907 68.9796C46.3723 68.9796 46.0995 69.07 45.8721 69.296C45.6447 69.522 45.5537 69.8836 45.5537 70.3808C45.5537 70.878 45.6447 71.2396 45.8721 71.4656C46.054 71.6916 46.3268 71.8272 46.6452 71.8272C46.918 71.8272 47.1 71.7368 47.2819 71.6012C47.4638 71.4204 47.6002 71.1944 47.6457 70.878Z" fill="white"/>
<path d="M49.783 71.5109H49.0099V72.2341H49.783V71.5109Z" fill="white"/>
<path d="M51.0564 70.3356C51.0564 70.8328 51.1474 71.1944 51.3748 71.4204C51.6021 71.6464 51.875 71.782 52.1933 71.782C52.5117 71.782 52.7845 71.6464 53.0119 71.4204C53.2393 71.1944 53.3303 70.8328 53.3303 70.3356C53.3303 69.8836 53.2393 69.522 53.0119 69.296C52.7845 69.07 52.5117 68.9344 52.1933 68.9344C51.875 68.9344 51.6021 69.07 51.3748 69.296C51.1474 69.522 51.0564 69.8836 51.0564 70.3356ZM50.3743 70.3808C50.3743 69.7028 50.5562 69.1604 50.9655 68.844C51.2838 68.5729 51.6931 68.4373 52.1933 68.4373C52.7391 68.4373 53.1484 68.618 53.5122 68.9344C53.8305 69.2508 54.0124 69.748 54.0124 70.3356C54.0124 70.8328 53.9215 71.1944 53.785 71.4656C53.6486 71.7368 53.4212 71.9628 53.1029 72.0984C52.83 72.234 52.5117 72.3244 52.1479 72.3244C51.6021 72.3244 51.1474 72.1436 50.829 71.8272C50.5562 71.4656 50.3743 70.9684 50.3743 70.3808Z" fill="white"/>
<path d="M54.7856 72.234V68.4825H55.3769V69.0701C55.5133 68.7989 55.6498 68.6181 55.7862 68.5277C55.9226 68.4373 56.0591 68.3921 56.1955 68.3921C56.4229 68.3921 56.6503 68.4373 56.8777 68.6181L56.6503 69.2057C56.5139 69.1153 56.3319 69.0701 56.15 69.0701C56.0136 69.0701 55.8771 69.1153 55.7407 69.2057C55.6497 69.2961 55.5588 69.3865 55.5133 69.5673C55.4224 69.7933 55.4224 70.0193 55.4224 70.2904V72.234H54.7856Z" fill="white"/>
<path d="M57.6507 70.2904C57.6507 70.7876 57.7416 71.1492 57.969 71.3752C58.1509 71.6012 58.4238 71.6916 58.7421 71.6916C59.0604 71.6916 59.2878 71.6012 59.5152 71.3752C59.7426 71.1492 59.8335 70.7876 59.8335 70.3356C59.8335 69.8836 59.7426 69.522 59.5152 69.296C59.2878 69.07 59.0604 68.9344 58.7421 68.9344C58.4238 68.9344 58.1964 69.07 57.969 69.296C57.7416 69.522 57.6507 69.8384 57.6507 70.2904ZM57.1049 72.5503L57.7871 72.6407C57.8326 72.8215 57.878 72.9571 58.0145 73.0475C58.1964 73.1831 58.4238 73.2283 58.6966 73.2283C59.015 73.2283 59.2423 73.1831 59.4243 73.0475C59.6062 72.9119 59.6971 72.7763 59.7426 72.5503C59.7881 72.4148 59.7881 72.1436 59.7881 71.7368C59.5152 72.0532 59.1514 72.234 58.6966 72.234C58.1509 72.234 57.7416 72.0532 57.4233 71.6916C57.1049 71.33 56.9685 70.878 56.9685 70.3808C56.9685 70.0192 57.0595 69.7028 57.1504 69.3864C57.2868 69.07 57.4687 68.844 57.7416 68.7084C58.0145 68.5276 58.2873 68.4824 58.6511 68.4824C59.1059 68.4824 59.5152 68.6632 59.7881 69.0248V68.5728H60.3793V71.782C60.3793 72.3696 60.3338 72.7763 60.1974 73.0023C60.0609 73.2283 59.879 73.4543 59.6062 73.5899C59.3333 73.7255 59.015 73.8159 58.6057 73.8159C58.1509 73.8159 57.7416 73.7255 57.4688 73.4995C57.2414 73.2283 57.1049 72.9571 57.1049 72.5503Z" fill="white"/>
<path d="M40.9606 7.23753C29.0001 7.23753 24.8163 24.9104 20.8598 39.1482C19.45 37.7922 15.0842 33.6339 15.0842 33.6339C14.2202 32.8203 13.2197 33.0915 12.583 33.6339C11.9463 34.2215 11.8554 35.3063 12.583 35.9843C12.6285 36.0294 18.495 41.589 20.5414 43.5325C21.0872 44.0749 21.9057 44.3461 22.7243 43.8941C23.5884 43.3969 23.6793 42.5381 23.7248 42.5381C30.6828 12.7518 36.9131 10.5371 40.9606 10.5371C44.3713 10.5371 48.2824 12.9326 48.2824 17.7238C53.3758 17.7238 56.5592 24.0516 52.4662 27.984C55.877 29.566 57.3777 31.4643 57.3777 33.9051C57.3777 36.3458 55.2403 38.8318 52.1024 38.8318C49.01 38.8318 47.4183 36.9334 45.008 36.9334C43.9166 36.9334 43.2344 37.7922 43.2344 38.6058V44.6173H38.6867V38.651C38.6867 37.7018 37.9591 36.9786 37.0496 36.9786C37.0496 36.9786 36.6403 36.9786 36.6857 36.9786L30.5918 37.7018C29.8642 37.7922 29.1821 38.5606 29.1821 39.329C29.1821 40.233 29.9552 41.0014 31.0466 41.0014C31.183 41.0014 31.3649 41.0014 31.3649 41.0014L35.2305 40.5494V46.4705C35.2305 47.2389 36.14 47.9621 36.9131 47.9621H44.9625C45.9176 47.9621 46.7361 47.1937 46.7361 46.2897V40.8658C48.4188 41.8602 50.7836 42.2217 52.0115 42.2217C56.5592 42.2217 60.8795 38.8318 60.8795 33.8147C60.8795 29.2948 57.2413 27.0348 57.2413 27.0348C59.3787 21.6109 55.9225 16.413 51.4657 14.9666C49.8286 9.4071 44.8261 7.23753 40.9606 7.23753Z" fill="white"/>
<path d="M35.8217 54.561C35.8217 55.9622 37.4589 56.821 40.142 58.0414C42.2794 58.9905 43.5073 59.9849 43.5073 60.7985C43.5073 62.1093 42.0066 62.5613 40.6423 62.5613C38.5048 62.5613 37.2315 61.7477 36.5039 59.8945L36.4584 59.7589H36.322C35.9581 59.7589 35.6398 59.7589 35.4579 59.9849C35.3215 60.1657 35.3669 60.3917 35.4124 60.6629L35.8672 62.5613C36.0036 63.0133 36.1855 63.1037 36.9132 63.2393C37.2315 63.2845 39.0051 63.6009 40.4604 63.6009C44.5533 63.6009 46.4178 62.0189 46.4178 60.4369C46.4178 59.3069 45.2354 58.177 42.6432 56.9566L41.4608 56.4142C39.6873 55.6006 38.6413 55.1486 38.6413 54.2898C38.6413 53.4762 39.7327 52.8886 41.3244 52.8886C43.3709 52.8886 43.9166 53.9734 44.1895 54.9226L44.2349 55.1034H44.4168C44.8716 55.1034 45.1445 55.0582 45.3264 54.8774C45.4173 54.787 45.4628 54.6514 45.4628 54.4706L45.2809 52.8434C45.2354 52.3463 44.8261 52.2559 44.2349 52.1203C43.5528 51.9847 42.7342 51.8491 41.4608 51.8491C37.9591 51.9395 35.8217 52.9338 35.8217 54.561Z" fill="white"/>
<path d="M47.6456 57.8605C47.6456 60.7081 50.2378 63.5556 55.1493 63.5556C57.6505 63.5556 59.0603 63.0132 60.1063 62.4708L60.3792 62.3353L59.9244 61.8381L59.9699 61.8833C59.8789 61.7477 59.788 61.7025 59.6061 61.7025L59.3787 61.7929C59.0149 61.9737 57.8779 62.4708 55.786 62.4708C53.2393 62.4708 50.4652 60.8889 50.4652 57.4085C50.4652 54.109 53.4667 52.8886 55.9679 52.8886C57.787 52.8886 58.7875 53.5214 58.9694 54.787L59.0149 55.013H59.2422C59.4696 55.013 60.0608 55.013 60.0608 54.6062V52.6626C60.0608 52.2106 59.4696 52.1202 59.2422 52.075L59.0149 52.0298C58.4237 51.9394 57.8779 51.8942 56.3772 51.8942C51.3293 51.9394 47.6456 54.4254 47.6456 57.8605Z" fill="white"/>
<path d="M29.0912 52.0751L24.6345 52.1203L21.6785 52.0751H21.2237C20.9508 52.0751 20.7689 52.2559 20.7689 52.5271C20.7689 52.6627 20.7689 53.0243 21.2692 53.0243C23.0428 53.0243 23.1337 53.1599 23.1337 53.8379V54.2447L23.1792 56.0075V59.759C23.1792 60.3918 23.1792 61.3862 23.1337 62.1546C23.1337 62.3806 23.0882 62.6066 21.542 62.6066C21.0873 62.6066 20.8144 62.697 20.8144 63.1038C20.8144 63.2394 20.8144 63.5557 21.2237 63.5557H21.3146C21.4966 63.5557 21.9968 63.5105 24.498 63.5105C27.1357 63.5105 27.6814 63.5557 27.8178 63.5557H27.9088C28.2726 63.5557 28.5455 63.5106 28.5455 63.1038C28.5455 62.6518 28.1362 62.6066 27.454 62.6066C25.8623 62.6066 25.8623 62.3806 25.8623 62.1546C25.8169 61.4314 25.7714 60.437 25.7714 59.759C25.7714 59.759 25.7714 58.7646 25.7714 58.403C26.1352 58.403 27.0902 58.403 27.0902 58.403C29.1367 58.403 29.3641 58.4482 29.6369 59.9398C29.7279 60.2562 30.0007 60.3014 30.2281 60.3014C30.7284 60.3014 30.7738 60.0302 30.7738 59.9398L30.7284 59.3974C30.6829 59.081 30.6374 58.6742 30.6374 58.1318V55.8267C30.6374 55.4651 30.1826 55.4651 29.9553 55.4651C29.5914 55.4651 29.5005 55.6911 29.2276 56.7759C29.1367 57.1827 28.2726 57.4538 26.9083 57.4538C26.9083 57.4538 26.0442 57.4538 25.7259 57.4538C25.7259 57.0471 25.7259 54.0639 25.7259 54.0639C25.7259 53.1599 25.9078 53.1599 26.0897 53.1147C26.8628 53.0695 28.7729 53.0243 29.3186 53.0243C29.8643 53.0243 30.3645 53.1599 30.6829 53.3407C31.6834 53.9283 32.2291 54.3351 32.502 54.6063C32.8203 54.8323 33.0022 54.9679 33.2296 54.9679C33.366 54.9679 33.8208 54.9679 33.8208 54.6063C33.8208 54.5159 33.7753 54.4255 33.6389 54.1543C33.457 53.7927 33.1841 53.2503 32.8658 52.3463C32.7748 52.0751 32.411 52.0751 31.8198 52.0751H29.0912Z" fill="white"/>
<path d="M54.8766 11.1698H55.3768C55.6042 11.1698 55.7861 11.1246 55.8771 11.0794C55.968 10.989 56.0135 10.8986 56.0135 10.8082C56.0135 10.6726 55.968 10.5822 55.8771 10.537C55.7861 10.4918 55.6042 10.4466 55.3313 10.4466H54.8311V11.1698H54.8766ZM56.6502 12.6162H56.1499C55.8316 12.0286 55.6042 11.7122 55.5132 11.6218C55.4223 11.5314 55.2859 11.5314 55.1494 11.5314H54.922V12.6162H54.5127V10.085H55.4223C55.6951 10.085 55.8771 10.085 56.059 10.1302C56.1954 10.1754 56.3318 10.2658 56.4228 10.3562C56.5137 10.4918 56.5592 10.6274 56.5592 10.763C56.5592 10.9438 56.5137 11.0794 56.3773 11.2602C56.2409 11.3958 56.059 11.4862 55.8316 11.4862C55.968 11.5314 56.1954 11.7574 56.4228 12.119L56.6502 12.6162ZM55.5132 13.2942C56.059 13.2942 56.5137 13.1134 56.923 12.7066C57.3323 12.2998 57.5142 11.8478 57.5142 11.3054C57.5142 10.763 57.3323 10.311 56.923 9.90423C56.5137 9.49744 56.059 9.31664 55.5132 9.31664C54.9675 9.31664 54.4673 9.49744 54.1035 9.90423C53.6942 10.311 53.5123 10.763 53.5123 11.3054C53.5123 11.8478 53.6942 12.2998 54.1035 12.7066C54.5127 13.1134 54.9675 13.2942 55.5132 13.2942ZM55.5132 8.90985C56.1499 8.90985 56.7411 9.13585 57.1959 9.58784C57.6507 10.0398 57.9235 10.6274 57.9235 11.2602C57.9235 11.9382 57.6961 12.4806 57.2414 12.9326C56.7866 13.3846 56.1954 13.6106 55.5587 13.6106C54.8766 13.6106 54.3308 13.3846 53.8761 12.9326C53.4213 12.4806 53.1484 11.893 53.1484 11.2602C53.1484 10.6274 53.3758 10.0398 53.8761 9.58784C54.2854 9.18105 54.8766 8.95505 55.5132 8.90985Z" fill="white"/>
<path d="M54.8766 11.1698H55.3768C55.6042 11.1698 55.7861 11.1246 55.8771 11.0794C55.968 10.989 56.0135 10.8986 56.0135 10.8082C56.0135 10.6726 55.968 10.5822 55.8771 10.537C55.7861 10.4918 55.6042 10.4466 55.3313 10.4466H54.8311V11.1698H54.8766ZM56.6502 12.6162H56.1499C55.8316 12.0286 55.6042 11.7122 55.5132 11.6218C55.4223 11.5314 55.2859 11.5314 55.1494 11.5314H54.922V12.6162H54.5127V10.085H55.4223C55.6951 10.085 55.8771 10.085 56.059 10.1302C56.1954 10.1754 56.3318 10.2658 56.4228 10.3562C56.5137 10.4918 56.5592 10.6274 56.5592 10.763C56.5592 10.9438 56.5137 11.0794 56.3773 11.215C56.2409 11.3506 56.059 11.441 55.8316 11.441C55.968 11.4862 56.1954 11.7122 56.4228 12.0738L56.6502 12.6162ZM55.5132 13.2941C56.059 13.2941 56.5137 13.1133 56.923 12.7066C57.3323 12.2998 57.5142 11.8478 57.5142 11.3054C57.5142 10.763 57.3323 10.311 56.923 9.9042C56.5137 9.49741 56.059 9.31661 55.5132 9.31661C54.9675 9.31661 54.4673 9.49741 54.1035 9.9042C53.6942 10.311 53.5123 10.763 53.5123 11.3054C53.5123 11.8478 53.6942 12.2998 54.1035 12.7066C54.5127 13.1133 54.9675 13.2941 55.5132 13.2941ZM55.5132 8.95502C56.1499 8.95502 56.7411 9.18101 57.1959 9.63301C57.6507 10.085 57.9235 10.6726 57.9235 11.3054C57.9235 11.9834 57.6961 12.5258 57.2414 12.9777C56.7866 13.4297 56.1954 13.7009 55.5587 13.7009C54.8766 13.7009 54.3308 13.4749 53.8761 13.0229C53.4213 12.571 53.1484 11.9834 53.1484 11.3506C53.1484 10.7178 53.3758 10.1302 53.8761 9.67821C54.2854 9.18101 54.8766 8.95502 55.5132 8.95502Z" stroke="white" stroke-width="0.42"/>
<path d="M19.9959 80.5056H17.4492V81.9519H19.6321V82.4943H17.4492V84.6187H16.8125V79.9632H19.9959V80.5056Z" fill="white"/>
<path d="M19.9959 80.5056H17.4492V81.9519H19.6321V82.4943H17.4492V84.6187H16.8125V79.9632H19.9959V80.5056Z" stroke="white" stroke-width="0.42"/>
<path d="M23.8158 81.319C23.7703 81.0478 23.6794 80.8218 23.4975 80.641C23.3156 80.5054 23.0427 80.415 22.6789 80.415C22.3605 80.415 22.0877 80.4602 21.9058 80.5958C21.7239 80.7314 21.5874 80.867 21.5874 81.093C21.5874 81.2738 21.6784 81.4546 21.8148 81.545C21.9513 81.6354 22.2696 81.7258 22.6789 81.8614C23.0882 81.9518 23.361 82.0422 23.6339 82.1326C23.8613 82.223 24.0887 82.3586 24.2706 82.5394C24.4525 82.7202 24.5434 82.9914 24.5434 83.3078C24.5434 83.7146 24.407 84.031 24.0432 84.3021C23.7249 84.5733 23.3156 84.7089 22.7698 84.7089C22.1332 84.7089 21.6329 84.5733 21.3146 84.257C20.9962 83.9858 20.8143 83.579 20.8143 83.127L21.4055 83.0818C21.451 83.4434 21.5874 83.7146 21.8603 83.8954C22.1332 84.0762 22.4515 84.1665 22.8153 84.1665C23.1791 84.1665 23.452 84.0761 23.6339 83.9406C23.8613 83.805 23.9522 83.6242 23.9522 83.353C23.9522 83.0818 23.8613 82.901 23.6339 82.8106C23.4065 82.675 23.0427 82.5846 22.497 82.449C21.9513 82.3586 21.5874 82.1778 21.3601 81.9518C21.1327 81.7258 20.9962 81.4998 20.9962 81.1382C20.9962 80.7766 21.1327 80.4602 21.451 80.2342C21.7239 80.0082 22.1332 79.8726 22.6334 79.8726C23.1337 79.8726 23.5884 80.0082 23.8613 80.2342C24.1796 80.4602 24.3615 80.8218 24.3615 81.2738L23.8158 81.319Z" fill="white"/>
<path d="M23.8159 81.319C23.7704 81.0478 23.6794 80.8218 23.4975 80.641C23.3156 80.5054 23.0428 80.415 22.6789 80.415C22.3606 80.415 22.0877 80.4602 21.9058 80.5958C21.7239 80.7314 21.5875 80.867 21.5875 81.093C21.5875 81.2738 21.6784 81.4546 21.8149 81.545C21.9513 81.6354 22.2696 81.7258 22.6789 81.8614C23.0882 81.9518 23.3611 82.0422 23.634 82.1326C23.8613 82.223 24.0887 82.3586 24.2706 82.5394C24.4525 82.7202 24.5435 82.9914 24.5435 83.3078C24.5435 83.7146 24.4071 84.031 24.0432 84.3021C23.7249 84.5733 23.3156 84.7089 22.8154 84.7089C22.1787 84.7089 21.6784 84.5733 21.3601 84.257C21.0418 83.9858 20.8599 83.579 20.8599 83.127L21.4511 83.0818C21.4965 83.4434 21.633 83.7146 21.8604 83.8954C22.1332 84.0762 22.4516 84.1665 22.8154 84.1665C23.1792 84.1665 23.452 84.0761 23.634 83.9406C23.8613 83.805 23.9523 83.6242 23.9523 83.353C23.9523 83.0818 23.8613 82.901 23.634 82.8106C23.4066 82.675 23.0428 82.5846 22.497 82.449C21.9513 82.3586 21.5875 82.1778 21.3601 81.9518C21.1327 81.7258 20.9963 81.4998 20.9963 81.1382C20.9963 80.7766 21.1327 80.4602 21.4511 80.2342C21.7239 80.0082 22.1332 79.8726 22.6335 79.8726C23.1337 79.8726 23.5885 80.0082 23.8613 80.2342C24.1797 80.4602 24.3616 80.8218 24.3616 81.2738L23.8159 81.319Z" stroke="white" stroke-width="0.42"/>
<path d="M29.637 83.1269C29.5006 83.6693 29.2732 84.0309 28.9094 84.3021C28.591 84.5733 28.1817 84.6637 27.6815 84.7089C26.9084 84.7089 26.3627 84.4829 25.9988 83.9857C25.635 83.5337 25.4986 82.9461 25.4531 82.2681C25.4531 81.545 25.6805 80.9574 26.0898 80.5506C26.4991 80.1438 27.0448 79.9178 27.6815 79.9178C28.1363 79.9178 28.5456 80.0534 28.8639 80.2794C29.1822 80.5054 29.4096 80.8218 29.546 81.2738L28.9548 81.4094C28.8639 81.093 28.682 80.867 28.5001 80.6862C28.2727 80.5054 28.0453 80.4602 27.727 80.4602C27.2267 80.4602 26.8174 80.641 26.59 80.9574C26.3172 81.2738 26.1808 81.7258 26.1808 82.3133C26.1808 82.9461 26.3172 83.4433 26.59 83.7597C26.8629 84.0761 27.2267 84.2117 27.6815 84.2117C28.0453 84.2117 28.3636 84.1213 28.591 83.8953C28.8184 83.7145 29.0003 83.3981 29.0913 83.0365L29.637 83.1269Z" fill="white"/>
<path d="M29.637 83.1269C29.5006 83.6241 29.2732 84.0309 28.9094 84.3021C28.591 84.5733 28.1817 84.6637 27.6815 84.7089C26.9084 84.7089 26.3627 84.4829 25.9988 83.9857C25.635 83.5337 25.4986 82.9461 25.4531 82.2681C25.4531 81.545 25.6805 80.9574 26.0898 80.5506C26.4991 80.1438 27.0448 79.9178 27.6815 79.9178C28.1363 79.9178 28.5456 80.0534 28.8639 80.2794C29.1822 80.5054 29.4096 80.8218 29.546 81.2738L28.9548 81.4094C28.8639 81.093 28.682 80.867 28.5001 80.6862C28.2727 80.5054 28.0453 80.4602 27.727 80.4602C27.2267 80.4602 26.8174 80.641 26.59 80.9574C26.3172 81.2738 26.1808 81.7258 26.1808 82.3133C26.1808 82.9461 26.3172 83.4433 26.59 83.7597C26.8629 84.0761 27.2267 84.2117 27.6815 84.2117C28.0453 84.2117 28.3636 84.1213 28.591 83.8953C28.8184 83.7145 29.0003 83.3981 29.0913 82.9913L29.637 83.1269Z" stroke="white" stroke-width="0.42"/>
<path d="M31.5013 81.0931H31.7742C31.9106 81.0931 31.9561 81.0931 32.0016 81.0479C32.0471 81.0027 32.0925 80.9575 32.0925 80.9123C32.0925 80.8671 32.0925 80.8219 32.0471 80.7767C32.0016 80.7315 31.9106 80.7316 31.7742 80.7316H31.5468V81.0931H31.5013ZM32.4109 81.8163H32.138C32.0016 81.5451 31.8651 81.3643 31.8197 81.3191C31.7742 81.2739 31.7287 81.2739 31.6378 81.2739H31.5013V81.8163H31.3194V80.5507H31.7742C31.9106 80.5507 32.0016 80.5508 32.0925 80.596C32.1835 80.596 32.229 80.6412 32.2744 80.7316C32.3199 80.7767 32.3199 80.8671 32.3199 80.9123C32.3199 81.0027 32.2744 81.0931 32.229 81.1383C32.1835 81.2287 32.0925 81.2739 31.9561 81.2739C32.0471 81.2739 32.138 81.4095 32.2744 81.5903L32.4109 81.8163ZM31.8197 82.1327C32.0925 82.1327 32.3199 82.0423 32.5473 81.8615C32.7292 81.6807 32.8202 81.4095 32.8656 81.1383C32.8656 80.8671 32.7747 80.6411 32.5928 80.4604C32.4109 80.2796 32.138 80.1892 31.8651 80.1892C31.5923 80.1892 31.3649 80.2796 31.1375 80.4604C30.9101 80.6411 30.8647 80.8671 30.8647 81.1835C30.8647 81.4547 30.9556 81.6807 31.1375 81.8615C31.3194 82.0423 31.5468 82.1327 31.8197 82.1327ZM31.8197 79.9632C32.138 79.9632 32.4109 80.0988 32.6837 80.3248C32.9111 80.5507 33.0475 80.8219 33.0475 81.1835C33.0475 81.4999 32.9111 81.7711 32.6837 82.0423C32.4563 82.2683 32.1835 82.4039 31.8197 82.4039C31.5013 82.4039 31.183 82.2683 30.9556 82.0423C30.7282 81.8163 30.5918 81.5451 30.5918 81.1835C30.5918 80.8671 30.7282 80.5959 30.9556 80.3248C31.2285 80.0536 31.5013 79.9632 31.8197 79.9632Z" fill="white"/>
<path d="M31.5013 81.0931H31.7742C31.9106 81.0931 31.9561 81.0931 32.0016 81.0479C32.0471 81.0027 32.0471 80.9575 32.0471 80.9123C32.0471 80.8671 32.0471 80.8219 32.0016 80.7767C31.9561 80.7315 31.8651 80.7316 31.7287 80.7316H31.5013V81.0931ZM32.4109 81.8163H32.138C32.0016 81.5451 31.8651 81.3643 31.8197 81.3191C31.7742 81.2739 31.7287 81.2739 31.6378 81.2739H31.5013V81.8163H31.3194V80.5507H31.7742C31.9106 80.5507 32.0016 80.5508 32.0925 80.596C32.1835 80.596 32.229 80.6412 32.2744 80.7316C32.3199 80.7767 32.3199 80.8671 32.3199 80.9123C32.3199 81.0027 32.2744 81.0931 32.229 81.1383C32.1835 81.2287 32.0925 81.2287 31.9561 81.2739C32.0471 81.2739 32.138 81.4095 32.2744 81.5903L32.4109 81.8163ZM31.8197 82.1327C32.0925 82.1327 32.3199 82.0423 32.5473 81.8615C32.7292 81.6807 32.8202 81.4095 32.8656 81.1383C32.8656 80.8671 32.7747 80.6411 32.5928 80.4604C32.4109 80.2796 32.138 80.1892 31.8651 80.1892C31.5923 80.1892 31.3649 80.2796 31.1375 80.4604C30.9556 80.6411 30.8647 80.8671 30.8647 81.1835C30.8647 81.4547 30.9556 81.6807 31.1375 81.9067C31.3194 82.0423 31.5468 82.1327 31.8197 82.1327ZM31.8197 79.9632C32.138 79.9632 32.4109 80.0988 32.6837 80.3248C32.9111 80.5507 33.0475 80.8219 33.0475 81.1835C33.0475 81.4999 32.9111 81.7711 32.6837 82.0423C32.4563 82.2683 32.1835 82.4039 31.8197 82.4039C31.5013 82.4039 31.183 82.2683 30.9556 82.0423C30.7282 81.8163 30.5918 81.5451 30.5918 81.1835C30.5918 80.8219 30.7282 80.5959 30.9556 80.3248C31.2285 80.0536 31.5013 79.9632 31.8197 79.9632Z" stroke="white" stroke-width="0.21"/>
<path d="M40.4149 83.1269C40.2785 83.6693 40.0511 84.0309 39.6873 84.3021C39.369 84.5733 38.9597 84.6637 38.4594 84.7089C37.6863 84.7089 37.1406 84.4829 36.7768 83.9857C36.413 83.5337 36.2766 82.9461 36.2311 82.2681C36.2311 81.545 36.4585 80.9574 36.8678 80.5506C37.277 80.1438 37.8228 79.9178 38.4594 79.9178C38.9142 79.9178 39.3235 80.0534 39.6418 80.2794C39.9602 80.5054 40.1876 80.8218 40.324 81.2738L39.7328 81.4094C39.6418 81.093 39.4599 80.867 39.278 80.6862C39.0506 80.5054 38.8233 80.4602 38.5049 80.4602C38.0047 80.4602 37.5954 80.641 37.368 80.9574C37.0951 81.2738 36.9587 81.7258 36.9587 82.3133C36.9587 82.9461 37.0951 83.4433 37.368 83.7597C37.6409 84.0761 38.0047 84.2117 38.4594 84.2117C38.8233 84.2117 39.1416 84.1213 39.369 83.8953C39.5964 83.7145 39.7783 83.3981 39.8692 83.0365L40.4149 83.1269Z" fill="white"/>
<path d="M40.4149 83.1269C40.2785 83.6241 40.0511 84.0309 39.6873 84.3021C39.369 84.5733 38.9597 84.6637 38.4594 84.7089C37.6863 84.7089 37.1406 84.4829 36.7768 83.9857C36.413 83.5337 36.2766 82.9461 36.2311 82.2681C36.2311 81.545 36.4585 80.9574 36.8678 80.5506C37.277 80.1438 37.8228 79.9178 38.4594 79.9178C38.9142 79.9178 39.3235 80.0534 39.6418 80.2794C39.9602 80.5054 40.1876 80.8218 40.324 81.2738L39.7328 81.4094C39.6418 81.093 39.4599 80.867 39.278 80.6862C39.0506 80.5054 38.8233 80.4602 38.5049 80.4602C38.0047 80.4602 37.5954 80.641 37.368 80.9574C37.0951 81.2738 36.9587 81.7258 36.9587 82.3133C36.9587 82.9461 37.0951 83.4433 37.368 83.7597C37.6409 84.0761 38.0047 84.2117 38.4594 84.2117C38.8233 84.2117 39.1416 84.1213 39.369 83.8953C39.5964 83.7145 39.7783 83.3981 39.8692 82.9913L40.4149 83.1269Z" stroke="white" stroke-width="0.42"/>
<path d="M43.3711 84.6187H42.7799V81.0027C42.507 81.2739 42.0977 81.4999 41.6429 81.6807V81.1383C42.3251 80.8219 42.7344 80.4152 43.0073 79.9632H43.3711V84.6187Z" fill="white"/>
<path d="M43.3711 84.6187H42.7799V81.0027C42.507 81.2739 42.0977 81.4999 41.6429 81.6807V81.1383C42.3251 80.8219 42.7344 80.4152 43.0073 79.9632H43.3711V84.6187Z" stroke="white" stroke-width="0.42"/>
<path d="M46.5998 84.2119C46.9181 84.2119 47.1455 84.0763 47.282 83.7599C47.4184 83.4435 47.5093 82.9915 47.5093 82.3135C47.5093 81.8615 47.4639 81.4999 47.4184 81.2287C47.3274 80.9575 47.2365 80.7768 47.1 80.6412C46.9636 80.5056 46.7817 80.4604 46.5543 80.4604C46.236 80.4604 46.0086 80.596 45.8722 80.9123C45.7357 81.2287 45.6448 81.6807 45.6448 82.3587C45.6448 82.8107 45.6903 83.1723 45.7357 83.4435C45.8267 83.7147 45.9177 83.8955 46.0541 84.0311C46.236 84.1667 46.4179 84.2119 46.5998 84.2119ZM46.5998 79.9632C47.6003 79.9632 48.1005 80.7316 48.1005 82.3135C48.1005 83.1271 47.9641 83.7147 47.6912 84.0763C47.4184 84.4831 47.0546 84.6639 46.5543 84.6639C45.5538 84.6639 45.0536 83.8955 45.0536 82.3135C45.0536 81.4999 45.19 80.9123 45.4629 80.5507C45.7357 80.144 46.145 79.9632 46.5998 79.9632Z" fill="white"/>
<path d="M46.5998 84.2119C46.9181 84.2119 47.1455 84.0763 47.282 83.7599C47.4184 83.4435 47.5093 82.9915 47.5093 82.3135C47.5093 81.8615 47.4639 81.4999 47.4184 81.2287C47.3729 80.9575 47.2365 80.7768 47.1 80.6412C46.9636 80.5056 46.7817 80.4604 46.5543 80.4604C46.236 80.4604 46.0086 80.596 45.8722 80.9123C45.7357 81.2287 45.6448 81.6807 45.6448 82.3587C45.6448 82.8107 45.6903 83.1723 45.7357 83.4435C45.7812 83.7147 45.9177 83.8955 46.0541 84.0311C46.236 84.1667 46.4179 84.2119 46.5998 84.2119ZM46.5998 79.9632C47.6003 79.9632 48.1005 80.7316 48.1005 82.3135C48.1005 83.1271 47.9641 83.7147 47.6912 84.0763C47.4184 84.4831 47.0546 84.6639 46.5543 84.6639C45.5538 84.6639 45.0536 83.8955 45.0536 82.3135C45.0536 81.4999 45.19 80.9123 45.4629 80.5507C45.7357 80.144 46.145 79.9632 46.5998 79.9632Z" stroke="white" stroke-width="0.42"/>
<path d="M51.1476 84.6187H50.5564V81.0027C50.2835 81.2739 49.8742 81.4999 49.4194 81.6807V81.1383C50.1016 80.8219 50.5109 80.4152 50.7837 79.9632H51.1476V84.6187Z" fill="white"/>
<path d="M51.1476 84.6187H50.5564V81.0027C50.2835 81.2739 49.8742 81.4999 49.4194 81.6807V81.1383C50.1016 80.8219 50.5109 80.4152 50.7837 79.9632H51.1476V84.6187Z" stroke="white" stroke-width="0.42"/>
<path d="M54.3764 84.2117C54.6493 84.2117 54.8767 84.1213 55.0586 83.9405C55.2405 83.7597 55.3314 83.5337 55.3314 83.2625C55.3314 82.9913 55.2405 82.7653 55.0586 82.5845C54.8767 82.4037 54.6493 82.3133 54.3764 82.3133C54.1035 82.3133 53.8762 82.4037 53.6942 82.5845C53.5123 82.7653 53.4214 82.9913 53.4214 83.2625C53.4214 83.5337 53.5123 83.7597 53.6942 83.9405C53.8762 84.1213 54.1035 84.2117 54.3764 84.2117ZM54.3764 81.8614C54.6038 81.8614 54.7857 81.771 54.9221 81.6806C55.0586 81.545 55.1495 81.3642 55.1495 81.1834C55.1495 80.9574 55.0586 80.7766 54.9221 80.641C54.7857 80.5054 54.6038 80.415 54.3764 80.415C54.149 80.415 53.9671 80.5054 53.8307 80.641C53.6943 80.7766 53.6033 80.9574 53.6033 81.1382C53.6033 81.3642 53.6943 81.545 53.8307 81.6806C53.9671 81.8162 54.149 81.8614 54.3764 81.8614ZM55.0586 82.0874C55.6498 82.2681 55.9226 82.6749 55.9226 83.2625C55.9226 83.6693 55.7862 83.9857 55.5133 84.2569C55.2405 84.5281 54.8767 84.6637 54.4219 84.6637C53.9671 84.6637 53.6033 84.5281 53.3304 84.2569C53.0576 83.9857 52.9211 83.6693 52.9211 83.2625C52.9211 82.9913 53.0121 82.7201 53.1485 82.4941C53.285 82.2681 53.5123 82.1326 53.7852 82.0874C53.3304 81.9518 53.1031 81.6354 53.1031 81.1382C53.1031 80.7766 53.2395 80.5054 53.4669 80.2794C53.6942 80.0534 54.0126 79.9178 54.4219 79.9178C54.8312 79.9178 55.1495 80.0534 55.4224 80.2794C55.6498 80.5054 55.7862 80.7766 55.7862 81.1382C55.7407 81.6354 55.5133 81.9066 55.0586 82.0874Z" fill="white"/>
<path d="M54.3764 84.2117C54.6493 84.2117 54.8767 84.1213 55.0586 83.9405C55.2405 83.7597 55.3314 83.5337 55.3314 83.2625C55.3314 82.9913 55.2405 82.7653 55.0586 82.5845C54.8767 82.4037 54.6493 82.3133 54.3764 82.3133C54.1035 82.3133 53.8762 82.4037 53.6942 82.5845C53.5123 82.7653 53.4214 82.9913 53.4214 83.2625C53.4214 83.5337 53.5123 83.7597 53.6942 83.9405C53.8762 84.1213 54.1035 84.2117 54.3764 84.2117ZM54.3764 81.8614C54.6038 81.8614 54.7857 81.771 54.9221 81.6806C55.0586 81.545 55.1495 81.3642 55.1495 81.1834C55.1495 80.9574 55.0586 80.7766 54.9221 80.641C54.7857 80.5054 54.6038 80.415 54.3764 80.415C54.149 80.415 53.9671 80.5054 53.8307 80.641C53.6943 80.7766 53.6033 80.9574 53.6033 81.1382C53.6033 81.3642 53.6943 81.545 53.8307 81.6806C53.9671 81.8162 54.149 81.8614 54.3764 81.8614ZM55.0586 82.0874C55.6498 82.2681 55.9226 82.6749 55.9226 83.2625C55.9226 83.6693 55.7862 83.9857 55.5133 84.2569C55.2405 84.5281 54.8767 84.6637 54.4219 84.6637C53.9671 84.6637 53.6033 84.5281 53.3304 84.2569C53.0576 83.9857 52.9211 83.6693 52.9211 83.2625C52.9211 82.9913 53.0121 82.7201 53.1485 82.4941C53.285 82.2681 53.5123 82.1326 53.7852 82.0874C53.3304 81.9518 53.1031 81.6354 53.1031 81.1382C53.1031 80.7766 53.2395 80.5054 53.4669 80.2794C53.6942 80.0534 54.0126 79.9178 54.4219 79.9178C54.8312 79.9178 55.1495 80.0534 55.4224 80.2794C55.6498 80.5054 55.7862 80.7766 55.7862 81.1382C55.7407 81.6354 55.5133 81.9066 55.0586 82.0874Z" stroke="white" stroke-width="0.42"/>
<path d="M58.2874 84.2117C58.5602 84.2117 58.7876 84.1213 58.9695 83.9405C59.1514 83.7597 59.2424 83.5337 59.2424 83.2625C59.2424 82.9913 59.1514 82.7653 58.9695 82.5845C58.7876 82.4037 58.5602 82.3133 58.2874 82.3133C58.0145 82.3133 57.7871 82.4037 57.6052 82.5845C57.4233 82.7653 57.3323 82.9913 57.3323 83.2625C57.3323 83.5337 57.4233 83.7597 57.6052 83.9405C57.7416 84.1213 57.969 84.2117 58.2874 84.2117ZM58.2874 81.8614C58.5147 81.8614 58.6967 81.771 58.8331 81.6806C58.9695 81.545 59.0605 81.3642 59.0605 81.1834C59.0605 80.9574 58.9695 80.7766 58.8331 80.641C58.6967 80.5054 58.5147 80.415 58.2874 80.415C58.06 80.415 57.8781 80.5054 57.7416 80.641C57.6052 80.7766 57.5143 80.9574 57.5143 81.1382C57.5143 81.3642 57.6052 81.545 57.7416 81.6806C57.8781 81.8162 58.06 81.8614 58.2874 81.8614ZM58.924 82.0874C59.5152 82.2681 59.7881 82.6749 59.7881 83.2625C59.7881 83.6693 59.6517 83.9857 59.3788 84.2569C59.1059 84.5281 58.7421 84.6637 58.2874 84.6637C57.8326 84.6637 57.4688 84.5281 57.1959 84.2569C56.9231 83.9857 56.7866 83.6693 56.7866 83.2625C56.7866 82.9913 56.8776 82.7201 57.014 82.4941C57.1959 82.2681 57.3778 82.1326 57.6507 82.0874C57.1959 81.9518 56.9685 81.6354 56.9685 81.1382C56.9685 80.7766 57.105 80.5054 57.3323 80.2794C57.5597 80.0534 57.9235 79.9178 58.2874 79.9178C58.6967 79.9178 59.015 80.0534 59.2879 80.2794C59.5152 80.5054 59.6517 80.7766 59.6517 81.1382C59.6062 81.6354 59.3788 81.9066 58.924 82.0874Z" fill="white"/>
<path d="M58.2874 84.2117C58.5602 84.2117 58.7876 84.1213 58.9695 83.9405C59.1514 83.7597 59.2424 83.5337 59.2424 83.2625C59.2424 82.9913 59.1514 82.7653 58.9695 82.5845C58.7876 82.4037 58.5602 82.3133 58.2874 82.3133C58.0145 82.3133 57.7871 82.4037 57.6052 82.5845C57.4233 82.7653 57.3323 82.9913 57.3323 83.2625C57.3323 83.5337 57.4233 83.7597 57.6052 83.9405C57.7416 84.1213 57.969 84.2117 58.2874 84.2117ZM58.2874 81.8614C58.5147 81.8614 58.6967 81.771 58.8331 81.6806C58.9695 81.545 59.0605 81.3642 59.0605 81.1834C59.0605 80.9574 58.9695 80.7766 58.8331 80.641C58.6967 80.5054 58.5147 80.415 58.2874 80.415C58.06 80.415 57.8781 80.5054 57.7416 80.641C57.6052 80.7766 57.5143 80.9574 57.5143 81.1382C57.5143 81.3642 57.6052 81.545 57.7416 81.6806C57.8781 81.8162 58.06 81.8614 58.2874 81.8614ZM58.924 82.0874C59.5152 82.2681 59.7881 82.6749 59.7881 83.2625C59.7881 83.6693 59.6517 83.9857 59.3788 84.2569C59.1059 84.5281 58.7421 84.6637 58.2874 84.6637C57.8326 84.6637 57.4688 84.5281 57.1959 84.2569C56.9231 83.9857 56.7866 83.6693 56.7866 83.2625C56.7866 82.9913 56.8776 82.7201 57.014 82.4941C57.1959 82.2681 57.3778 82.1326 57.6507 82.0874C57.1959 81.9518 56.9685 81.6354 56.9685 81.1382C56.9685 80.7766 57.105 80.5054 57.3323 80.2794C57.5597 80.0534 57.9235 79.9178 58.2874 79.9178C58.6967 79.9178 59.015 80.0534 59.2879 80.2794C59.5152 80.5054 59.6517 80.7766 59.6517 81.1382C59.6062 81.6354 59.3788 81.9066 58.924 82.0874Z" stroke="white" stroke-width="0.42"/>
<path d="M61.3799 81.8162C61.6527 81.6354 61.9711 81.545 62.2894 81.545C62.6987 81.545 63.017 81.6806 63.2899 81.9518C63.5627 82.223 63.7447 82.5846 63.7447 83.0366C63.7447 83.4886 63.6082 83.8954 63.2899 84.2118C63.017 84.5282 62.6077 84.709 62.153 84.709C61.7437 84.709 61.4253 84.6186 61.1525 84.3926C60.8796 84.1666 60.6977 83.8502 60.6522 83.4434L61.2434 83.3982C61.2889 83.6694 61.3799 83.8954 61.5618 84.031C61.6982 84.1666 61.9256 84.257 62.153 84.257C62.4258 84.257 62.6987 84.1666 62.8806 83.9406C63.0625 83.7146 63.1535 83.4434 63.1535 83.127C63.1535 82.8106 63.0625 82.5394 62.8806 82.3586C62.6987 82.1778 62.4713 82.0874 62.153 82.0874C61.7891 82.0874 61.5163 82.223 61.2889 82.5394L60.7432 82.4942L61.1979 80.0987H63.5173V80.6411H61.6527L61.3799 81.8162Z" fill="white"/>
<path d="M61.3797 81.8162C61.6525 81.6354 61.9709 81.545 62.2437 81.545C62.653 81.545 62.9714 81.6806 63.2442 81.9518C63.5171 82.223 63.699 82.5846 63.699 83.0366C63.699 83.4886 63.5626 83.8954 63.2442 84.2118C62.9714 84.5282 62.5621 84.709 62.1073 84.709C61.698 84.709 61.3797 84.6186 61.1068 84.3926C60.834 84.1666 60.652 83.8502 60.6066 83.4434L61.1978 83.3982C61.2432 83.6694 61.3342 83.8954 61.5161 84.031C61.6525 84.1666 61.8799 84.257 62.1073 84.257C62.3802 84.257 62.653 84.1666 62.8349 83.9406C63.0168 83.7146 63.1078 83.4434 63.1078 83.127C63.1078 82.8106 63.0168 82.5394 62.8349 82.3586C62.653 82.1778 62.4256 82.0874 62.1073 82.0874C61.7435 82.0874 61.4706 82.223 61.2432 82.5394L60.6975 82.4942L61.1523 80.0987H63.4716V80.6411H61.6071L61.3797 81.8162Z" stroke="white" stroke-width="0.42"/>
<path d="M12.1737 101.523C11.8099 100.529 11.5825 99.9411 11.537 99.8055C11.4916 99.6699 11.4461 99.4891 11.3551 99.2631C11.3096 99.5795 11.2187 99.8507 11.1277 100.122L10.582 101.523H12.1737ZM13.5835 103.376H12.9013L12.3556 101.975H10.4001L9.89986 103.376H9.26318L11.0368 98.7659H11.7189L13.5835 103.376Z" fill="white"/>
<path d="M12.1737 101.523C11.8099 100.529 11.5825 99.9411 11.537 99.8055C11.4916 99.6699 11.4461 99.4891 11.3551 99.2631C11.3096 99.5795 11.2187 99.8507 11.1277 100.122L10.6275 101.523H12.1737ZM13.5835 103.376H12.9013L12.3556 101.975H10.4001L9.89986 103.376H9.26318L11.0368 98.7659H11.7189L13.5835 103.376Z" stroke="white" stroke-width="0.42"/>
<path d="M20.9053 103.376H20.3141V101.252C20.3141 101.116 20.3141 100.981 20.2686 100.845C20.2686 100.755 20.1777 100.619 20.0867 100.574C19.9958 100.484 19.8593 100.438 19.6774 100.438C19.45 100.438 19.2681 100.529 19.0862 100.664C18.9043 100.8 18.8588 101.071 18.8588 101.433V103.376H18.2676V101.207C18.2676 100.936 18.2222 100.71 18.1312 100.619C18.0403 100.529 17.9038 100.438 17.6764 100.438C17.4491 100.438 17.2217 100.529 17.0852 100.71C16.9488 100.89 16.8579 101.207 16.8579 101.659V103.376H16.3121V100.032H16.8124V100.484C17.0398 100.122 17.3581 99.9412 17.8129 99.9412C18.0403 99.9412 18.2676 99.9864 18.4041 100.077C18.5405 100.167 18.6769 100.303 18.7679 100.529C19.0407 100.122 19.3591 99.9412 19.8139 99.9412C20.1777 99.9412 20.4051 100.032 20.587 100.212C20.7689 100.393 20.8598 100.664 20.8598 101.071V103.376H20.9053Z" fill="white"/>
<path d="M20.9053 103.376H20.3141V101.252C20.3141 101.116 20.3141 100.981 20.2686 100.845C20.2686 100.755 20.1777 100.619 20.0867 100.574C19.9958 100.484 19.8593 100.438 19.6774 100.438C19.45 100.438 19.2681 100.529 19.0862 100.664C18.9043 100.8 18.8588 101.071 18.8588 101.433V103.376H18.2676V101.207C18.2676 100.936 18.2222 100.71 18.1312 100.619C18.0403 100.529 17.9038 100.438 17.6764 100.438C17.4491 100.438 17.2217 100.529 17.0852 100.71C16.9488 100.89 16.8579 101.207 16.8579 101.659V103.376H16.3121V100.032H16.8124V100.484C17.0398 100.122 17.3581 99.9412 17.8129 99.9412C18.0403 99.9412 18.2676 99.9864 18.4041 100.077C18.5405 100.167 18.6769 100.303 18.7679 100.529C19.0407 100.122 19.3591 99.9412 19.8139 99.9412C20.1777 99.9412 20.4051 100.032 20.587 100.212C20.7689 100.393 20.8598 100.664 20.8598 101.071V103.376H20.9053Z" stroke="white" stroke-width="0.42"/>
<path d="M24.2251 101.93V101.704C23.9068 101.794 23.5429 101.885 23.1336 101.93C22.6789 101.975 22.497 102.156 22.497 102.472C22.497 102.608 22.5424 102.744 22.6789 102.834C22.8153 102.924 22.9517 102.97 23.1791 102.97C23.452 102.97 23.7248 102.879 23.9068 102.698C24.0887 102.608 24.1796 102.337 24.2251 101.93ZM24.9527 103.376H24.3615C24.316 103.286 24.2706 103.15 24.2251 102.97C23.8613 103.286 23.4065 103.467 22.9972 103.467C22.6334 103.467 22.3605 103.376 22.1332 103.196C21.9058 103.015 21.8148 102.789 21.8148 102.518C21.8148 102.246 21.9058 102.02 22.1332 101.84C22.3151 101.659 22.6789 101.523 23.1791 101.478L23.7248 101.388C23.9068 101.342 24.0887 101.297 24.2251 101.252C24.2251 101.071 24.2251 100.981 24.2251 100.89C24.2251 100.8 24.1796 100.755 24.1341 100.664C24.0887 100.574 23.9977 100.529 23.8613 100.484C23.7248 100.438 23.5884 100.393 23.4065 100.393C23.1791 100.393 22.9517 100.438 22.8153 100.529C22.6789 100.619 22.5879 100.8 22.5425 101.026L21.9967 100.936C22.0422 100.574 22.2241 100.348 22.4515 100.167C22.7244 99.9864 23.0427 99.896 23.4975 99.896C23.9068 99.896 24.1796 99.9412 24.407 100.077C24.5889 100.212 24.7253 100.348 24.7708 100.529C24.8163 100.71 24.8163 100.936 24.8163 101.162V101.93C24.8163 102.382 24.8163 102.698 24.8618 102.879C24.8163 103.105 24.8618 103.241 24.9527 103.376Z" fill="white"/>
<path d="M24.2251 101.93V101.704C23.9068 101.794 23.5429 101.885 23.1336 101.93C22.6789 101.975 22.497 102.156 22.497 102.472C22.497 102.608 22.5424 102.744 22.6789 102.834C22.8153 102.924 22.9517 102.97 23.1791 102.97C23.452 102.97 23.7248 102.879 23.9068 102.698C24.0887 102.608 24.2251 102.337 24.2251 101.93ZM24.9527 103.376H24.3615C24.316 103.286 24.2706 103.15 24.2251 102.97C23.8613 103.286 23.4065 103.467 22.9972 103.467C22.6334 103.467 22.3605 103.376 22.1332 103.196C21.9058 103.015 21.8148 102.789 21.8148 102.518C21.8148 102.246 21.9058 102.02 22.1332 101.84C22.3151 101.659 22.6789 101.523 23.1791 101.478L23.7248 101.388C23.9068 101.342 24.0887 101.297 24.2251 101.252C24.2251 101.071 24.2251 100.981 24.2251 100.89C24.2251 100.8 24.1796 100.755 24.1341 100.664C24.0887 100.574 23.9977 100.529 23.8613 100.484C23.7248 100.438 23.5884 100.393 23.4065 100.393C23.1791 100.393 22.9517 100.438 22.8153 100.529C22.6789 100.619 22.5879 100.8 22.5425 101.026L21.9967 100.936C22.0422 100.574 22.2241 100.348 22.4515 100.167C22.7244 99.9864 23.0427 99.896 23.4975 99.896C23.9068 99.896 24.1796 99.9412 24.407 100.077C24.5889 100.212 24.7253 100.348 24.7708 100.529C24.8163 100.71 24.8163 100.936 24.8163 101.162V101.93C24.8163 102.382 24.8163 102.698 24.8618 102.879C24.8163 103.105 24.8618 103.241 24.9527 103.376Z" stroke="white" stroke-width="0.42"/>
<path d="M27.7269 100.167L27.545 100.71C27.4085 100.619 27.2721 100.574 27.1357 100.574C26.9083 100.574 26.7718 100.664 26.6354 100.845C26.5445 101.026 26.4535 101.297 26.4535 101.659V103.422H25.8623V100.032H26.3625V100.529C26.5445 100.122 26.7718 99.9412 27.0902 99.9412C27.363 99.9864 27.5449 100.032 27.7269 100.167Z" fill="white"/>
<path d="M27.7269 100.167L27.545 100.71C27.4085 100.619 27.2721 100.574 27.1357 100.574C26.9083 100.574 26.7718 100.664 26.6354 100.845C26.5445 101.026 26.4535 101.297 26.4535 101.659V103.422H25.8623V100.032H26.3625V100.529C26.5445 100.122 26.7718 99.9412 27.0902 99.9412C27.363 99.9864 27.5449 100.032 27.7269 100.167Z" stroke="white" stroke-width="0.42"/>
<path d="M31.0924 102.246C31.0014 102.653 30.865 102.969 30.5921 103.195C30.3192 103.376 30.0464 103.512 29.6826 103.512C29.1823 103.512 28.8185 103.331 28.5456 103.015C28.2728 102.698 28.1364 102.291 28.1364 101.749C28.1364 101.297 28.2273 100.981 28.3637 100.71C28.5002 100.438 28.7276 100.258 28.9549 100.167C29.1823 100.077 29.4552 99.9863 29.6826 99.9863C30.0464 99.9863 30.3192 100.077 30.5921 100.258C30.8195 100.438 31.0014 100.71 31.0469 101.026L30.5012 101.116C30.4557 100.89 30.3647 100.71 30.2283 100.619C30.0919 100.529 29.9554 100.438 29.728 100.438C29.4097 100.438 29.1823 100.574 29.0004 100.755C28.8185 100.981 28.773 101.297 28.773 101.704C28.773 102.111 28.864 102.427 29.0004 102.653C29.1368 102.879 29.4097 102.969 29.6826 102.969C29.91 102.969 30.1373 102.879 30.2738 102.743C30.4102 102.608 30.5012 102.382 30.5466 102.111L31.0924 102.246Z" fill="white"/>
<path d="M31.0924 102.246C31.0014 102.653 30.865 102.969 30.5921 103.195C30.3192 103.376 30.0464 103.512 29.6826 103.512C29.1823 103.512 28.8185 103.331 28.5456 103.015C28.2728 102.698 28.1364 102.291 28.1364 101.749C28.1364 101.297 28.2273 100.981 28.3637 100.71C28.5002 100.438 28.7276 100.258 28.9549 100.167C29.1823 100.077 29.4552 99.9863 29.6826 99.9863C30.0464 99.9863 30.3192 100.077 30.5921 100.258C30.8195 100.438 31.0014 100.71 31.0469 101.026L30.5012 101.116C30.4557 100.89 30.3647 100.71 30.2283 100.619C30.0919 100.529 29.9554 100.438 29.728 100.438C29.4097 100.438 29.1823 100.529 29.0004 100.755C28.8185 100.981 28.773 101.297 28.773 101.704C28.773 102.111 28.864 102.427 29.0004 102.653C29.1823 102.879 29.4097 102.969 29.6826 102.969C29.91 102.969 30.1373 102.879 30.2738 102.743C30.4102 102.608 30.5012 102.382 30.5466 102.111L31.0924 102.246Z" stroke="white" stroke-width="0.42"/>
<path d="M34.0483 101.93V101.704C33.73 101.794 33.3662 101.885 32.9569 101.93C32.5021 101.975 32.3202 102.156 32.3202 102.472C32.3202 102.608 32.3657 102.744 32.5021 102.834C32.6386 102.924 32.775 102.97 33.0024 102.97C33.2752 102.97 33.5481 102.879 33.73 102.698C33.9119 102.608 34.0483 102.337 34.0483 101.93ZM34.776 103.376H34.1848C34.1393 103.286 34.0938 103.15 34.0483 102.97C33.6845 103.286 33.2298 103.467 32.8205 103.467C32.4566 103.467 32.1838 103.376 31.9564 103.196C31.729 103.015 31.6381 102.789 31.6381 102.518C31.6381 102.246 31.729 102.02 31.9109 101.84C32.0928 101.659 32.4566 101.523 32.9569 101.478L33.5026 101.388C33.6845 101.342 33.8664 101.297 34.0029 101.252C34.0029 101.071 34.0029 100.981 34.0029 100.89C34.0029 100.8 33.9574 100.755 33.9119 100.664C33.8664 100.574 33.7755 100.529 33.639 100.484C33.5026 100.438 33.3662 100.393 33.1843 100.393C32.9569 100.393 32.7295 100.438 32.5931 100.529C32.4566 100.619 32.3657 100.8 32.2747 101.026L31.729 100.936C31.7745 100.574 31.9564 100.348 32.1838 100.167C32.4566 99.9864 32.775 99.896 33.2298 99.896C33.639 99.896 33.9119 99.9412 34.1393 100.077C34.3212 100.212 34.4576 100.348 34.5031 100.529C34.5486 100.71 34.5486 100.936 34.5486 101.162V101.93C34.5486 102.382 34.5486 102.698 34.5941 102.879C34.6395 103.105 34.685 103.241 34.776 103.376Z" fill="white"/>
<path d="M34.0483 101.93V101.704C33.73 101.794 33.3662 101.885 32.9569 101.93C32.5021 101.975 32.3202 102.156 32.3202 102.472C32.3202 102.608 32.3657 102.744 32.5021 102.834C32.6386 102.924 32.775 102.97 33.0024 102.97C33.2752 102.97 33.5481 102.879 33.73 102.698C33.9119 102.608 34.0483 102.337 34.0483 101.93ZM34.776 103.376H34.1848C34.1393 103.286 34.0938 103.15 34.0483 102.97C33.6845 103.286 33.2298 103.467 32.8205 103.467C32.4566 103.467 32.1838 103.376 31.9564 103.196C31.729 103.015 31.6381 102.789 31.6381 102.518C31.6381 102.246 31.729 102.02 31.9109 101.84C32.0928 101.659 32.4566 101.523 32.9569 101.478L33.5026 101.388C33.6845 101.342 33.8664 101.297 34.0029 101.252C34.0029 101.071 34.0029 100.981 34.0029 100.89C34.0029 100.8 33.9574 100.755 33.9119 100.664C33.8664 100.574 33.7755 100.529 33.639 100.484C33.5026 100.438 33.3662 100.393 33.1843 100.393C32.9569 100.393 32.7295 100.438 32.5931 100.529C32.4566 100.619 32.3657 100.8 32.2747 101.026L31.729 100.936C31.7745 100.574 31.9564 100.348 32.1838 100.167C32.4566 99.9864 32.775 99.896 33.2298 99.896C33.639 99.896 33.9119 99.9412 34.1393 100.077C34.3212 100.212 34.4576 100.348 34.5031 100.529C34.5486 100.71 34.5486 100.936 34.5486 101.162V101.93C34.5486 102.382 34.5486 102.698 34.5941 102.879C34.6395 103.105 34.685 103.241 34.776 103.376Z" stroke="white" stroke-width="0.42"/>
<path d="M39.1415 103.015C39.4144 103.015 39.5963 102.924 39.7782 102.698C39.9601 102.472 40.0511 102.201 40.0511 101.749C40.0511 101.342 39.9601 101.026 39.8237 100.755C39.6418 100.529 39.4144 100.393 39.1415 100.393C38.8687 100.393 38.6413 100.529 38.4594 100.755C38.323 100.981 38.232 101.297 38.232 101.704C38.232 101.975 38.2775 102.201 38.3684 102.427C38.4594 102.608 38.5504 102.743 38.7323 102.879C38.8232 102.969 38.9596 103.015 39.1415 103.015ZM40.5513 103.376H40.0056V102.969C39.7782 103.286 39.5054 103.467 39.0506 103.467C38.6413 103.467 38.2775 103.286 38.0046 102.969C37.7318 102.653 37.5953 102.246 37.5953 101.704C37.5953 101.161 37.7318 100.755 38.0046 100.438C38.2775 100.122 38.5958 99.9863 39.0506 99.9863C39.4599 99.9863 39.7782 100.122 39.9601 100.438V98.7659H40.5513V103.376Z" fill="white"/>
<path d="M39.1415 103.015C39.4144 103.015 39.5963 102.924 39.7782 102.698C39.9601 102.472 40.0511 102.201 40.0511 101.749C40.0511 101.342 39.9601 101.026 39.8237 100.755C39.6418 100.529 39.4144 100.393 39.1415 100.393C38.8232 100.393 38.6413 100.529 38.4594 100.755C38.323 100.981 38.232 101.297 38.232 101.704C38.232 101.975 38.2775 102.201 38.3684 102.427C38.4594 102.608 38.5504 102.743 38.7323 102.879C38.8232 102.969 38.9596 103.015 39.1415 103.015ZM40.5513 103.376H40.0056V102.969C39.7782 103.286 39.5054 103.467 39.0506 103.467C38.6413 103.467 38.2775 103.286 38.0046 102.969C37.7318 102.653 37.5953 102.246 37.5953 101.704C37.5953 101.161 37.7318 100.755 38.0046 100.438C38.2775 100.122 38.5958 99.9863 39.0506 99.9863C39.4599 99.9863 39.7782 100.122 39.9601 100.438V98.7659H40.5513V103.376Z" stroke="white" stroke-width="0.42"/>
<path d="M43.0526 103.015C43.3709 103.015 43.6438 102.879 43.7802 102.653C43.9621 102.427 44.0531 102.111 44.0531 101.704C44.0531 101.297 43.9621 100.981 43.7802 100.755C43.5983 100.529 43.3709 100.438 43.0526 100.438C42.7797 100.438 42.5068 100.529 42.3249 100.755C42.143 100.981 42.0521 101.297 42.0521 101.704C42.0521 102.111 42.143 102.427 42.3249 102.653C42.5523 102.879 42.7797 103.015 43.0526 103.015ZM43.0526 99.9863C43.5073 99.9863 43.8711 100.122 44.1895 100.438C44.5078 100.71 44.6443 101.162 44.6443 101.704C44.6443 102.382 44.4623 102.834 44.144 103.105C43.8257 103.376 43.4619 103.512 43.0526 103.512C42.6433 103.512 42.234 103.376 41.9611 103.105C41.6428 102.834 41.5063 102.382 41.5063 101.794C41.5063 101.207 41.6428 100.755 41.9611 100.484C42.234 100.122 42.5978 99.9863 43.0526 99.9863Z" fill="white"/>
<path d="M43.0526 103.015C43.3709 103.015 43.6438 102.879 43.7802 102.653C43.9621 102.427 44.0531 102.111 44.0531 101.704C44.0531 101.297 43.9621 100.981 43.7802 100.755C43.5983 100.529 43.3709 100.438 43.0526 100.438C42.7797 100.438 42.5068 100.529 42.3249 100.755C42.143 100.981 42.0521 101.297 42.0521 101.704C42.0521 102.111 42.143 102.427 42.3249 102.653C42.5523 102.879 42.7797 103.015 43.0526 103.015ZM43.0526 99.9863C43.5073 99.9863 43.8711 100.122 44.1895 100.438C44.5078 100.71 44.6443 101.162 44.6443 101.704C44.6443 102.382 44.4623 102.834 44.144 103.105C43.8257 103.376 43.4619 103.512 43.0526 103.512C42.6433 103.512 42.234 103.376 41.9611 103.105C41.6428 102.834 41.5063 102.382 41.5063 101.794C41.5063 101.207 41.6428 100.755 41.9611 100.484C42.234 100.122 42.5978 99.9863 43.0526 99.9863Z" stroke="white" stroke-width="0.42"/>
<path d="M52.2389 103.376H51.6477V101.252C51.6477 101.116 51.6477 100.981 51.6022 100.845C51.6022 100.755 51.5112 100.619 51.4203 100.574C51.3293 100.484 51.1929 100.438 51.011 100.438C50.7836 100.438 50.6017 100.529 50.4198 100.664C50.2379 100.8 50.1924 101.071 50.1924 101.433V103.376H49.6012V101.207C49.6012 100.936 49.5557 100.71 49.4648 100.619C49.3738 100.529 49.2374 100.438 49.01 100.438C48.7826 100.438 48.5552 100.529 48.4188 100.71C48.2824 100.89 48.1914 101.207 48.1914 101.659V103.376H47.6002V100.032H48.1005V100.484C48.3278 100.122 48.6462 99.9412 49.101 99.9412C49.3283 99.9412 49.5557 99.9864 49.6922 100.077C49.8286 100.167 49.965 100.303 50.056 100.529C50.3288 100.122 50.6472 99.9412 51.1019 99.9412C51.4658 99.9412 51.7386 100.032 51.875 100.212C52.057 100.393 52.1479 100.664 52.1479 101.071V103.376H52.2389Z" fill="white"/>
<path d="M52.2389 103.376H51.6477V101.252C51.6477 101.116 51.6477 100.981 51.6022 100.845C51.6022 100.755 51.5112 100.619 51.4203 100.574C51.3293 100.484 51.1929 100.438 51.011 100.438C50.7836 100.438 50.6017 100.529 50.4198 100.664C50.2379 100.8 50.1924 101.071 50.1924 101.433V103.376H49.6012V101.207C49.6012 100.936 49.5557 100.71 49.4648 100.619C49.3738 100.529 49.2374 100.438 49.01 100.438C48.7826 100.438 48.5552 100.529 48.4188 100.71C48.2824 100.89 48.1914 101.207 48.1914 101.659V103.376H47.6002V100.032H48.1005V100.484C48.3278 100.122 48.6462 99.9412 49.101 99.9412C49.3283 99.9412 49.5557 99.9864 49.6922 100.077C49.8286 100.167 49.965 100.303 50.056 100.529C50.3288 100.122 50.6472 99.9412 51.1019 99.9412C51.4658 99.9412 51.7386 100.032 51.875 100.212C52.057 100.393 52.1479 100.664 52.1479 101.071V103.376H52.2389Z" stroke="white" stroke-width="0.42"/>
<path d="M55.5132 101.93V101.704C55.1949 101.794 54.8311 101.885 54.4218 101.93C53.967 101.975 53.7851 102.156 53.7851 102.472C53.7851 102.608 53.8306 102.744 53.967 102.834C54.1035 102.924 54.2399 102.97 54.4673 102.97C54.7401 102.97 55.013 102.879 55.1949 102.698C55.3768 102.608 55.5132 102.337 55.5132 101.93ZM56.2863 103.376H55.6951C55.6497 103.286 55.6042 103.15 55.5587 102.97C55.1949 103.286 54.7401 103.467 54.3308 103.467C53.967 103.467 53.6942 103.376 53.4668 103.196C53.2394 103.015 53.1484 102.789 53.1484 102.518C53.1484 102.246 53.2394 102.02 53.4668 101.84C53.6487 101.659 54.0125 101.523 54.5127 101.478L55.0585 101.388C55.2404 101.342 55.4223 101.297 55.5587 101.252C55.5587 101.071 55.5587 100.981 55.5587 100.89C55.5587 100.8 55.5132 100.755 55.4678 100.664C55.4223 100.574 55.3313 100.529 55.1949 100.484C55.0585 100.438 54.922 100.393 54.7401 100.393C54.5127 100.393 54.2854 100.438 54.1489 100.529C54.0125 100.619 53.9215 100.8 53.8306 101.026L53.2849 100.936C53.3303 100.574 53.5123 100.348 53.7396 100.167C54.0125 99.9864 54.3308 99.896 54.7856 99.896C55.1949 99.896 55.4678 99.9412 55.6951 100.077C55.8771 100.212 56.0135 100.348 56.059 100.529C56.1044 100.71 56.1044 100.936 56.1044 101.162V101.93C56.1044 102.382 56.1044 102.698 56.1499 102.879C56.1044 103.105 56.1954 103.241 56.2863 103.376Z" fill="white"/>
<path d="M55.5132 101.93V101.704C55.1949 101.794 54.8311 101.885 54.4218 101.93C53.967 101.975 53.7851 102.156 53.7851 102.472C53.7851 102.608 53.8306 102.744 53.967 102.834C54.1035 102.924 54.2399 102.97 54.4673 102.97C54.7401 102.97 55.013 102.879 55.1949 102.698C55.3768 102.608 55.5132 102.337 55.5132 101.93ZM56.2863 103.376H55.6951C55.6497 103.286 55.6042 103.15 55.5587 102.97C55.1949 103.286 54.7401 103.467 54.3308 103.467C53.967 103.467 53.6942 103.376 53.4668 103.196C53.2394 103.015 53.1484 102.789 53.1484 102.518C53.1484 102.246 53.2394 102.02 53.4668 101.84C53.6487 101.659 54.0125 101.523 54.5127 101.478L55.0585 101.388C55.2404 101.342 55.4223 101.297 55.5587 101.252C55.5587 101.071 55.5587 100.981 55.5587 100.89C55.5587 100.8 55.5132 100.755 55.4678 100.664C55.4223 100.574 55.3313 100.529 55.1949 100.484C55.0585 100.438 54.922 100.393 54.7401 100.393C54.5127 100.393 54.2854 100.438 54.1489 100.529C54.0125 100.619 53.9215 100.8 53.8306 101.026L53.2849 100.936C53.3303 100.574 53.5123 100.348 53.7396 100.167C54.0125 99.9864 54.3308 99.896 54.7856 99.896C55.1949 99.896 55.4678 99.9412 55.6951 100.077C55.8771 100.212 56.0135 100.348 56.059 100.529C56.1044 100.71 56.1044 100.936 56.1044 101.162V101.93C56.1044 102.382 56.1044 102.698 56.1499 102.879C56.1044 103.105 56.1954 103.241 56.2863 103.376Z" stroke="white" stroke-width="0.42"/>
<path d="M59.9701 103.376H59.3789V101.342C59.3789 100.981 59.3334 100.755 59.197 100.619C59.0605 100.484 58.9241 100.438 58.6967 100.438C58.5148 100.438 58.3784 100.484 58.1965 100.574C58.06 100.664 57.9236 100.755 57.8781 100.936C57.8327 101.071 57.7872 101.297 57.7872 101.568V103.376H57.2415V100.032H57.7417V100.529C57.8781 100.348 58.0146 100.212 58.1965 100.122C58.3784 100.032 58.5603 99.9863 58.8331 99.9863C59.0151 99.9863 59.197 100.032 59.3789 100.077C59.5608 100.122 59.6972 100.212 59.7882 100.348C59.8791 100.484 59.9246 100.619 59.9701 100.755C60.0155 100.89 60.0155 101.071 60.0155 101.342V103.376H59.9701Z" fill="white"/>
<path d="M59.9701 103.376H59.3789V101.342C59.3789 100.981 59.3334 100.755 59.197 100.619C59.0605 100.484 58.9241 100.438 58.6967 100.438C58.5148 100.438 58.3784 100.484 58.1965 100.574C58.06 100.664 57.9236 100.755 57.8781 100.936C57.8327 101.071 57.7872 101.297 57.7872 101.568V103.376H57.2415V100.032H57.7417V100.529C57.8781 100.348 58.0146 100.212 58.1965 100.122C58.3784 100.032 58.5603 99.9863 58.8331 99.9863C59.0151 99.9863 59.197 100.032 59.3789 100.077C59.5608 100.122 59.6972 100.212 59.7882 100.348C59.8791 100.484 59.9246 100.619 59.9701 100.755C60.0155 100.89 60.0155 101.071 60.0155 101.342V103.376H59.9701Z" stroke="white" stroke-width="0.42"/>
<path d="M63.4262 101.387C63.3808 101.026 63.2898 100.8 63.1079 100.664C62.926 100.529 62.6986 100.438 62.4712 100.438C62.1983 100.438 61.971 100.529 61.7891 100.709C61.6071 100.89 61.5162 101.116 61.4707 101.387H63.4262ZM64.0174 101.885H61.4707C61.4707 102.246 61.6071 102.517 61.7891 102.743C61.971 102.924 62.1984 103.06 62.5167 103.06C62.7441 103.06 62.926 103.015 63.0624 102.879C63.1988 102.743 63.3353 102.608 63.3807 102.337L63.972 102.427C63.881 102.789 63.6991 103.06 63.4262 103.241C63.1534 103.421 62.835 103.512 62.4712 103.512C61.971 103.512 61.5617 103.376 61.2888 103.06C61.0159 102.743 60.8795 102.337 60.8795 101.794C60.8795 101.252 61.0159 100.845 61.2888 100.529C61.5617 100.212 61.971 100.031 62.4712 100.031C62.6986 100.031 62.9715 100.077 63.1988 100.212C63.4262 100.303 63.6081 100.483 63.79 100.755C63.9719 100.935 64.0174 101.342 64.0174 101.885Z" fill="white"/>
<path d="M63.4262 101.388C63.3808 101.026 63.2898 100.8 63.1079 100.664C62.926 100.529 62.6986 100.438 62.4712 100.438C62.1983 100.438 61.971 100.529 61.7891 100.71C61.6071 100.89 61.5162 101.116 61.4707 101.388H63.4262ZM64.0174 101.885H61.4707C61.4707 102.246 61.6071 102.517 61.7891 102.743C61.971 102.924 62.1984 103.015 62.5167 103.015C62.7441 103.015 62.926 102.969 63.0624 102.834C63.1988 102.698 63.3353 102.563 63.3807 102.291L63.972 102.382C63.881 102.743 63.6991 103.015 63.4262 103.195C63.1534 103.376 62.835 103.467 62.4712 103.467C61.971 103.467 61.5617 103.331 61.2888 103.015C61.0159 102.698 60.8795 102.291 60.8795 101.749C60.8795 101.207 61.0159 100.8 61.2888 100.484C61.5617 100.167 61.971 99.9863 62.4712 99.9863C62.6986 99.9863 62.9715 100.032 63.1988 100.167C63.4262 100.258 63.6081 100.438 63.79 100.71C63.9719 100.936 64.0174 101.342 64.0174 101.885Z" stroke="white" stroke-width="0.42"/>
<path d="M64.9724 98.7659H65.5636V99.3987H64.9724V98.7659ZM65.5636 103.557C65.5636 103.783 65.5636 103.964 65.5181 104.145C65.4726 104.325 65.4272 104.461 65.2907 104.551C65.1543 104.687 64.9724 104.732 64.6995 104.732C64.5631 104.732 64.3812 104.732 64.2448 104.687L64.3357 104.19C64.4267 104.235 64.5176 104.235 64.6086 104.235C64.745 104.235 64.836 104.19 64.8814 104.099C64.9269 104.009 64.9724 103.828 64.9724 103.512V100.031H65.5636V103.557Z" fill="white"/>
<path d="M64.9724 98.7659H65.5636V99.3987H64.9724V98.7659ZM65.5636 103.557C65.5636 103.783 65.5636 103.964 65.5181 104.145C65.4726 104.325 65.4272 104.461 65.2907 104.551C65.1543 104.687 64.9724 104.732 64.6995 104.732C64.5631 104.732 64.3812 104.732 64.2448 104.687L64.3357 104.19C64.4267 104.235 64.5176 104.235 64.6086 104.235C64.745 104.235 64.836 104.19 64.8814 104.099C64.9269 104.009 64.9724 103.828 64.9724 103.512V100.031H65.5636V103.557V103.557Z" stroke="white" stroke-width="0.42"/>
<path d="M68.0649 103.015C68.3832 103.015 68.6561 102.879 68.7925 102.653C68.9744 102.427 69.0654 102.111 69.0654 101.704C69.0654 101.297 68.9744 100.981 68.7925 100.755C68.6106 100.529 68.3832 100.438 68.0649 100.438C67.792 100.438 67.5192 100.529 67.3373 100.755C67.1554 100.981 67.0644 101.297 67.0644 101.704C67.0644 102.111 67.1554 102.427 67.3373 102.653C67.5192 102.879 67.792 103.015 68.0649 103.015ZM68.0649 99.9863C68.5197 99.9863 68.8835 100.122 69.2018 100.438C69.5202 100.71 69.6566 101.162 69.6566 101.704C69.6566 102.382 69.4747 102.834 69.1563 103.105C68.838 103.376 68.4742 103.512 68.0649 103.512C67.6556 103.512 67.2463 103.376 66.9734 103.105C66.6551 102.834 66.5187 102.382 66.5187 101.794C66.5187 101.207 66.6551 100.755 66.9734 100.484C67.2463 100.122 67.6101 99.9863 68.0649 99.9863Z" fill="white"/>
<path d="M68.0649 103.015C68.3832 103.015 68.6561 102.879 68.7925 102.653C68.9744 102.427 69.0654 102.111 69.0654 101.704C69.0654 101.297 68.9744 100.981 68.7925 100.755C68.6106 100.529 68.3832 100.438 68.0649 100.438C67.792 100.438 67.5192 100.529 67.3373 100.755C67.1554 100.981 67.0644 101.297 67.0644 101.704C67.0644 102.111 67.1554 102.427 67.3373 102.653C67.5192 102.879 67.792 103.015 68.0649 103.015ZM68.0649 99.9863C68.5197 99.9863 68.8835 100.122 69.2018 100.438C69.5202 100.71 69.6566 101.162 69.6566 101.704C69.6566 102.382 69.4747 102.834 69.1563 103.105C68.838 103.376 68.4742 103.512 68.0649 103.512C67.6556 103.512 67.2463 103.376 66.9734 103.105C66.6551 102.834 66.5187 102.382 66.5187 101.794C66.5187 101.207 66.6551 100.755 66.9734 100.484C67.2463 100.122 67.6101 99.9863 68.0649 99.9863Z" stroke="white" stroke-width="0.42"/>
<path d="M9.12665 106.043L9.03569 106.54C8.94474 106.54 8.80831 106.495 8.71736 106.495C8.58093 106.495 8.4445 106.54 8.39902 106.585C8.30806 106.631 8.26259 106.766 8.26259 107.037V107.354H8.89926V107.806H8.26259V110.699H7.67139V107.806H7.17114V107.354H7.67139V106.992C7.67139 106.811 7.67139 106.676 7.71687 106.54C7.76234 106.405 7.8533 106.269 7.98973 106.179C8.12616 106.088 8.35354 105.998 8.6264 105.998C8.76283 105.998 8.94474 105.998 9.12665 106.043Z" fill="white"/>
<path d="M9.12665 106.043L9.03569 106.54C8.94474 106.54 8.80831 106.495 8.71736 106.495C8.58093 106.495 8.4445 106.54 8.39902 106.585C8.30806 106.631 8.26259 106.766 8.26259 107.037V107.354H8.89926V107.806H8.26259V110.699H7.67139V107.806H7.17114V107.354H7.67139V106.992C7.67139 106.811 7.67139 106.676 7.71687 106.54C7.76234 106.405 7.8533 106.269 7.98973 106.179C8.12616 106.088 8.35354 105.998 8.6264 105.998C8.76283 105.998 8.94474 105.998 9.12665 106.043Z" stroke="white" stroke-width="0.42"/>
<path d="M10.1729 106.043H9.58167V110.654H10.1729V106.043Z" fill="white"/>
<path d="M10.1729 106.043H9.58167V110.654H10.1729V106.043Z" stroke="white" stroke-width="0.42"/>
<path d="M12.6741 110.292C12.9925 110.292 13.2653 110.156 13.4018 109.93C13.5837 109.704 13.6746 109.388 13.6746 108.981C13.6746 108.574 13.5837 108.258 13.4018 108.032C13.2199 107.806 12.9925 107.715 12.6741 107.715C12.4013 107.715 12.1284 107.806 11.9465 108.032C11.7646 108.258 11.6737 108.574 11.6737 108.981C11.6737 109.388 11.7646 109.704 11.9465 109.93C12.1284 110.201 12.4013 110.292 12.6741 110.292ZM12.6741 107.263C13.1289 107.263 13.4927 107.399 13.8111 107.715C14.1294 108.032 14.2658 108.439 14.2658 108.981C14.2658 109.659 14.0839 110.111 13.7656 110.382C13.4473 110.653 13.0834 110.789 12.6741 110.789C12.2649 110.789 11.8556 110.653 11.5827 110.382C11.2644 110.111 11.1279 109.659 11.1279 109.071C11.1279 108.484 11.2644 108.032 11.5827 107.761C11.8556 107.399 12.2194 107.263 12.6741 107.263Z" fill="white"/>
<path d="M12.6741 110.292C12.9925 110.292 13.2653 110.156 13.4018 109.93C13.5837 109.704 13.6746 109.388 13.6746 108.981C13.6746 108.574 13.5837 108.258 13.4018 108.032C13.2199 107.806 12.9925 107.715 12.6741 107.715C12.4013 107.715 12.1284 107.806 11.9465 108.032C11.7646 108.258 11.6737 108.574 11.6737 108.981C11.6737 109.388 11.7646 109.704 11.9465 109.93C12.1284 110.201 12.4013 110.292 12.6741 110.292ZM12.6741 107.263C13.1289 107.263 13.4927 107.399 13.8111 107.715C14.1294 107.987 14.2658 108.439 14.2658 108.981C14.2658 109.659 14.0839 110.111 13.7656 110.382C13.4473 110.653 13.0834 110.789 12.6741 110.789C12.2649 110.789 11.8556 110.653 11.5827 110.382C11.2644 110.111 11.1279 109.659 11.1279 109.071C11.1279 108.484 11.2644 108.032 11.5827 107.761C11.8556 107.399 12.2194 107.263 12.6741 107.263Z" stroke="white" stroke-width="0.42"/>
<path d="M16.9943 107.444L16.8124 107.987C16.676 107.896 16.5395 107.851 16.4031 107.851C16.1757 107.851 16.0393 107.941 15.9029 108.122C15.8119 108.303 15.721 108.574 15.721 108.936V110.699H15.1298V107.354H15.63V107.851C15.8119 107.444 16.0393 107.263 16.3576 107.263C16.6305 107.263 16.8124 107.309 16.9943 107.444Z" fill="white"/>
<path d="M16.9943 107.444L16.8124 107.987C16.676 107.896 16.5395 107.851 16.4031 107.851C16.1757 107.851 16.0393 107.941 15.9029 108.122C15.8119 108.303 15.721 108.574 15.721 108.936V110.699H15.1298V107.354H15.63V107.851C15.8119 107.444 16.0393 107.263 16.3576 107.263C16.6305 107.263 16.8124 107.309 16.9943 107.444Z" stroke="white" stroke-width="0.42"/>
<path d="M19.9504 108.71C19.9049 108.348 19.814 108.122 19.6321 107.987C19.4501 107.851 19.2228 107.761 18.9954 107.761C18.7225 107.761 18.4951 107.851 18.3132 108.032C18.1313 108.213 18.0404 108.439 17.9949 108.71H19.9504ZM20.5416 109.162H17.9949C18.0404 109.523 18.1313 109.795 18.3132 110.021C18.4951 110.201 18.7225 110.292 19.0409 110.292C19.2682 110.292 19.4501 110.247 19.5866 110.111C19.723 109.975 19.8594 109.84 19.9049 109.569L20.4961 109.659C20.4052 110.021 20.2233 110.292 19.9504 110.473C19.6775 110.653 19.3592 110.744 18.9954 110.744C18.4951 110.744 18.0858 110.608 17.813 110.292C17.5401 109.975 17.4037 109.569 17.4037 109.026C17.4037 108.484 17.5401 108.077 17.813 107.761C18.0858 107.444 18.4951 107.263 18.9954 107.263C19.2228 107.263 19.4956 107.309 19.723 107.444C19.9504 107.535 20.1323 107.715 20.3142 107.987C20.4506 108.213 20.5416 108.619 20.5416 109.162Z" fill="white"/>
<path d="M19.9504 108.71C19.9049 108.348 19.814 108.122 19.6321 107.987C19.4501 107.851 19.2228 107.761 18.9954 107.761C18.7225 107.761 18.4951 107.851 18.3132 108.032C18.1313 108.213 18.0404 108.439 17.9949 108.71H19.9504ZM20.5416 109.162H17.9949C18.0404 109.523 18.1313 109.795 18.3132 110.021C18.4951 110.201 18.7225 110.292 19.0409 110.292C19.2682 110.292 19.4501 110.247 19.5866 110.111C19.723 109.975 19.8594 109.84 19.9049 109.569L20.4961 109.659C20.4052 110.021 20.2233 110.292 19.9504 110.473C19.6775 110.653 19.3592 110.744 18.9954 110.744C18.4951 110.744 18.0858 110.608 17.813 110.292C17.5401 109.975 17.4037 109.569 17.4037 109.026C17.4037 108.484 17.5401 108.077 17.813 107.761C18.0858 107.444 18.4951 107.263 18.9954 107.263C19.2228 107.263 19.4956 107.309 19.723 107.444C19.9504 107.535 20.1323 107.715 20.3142 107.987C20.4506 108.213 20.5416 108.619 20.5416 109.162Z" stroke="white" stroke-width="0.42"/>
<path d="M23.3611 108.258C23.3156 108.077 23.2701 107.942 23.1337 107.851C22.9973 107.761 22.8154 107.716 22.6335 107.716C22.4061 107.716 22.2242 107.761 22.0877 107.806C21.9513 107.896 21.9058 107.987 21.9058 108.122C21.9058 108.258 21.9513 108.348 22.0877 108.394C22.1787 108.439 22.4061 108.529 22.7244 108.62C23.0882 108.71 23.3611 108.8 23.543 108.846C23.7249 108.936 23.8613 109.026 23.9523 109.117C24.0433 109.252 24.0887 109.433 24.0887 109.659C24.0887 109.976 23.9523 110.201 23.7249 110.427C23.4975 110.653 23.1337 110.744 22.7244 110.744C22.3151 110.744 21.9513 110.653 21.7239 110.473C21.4965 110.292 21.3146 110.021 21.2692 109.659L21.8604 109.569C21.9058 109.795 21.9968 109.976 22.1332 110.111C22.2697 110.247 22.497 110.292 22.7244 110.292C22.9973 110.292 23.1792 110.247 23.3156 110.156C23.4521 110.066 23.4975 109.93 23.4975 109.795C23.4975 109.704 23.4521 109.614 23.4066 109.569C23.3611 109.524 23.2701 109.478 23.1792 109.433C23.0882 109.388 22.8609 109.343 22.5425 109.252C22.0423 109.117 21.7239 108.981 21.5875 108.846C21.4511 108.665 21.3601 108.484 21.3601 108.258C21.3601 107.987 21.4511 107.761 21.6785 107.58C21.9058 107.399 22.2242 107.309 22.588 107.309C22.9973 107.309 23.3156 107.399 23.543 107.535C23.7704 107.67 23.9068 107.942 23.9523 108.258H23.3611Z" fill="white"/>
<path d="M23.3611 108.258C23.3156 108.077 23.2701 107.942 23.1337 107.851C22.9973 107.761 22.8154 107.716 22.6335 107.716C22.4061 107.716 22.2242 107.761 22.0877 107.806C21.9513 107.896 21.9058 107.987 21.9058 108.122C21.9058 108.258 21.9513 108.348 22.0877 108.394C22.1787 108.439 22.4061 108.529 22.7244 108.62C23.0882 108.71 23.3611 108.8 23.543 108.846C23.7249 108.936 23.8613 109.026 23.9523 109.117C24.0433 109.252 24.0887 109.433 24.0887 109.659C24.0887 109.976 23.9523 110.201 23.7249 110.427C23.4975 110.653 23.1337 110.744 22.7244 110.744C22.3151 110.744 21.9513 110.653 21.7239 110.473C21.4965 110.292 21.3146 110.021 21.2692 109.659L21.8604 109.569C21.9058 109.795 21.9968 109.976 22.1332 110.111C22.2697 110.247 22.497 110.292 22.7244 110.292C22.9973 110.292 23.1792 110.247 23.3156 110.156C23.4521 110.066 23.4975 109.93 23.4975 109.795C23.4975 109.704 23.4521 109.614 23.4066 109.569C23.3611 109.524 23.2701 109.478 23.1792 109.433C23.0882 109.388 22.8609 109.343 22.5425 109.252C22.0423 109.162 21.7239 108.981 21.5875 108.846C21.4511 108.665 21.3601 108.484 21.3601 108.258C21.3601 107.987 21.4511 107.761 21.6785 107.58C21.9058 107.399 22.2242 107.309 22.588 107.309C22.9973 107.309 23.3156 107.399 23.543 107.535C23.7704 107.67 23.9068 107.942 23.9523 108.258H23.3611Z" stroke="white" stroke-width="0.42"/>
<path d="M26.3171 110.699C26.1352 110.744 25.9988 110.744 25.9078 110.744C25.6349 110.744 25.453 110.699 25.3621 110.608C25.2257 110.518 25.1802 110.427 25.1347 110.292C25.0892 110.156 25.0892 109.975 25.0892 109.749V107.806H24.6799V107.354H25.0892V106.54L25.6804 106.179V107.354H26.2716V107.806H25.6804V109.749C25.6804 109.93 25.6804 110.021 25.7259 110.111C25.7714 110.201 25.8623 110.201 25.9988 110.201C26.0897 110.201 26.1807 110.201 26.2716 110.156L26.3171 110.699Z" fill="white"/>
<path d="M26.3171 110.699C26.1352 110.744 25.9988 110.744 25.9078 110.744C25.6349 110.744 25.453 110.699 25.3621 110.608C25.2257 110.518 25.1802 110.427 25.1347 110.292C25.0892 110.156 25.0892 109.975 25.0892 109.749V107.806H24.6799V107.354H25.0892V106.54L25.6804 106.179V107.354H26.2716V107.806H25.6804V109.749C25.6804 109.93 25.6804 110.021 25.7259 110.111C25.7714 110.201 25.8623 110.201 25.9988 110.201C26.0897 110.201 26.1807 110.201 26.2716 110.156L26.3171 110.699Z" stroke="white" stroke-width="0.42"/>
<path d="M29.2276 109.207V108.981C28.9093 109.071 28.5454 109.162 28.1361 109.207C27.6814 109.252 27.4995 109.433 27.4995 109.749C27.4995 109.885 27.5449 110.021 27.6814 110.111C27.8178 110.201 27.9542 110.247 28.1816 110.247C28.4545 110.247 28.7273 110.156 28.9093 109.975C29.1366 109.885 29.2276 109.614 29.2276 109.207ZM30.0007 110.699H29.4095C29.364 110.608 29.3185 110.473 29.2731 110.292C28.9093 110.608 28.4545 110.789 28.0452 110.789C27.6814 110.789 27.4085 110.699 27.1811 110.518C26.9537 110.337 26.8628 110.111 26.8628 109.84C26.8628 109.569 26.9537 109.343 27.1357 109.162C27.3176 108.981 27.6814 108.845 28.1816 108.8L28.7273 108.71C28.9093 108.665 29.0912 108.619 29.2276 108.574C29.2276 108.393 29.2276 108.303 29.2276 108.213C29.2276 108.122 29.1821 108.077 29.1366 107.987C29.0912 107.896 29.0002 107.851 28.8638 107.806C28.7273 107.761 28.5909 107.761 28.409 107.715C28.1816 107.715 27.9542 107.761 27.8178 107.851C27.6814 107.941 27.5904 108.122 27.5449 108.348L26.9992 108.258C27.0447 107.896 27.2266 107.67 27.454 107.489C27.7269 107.309 28.0452 107.218 28.5 107.218C28.9093 107.218 29.1821 107.263 29.4095 107.399C29.5914 107.535 29.7278 107.67 29.7733 107.851C29.8188 108.032 29.8188 108.258 29.8188 108.484V109.252C29.8188 109.704 29.8188 110.021 29.8643 110.201C29.8643 110.382 29.9097 110.518 30.0007 110.699Z" fill="white"/>
<path d="M29.2276 109.207V108.981C28.9093 109.071 28.5454 109.162 28.1361 109.207C27.6814 109.252 27.4995 109.433 27.4995 109.749C27.4995 109.885 27.5449 110.021 27.6814 110.111C27.8178 110.201 27.9542 110.247 28.1816 110.247C28.4545 110.247 28.7273 110.156 28.9093 109.975C29.1366 109.885 29.2276 109.614 29.2276 109.207ZM30.0007 110.699H29.4095C29.364 110.608 29.3185 110.473 29.2731 110.292C28.9093 110.608 28.4545 110.789 28.0452 110.789C27.6814 110.789 27.4085 110.699 27.1811 110.518C26.9537 110.337 26.8628 110.111 26.8628 109.84C26.8628 109.569 26.9537 109.343 27.1357 109.162C27.3176 108.981 27.6814 108.845 28.1816 108.8L28.7273 108.71C28.9093 108.665 29.0912 108.619 29.2276 108.574C29.2276 108.393 29.2276 108.303 29.2276 108.213C29.2276 108.122 29.1821 108.077 29.1366 107.987C29.0912 107.896 29.0002 107.851 28.8638 107.806C28.7273 107.761 28.5909 107.761 28.409 107.715C28.1816 107.715 27.9542 107.761 27.8178 107.851C27.6814 107.941 27.5904 108.122 27.5449 108.348L26.9992 108.258C27.0447 107.896 27.2266 107.67 27.454 107.489C27.7269 107.309 28.0452 107.218 28.5 107.218C28.9093 107.218 29.1821 107.263 29.4095 107.399C29.5914 107.535 29.7278 107.67 29.7733 107.851C29.8188 108.032 29.8188 108.258 29.8188 108.484V109.252C29.8188 109.704 29.8188 110.021 29.8643 110.201C29.8643 110.382 29.9097 110.518 30.0007 110.699Z" stroke="white" stroke-width="0.42"/>
<path d="M31.5469 106.043H30.9557V110.654H31.5469V106.043Z" fill="white"/>
<path d="M31.5469 106.043H30.9557V110.654H31.5469V106.043Z" stroke="white" stroke-width="0.42"/>
<path d="M36.5494 107.444L36.3675 107.987C36.231 107.896 36.0946 107.851 35.9582 107.851C35.7308 107.851 35.5944 107.941 35.4579 108.122C35.367 108.303 35.276 108.574 35.276 108.936V110.699H34.6848V107.354H35.1851V107.851C35.367 107.444 35.5944 107.263 35.9127 107.263C36.1401 107.263 36.3675 107.309 36.5494 107.444Z" fill="white"/>
<path d="M36.5494 107.444L36.3675 107.987C36.231 107.896 36.0946 107.851 35.9582 107.851C35.7308 107.851 35.5944 107.941 35.4579 108.122C35.367 108.303 35.276 108.574 35.276 108.936V110.699H34.6848V107.354H35.1851V107.851C35.367 107.444 35.5944 107.263 35.9127 107.263C36.1401 107.263 36.3675 107.309 36.5494 107.444Z" stroke="white" stroke-width="0.42"/>
<path d="M39.5056 108.71C39.4601 108.348 39.3691 108.122 39.1872 107.987C39.0053 107.851 38.7779 107.761 38.5506 107.761C38.2777 107.761 38.0503 107.851 37.8684 108.032C37.6865 108.213 37.5955 108.439 37.5501 108.71H39.5056ZM40.0968 109.162H37.5501C37.5955 109.523 37.6865 109.795 37.8684 110.021C38.0503 110.201 38.2777 110.292 38.596 110.292C38.8234 110.292 39.0053 110.247 39.1418 110.111C39.2782 109.975 39.4146 109.84 39.4601 109.569L40.0513 109.659C39.9603 110.021 39.7784 110.292 39.5056 110.473C39.2327 110.653 38.9144 110.744 38.5506 110.744C38.0503 110.744 37.641 110.608 37.3682 110.292C37.0953 109.975 36.9589 109.569 36.9589 109.026C36.9589 108.484 37.0953 108.077 37.3682 107.761C37.641 107.444 38.0503 107.263 38.5506 107.263C38.7779 107.263 39.0508 107.309 39.2782 107.444C39.5056 107.535 39.6875 107.715 39.8694 107.987C40.0058 108.213 40.0968 108.619 40.0968 109.162Z" fill="white"/>
<path d="M39.5056 108.71C39.4601 108.348 39.3691 108.122 39.1872 107.987C39.0053 107.851 38.7779 107.761 38.5506 107.761C38.2777 107.761 38.0503 107.851 37.8684 108.032C37.6865 108.213 37.5955 108.439 37.5501 108.71H39.5056ZM40.0968 109.162H37.5501C37.5955 109.523 37.6865 109.795 37.8684 110.021C38.0503 110.201 38.2777 110.292 38.596 110.292C38.8234 110.292 39.0053 110.247 39.1418 110.111C39.2782 109.975 39.4146 109.84 39.4601 109.569L40.0513 109.659C39.9603 110.021 39.7784 110.292 39.5056 110.473C39.2327 110.653 38.9144 110.744 38.5506 110.744C38.0503 110.744 37.641 110.608 37.3682 110.292C37.0953 109.975 36.9589 109.569 36.9589 109.026C36.9589 108.484 37.0953 108.077 37.3682 107.761C37.641 107.444 38.0503 107.263 38.5506 107.263C38.7779 107.263 39.0508 107.309 39.2782 107.444C39.5056 107.535 39.6875 107.715 39.8694 107.987C40.0058 108.213 40.0968 108.619 40.0968 109.162Z" stroke="white" stroke-width="0.42"/>
<path d="M42.9161 108.258C42.8706 108.077 42.8251 107.942 42.6887 107.851C42.5523 107.761 42.3704 107.716 42.1885 107.716C41.9611 107.716 41.7792 107.761 41.6427 107.806C41.5063 107.896 41.4608 107.987 41.4154 108.122C41.4154 108.258 41.4608 108.348 41.5973 108.394C41.6882 108.439 41.9156 108.529 42.2339 108.62C42.5978 108.71 42.8706 108.8 43.0525 108.846C43.2344 108.936 43.3709 109.026 43.4618 109.117C43.5528 109.252 43.5983 109.433 43.5983 109.659C43.5983 109.976 43.4618 110.201 43.2344 110.427C43.0071 110.653 42.6432 110.744 42.2339 110.744C41.8247 110.744 41.4608 110.653 41.2335 110.473C41.0061 110.292 40.8242 110.021 40.7787 109.659L41.3699 109.569C41.4154 109.795 41.5063 109.976 41.6427 110.111C41.7792 110.247 42.0066 110.292 42.2339 110.292C42.5068 110.292 42.6887 110.247 42.8251 110.156C42.9616 110.066 43.0071 109.93 43.0071 109.795C43.0071 109.704 42.9616 109.614 42.9161 109.569C42.8706 109.524 42.7797 109.478 42.6887 109.433C42.5978 109.388 42.3704 109.343 42.052 109.252C41.5518 109.117 41.2335 108.981 41.097 108.846C40.9606 108.665 40.8696 108.484 40.8696 108.258C40.8696 107.987 40.9606 107.761 41.188 107.58C41.4154 107.399 41.7337 107.309 42.0975 107.309C42.5068 107.309 42.8251 107.399 43.0525 107.535C43.2799 107.67 43.4163 107.942 43.4618 108.258H42.9161Z" fill="white"/>
<path d="M42.9161 108.258C42.8706 108.077 42.8251 107.942 42.6887 107.851C42.5523 107.761 42.3704 107.716 42.1885 107.716C41.9611 107.716 41.7792 107.761 41.6427 107.806C41.5063 107.896 41.4608 107.987 41.4154 108.122C41.4154 108.258 41.4608 108.348 41.5973 108.394C41.6882 108.439 41.9156 108.529 42.2339 108.62C42.5978 108.71 42.8706 108.8 43.0525 108.846C43.2344 108.936 43.3709 109.026 43.4618 109.117C43.5528 109.252 43.5983 109.433 43.5983 109.659C43.5983 109.976 43.4618 110.201 43.2344 110.427C43.0071 110.653 42.6432 110.744 42.2339 110.744C41.8247 110.744 41.4608 110.653 41.2335 110.473C41.0061 110.292 40.8242 110.021 40.7787 109.659L41.3699 109.569C41.4154 109.795 41.5063 109.976 41.6427 110.111C41.7792 110.247 42.0066 110.292 42.2339 110.292C42.5068 110.292 42.6887 110.247 42.8251 110.156C42.9616 110.066 43.0071 109.93 43.0071 109.795C43.0071 109.704 42.9616 109.614 42.9161 109.569C42.8706 109.524 42.7797 109.478 42.6887 109.433C42.5978 109.388 42.3704 109.343 42.052 109.252C41.5518 109.162 41.2335 108.981 41.097 108.846C40.9606 108.665 40.8696 108.484 40.8696 108.258C40.8696 107.987 40.9606 107.761 41.188 107.58C41.4154 107.399 41.7337 107.309 42.0975 107.309C42.5068 107.309 42.8251 107.399 43.0525 107.535C43.2799 107.67 43.4163 107.942 43.4618 108.258H42.9161Z" stroke="white" stroke-width="0.42"/>
<path d="M46.0086 110.292C46.2815 110.292 46.5089 110.201 46.6908 109.975C46.8727 109.749 46.9636 109.433 46.9636 108.981C46.9636 108.574 46.8727 108.258 46.6908 108.032C46.5089 107.806 46.3269 107.715 46.0541 107.715C45.7812 107.715 45.5538 107.851 45.3719 108.077C45.19 108.303 45.0991 108.619 45.0991 109.026C45.0991 109.433 45.19 109.749 45.3719 109.975C45.5084 110.201 45.7357 110.292 46.0086 110.292ZM45.0991 107.761C45.3265 107.444 45.6448 107.263 46.0541 107.263C46.5089 107.263 46.8272 107.444 47.1 107.761C47.3729 108.077 47.4639 108.484 47.4639 109.026C47.4639 109.569 47.3274 110.021 47.0546 110.337C46.7817 110.653 46.4179 110.834 46.0086 110.834C45.6448 110.834 45.3719 110.698 45.1445 110.427V112.054H44.5533V107.444H45.0536L45.0991 107.761Z" fill="white"/>
<path d="M49.8288 110.292C50.1471 110.292 50.42 110.156 50.5564 109.93C50.7383 109.704 50.8293 109.388 50.8293 108.981C50.8293 108.574 50.7383 108.258 50.5564 108.032C50.3745 107.806 50.1471 107.715 49.8288 107.715C49.5559 107.715 49.2831 107.806 49.1012 108.032C48.9193 108.258 48.8283 108.574 48.8283 108.981C48.8283 109.388 48.9193 109.704 49.1012 109.93C49.2831 110.201 49.5105 110.292 49.8288 110.292ZM49.8288 107.263C50.2836 107.263 50.6474 107.399 50.9657 107.715C51.2841 108.032 51.4205 108.439 51.4205 108.981C51.4205 109.659 51.2386 110.111 50.9202 110.382C50.6019 110.653 50.2381 110.789 49.8288 110.789C49.4195 110.789 49.0102 110.653 48.7374 110.382C48.419 110.111 48.2826 109.659 48.2826 109.071C48.2826 108.484 48.419 108.032 48.7374 107.761C49.0102 107.399 49.374 107.263 49.8288 107.263Z" fill="white"/>
<path d="M49.8288 110.292C50.1471 110.292 50.42 110.156 50.5564 109.93C50.7383 109.704 50.8293 109.388 50.8293 108.981C50.8293 108.574 50.7383 108.258 50.5564 108.032C50.3745 107.806 50.1471 107.715 49.8288 107.715C49.5559 107.715 49.2831 107.806 49.1012 108.032C48.9193 108.258 48.8283 108.574 48.8283 108.981C48.8283 109.388 48.9193 109.704 49.1012 109.93C49.2831 110.201 49.5105 110.292 49.8288 110.292ZM49.8288 107.263C50.2836 107.263 50.6474 107.399 50.9657 107.715C51.2841 107.987 51.4205 108.439 51.4205 108.981C51.4205 109.659 51.2386 110.111 50.9202 110.382C50.6019 110.653 50.2381 110.789 49.8288 110.789C49.4195 110.789 49.0102 110.653 48.7374 110.382C48.419 110.111 48.2826 109.659 48.2826 109.071C48.2826 108.484 48.419 108.032 48.7374 107.761C49.0102 107.399 49.374 107.263 49.8288 107.263Z" stroke="white" stroke-width="0.42"/>
<path d="M55.104 110.699H54.5128V108.665C54.5128 108.303 54.4674 108.077 54.3309 107.942C54.1945 107.806 54.0126 107.761 53.8307 107.761C53.6488 107.761 53.5124 107.806 53.3304 107.896C53.194 107.987 53.0576 108.077 53.0121 108.258C52.9666 108.394 52.9212 108.62 52.9212 108.891V110.744H52.33V107.399H52.8302V107.851C52.9666 107.67 53.1031 107.535 53.285 107.444C53.4669 107.354 53.6488 107.309 53.9216 107.309C54.1036 107.309 54.2855 107.354 54.4674 107.399C54.6493 107.444 54.7857 107.535 54.8767 107.67C54.9676 107.806 55.0586 107.942 55.0586 108.077C55.104 108.213 55.104 108.394 55.104 108.665V110.699Z" fill="white"/>
<path d="M55.104 110.699H54.5128V108.665C54.5128 108.303 54.4674 108.077 54.3309 107.942C54.1945 107.806 54.0126 107.761 53.8307 107.761C53.6488 107.761 53.5124 107.806 53.3304 107.896C53.194 107.987 53.0576 108.077 53.0121 108.258C52.9666 108.394 52.9212 108.62 52.9212 108.891V110.744H52.33V107.399H52.8302V107.851C52.9666 107.67 53.1031 107.535 53.285 107.444C53.4669 107.354 53.6488 107.309 53.9216 107.309C54.1036 107.309 54.2855 107.354 54.4674 107.399C54.6493 107.444 54.7857 107.535 54.8767 107.67C54.9676 107.806 55.0586 107.942 55.0586 108.077C55.104 108.213 55.104 108.394 55.104 108.665V110.699V110.699Z" stroke="white" stroke-width="0.42"/>
<path d="M58.1054 108.258C58.06 108.077 58.0145 107.942 57.8781 107.851C57.7416 107.761 57.6052 107.716 57.3778 107.716C57.1504 107.716 56.9685 107.761 56.8321 107.806C56.6957 107.896 56.6502 107.987 56.6502 108.122C56.6502 108.258 56.6957 108.348 56.7866 108.394C56.8776 108.439 57.1049 108.529 57.4233 108.62C57.7871 108.71 58.06 108.8 58.2419 108.846C58.4238 108.936 58.5602 109.026 58.6512 109.117C58.7421 109.252 58.7876 109.433 58.7876 109.659C58.7876 109.976 58.6512 110.201 58.4238 110.427C58.1964 110.653 57.8326 110.744 57.4233 110.744C57.014 110.744 56.6502 110.653 56.4228 110.473C56.1954 110.292 56.0135 110.021 55.968 109.659L56.5592 109.569C56.6047 109.795 56.6957 109.976 56.8321 110.111C56.9685 110.247 57.1959 110.292 57.4233 110.292C57.6961 110.292 57.8781 110.247 58.0145 110.156C58.1509 110.066 58.1964 109.93 58.1964 109.795C58.1964 109.704 58.1509 109.614 58.1054 109.569C58.06 109.524 57.969 109.478 57.8781 109.433C57.7871 109.388 57.5597 109.343 57.2414 109.252C56.7411 109.117 56.4228 108.981 56.2864 108.846C56.1499 108.665 56.059 108.484 56.059 108.258C56.059 107.987 56.1954 107.761 56.3773 107.58C56.6047 107.399 56.923 107.309 57.2869 107.309C57.6961 107.309 58.0145 107.399 58.2419 107.535C58.4693 107.67 58.6057 107.942 58.6512 108.258H58.1054Z" fill="white"/>
<path d="M58.1054 108.258C58.06 108.077 58.0145 107.942 57.8781 107.851C57.7416 107.761 57.6052 107.716 57.3778 107.716C57.1504 107.716 56.9685 107.761 56.8321 107.806C56.6957 107.896 56.6502 107.987 56.6502 108.122C56.6502 108.258 56.6957 108.348 56.7866 108.394C56.8776 108.439 57.1049 108.529 57.4233 108.62C57.7871 108.71 58.06 108.8 58.2419 108.846C58.4238 108.936 58.5602 109.026 58.6512 109.117C58.7421 109.252 58.7876 109.433 58.7876 109.659C58.7876 109.976 58.6512 110.201 58.4238 110.427C58.1964 110.653 57.8326 110.744 57.4233 110.744C57.014 110.744 56.6502 110.653 56.4228 110.473C56.1954 110.292 56.0135 110.021 55.968 109.659L56.5592 109.569C56.6047 109.795 56.6957 109.976 56.8321 110.111C56.9685 110.247 57.1959 110.292 57.4233 110.292C57.6961 110.292 57.8781 110.247 58.0145 110.156C58.1509 110.066 58.1964 109.93 58.1964 109.795C58.1964 109.704 58.1509 109.614 58.1054 109.569C58.06 109.524 57.969 109.478 57.8781 109.433C57.7871 109.388 57.5597 109.343 57.2414 109.252C56.7411 109.162 56.4228 108.981 56.2864 108.846C56.1499 108.665 56.059 108.484 56.059 108.258C56.059 107.987 56.1499 107.761 56.3773 107.58C56.6047 107.399 56.923 107.309 57.2869 107.309C57.6961 107.309 58.0145 107.399 58.2419 107.535C58.4693 107.67 58.6057 107.942 58.6512 108.258H58.1054Z" stroke="white" stroke-width="0.42"/>
<path d="M61.9255 105.998L61.2434 106.902H60.7886L61.1979 105.998H61.9255ZM61.8801 109.207V108.981C61.5617 109.071 61.1979 109.162 60.7886 109.207C60.3793 109.252 60.1519 109.433 60.1519 109.749C60.1519 109.885 60.1974 110.021 60.3338 110.111C60.4703 110.201 60.6067 110.247 60.8341 110.247C61.1069 110.247 61.3798 110.156 61.5617 109.975C61.7891 109.885 61.8801 109.614 61.8801 109.207ZM62.6532 110.699H62.062C62.0165 110.608 61.971 110.473 61.9255 110.292C61.5617 110.608 61.107 110.789 60.6977 110.789C60.3338 110.789 60.061 110.699 59.8336 110.518C59.6062 110.337 59.5153 110.111 59.5153 109.84C59.5153 109.569 59.6062 109.343 59.7881 109.162C59.97 108.981 60.3338 108.845 60.8341 108.8L61.3798 108.71C61.5617 108.665 61.7436 108.619 61.8801 108.574C61.8801 108.393 61.8801 108.303 61.8801 108.213C61.8801 108.122 61.8346 108.077 61.7891 107.987C61.7436 107.896 61.6527 107.851 61.5162 107.806C61.3798 107.761 61.2434 107.761 61.0615 107.715C60.8341 107.715 60.6067 107.761 60.4703 107.851C60.3338 107.941 60.2429 108.122 60.1519 108.348L59.6062 108.258C59.6517 107.896 59.8336 107.67 60.061 107.489C60.3338 107.309 60.6522 107.218 61.107 107.218C61.5162 107.218 61.7891 107.263 62.0165 107.399C62.1984 107.535 62.3348 107.67 62.3803 107.851C62.4258 108.032 62.4258 108.258 62.4258 108.484V109.252C62.4258 109.704 62.4258 110.021 62.4713 110.201C62.5167 110.382 62.5622 110.518 62.6532 110.699Z" fill="white"/>
<path d="M61.9255 105.998L61.2434 106.902H60.7886L61.1979 105.998H61.9255ZM61.8801 109.207V108.981C61.5617 109.071 61.1979 109.162 60.7886 109.207C60.3338 109.252 60.1519 109.433 60.1519 109.749C60.1519 109.885 60.1974 110.021 60.3338 110.111C60.4703 110.201 60.6067 110.247 60.8341 110.247C61.1069 110.247 61.3798 110.156 61.5617 109.975C61.7891 109.885 61.8801 109.614 61.8801 109.207ZM62.6532 110.699H62.062C62.0165 110.608 61.971 110.473 61.9255 110.292C61.5617 110.608 61.107 110.789 60.6977 110.789C60.3338 110.789 60.061 110.699 59.8336 110.518C59.6062 110.337 59.5153 110.111 59.5153 109.84C59.5153 109.569 59.6062 109.343 59.7881 109.162C59.97 108.981 60.3338 108.845 60.8341 108.8L61.3798 108.71C61.5617 108.665 61.7436 108.619 61.8801 108.574C61.8801 108.393 61.8801 108.303 61.8801 108.213C61.8801 108.122 61.8346 108.077 61.7891 107.987C61.7436 107.896 61.6527 107.851 61.5162 107.806C61.3798 107.761 61.2434 107.761 61.0615 107.715C60.8341 107.715 60.6067 107.761 60.4703 107.851C60.3338 107.941 60.2429 108.122 60.1519 108.348L59.6062 108.258C59.6517 107.896 59.8336 107.67 60.061 107.489C60.3338 107.309 60.6522 107.218 61.107 107.218C61.5162 107.218 61.7891 107.263 62.0165 107.399C62.1984 107.535 62.3348 107.67 62.3803 107.851C62.4258 108.032 62.4258 108.258 62.4258 108.484V109.252C62.4258 109.704 62.4258 110.021 62.4713 110.201C62.5167 110.382 62.5622 110.518 62.6532 110.699Z" stroke="white" stroke-width="0.42"/>
<path d="M66.3367 107.354L65.0633 110.698H64.5176L63.2443 107.354H63.8355L64.5176 109.297C64.654 109.659 64.745 109.93 64.745 110.02C64.7905 109.885 64.836 109.704 64.9269 109.478L65.7 107.354H66.3367Z" fill="white"/>
<path d="M66.3367 107.354L65.0633 110.698H64.5176L63.2443 107.354H63.8355L64.5176 109.297C64.654 109.659 64.745 109.93 64.745 110.02C64.7905 109.885 64.836 109.704 64.9269 109.478L65.7 107.354H66.3367V107.354Z" stroke="white" stroke-width="0.42"/>
<path d="M69.4746 108.71C69.4291 108.348 69.3382 108.122 69.1563 107.987C68.9744 107.851 68.747 107.761 68.5196 107.761C68.2467 107.761 68.0194 107.851 67.8375 108.032C67.6555 108.213 67.5646 108.439 67.5191 108.71H69.4746ZM70.0658 109.162H67.5191C67.5646 109.523 67.6555 109.795 67.8375 110.021C68.0194 110.201 68.2467 110.292 68.5651 110.292C68.7925 110.292 68.9744 110.247 69.1108 110.111C69.2472 109.975 69.3837 109.84 69.4746 109.569L70.0658 109.659C69.9749 110.021 69.793 110.292 69.5201 110.473C69.2472 110.653 68.9289 110.744 68.5651 110.744C68.0648 110.744 67.6555 110.608 67.3827 110.292C67.1098 109.975 66.9734 109.569 66.9734 109.026C66.9734 108.484 67.1098 108.077 67.3827 107.761C67.6555 107.444 68.0648 107.263 68.5651 107.263C68.7925 107.263 69.0653 107.309 69.2927 107.444C69.5201 107.535 69.702 107.715 69.8839 107.987C69.9749 108.213 70.0658 108.619 70.0658 109.162Z" fill="white"/>
<path d="M69.4746 108.71C69.4291 108.348 69.3382 108.122 69.1563 107.987C68.9744 107.851 68.747 107.761 68.5196 107.761C68.2467 107.761 68.0194 107.851 67.8375 108.032C67.6555 108.213 67.5646 108.439 67.5191 108.71H69.4746ZM70.0658 109.162H67.5191C67.5646 109.523 67.6555 109.795 67.8375 110.021C68.0194 110.201 68.2467 110.292 68.5651 110.292C68.7925 110.292 68.9744 110.247 69.1108 110.111C69.2472 109.975 69.3837 109.84 69.4746 109.569L70.0658 109.659C69.9749 110.021 69.793 110.292 69.5201 110.473C69.2472 110.653 68.9289 110.744 68.5651 110.744C68.0648 110.744 67.6555 110.608 67.3827 110.292C67.1098 109.975 66.9734 109.569 66.9734 109.026C66.9734 108.484 67.1098 108.077 67.3827 107.761C67.6555 107.444 68.0648 107.263 68.5651 107.263C68.7925 107.263 69.0653 107.309 69.2927 107.444C69.5201 107.535 69.702 107.715 69.8839 107.987C69.9749 108.213 70.0658 108.619 70.0658 109.162Z" stroke="white" stroke-width="0.42"/>
<path d="M71.6122 106.043H71.021V110.654H71.6122V106.043Z" fill="white"/>
<path d="M71.6122 106.043H71.021V110.654H71.6122V106.043Z" stroke="white" stroke-width="0.42"/>
</svg>
