<svg width="211" height="42" viewBox="0 0 211 42" fill="none" xmlns="http://www.w3.org/2000/svg">
<path d="M0 25.7656C0 22.9062 0.357425 20.5234 1.19142 18.498C2.02541 16.4726 3.09769 15.0429 4.40825 13.9706C5.7188 13.0174 7.14851 12.3026 8.57821 11.9452C10.0079 11.5877 11.5568 11.3495 13.2247 11.3495C15.2501 11.3495 17.3947 11.5877 19.4201 12.1835V0.86499H24.6623V31.6036C24.6623 32.1993 24.5432 32.795 24.4241 33.3907C24.3049 33.9864 24.0666 34.8204 23.5901 35.7735C23.1135 36.7267 22.5178 37.5606 21.6838 38.2755C20.8498 38.9903 19.7775 39.5861 18.2287 40.0626C16.6798 40.5392 14.8927 40.7775 12.8673 40.7775C11.795 40.7775 10.7228 40.6583 9.65048 40.5392C8.57821 40.3009 7.50593 39.9435 6.31451 39.2286C5.1231 38.5138 4.05082 37.6798 3.21683 36.7267C2.38284 35.7735 1.66798 34.2247 1.07228 32.3184C0.357425 30.5313 0 28.2676 0 25.7656ZM5.24224 25.7656C5.24224 28.0293 5.48052 29.8164 5.83795 31.2461C6.19537 32.6758 6.91022 33.7481 7.62507 34.463C8.45906 35.1778 9.17391 35.5352 10.0079 35.7735C10.7228 36.0118 11.6759 36.1309 12.7482 36.1309C17.1564 36.1309 19.301 34.7012 19.301 31.8418V17.3066C17.3947 16.4726 15.3693 16.1151 13.1056 16.1151C11.9142 16.1151 10.961 16.2343 10.127 16.4726C9.29306 16.7108 8.45906 17.0683 7.62507 17.7831C6.79108 18.3788 6.19537 19.4511 5.83795 20.7617C5.48052 21.9531 5.24224 23.7402 5.24224 25.7656Z" fill="#274442"/>
<path d="M31.811 28.3865V11.7067H37.0533V28.7439C37.0533 31.3651 37.649 33.2713 38.7213 34.4627C39.7935 35.6542 41.5807 36.2499 43.9635 36.2499C46.3463 36.2499 48.0143 35.6542 49.2057 34.4627C50.278 33.2713 50.8737 31.3651 50.8737 28.7439V11.8258H56.1159V28.5057C56.1159 32.4373 55.0437 35.535 52.8991 37.7987C50.7546 39.9433 47.776 41.1347 43.9635 41.1347C40.151 41.1347 37.1724 40.0624 35.0279 37.7987C32.8833 35.535 31.811 32.4373 31.811 28.3865Z" fill="#274442"/>
<path d="M63.0259 40.5392V14.2089C67.7915 12.3026 72.4381 11.3495 76.9655 11.3495V16.2343C74.1061 16.2343 71.2467 16.7109 68.2681 17.4257V40.5392H63.0259Z" fill="#274442"/>
<path d="M79.8252 26.4805C79.8252 16.3534 83.9952 11.3495 92.4542 11.3495C96.2668 11.3495 99.3644 12.66 101.628 15.162C103.892 17.664 105.083 21 105.083 25.2891C105.083 26.5996 105.083 28.0293 104.964 29.2207H85.1866C85.7823 34.1056 88.5225 36.6075 93.2882 36.6075C97.2199 36.6075 100.437 35.8927 103.177 34.463V39.2287C100.198 40.4201 96.8625 41.1349 93.1691 41.1349H93.0499C91.3819 41.1349 89.8331 40.8966 88.4034 40.5392C86.9737 40.0627 85.544 39.4669 84.2334 38.3947C82.9229 37.4415 81.8506 35.8927 81.0166 33.8673C80.1826 31.7227 79.8252 29.3399 79.8252 26.4805ZM85.0674 24.3359H99.841C99.7219 23.3828 99.6027 22.4297 99.3644 21.5957C99.1262 20.7617 98.7687 19.8086 98.173 18.9746C97.6965 18.0214 96.8625 17.3066 95.9093 16.83C94.9562 16.3534 93.7648 15.996 92.4542 15.996C90.0714 15.996 88.2843 16.5917 87.0928 17.9023C86.0206 19.2128 85.3057 21.3574 85.0674 24.3359Z" fill="#274442"/>
<path d="M107.108 11.826H112.708L120.81 34.2247L128.911 11.826H134.511L123.431 40.5392H118.069L107.108 11.826Z" fill="#274442"/>
<path d="M138.085 33.6291C137.251 31.6037 136.894 29.1017 136.894 26.2423C136.894 23.3829 137.251 20.8809 138.085 18.8555C138.919 16.8301 139.992 15.2813 141.421 14.3282C142.851 13.2559 144.281 12.541 145.711 12.1836C147.14 11.707 152.502 11.5879 154.289 11.5879C156.076 11.5879 157.625 11.8262 159.054 12.1836C160.484 12.6602 161.914 13.375 163.344 14.3282C164.773 15.4004 165.845 16.8301 166.679 18.8555C167.513 20.8809 167.871 23.3829 167.871 26.2423C167.871 29.1017 167.513 31.6037 166.679 33.6291C165.845 35.6545 164.773 37.2034 163.344 38.1565C161.914 39.2288 160.484 39.9436 159.054 40.3011C157.625 40.7776 155.957 40.8968 154.289 40.8968C152.502 40.8968 147.259 40.6585 145.711 40.3011C144.162 39.9436 142.851 39.1096 141.421 38.1565C139.992 37.0842 138.919 35.6545 138.085 33.6291ZM142.851 20.8809C142.375 22.3106 142.255 23.9786 142.255 26.1232C142.255 28.2677 142.494 30.0549 142.851 31.3654C143.328 32.7951 143.923 33.7483 144.757 34.4631C145.591 35.178 146.425 35.5354 147.259 35.7737C148.093 36.0119 152.978 36.1311 154.17 36.1311C155.361 36.1311 156.433 36.0119 157.267 35.7737C158.101 35.5354 158.935 35.0588 159.769 34.4631C160.603 33.7483 161.199 32.7951 161.676 31.3654C162.152 29.9357 162.271 28.2677 162.271 26.1232C162.271 23.9786 162.033 22.1915 161.676 20.8809C161.199 19.4512 160.603 18.4981 159.769 17.7833C158.935 17.0684 158.101 16.711 157.267 16.4727C156.433 16.2344 155.361 16.1153 154.17 16.1153C152.978 16.1153 148.093 16.2344 147.259 16.4727C146.425 16.711 145.591 17.1876 144.757 17.7833C143.923 18.4981 143.328 19.4512 142.851 20.8809Z" fill="#274442"/>
<path d="M173.589 40.5392V0.86499H178.832V40.5392H173.589Z" fill="#274442"/>
<path d="M185.742 26.4805C185.742 16.3534 189.912 11.3495 198.371 11.3495C202.184 11.3495 205.281 12.66 207.545 15.162C209.809 17.664 211 21 211 25.2891C211 26.5996 211 28.0293 210.881 29.2207H191.104C191.699 34.1056 194.44 36.6075 199.205 36.6075C203.137 36.6075 206.354 35.8927 209.094 34.463V39.2287C206.115 40.4201 202.779 41.1349 199.086 41.1349H198.967C197.299 41.1349 195.75 40.8966 194.32 40.5392C192.891 40.0627 191.461 39.4669 190.15 38.3947C188.84 37.4415 187.768 35.8927 186.934 33.8673C186.219 31.7227 185.742 29.3399 185.742 26.4805ZM191.104 24.3359H205.877C205.758 23.3828 205.639 22.4297 205.401 21.5957C205.162 20.7617 204.805 19.8086 204.209 18.9746C203.733 18.0214 202.899 17.3066 201.945 16.83C200.992 16.3534 199.801 15.996 198.49 15.996C196.108 15.996 194.32 16.5917 193.129 17.9023C191.938 19.2128 191.342 21.3574 191.104 24.3359Z" fill="#274442"/>
</svg>
