<svg width="236" height="45" viewBox="0 0 236 45" fill="none" xmlns="http://www.w3.org/2000/svg">
<path d="M0 27.8129C0 24.6191 0.399228 21.9575 1.33076 19.6952C2.26229 17.433 3.45998 15.836 4.92381 14.6384C6.38765 13.5738 7.98456 12.7753 9.58147 12.3761C11.1784 11.9768 12.9084 11.7107 14.7714 11.7107C17.0337 11.7107 19.4291 11.9768 21.6914 12.6422V0H27.5467V34.3336C27.5467 34.999 27.4137 35.6644 27.2806 36.3297C27.1475 36.9951 26.8814 37.9267 26.349 38.9913C25.8167 40.0559 25.1514 40.9874 24.2198 41.7859C23.2883 42.5843 22.0906 43.2497 20.3606 43.782C18.6306 44.3143 16.6345 44.5805 14.3722 44.5805C13.1745 44.5805 11.9768 44.4474 10.7792 44.3143C9.58147 44.0482 8.38379 43.6489 7.05303 42.8505C5.72227 42.052 4.52458 41.1205 3.59305 40.0559C2.66152 38.9913 1.86306 37.2613 1.19768 35.1321C0.399228 33.1359 0 30.6075 0 27.8129ZM5.85534 27.8129C5.85534 30.3413 6.1215 32.3375 6.52072 33.9344C6.91995 35.5313 7.71841 36.729 8.51686 37.5274C9.4484 38.3259 10.2469 38.7251 11.1784 38.9913C11.9768 39.2574 13.0414 39.3905 14.2391 39.3905C19.1629 39.3905 21.5583 37.7936 21.5583 34.5998V18.3645C19.4291 17.433 17.1668 17.0337 14.6384 17.0337C13.3076 17.0337 12.243 17.1668 11.3115 17.433C10.3799 17.6991 9.4484 18.0983 8.51686 18.8968C7.58533 19.5622 6.91995 20.7599 6.52072 22.2237C6.1215 23.5545 5.85534 25.5506 5.85534 27.8129Z" fill="#707070"/>
<path d="M35.5312 30.7405V12.1099H41.3866V31.1397C41.3866 34.0674 42.052 36.1966 43.2497 37.5274C44.4473 38.8581 46.4435 39.5235 49.105 39.5235C51.7665 39.5235 53.6296 38.8581 54.9603 37.5274C56.158 36.1966 56.8234 34.0674 56.8234 31.1397V12.2429H62.6788V30.8736C62.6788 35.2651 61.4811 38.7251 59.0857 41.2535C56.6903 43.6489 53.3634 44.9796 49.105 44.9796C44.8466 44.9796 41.5197 43.782 39.1243 41.2535C36.7289 38.7251 35.5312 35.2651 35.5312 30.7405Z" fill="#707070"/>
<path d="M70.397 44.3143V14.9045C75.72 12.7753 80.91 11.7107 85.9669 11.7107V17.1668C82.773 17.1668 79.5792 17.6991 76.2523 18.4976V44.3143H70.397Z" fill="#707070"/>
<path d="M89.1611 28.6113C89.1611 17.2999 93.8188 11.7107 103.267 11.7107C107.526 11.7107 110.986 13.1745 113.514 15.9691C116.042 18.7637 117.373 22.4898 117.373 27.2806C117.373 28.7444 117.373 30.3413 117.24 31.6721H95.1496C95.8149 37.1282 98.8757 39.9228 104.199 39.9228C108.59 39.9228 112.183 39.1244 115.244 37.5274V42.8505C111.917 44.1812 108.191 44.9797 104.066 44.9797H103.933C102.07 44.9797 100.34 44.7135 98.7426 44.3143C97.1457 43.782 95.5488 43.1166 94.0849 41.9189C92.6211 40.8543 91.4234 39.1244 90.4919 36.8621C89.5604 34.4667 89.1611 31.8052 89.1611 28.6113ZM95.0165 26.216H111.518C111.385 25.1514 111.252 24.0868 110.986 23.1552C110.719 22.2237 110.32 21.1591 109.655 20.2276C109.123 19.1629 108.191 18.3645 107.126 17.8322C106.062 17.2999 104.731 16.9007 103.267 16.9007C100.606 16.9007 98.6095 17.566 97.2788 19.0299C96.0811 20.4937 95.2826 22.8891 95.0165 26.216Z" fill="#707070"/>
<path d="M119.636 12.2429H125.89L134.939 37.2612L143.989 12.2429H150.243L137.867 44.3142H131.879L119.636 12.2429Z" fill="#707070"/>
<path d="M154.235 36.5961C153.304 34.3338 152.904 31.5392 152.904 28.3454C152.904 25.1516 153.304 22.357 154.235 20.0947C155.167 17.8324 156.364 16.1024 157.961 15.0378C159.558 13.8401 161.155 13.0417 162.752 12.6424C164.349 12.1101 170.337 11.9771 172.333 11.9771C174.33 11.9771 176.06 12.2432 177.656 12.6424C179.253 13.1747 180.85 13.9732 182.447 15.0378C184.044 16.2355 185.242 17.8324 186.173 20.0947C187.105 22.357 187.504 25.1516 187.504 28.3454C187.504 31.5392 187.105 34.3338 186.173 36.5961C185.242 38.8584 184.044 40.5884 182.447 41.653C180.85 42.8507 179.253 43.6491 177.656 44.0484C176.06 44.5807 174.196 44.7137 172.333 44.7137C170.337 44.7137 164.482 44.4476 162.752 44.0484C161.022 43.6491 159.558 42.7176 157.961 41.653C156.364 40.4553 155.167 38.8584 154.235 36.5961ZM159.558 22.357C159.026 23.9539 158.893 25.817 158.893 28.2123C158.893 30.6077 159.159 32.6038 159.558 34.0677C160.09 35.6646 160.756 36.7292 161.687 37.5276C162.619 38.3261 163.55 38.7253 164.482 38.9915C165.413 39.2576 170.87 39.3907 172.2 39.3907C173.531 39.3907 174.729 39.2576 175.66 38.9915C176.592 38.7253 177.523 38.193 178.455 37.5276C179.386 36.7292 180.052 35.6646 180.584 34.0677C181.116 32.4708 181.249 30.6077 181.249 28.2123C181.249 25.817 180.983 23.8208 180.584 22.357C180.052 20.7601 179.386 19.6955 178.455 18.897C177.523 18.0985 176.592 17.6993 175.66 17.4332C174.729 17.167 173.531 17.0339 172.2 17.0339C170.87 17.0339 165.413 17.167 164.482 17.4332C163.55 17.6993 162.619 18.2316 161.687 18.897C160.756 19.6955 160.09 20.7601 159.558 22.357Z" fill="#707070"/>
<path d="M193.892 44.3143V0H199.747V44.3143H193.892Z" fill="#707070"/>
<path d="M207.466 28.6113C207.466 17.2999 212.123 11.7107 221.572 11.7107C225.83 11.7107 229.29 13.1745 231.819 15.9691C234.347 18.7637 235.678 22.4898 235.678 27.2806C235.678 28.7444 235.678 30.3413 235.545 31.6721H213.454C214.12 37.1282 217.18 39.9228 222.503 39.9228C226.895 39.9228 230.488 39.1244 233.549 37.5274V42.8505C230.222 44.1812 226.496 44.9797 222.37 44.9797H222.237C220.374 44.9797 218.644 44.7135 217.047 44.3143C215.45 43.782 213.853 43.1166 212.39 41.9189C210.926 40.8543 209.728 39.1244 208.797 36.8621C207.998 34.4667 207.466 31.8052 207.466 28.6113ZM213.454 26.216H229.956C229.823 25.1514 229.69 24.0868 229.423 23.1552C229.157 22.2237 228.758 21.1591 228.093 20.2276C227.56 19.1629 226.629 18.3645 225.564 17.8322C224.5 17.2999 223.169 16.9007 221.705 16.9007C219.043 16.9007 217.047 17.566 215.717 19.0299C214.386 20.4937 213.72 22.8891 213.454 26.216Z" fill="#707070"/>
</svg>
