<svg width="124" height="19" viewBox="0 0 124 19" fill="none" xmlns="http://www.w3.org/2000/svg">
<path d="M40.7941 6.80689C40.4045 5.06409 39.5621 3.47008 38.3406 2.19487C38.2353 2.07797 38.1195 1.9717 38.0036 1.87606C37.9721 1.84418 37.9405 1.8123 37.9089 1.78042C33.7495 -2.16211 28.1476 3.06626 24.8833 5.75483C21.6927 8.37965 18.6496 11.217 15.7433 14.1606C16.6173 14.5857 17.5229 15.0108 18.4495 15.4146C20.7661 16.541 22.8826 17.4124 24.9149 17.9012C26.5681 18.2944 28.1581 18.507 29.6429 18.5601C31.2961 18.6132 32.8756 18.4432 34.3287 18.0606C35.9082 17.6462 37.2771 16.8492 38.3933 15.7015C39.4147 14.6494 40.1834 13.3105 40.6256 11.8334C41.0995 10.2075 41.1626 8.46466 40.7941 6.80689Z" fill="#707070"/>
<path d="M24.5987 4.41551C24.6303 4.38363 24.6724 4.34112 24.704 4.30924C24.4618 4.18172 24.2197 4.06483 23.9669 3.9373C23.4404 3.68226 22.9034 3.42722 22.3453 3.17218C20.1235 2.06699 18.0702 1.13184 16.1116 0.664259C14.4584 0.271069 12.8683 0.0585333 11.3836 0.0053995C9.73041 -0.0371076 8.16144 0.132921 6.70831 0.515484C5.12881 0.929928 3.75992 1.72694 2.64374 2.87463C1.6118 3.92668 0.843112 5.25502 0.411383 6.73214C-0.0729955 8.35804 -0.125645 10.1008 0.232374 11.7586C0.621983 13.512 1.47491 15.106 2.69639 16.3706C3.30713 17.0082 3.98104 17.4652 4.70761 17.7415C6.1081 18.3685 7.61389 18.1772 9.10914 17.5502C9.50928 17.3908 9.91995 17.1889 10.3096 16.9657C11.0467 16.5513 11.7732 16.0624 12.4682 15.5417C13.0789 15.0848 13.6581 14.6172 14.2057 14.1496C14.8796 13.5864 15.4903 13.0338 16.0379 12.5662C19.0284 10.0158 21.882 7.26348 24.5987 4.41551Z" fill="#707070"/>
<path d="M64.9495 9.53809C64.8547 11.2277 64.423 12.7155 63.5069 14.0438C63.1804 14.522 62.7908 14.9365 62.3064 15.2659C60.7796 16.318 58.3472 15.9142 57.8523 13.4169C57.589 12.0991 57.8312 10.8346 58.2629 9.59122C58.5472 8.78359 58.9474 8.02909 59.5055 7.38086C60.1794 6.6051 60.9902 6.07376 62.0537 6.05251C63.5069 6.03126 64.4861 6.80701 64.8126 8.231C64.9179 8.68795 64.9811 9.15553 64.9495 9.53809ZM68.3401 7.83781C67.9505 5.80809 66.7501 4.3416 64.7389 3.73587C61.9063 2.88573 59.3475 3.54459 57.1678 5.52117C55.4304 7.09393 54.5564 9.11302 54.3036 11.419C54.2721 11.7272 54.251 12.0248 54.2194 12.3967C54.0615 12.1204 53.9456 11.8866 53.8087 11.6741C53.2822 10.8771 52.5241 10.3457 51.7238 9.86752C51.1341 9.51684 50.5129 9.22991 49.9969 8.76234C49.4177 8.24162 49.2808 7.43399 49.681 6.83889C50.0179 6.32881 50.5339 6.07376 51.1236 5.98875C52.2187 5.82935 53.2612 6.03126 54.251 6.49883C54.4089 6.57322 54.4511 6.54134 54.5037 6.39257C54.6827 5.8506 54.8723 5.30864 55.0618 4.76667C55.304 4.0653 55.304 4.0653 54.5985 3.82089C52.9242 3.24704 51.2289 3.22579 49.5336 3.72525C48.3437 4.07593 47.3223 4.71354 46.6484 5.78684C45.6796 7.33835 45.6164 9.26179 47.2275 10.7177C47.7961 11.2277 48.449 11.6209 49.1018 11.9929C49.5652 12.2585 50.0179 12.5348 50.376 12.9387C50.9656 13.6081 50.9235 14.6389 50.2812 15.2447C49.7547 15.7335 49.1018 15.8823 48.4069 15.8716C47.2696 15.8504 46.2166 15.5103 45.1952 15.0215C45.0373 14.9471 44.9741 14.9365 44.9109 15.1278C44.7108 15.7441 44.4897 16.3498 44.2791 16.9662C44.1317 17.4019 44.1212 17.4232 44.5424 17.6144C46.6799 18.6134 48.8807 18.7834 51.1131 17.9651C52.661 17.4019 53.7561 16.3711 54.1983 14.7346C54.251 14.522 54.2931 14.2989 54.3458 14.0651C54.3774 14.097 54.3984 14.1076 54.3984 14.1182C54.4195 14.182 54.43 14.2457 54.4511 14.3095C54.7986 15.5422 55.4304 16.5943 56.4939 17.37C57.8733 18.3796 59.4423 18.6134 61.106 18.4114C63.1594 18.1564 64.8863 17.2531 66.2025 15.6697C68.1295 13.4275 68.8982 10.7708 68.3401 7.83781Z" fill="#707070"/>
<path d="M108.912 15.4784C108.617 15.5103 108.322 15.5316 108.028 15.5528C107.111 15.6166 106.627 15.1596 106.617 14.2457C106.617 13.7888 106.648 13.3318 106.732 12.8855C107.143 10.7708 107.575 8.64542 107.985 6.5307C108.017 6.37129 108.101 6.33941 108.249 6.33941C109.186 6.35004 110.123 6.33941 111.071 6.35004C111.239 6.35004 111.302 6.29691 111.334 6.13751C111.46 5.39363 111.597 4.66038 111.755 3.92714C111.797 3.7146 111.734 3.69335 111.555 3.69335C110.628 3.70398 109.691 3.69335 108.765 3.69335C108.596 3.69335 108.544 3.6721 108.586 3.48081C108.807 2.38626 109.007 1.2917 109.207 0.197141C109.217 0.133381 109.323 0.0271129 109.165 0.00585938C109.133 0.0164861 109.102 0.0377397 109.07 0.0483665C108.017 0.345916 106.975 0.643466 105.922 0.930388C105.764 0.972895 105.669 1.02603 105.637 1.21731C105.511 1.98244 105.342 2.73694 105.216 3.50207C105.184 3.66147 105.132 3.69335 104.984 3.69335C104.658 3.68272 104.342 3.6721 104.016 3.6721C103.205 3.6721 102.394 3.68272 101.573 3.69335C101.362 3.69335 101.257 3.68272 101.32 3.41705C101.552 2.29061 101.762 1.15355 101.983 0.0164861C100.825 0.335289 99.6773 0.654092 98.519 0.972895C98.4032 1.00478 98.4032 1.08979 98.3821 1.18543C98.2347 1.96119 98.0768 2.72631 97.9504 3.50207C97.9188 3.6721 97.8662 3.70398 97.7082 3.70398C97.1817 3.69335 96.6552 3.70398 96.1287 3.70398C95.9708 3.70398 95.9181 3.74648 95.8865 3.90588C95.7602 4.64976 95.6127 5.39363 95.4548 6.13751C95.4232 6.29691 95.4443 6.36067 95.6338 6.36067C96.1392 6.35004 96.6447 6.37129 97.1607 6.35004C97.3502 6.35004 97.4028 6.39255 97.3713 6.58383C96.9816 8.49665 96.6026 10.4201 96.2235 12.3435C96.0024 13.4487 95.8023 14.5645 95.8444 15.7016C95.8971 16.9768 96.6657 17.9757 97.8977 18.3158C99.0245 18.6346 100.151 18.5283 101.278 18.2839C101.457 18.2414 101.499 18.1351 101.52 17.9757C101.615 17.1893 101.71 16.403 101.825 15.6166C101.846 15.4784 101.794 15.4572 101.678 15.4678C101.362 15.4997 101.057 15.5316 100.741 15.5422C99.8247 15.5847 99.3614 15.149 99.3614 14.2351C99.3614 13.7675 99.4035 13.3106 99.4878 12.8536C99.8984 10.7495 100.32 8.65605 100.741 6.55195C100.772 6.39255 100.836 6.33941 101.004 6.33941C102.152 6.35004 103.289 6.35004 104.437 6.33941C104.669 6.33941 104.679 6.4138 104.637 6.59446C104.289 8.32662 103.952 10.0482 103.616 11.7803C103.373 12.9811 103.131 14.182 103.11 15.404C103.1 16.9343 103.889 17.9864 105.363 18.3583C106.406 18.6133 107.448 18.5071 108.48 18.2945C108.701 18.252 108.786 18.1351 108.807 17.9226C108.891 17.1575 108.986 16.3923 109.091 15.6378C109.102 15.4891 109.049 15.4572 108.912 15.4784Z" fill="#707070"/>
<path d="M90.2845 14.6387C89.7159 15.2763 89.0209 15.712 88.1469 15.7864C86.6727 15.9139 85.546 15.1063 85.167 13.6717C84.8826 12.5665 84.9985 11.472 85.2723 10.3987C85.5987 9.11282 86.1462 7.93325 87.1255 6.99809C87.8837 6.27547 88.7787 5.91416 89.8317 6.07356C91.1269 6.26485 91.9167 7.13624 92.1378 8.52835C92.1904 8.8259 92.201 9.13407 92.201 9.44225C92.1272 11.3763 91.6008 13.1616 90.2845 14.6387ZM90.5688 3.4275C87.631 3.20434 85.2407 4.26701 83.4295 6.59428C82.1027 8.30518 81.5236 10.2711 81.4815 12.5346C81.492 12.9385 81.5236 13.4485 81.6289 13.9586C82.008 15.7014 82.9135 17.0616 84.5352 17.8905C85.6513 18.4537 86.8412 18.6025 88.0838 18.4856C89.8107 18.3369 91.3691 17.7205 92.6432 16.5516C95.0651 14.3518 96.0444 11.5676 95.6864 8.34769C95.3915 5.58473 93.3487 3.64003 90.5688 3.4275Z" fill="#707070"/>
<path d="M119.895 11.2384C119.631 12.4286 119.158 13.5126 118.378 14.4583C117.452 15.5848 116.125 16.1586 114.682 15.6167C113.798 15.2766 113.324 14.5752 113.071 13.6932C112.945 13.2575 112.892 12.8006 112.903 12.3436C112.955 10.6433 113.408 9.07057 114.409 7.67847C114.946 6.92397 115.63 6.33949 116.557 6.12696C118.305 5.72314 119.642 6.60516 120.011 8.37983C120.221 9.34687 120.095 10.2927 119.895 11.2384ZM123.685 9.18747C123.654 8.75177 123.612 8.31607 123.528 7.88037C123.022 5.3512 121.042 3.59779 118.442 3.41713C115.672 3.22585 113.345 4.16101 111.576 6.30761C109.765 8.50735 109.07 11.0578 109.533 13.8526C109.86 15.8505 110.986 17.3169 112.903 18.0821C114.135 18.5709 115.409 18.624 116.694 18.3796C119.705 17.8058 121.706 15.9886 122.906 13.2363C123.401 12.1098 123.612 10.9196 123.685 9.69755C123.57 9.52752 123.57 9.3575 123.685 9.18747Z" fill="#707070"/>
<path d="M81.6712 6.48798C81.4501 4.70268 80.1128 3.46998 78.3227 3.39559C76.2904 3.3212 74.6688 4.12884 73.363 5.63784C73.1735 5.861 72.9945 6.09479 72.8155 6.31795C72.7944 6.30732 72.7734 6.2967 72.7523 6.28607C72.8365 5.52094 72.9208 4.76644 73.0261 4.00131C73.0682 3.68251 73.0682 3.69314 72.7418 3.69314C71.8994 3.69314 71.0675 3.69314 70.2251 3.68251C70.0461 3.68251 69.9724 3.72502 69.9513 3.90567C69.7828 5.55282 69.4248 7.16809 69.1195 8.79399C68.5298 11.8439 67.9612 14.9044 67.382 17.9649C67.3504 18.1137 67.3715 18.1562 67.5294 18.1562C68.5719 18.1455 69.6144 18.1562 70.6568 18.1562C70.7832 18.1562 70.8253 18.1243 70.8569 17.9968C71.2255 15.9564 71.6045 13.9161 71.9731 11.8758C72.2469 10.3349 72.7312 8.88963 73.7527 7.66755C74.2686 7.0512 74.8688 6.53048 75.6586 6.30732C76.7642 5.98852 78.091 6.27544 78.1647 8.06074C78.1963 8.76211 78.1121 9.46347 77.9857 10.1542C77.5013 12.7578 76.9959 15.3507 76.4799 17.9543C76.4378 18.1562 76.501 18.1668 76.6695 18.1668C77.6593 18.1562 78.6491 18.1562 79.6389 18.1668C79.7969 18.1668 79.8706 18.1349 79.9022 17.9543C80.4181 15.2657 80.9341 12.5771 81.4606 9.88854C81.6817 8.76211 81.8081 7.63567 81.6712 6.48798Z" fill="#707070"/>
</svg>
