<svg width="24" height="24" viewBox="0 0 24 24" fill="none" xmlns="http://www.w3.org/2000/svg">
<path d="M23.7067 22.2928L16.8818 15.4679C18.2038 13.835 18.9997 11.76 18.9997 9.50002C18.9997 4.26208 14.7378 0.00012207 9.49985 0.00012207C4.26191 0.00012207 0 4.26204 0 9.49997C0 14.7379 4.26196 18.9999 9.49989 18.9999C11.7598 18.9999 13.8348 18.2039 15.4678 16.8819L22.2927 23.7068C22.4877 23.9018 22.7437 23.9998 22.9997 23.9998C23.2557 23.9998 23.5117 23.9018 23.7067 23.7068C24.0977 23.3158 24.0977 22.6838 23.7067 22.2928ZM9.49989 16.9999C5.36393 16.9999 1.99999 13.6359 1.99999 9.49997C1.99999 5.36401 5.36393 2.00007 9.49989 2.00007C13.6359 2.00007 16.9998 5.36401 16.9998 9.49997C16.9998 13.6359 13.6358 16.9999 9.49989 16.9999Z" fill="#FFE7B9"/>
</svg>
