<svg width="22" height="22" viewBox="0 0 22 22" fill="none" xmlns="http://www.w3.org/2000/svg">
<path fill-rule="evenodd" clip-rule="evenodd" d="M3.62402 16.2293L2.81091 18.9045L5.92515 18.4648L6.52103 18.8074C7.87883 19.588 9.41937 20 11 20C15.9749 20 20 15.9756 20 11C20 6.02506 15.9756 2 11 2C6.02506 2 2 6.02442 2 11C2 12.5806 2.41197 14.1212 3.19262 15.479L3.62402 16.2293ZM0 11C0 4.91975 4.92059 0 11 0C17.0802 0 22 4.92059 22 11C22 17.0802 17.0794 22 11 22C9.0706 22 7.18619 21.4968 5.52417 20.5412L1.45876 21.1152C1.14891 21.2149 0.813385 21.1307 0.587631 20.9049C0.359695 20.677 0.278458 20.3406 0.377319 20.0338L1.45876 16.4758C0.503204 14.8138 0 12.9294 0 11Z" fill="#FFE7B9"/>
</svg>
