<svg xmlns="http://www.w3.org/2000/svg" viewBox="0 0 429.06 146.67"><defs><style>.cls-1{fill:#fff;}</style></defs><g id="Camada_2" data-name="Camada 2"><g id="Camada_1-2" data-name="Camada 1"><path class="cls-1" d="M45.86,124.6a24.72,24.72,0,0,0,2.45.53,2.15,2.15,0,0,0,1-.26,1.31,1.31,0,0,0,.67-.8h.81l.35,7.36h-.88a10,10,0,0,0-2-3.53A8.22,8.22,0,0,0,42,125.37a8.57,8.57,0,0,0-6.56,2.72,10.49,10.49,0,0,0-2.55,7.48,9.09,9.09,0,0,0,9.47,9.61A12.32,12.32,0,0,0,47.78,144a16.4,16.4,0,0,0,3.16-2.07l.71.6a12.52,12.52,0,0,1-3.16,2.42,14.28,14.28,0,0,1-7,1.76q-6.15,0-9.78-3.38a10.23,10.23,0,0,1-3.34-7.78,10.48,10.48,0,0,1,3.53-8,13.76,13.76,0,0,1,9.67-3.41A18.11,18.11,0,0,1,45.86,124.6Z"/><path class="cls-1" d="M53.52,146.12v-.6a3.32,3.32,0,0,0,2.21-1,24.51,24.51,0,0,0,2.52-4.42l8-16.07H67l9.52,18.57A7.55,7.55,0,0,0,78,144.92a4.07,4.07,0,0,0,1.91.6v.6H70.21v-.6a9.43,9.43,0,0,0,2.16-.32c.33-.12.49-.42.49-.89a3.32,3.32,0,0,0-.19-.85,8.53,8.53,0,0,0-.52-1.27L70.62,139H60.55c-1,2.14-1.59,3.45-1.78,3.92a3.28,3.28,0,0,0-.29,1.12,1.15,1.15,0,0,0,.78,1.15,7.35,7.35,0,0,0,1.83.29v.6ZM70,137.71l-4.37-9-4.41,9Z"/><path class="cls-1" d="M83,139.53a11.4,11.4,0,0,0,2.28,3.52,7.6,7.6,0,0,0,5.64,2.29,5.15,5.15,0,0,0,3.16-1,3.24,3.24,0,0,0,1.33-2.77,3.59,3.59,0,0,0-1.34-2.78,23.56,23.56,0,0,0-3.69-2.25l-3.25-1.75a11.23,11.23,0,0,1-2.35-1.61,4.66,4.66,0,0,1-1.63-3.42,5.19,5.19,0,0,1,1.93-4.13A7.53,7.53,0,0,1,90.18,124a11.15,11.15,0,0,1,3.14.56,16.8,16.8,0,0,0,2.1.55,1.32,1.32,0,0,0,1-.29,1.91,1.91,0,0,0,.42-.82h.79l.84,7h-.92a7.24,7.24,0,0,0-3-4.4,7.89,7.89,0,0,0-4.08-1.25,4.69,4.69,0,0,0-2.73.79,2.51,2.51,0,0,0-1.17,2.2,3,3,0,0,0,.89,2.16,11.49,11.49,0,0,0,2.78,1.9l3.36,1.78a17.15,17.15,0,0,1,4.44,3,4.81,4.81,0,0,1,1.28,3.33,5.23,5.23,0,0,1-2.27,4.3,9.32,9.32,0,0,1-5.8,1.72,13.07,13.07,0,0,1-3.7-.57,16.87,16.87,0,0,0-2.21-.58,1,1,0,0,0-.91.35,2.18,2.18,0,0,0-.31.76h-.83l-1.14-7Z"/><path class="cls-1" d="M102.37,146.12v-.6a3.32,3.32,0,0,0,2.21-1,25,25,0,0,0,2.53-4.42l8-16.07h.76l9.52,18.57a7.55,7.55,0,0,0,1.52,2.28,4.07,4.07,0,0,0,1.91.6v.6h-9.71v-.6a9.65,9.65,0,0,0,2.16-.32c.32-.12.48-.42.48-.89a3.32,3.32,0,0,0-.19-.85,7.58,7.58,0,0,0-.52-1.27L119.47,139H109.4c-1,2.14-1.59,3.45-1.78,3.92a3.28,3.28,0,0,0-.29,1.12,1.15,1.15,0,0,0,.79,1.15,7.25,7.25,0,0,0,1.82.29v.6Zm16.46-8.41-4.38-9-4.4,9Z"/><path class="cls-1" d="M137.48,145.52a6.42,6.42,0,0,0,2.73-.65c.42-.3.63-1.07.63-2.3V128a3.07,3.07,0,0,0-.61-2.31,5.38,5.38,0,0,0-2.75-.64v-.6h10.3a23.32,23.32,0,0,1,8.81,1.47q6.49,2.64,6.5,9.43a9.85,9.85,0,0,1-1.17,4.66,10,10,0,0,1-3.52,3.72,12.46,12.46,0,0,1-3.1,1.45,24,24,0,0,1-7.2.93H137.48Zm7.7-.87a4.53,4.53,0,0,0,1.89.26,15.85,15.85,0,0,0,7.38-1.52q4.44-2.34,4.44-8a8.62,8.62,0,0,0-3.66-7.58,14.3,14.3,0,0,0-8.3-2.18,4.29,4.29,0,0,0-1.75.24,1.09,1.09,0,0,0-.46,1.06V143.6A1.11,1.11,0,0,0,145.18,144.65Z"/><path class="cls-1" d="M169.45,126.89a14.44,14.44,0,0,1,17.37,0,11.08,11.08,0,0,1-.13,16.87,13.32,13.32,0,0,1-8.56,2.82,13,13,0,0,1-8.92-3.12,11.08,11.08,0,0,1,.24-16.58Zm2.86,16a7.75,7.75,0,0,0,5.83,2.47,7.88,7.88,0,0,0,5.78-2.4c1.6-1.61,2.4-4.17,2.4-7.7s-.81-6.15-2.43-7.74a7.93,7.93,0,0,0-5.75-2.38,7.74,7.74,0,0,0-5.82,2.47q-2.38,2.46-2.39,7.65C169.93,138.74,170.73,141.29,172.31,142.93Z"/><path class="cls-1" d="M202.05,145.52a4.82,4.82,0,0,0,2.74-.74,4.05,4.05,0,0,0,.54-2.59V128a3.1,3.1,0,0,0-.6-2.27,5.1,5.1,0,0,0-2.68-.68v-.6h10.58a17.89,17.89,0,0,1,5.5.72c2.79.9,4.18,2.57,4.18,5a4.35,4.35,0,0,1-1.85,3.76,11.29,11.29,0,0,1-5.05,1.72l7.87,8.31a5,5,0,0,0,1.46,1.11,5.64,5.64,0,0,0,1.87.45v.6h-6.16L210.89,136l-1.68.08v6.46c0,1.21.22,2,.65,2.3a6.09,6.09,0,0,0,2.81.65v.6H202.05Zm13.06-11.36a4,4,0,0,0,3-4,3.85,3.85,0,0,0-2.72-3.88,11.08,11.08,0,0,0-3.87-.56,5.63,5.63,0,0,0-2,.2c-.24.14-.37.45-.37.94v8.06A22.24,22.24,0,0,0,215.11,134.16Z"/><path class="cls-1" d="M227.67,146.12v-.6a3.3,3.3,0,0,0,2.21-1,23.69,23.69,0,0,0,2.53-4.42l8-16.07h.76l9.53,18.57a7.55,7.55,0,0,0,1.52,2.28,4,4,0,0,0,1.91.6v.6h-9.72v-.6a9.43,9.43,0,0,0,2.16-.32.84.84,0,0,0,.49-.89,3.84,3.84,0,0,0-.19-.85,9.75,9.75,0,0,0-.52-1.27L244.78,139H234.7c-1,2.14-1.58,3.45-1.77,3.92a3.06,3.06,0,0,0-.29,1.12,1.15,1.15,0,0,0,.78,1.15,7.26,7.26,0,0,0,1.83.29v.6Zm16.46-8.41-4.38-9-4.4,9Z"/><path class="cls-1" d="M257.17,139.53a11.57,11.57,0,0,0,2.27,3.52,7.64,7.64,0,0,0,5.65,2.29,5.15,5.15,0,0,0,3.16-1,3.24,3.24,0,0,0,1.33-2.77,3.62,3.62,0,0,0-1.34-2.78,23.56,23.56,0,0,0-3.69-2.25l-3.26-1.75a11.79,11.79,0,0,1-2.35-1.61,4.68,4.68,0,0,1-1.62-3.42,5.21,5.21,0,0,1,1.92-4.13,7.55,7.55,0,0,1,5.1-1.65,11.15,11.15,0,0,1,3.14.56,16.8,16.8,0,0,0,2.1.55,1.33,1.33,0,0,0,1-.29A1.91,1.91,0,0,0,271,124h.78l.84,7h-.91a7.21,7.21,0,0,0-3-4.4,7.83,7.83,0,0,0-4.07-1.25,4.75,4.75,0,0,0-2.74.79,2.53,2.53,0,0,0-1.16,2.2,3,3,0,0,0,.89,2.16,11.29,11.29,0,0,0,2.78,1.9l3.35,1.78a17.24,17.24,0,0,1,4.45,3,4.8,4.8,0,0,1,1.27,3.33,5.2,5.2,0,0,1-2.27,4.3,9.29,9.29,0,0,1-5.79,1.72,13,13,0,0,1-3.7-.57,17.31,17.31,0,0,0-2.21-.58,1,1,0,0,0-.91.35,2.18,2.18,0,0,0-.31.76h-.84l-1.14-7Z"/><path class="cls-1" d="M276.58,145.52a4.69,4.69,0,0,0,2.72-.75,4,4,0,0,0,.54-2.58V128a3.09,3.09,0,0,0-.6-2.26,4.93,4.93,0,0,0-2.66-.69v-.6h10.07c3.24,0,5.71.54,7.43,1.61a4.87,4.87,0,0,1,2.58,4.26,5.08,5.08,0,0,1-2.86,4.84,15.24,15.24,0,0,1-7.15,1.5c-.41,0-.93,0-1.57,0s-1.12,0-1.43,0v5.94c0,1.23.22,2,.66,2.33a6.74,6.74,0,0,0,3,.62v.6H276.58Zm12.89-19.24a11.94,11.94,0,0,0-4.1-.61,3.11,3.11,0,0,0-1.45.2,1.1,1.1,0,0,0-.27.89v8.54l1.34.09.62,0a10.82,10.82,0,0,0,4.14-.64,4.33,4.33,0,0,0,2.75-4.36A4.13,4.13,0,0,0,289.47,126.28Z"/><path class="cls-1" d="M294.27,146.12v-.6a3.32,3.32,0,0,0,2.21-1,24.31,24.31,0,0,0,2.53-4.42l8-16.07h.76l9.52,18.57a7.74,7.74,0,0,0,1.52,2.28,4.08,4.08,0,0,0,1.92.6v.6H311v-.6a9.43,9.43,0,0,0,2.16-.32c.32-.12.48-.42.48-.89a3.64,3.64,0,0,0-.18-.85,8.64,8.64,0,0,0-.53-1.27L311.38,139H301.3c-1,2.14-1.58,3.45-1.77,3.92a3.06,3.06,0,0,0-.29,1.12,1.15,1.15,0,0,0,.78,1.15,7.25,7.25,0,0,0,1.82.29v.6Zm16.46-8.41-4.38-9-4.4,9Z"/><path class="cls-1" d="M321.92,145.52a6.42,6.42,0,0,0,2.73-.65c.42-.3.63-1.07.63-2.3V128a3.07,3.07,0,0,0-.61-2.31,5.38,5.38,0,0,0-2.75-.64v-.6h10.3a23.36,23.36,0,0,1,8.81,1.47q6.5,2.64,6.49,9.43a9.84,9.84,0,0,1-1.16,4.66,10,10,0,0,1-3.52,3.72,12.46,12.46,0,0,1-3.1,1.45,24,24,0,0,1-7.2.93H321.92Zm7.7-.87a4.53,4.53,0,0,0,1.89.26,15.85,15.85,0,0,0,7.38-1.52q4.44-2.34,4.44-8a8.62,8.62,0,0,0-3.66-7.58,14.31,14.31,0,0,0-8.31-2.18,4.26,4.26,0,0,0-1.74.24c-.31.16-.46.51-.46,1.06V143.6A1.09,1.09,0,0,0,329.62,144.65Z"/><path class="cls-1" d="M353.89,126.89a14.44,14.44,0,0,1,17.37,0,11.08,11.08,0,0,1-.13,16.87,13.32,13.32,0,0,1-8.56,2.82,13,13,0,0,1-8.92-3.12,11.1,11.1,0,0,1,.24-16.58Zm2.86,16a7.75,7.75,0,0,0,5.83,2.47,7.88,7.88,0,0,0,5.78-2.4c1.6-1.61,2.4-4.17,2.4-7.7s-.81-6.15-2.43-7.74a7.93,7.93,0,0,0-5.75-2.38,7.74,7.74,0,0,0-5.82,2.47q-2.38,2.46-2.39,7.65C354.37,138.74,355.16,141.29,356.75,142.93Z"/><path class="cls-1" d="M376.93,145.52a4.86,4.86,0,0,0,2.75-.74,4.05,4.05,0,0,0,.54-2.59V128a3.05,3.05,0,0,0-.61-2.27,5.07,5.07,0,0,0-2.68-.68v-.6h10.59a17.94,17.94,0,0,1,5.5.72c2.79.9,4.18,2.57,4.18,5a4.33,4.33,0,0,1-1.86,3.76,11.29,11.29,0,0,1-5,1.72l7.87,8.31a4.92,4.92,0,0,0,1.46,1.11,5.51,5.51,0,0,0,1.86.45v.6h-6.15L385.78,136l-1.68.08v6.46c0,1.21.21,2,.64,2.3a6.13,6.13,0,0,0,2.81.65v.6H376.93ZM390,134.16a4,4,0,0,0,3-4,3.85,3.85,0,0,0-2.73-3.88,11,11,0,0,0-3.86-.56,5.74,5.74,0,0,0-2,.2c-.24.14-.36.45-.36.94v8.06A22.3,22.3,0,0,0,390,134.16Z"/><path class="cls-1" d="M163.18,96.05H137.41l-3.58,10.44H110.65l27.61-63.26H163l27.6,63.26H166.86Zm-4.71-13.68-8.11-22.74-8,22.74Z"/><path class="cls-1" d="M230.93,0h21.36V77.33q0,11.25-2.09,17.13a19.88,19.88,0,0,1-8.42,10q-6.33,4.08-16.21,4.08-10.44,0-16.18-2.69c-3.83-1.8-8.64-7.86-9.74-11.74-2.6-9.24-1.74-23.06-1.74-32.43l19.29.44c0,2.9.29,21.29.8,22.7a7,7,0,0,0,2.54,3.41A6.08,6.08,0,0,0,224,89a5.84,5.84,0,0,0,5.24-2.53c1.12-1.69,1.67-4.54,1.67-8.54Z"/><path class="cls-1" d="M269.39,43.23H290v23.9l21.64-23.9,18,10L314.76,67.11l25.49,39.38H314.81l-14.09-26L290,91.05v15.44H269.39Z"/><polygon class="cls-1" points="325.1 64.3 429.06 94.94 429.06 77 328.36 46.79 338.08 52.2 325.1 64.3"/><path class="cls-1" d="M226.7,17.33c0-.34,0-.68.06-1l-45-13.51L0,77V99.84L185.63,23.19l41.07,12.1Z"/><polygon class="cls-1" points="307.4 40.5 256.09 25.11 256.09 43.96 264.38 46.4 264.38 38.23 295.04 38.23 295.04 54.16 307.4 40.5"/></g></g></svg>