<svg xmlns="http://www.w3.org/2000/svg" viewBox="0 0 477.65 578.54"><defs><style>.cls-1{fill:#fff;}.cls-2{fill:#5a9b97;}</style></defs><g id="Camada_2" data-name="Camada 2"><g id="Camada_1-2" data-name="Camada 1"><path class="cls-1" d="M215.59,577.44c-78.65-6.67-171-45.23-194.52-133.79C7.57,401.16.09,348.84,0,296.35v0C-.11,230.44,13.83,14.38,196.85,0a144.57,144.57,0,0,1,33.78,5.61c121.39,73.1,246.78,230.5,247,368.1q.12,54.24-26.8,97.33C410.88,554.91,303.9,584.9,215.59,577.44Z"/><path class="cls-2" d="M430.06,449.09c16.13-25.63,24.28-55.32,24.24-88.25-.19-121.2-110.11-259.39-216.25-323l-1.53-.67A135.19,135.19,0,0,0,203,31.69C35.9,44.75,23.23,236.74,23.33,295.27v0c.07,45.68,6.61,91.3,18.34,128.17C63.16,504.54,146.83,539.88,218,545.88,297.39,552.61,393.89,525.11,430.06,449.09ZM219.11,533.61c-66.69-5.65-145-38.34-164.93-113.44-11.45-36-17.79-80.39-17.87-124.9h0C36.22,239.38,48,56.18,203.23,44a122.64,122.64,0,0,1,28.63,4.75c102.93,62,209.25,195.45,209.45,312.13.07,30.65-7.47,58.22-22.72,82.53C384.71,514.51,294,539.94,219.11,533.61Z"/><path class="cls-2" d="M379.57,298.92a117.39,117.39,0,0,0-.82-13.89l-4.17-12.3c-25.2-72-53.76-153.62-143.76-189.6a99.07,99.07,0,0,0-24.89-4l-1,0-.93.24C100.87,105.89,54,207,54.14,289.77h0c.13,68.75,29.65,127.7,80.53,161.36,33.7,27.35,80,31.21,126.88,10.62C328.94,432.17,379.67,362.16,379.57,298.92Zm-237,142.48c-47.85-31.7-75.36-87-75.46-151.65-.13-77.94,43.43-173,139.36-198.26a85.48,85.48,0,0,1,19.89,3.21c84,33.6,111.55,112.41,135.88,181.91l3.67,10.44a110,110,0,0,1,.66,11.89c.1,58.75-47.41,123.93-110.5,151.64C231.34,461.43,183.76,474.74,142.59,441.4Z"/><path class="cls-2" d="M315.51,267.71a102.93,102.93,0,0,0-1.7-18.87c-.05-33.49-22.26-56.35-41.86-76.49-11.15-11.46-21.68-22.3-27.38-34l-.81-1.68-1.66-1c-11.27-6.6-23-9.89-34.87-9.8l-1.82.25c-79.09,22.62-89.13,87.7-89,141.85v0c0,14.57.79,29.07,1.54,43.09.67,13,1.32,25.28,1.34,36.7,0,15.85,28.94,43.11,58.49,43.06C253.82,390.75,315.62,335.51,315.51,267.71Zm-183.29,80.1c0-11.72-.67-24.15-1.36-37.29-.73-13.9-1.49-28.23-1.52-42.51v0c-.08-52.75,9.25-109.37,78.9-129.76a53.89,53.89,0,0,1,25.43,7.07c6.66,12.71,17.4,23.75,28.74,35.41,18.87,19.41,38.38,39.47,38.51,69.16a104.26,104.26,0,0,1,1.62,17.87c.09,61-55.9,110.69-124.82,110.82C154.88,378.61,132.24,356,132.22,347.81Z"/></g></g></svg>