<svg xmlns="http://www.w3.org/2000/svg" viewBox="0 0 430.98 515.17"><defs><style>.cls-1{fill:#5a9b97;}</style></defs><g id="Camada_2" data-name="Camada 2"><g id="Camada_1-2" data-name="Camada 1"><path class="cls-1" d="M406.73,417.4C422.86,391.77,431,362.08,431,329.15,430.78,208,320.86,69.76,214.73,6.18l-1.53-.67A135.35,135.35,0,0,0,179.67,0C12.57,13.06-.1,205.05,0,263.58v0c.07,45.68,6.62,91.3,18.34,128.17C39.83,472.85,123.5,508.19,194.63,514.19,274.07,520.92,370.57,493.42,406.73,417.4ZM195.79,501.92c-66.69-5.65-145-38.34-164.94-113.44-11.45-36-17.79-80.39-17.87-124.9h0C12.89,207.69,24.71,24.49,179.9,12.3a122.56,122.56,0,0,1,28.63,4.75C311.47,79,417.79,212.5,418,329.18c.06,30.65-7.47,58.22-22.73,82.53C361.38,482.82,270.67,508.25,195.79,501.92Z"/><path class="cls-1" d="M356.25,267.23a119.7,119.7,0,0,0-.83-13.89L351.25,241C326.05,169,297.5,87.42,207.5,51.45a98.78,98.78,0,0,0-24.9-4l-1,0-.93.24C77.54,74.2,30.69,175.34,30.82,258.08h0c.12,68.75,29.65,127.7,80.52,161.36,33.71,27.35,80,31.21,126.88,10.62C305.61,400.48,356.35,330.47,356.25,267.23Zm-237,142.48c-47.85-31.7-75.35-87-75.45-151.65C43.67,180.12,87.24,85,183.16,59.8A85.48,85.48,0,0,1,203.05,63c84,33.6,111.55,112.41,135.88,181.91l3.67,10.44a110,110,0,0,1,.67,11.89c.09,58.75-47.41,123.93-110.5,151.64C208,429.74,160.43,443.05,119.26,409.71Z"/><path class="cls-1" d="M292.18,236a103,103,0,0,0-1.69-18.87c-.06-33.49-22.27-56.35-41.87-76.49-11.14-11.46-21.67-22.3-27.37-34l-.82-1.68-1.66-1c-11.27-6.6-23-9.89-34.86-9.8l-1.83.25C103,117.09,93,182.18,93,236.32v0c0,14.57.78,29.07,1.53,43.09.68,13,1.32,25.28,1.34,36.7,0,15.86,28.94,43.11,58.5,43.06C230.5,359.06,292.3,303.82,292.18,236ZM108.9,316.12c0-11.72-.68-24.15-1.37-37.29-.72-13.9-1.49-28.23-1.52-42.51v0c-.08-52.75,9.26-109.37,78.9-129.76a53.93,53.93,0,0,1,25.44,7.07c6.65,12.71,17.4,23.75,28.74,35.42,18.86,19.4,38.37,39.46,38.5,69.15a104.35,104.35,0,0,1,1.62,17.87c.1,61-55.9,110.69-124.82,110.82C131.55,346.92,108.91,324.3,108.9,316.12Z"/></g></g></svg>