<?xml version="1.0" encoding="utf-8"?>
<!-- Generator: Adobe Illustrator 25.2.1, SVG Export Plug-In . SVG Version: 6.00 Build 0)  -->
<svg version="1.1" id="Camada_1" xmlns="http://www.w3.org/2000/svg" xmlns:xlink="http://www.w3.org/1999/xlink" x="0px" y="0px"
	 viewBox="0 0 22 22" style="enable-background:new 0 0 22 22;" xml:space="preserve">
<style type="text/css">
	.st0{fill:#274442;}
</style>
<path class="st0" d="M21.9,6.5c-0.1-1.2-0.2-2-0.5-2.7c-0.3-0.7-0.7-1.4-1.3-2c-0.6-0.6-1.2-1-1.9-1.3c-0.7-0.3-1.5-0.5-2.7-0.5
	C14.4,0,14,0,11,0S7.6,0,6.5,0.1c-1.2,0.1-2,0.2-2.7,0.5c-0.7,0.3-1.4,0.7-2,1.3c-0.6,0.6-1,1.2-1.3,1.9C0.3,4.5,0.1,5.3,0.1,6.5
	C0,7.6,0,8,0,11s0,3.4,0.1,4.5c0.1,1.2,0.2,2,0.5,2.7c0.3,0.7,0.7,1.4,1.3,2c0.6,0.6,1.2,1,1.9,1.3c0.7,0.3,1.5,0.5,2.7,0.5
	C7.6,22,8,22,11,22s3.4,0,4.5-0.1c1.2-0.1,2-0.2,2.7-0.5c1.5-0.6,2.6-1.7,3.2-3.2c0.3-0.7,0.5-1.5,0.5-2.7C22,14.4,22,14,22,11
	S22,7.6,21.9,6.5z M20,15.5c0,1.1-0.2,1.7-0.4,2c-0.4,1-1.1,1.7-2.1,2.1c-0.4,0.2-1,0.3-2,0.4C14.3,20,13.9,20,11,20S7.7,20,6.6,20
	c-1.1,0-1.7-0.2-2-0.4c-0.5-0.2-0.9-0.5-1.3-0.8c-0.4-0.4-0.6-0.8-0.8-1.3c-0.2-0.4-0.3-1-0.4-2C2,14.3,2,13.9,2,11s0-3.3,0.1-4.4
	c0-1.1,0.2-1.7,0.4-2C2.6,4,2.9,3.6,3.3,3.3c0.4-0.4,0.8-0.6,1.3-0.8c0.4-0.2,1-0.3,2-0.4C7.7,2,8.1,2,11,2c2.9,0,3.3,0,4.4,0.1
	c1.1,0,1.7,0.2,2,0.4c0.5,0.2,0.9,0.5,1.3,0.8c0.4,0.4,0.6,0.8,0.8,1.3c0.2,0.4,0.3,1,0.4,2C20,7.7,20,8.1,20,11S20,14.3,20,15.5z"
	/>
<path class="st0" d="M11,5.4c-3.1,0-5.7,2.5-5.7,5.7s2.5,5.7,5.7,5.7c3.1,0,5.7-2.5,5.7-5.7S14.1,5.4,11,5.4z M11,14.7
	c-2,0-3.7-1.6-3.7-3.7S9,7.3,11,7.3c2,0,3.7,1.6,3.7,3.7S13,14.7,11,14.7z"/>
<path class="st0" d="M18.2,5.1c0,0.7-0.6,1.3-1.3,1.3c-0.7,0-1.3-0.6-1.3-1.3c0-0.7,0.6-1.3,1.3-1.3C17.6,3.8,18.2,4.4,18.2,5.1z"/>
</svg>
