<?xml version="1.0" encoding="utf-8"?>
<!-- Generator: Adobe Illustrator 25.2.1, SVG Export Plug-In . SVG Version: 6.00 Build 0)  -->
<svg version="1.1" id="Camada_1" xmlns="http://www.w3.org/2000/svg" xmlns:xlink="http://www.w3.org/1999/xlink" x="0px" y="0px"
	 viewBox="0 0 242 25" style="enable-background:new 0 0 242 25;" xml:space="preserve">
<style type="text/css">
	.st0{fill:#FFFFFF;}
</style>
<path class="st0" d="M150.9,22.2c-1.1,0-2.3-0.1-3.4-0.3c-0.3-2.7-0.4-5.4-0.3-8.1l0.1-0.2c2.3-0.5,4.7-0.7,7.1-0.5
	c0.2-0.7,0.3-1.3,0.5-1.9c-2.5,0.4-5.1,0.5-7.7,0.3l-0.1-0.1c-0.1-2.5,0-5.1,0.2-7.6l0.3-0.4c2.4-0.3,4.9-0.2,7.3,0.3
	c0.1-0.8,0.2-1.4,0.4-2.2c-2.7,0.1-5.4,0.2-8.2,0.2h-4.2c0.1,3.9,0.1,7.8,0,11.7c-0.1,3.6-0.3,7-0.5,10.5H156l0.2-2.1
	C154.4,22.1,152.6,22.2,150.9,22.2"/>
<path class="st0" d="M128.5,1.6L128.5,1.6c-4.1,0-7.6-0.1-9.4-0.3l0.3,2c2.2,0.1,4.1,0,6.3,0l0.5,0.3c0.3,6.8,0.2,13.6-0.3,20.3h5
	c-0.5-6.8-0.6-13.5-0.3-20.3l0.5-0.3c2.2,0,4.4,0.1,6.7,0c0.1-0.7,0.2-1.3,0.3-2C136.5,1.5,132.6,1.6,128.5,1.6L128.5,1.6z"/>
<path class="st0" d="M108,10.8c-0.4,0.4-1,0.8-1.6,1c-0.6,0.2-1.2,0.3-1.8,0.3c-0.2,0-0.3,0-0.5-0.1c-0.1-3-0.1-6,0-8.9
	c1.4,0,2.9,0.1,4,1c1.3,1.2,1.4,3.5,0.8,5.1C108.7,9.9,108.4,10.4,108,10.8L108,10.8z M109.2,12.7c1.2-0.5,2.3-1.2,3.3-2.1
	c2.1-2.2,2.2-6-0.5-7.7c-3.2-2.1-9.3-1.4-12.4-1c0.3,7.3,0.3,14.6-0.1,21.9h5c-0.2-3.4-0.4-6.9-0.3-10.3c0.4-0.1,0.7-0.2,1.1-0.1
	c2.5,4.4,5.7,11,11.3,11c1.1,0,2.2-0.2,3.2-0.5C115.2,22,111.6,16.3,109.2,12.7"/>
<path class="st0" d="M83.2,0.1c-2.9,8.1-6.1,16.1-9.7,23.8h2.7c2.2-6,4.2-11.9,6.7-17.8c2.4,6.4,4.3,11.9,6.6,17.4l0.5,0.4h4.9
	c-3.5-7.2-6.5-14.7-9.1-22.3L83.2,0.1z"/>
<path class="st0" d="M64.5,3.2c2.6-0.2,5.2,1.5,5.2,4.3v0.1h0.4c0.3-1.7,0.4-3.3,0.4-5c-3.3-1.5-8.1-1.7-11.3,0
	c-3.2,1.7-4,6.2-1.3,8.8l0.5,0.4c1.1,0.8,2.2,1.6,3.5,2.2c0.7,0.4,1.3,0.8,1.8,1.2c0.4,0.3,0.7,0.6,1.1,0.9c0.5,0.5,0.9,1.2,1,1.9
	c0.1,0.7,0.1,1.5-0.2,2.1c-0.3,0.7-0.8,1.2-1.4,1.6c-0.6,0.4-1.3,0.6-2.1,0.6c-2.5,0.1-5-1.4-5.3-4.1h-0.4l-0.4,5.4
	c3.8,0.7,8.8,1.4,12.2-0.8c0.7-0.5,1.2-1.1,1.6-1.9c0.4-0.7,0.6-1.6,0.7-2.4c0.2-3.7-2.5-5.4-5.5-7c-1.4-0.8-3.1-1.7-3.7-3.3
	C60.4,5.7,61.8,3.3,64.5,3.2"/>
<path class="st0" d="M40.2,22.5c-5.7,0-6.9-5.4-6.9-10c0-4.6,1.1-9.9,6.9-10c5.7,0,6.9,5.3,6.9,10C47.1,17.2,46,22.5,40.2,22.5z
	 M48.4,4c-4.1-4.2-12.2-4.2-16.3,0c-2.2,2.3-3,5.4-3.1,8.6c0,3.1,0.8,6.2,3.1,8.6c4.1,4.2,12.2,4.2,16.3,0c2.2-2.3,3-5.4,3.1-8.6
	C51.5,9.5,50.7,6.4,48.4,4z"/>
<path class="st0" d="M19.2,1.3c-1.8,5.3-4,10.5-6.5,15.6L3.9,0C3.1,0.5,2.4,0.9,1.7,1.4C1.4,7.7,0.8,16.4,0,23.8h2.3
	c0.1-5.3,0.5-10.7,0.9-16l8.1,15.6l7.7-16.2c0.4,5.5,0.8,11.1,1.4,16.6H25C23.8,16,23.1,8.2,22.8,0.3L19.2,1.3"/>
<path class="st0" d="M214.7,21.2C214.7,21.2,214.7,21.1,214.7,21.2c0-0.1,0-0.1-0.1-0.1c0,0,0,0-0.1,0c0,0,0,0-0.1,0
	c-1.5,1-3.3,1.5-5.1,1.6c-5.3,0-8.7-5.1-8.7-10.4c0-5.3,3.5-10.4,8.7-10.4c1.7,0,3.3,0.5,4.7,1.3c0.1,0,0.1,0.1,0.2,0.1
	c0.1,0,0.1,0,0.2,0c0.1,0,0.1-0.1,0.1-0.1c0-0.1,0-0.1,0-0.2V1.3c0-0.1,0-0.1-0.1-0.2c0-0.1-0.1-0.1-0.2-0.1
	c-2.5-0.9-5.2-1.2-7.8-0.7c-2.9,0.4-5.6,1.9-7.5,4.1c-1.9,2.2-3,5.1-3,8c0.1,7.2,5.9,12.1,13.1,12.1c1.8,0,3.7-0.3,5.4-1
	c0,0,0,0,0.1,0c0,0,0,0,0-0.1L214.7,21.2z"/>
<path class="st0" d="M225.3,4.6c-4.8,0-8.7,4.4-8.7,9.9c0,5.5,3.9,9.9,8.7,9.9s8.7-4.4,8.7-9.9C234,9,230.1,4.6,225.3,4.6z
	 M225.3,22.7c-3.2,0-5.7-3.7-5.7-8.2c0-4.6,2.6-8.2,5.7-8.2c3.2,0,5.7,3.7,5.7,8.2C231.1,19,228.5,22.7,225.3,22.7z"/>
<path class="st0" d="M238.9,24.4c1.5,0,2.7-1.2,2.7-2.7c0-1.5-1.2-2.7-2.7-2.7c-1.5,0-2.7,1.2-2.7,2.7
	C236.2,23.2,237.4,24.4,238.9,24.4z"/>
<path class="st0" d="M184.6,17c-0.7,1-1.4,1.9-2.2,2.8l3.8,4.2c-0.3,0-0.6-0.1-1-0.1h-1.8c-0.3,0-0.5-0.1-0.8-0.2
	c-0.2-0.1-0.4-0.3-0.6-0.5l-0.2-0.3c-0.3-0.4-0.7-0.9-1.2-1.5c-0.8,0.8-1.8,1.5-2.8,2.1c-1.1,0.5-2.4,0.8-3.6,0.8
	c-0.7,0-1.5-0.1-2.2-0.3c-0.7-0.2-1.3-0.5-1.8-0.9c-0.5-0.4-0.9-0.9-1.2-1.5c-0.3-0.7-0.5-1.4-0.5-2.2c0-0.7,0.1-1.3,0.4-1.9
	c0.3-0.7,0.7-1.3,1.2-1.8c0.5-0.6,1.1-1.1,1.7-1.6c0.7-0.5,1.4-0.9,2.1-1.2c-0.5-0.8-1-1.6-1.4-2.4c-0.4-0.7-0.6-1.5-0.6-2.3
	c0-0.6,0.1-1.2,0.3-1.8c0.2-0.5,0.6-1,1-1.4c0.4-0.4,0.9-0.7,1.4-1c0.6-0.2,1.2-0.3,1.9-0.3c1,0,2,0.3,2.9,0.8
	c0.4,0.3,0.7,0.7,0.9,1.1c0.2,0.4,0.3,0.9,0.2,1.4c0,0.6-0.1,1.1-0.4,1.6c-0.3,0.5-0.6,1-1,1.5c-0.4,0.4-0.9,0.9-1.3,1.2
	c-0.4,0.3-0.9,0.7-1.4,0.9c0.9,1.2,1.8,2.3,2.6,3.4c0.9,1.1,1.7,2.1,2.6,3.1c0.7-1,1.4-2,2-2.9L184.6,17z M171.1,19
	c0,0.5,0.1,1.1,0.3,1.6c0.4,1,1.3,1.8,2.3,2.3c0.6,0.2,1.2,0.4,1.8,0.3c0.9,0,1.8-0.2,2.6-0.6c0.8-0.4,1.5-1,2.1-1.6
	c-1-1.2-2-2.4-2.9-3.6c-0.9-1.2-1.8-2.4-2.7-3.6c-1,0.6-1.9,1.3-2.6,2.2C171.3,16.8,171,17.9,171.1,19L171.1,19z M179.1,7.2
	c0-0.7-0.2-1.3-0.6-1.8c-0.2-0.2-0.5-0.4-0.8-0.5c-0.3-0.1-0.6-0.2-1-0.2c-0.3,0-0.7,0.1-1,0.2c-0.3,0.1-0.6,0.3-0.8,0.6
	c-0.5,0.6-0.7,1.3-0.7,2c0,0.7,0.2,1.4,0.5,2.1c0.4,0.8,0.8,1.5,1.4,2.2c0.9-0.5,1.7-1.3,2.3-2.2C178.8,8.9,179.1,8.1,179.1,7.2
	L179.1,7.2z"/>
</svg>
