<svg width="202" height="29" viewBox="0 0 202 29" fill="none" xmlns="http://www.w3.org/2000/svg">
<path d="M0 26.0723L1.74047 21.8386C3.32138 23.0432 5.23785 23.7263 7.22431 23.7931C9.98694 23.7931 11.3683 22.8907 11.3683 21.0857C11.3442 20.1338 10.993 19.2192 10.3737 18.4958C9.71068 17.6762 8.36619 16.7553 6.34026 15.7331C4.87505 15.0754 3.5027 14.2278 2.25846 13.2122C1.55264 12.557 0.994611 11.7588 0.621595 10.8709C0.235016 9.92185 0.0424483 8.905 0.055254 7.88033C0.0303648 6.91308 0.219256 5.95226 0.608453 5.06642C0.99765 4.18058 1.57756 3.39155 2.30681 2.75563C3.90825 1.36846 5.97745 0.642513 8.09453 0.725096C11.168 0.725096 13.4748 1.51936 14.9113 2.66585L13.4817 6.72693C11.9496 5.60194 10.0988 4.99468 8.19813 4.99337C7.27531 4.93242 6.36606 5.24047 5.67032 5.84979C5.38143 6.12252 5.15475 6.45435 5.00577 6.82265C4.85678 7.19095 4.78898 7.58705 4.807 7.98393C4.807 9.47576 6.44386 10.9192 9.79355 12.563C11.177 13.1857 12.4689 13.9944 13.6336 14.9665C14.4158 15.679 15.0334 16.5534 15.4432 17.5288C15.8658 18.5631 16.0772 19.6715 16.0647 20.7888C16.0828 21.8104 15.8617 22.822 15.4192 23.743C14.9767 24.664 14.3251 25.4687 13.5162 26.093C11.8103 27.4743 9.54492 28.165 6.6994 28.165C4.3101 28.1349 1.98163 27.4075 0 26.0723Z" fill="#717171"/>
<path d="M23.0957 5.58064H20.4712C20.6376 4.36012 21.1131 3.20234 21.8525 2.21713C22.1526 1.81377 22.5435 1.4867 22.9934 1.26233C23.4433 1.03797 23.9397 0.922616 24.4425 0.925593C25.4251 0.93233 26.3924 1.16885 27.2673 1.61625C27.8277 1.94577 28.4393 2.17921 29.0768 2.30691C29.8089 2.30691 30.3407 1.84417 30.6446 0.925593H33.3313C32.8823 2.72822 32.3091 3.95068 31.6461 4.60681C31.3204 4.93203 30.9321 5.18784 30.5048 5.35878C30.0774 5.52972 29.6198 5.61224 29.1597 5.60136C28.2627 5.56394 27.3853 5.32805 26.5904 4.9107C26.0078 4.58121 25.3758 4.34798 24.7187 4.22004C24.0833 4.19241 23.5446 4.65515 23.0957 5.58064Z" fill="#717171"/>
<path d="M38.4562 17.971C38.3459 15.3225 39.2641 12.7339 41.0185 10.7467C41.8782 9.82212 42.9291 9.09599 44.098 8.61888C45.267 8.14177 46.5258 7.92515 47.787 7.98408C50.7292 7.98408 53.0176 8.87733 54.6521 10.6638C56.2821 12.4457 57.0971 14.8976 57.0971 17.9986C57.0971 21.0997 56.2683 23.5239 54.6038 25.368C52.9393 27.212 50.6739 28.1306 47.787 28.0823C44.9 28.0339 42.5449 27.1637 40.9149 25.3196C39.2849 23.4756 38.4562 21.0306 38.4562 17.971ZM43.1665 17.971C43.1665 22.2439 44.7066 24.3803 47.787 24.3803C48.4401 24.3999 49.0881 24.2583 49.6735 23.968C50.2589 23.6777 50.7638 23.2476 51.1436 22.7159C51.9724 21.6062 52.3868 20.0246 52.3868 17.971C52.3868 13.758 50.8535 11.6515 47.787 11.6515C47.1316 11.6302 46.4811 11.771 45.8932 12.0614C45.3052 12.3517 44.798 12.7827 44.4165 13.316C43.5098 14.6927 43.0713 16.3252 43.1665 17.971Z" fill="#717171"/>
<path d="M91.8647 3.52228L89.8964 7.27947C89.0344 6.67813 88.1078 6.17541 87.1337 5.78074C86.1816 5.39387 85.1699 5.17424 84.1432 5.13152C83.0115 5.08711 81.8845 5.30026 80.8472 5.7549C79.8099 6.20953 78.8894 6.89378 78.1551 7.75603C76.6633 9.5103 75.9865 11.7895 75.9865 14.7317C75.8758 17.1254 76.6809 19.4715 78.238 21.293C78.9899 22.1325 79.9191 22.7943 80.9584 23.2303C81.9977 23.6663 83.1209 23.8657 84.2468 23.8139C85.7177 23.8669 87.1565 23.375 88.2871 22.4325L88.2457 17.4253H84.5921V13.4194H93.0181V25.2159C91.734 26.2116 90.2606 26.9354 88.6877 27.3431C86.9835 27.8485 85.2162 28.1089 83.4387 28.1167C79.6585 28.1167 76.6656 26.8758 74.4601 24.394C72.1017 21.6712 70.8563 18.1594 70.9723 14.559C70.8739 10.8829 72.2346 7.3172 74.7571 4.64115C77.1606 2.11334 80.4044 0.849432 84.4885 0.849432C87.1914 0.808193 89.8157 1.75912 91.8647 3.52228Z" fill="#717171"/>
<path d="M114.553 19.4006H100.691C100.701 20.0492 100.852 20.6879 101.133 21.2723C101.415 21.8568 101.82 22.3729 102.321 22.7849C103.435 23.6855 104.842 24.1429 106.272 24.0695C108.335 24.0695 109.905 23.5331 110.982 22.4603L112.702 25.8445C110.649 27.3825 108.131 28.1699 105.567 28.0753C102.604 28.0753 100.27 27.212 98.5433 25.4854C96.8167 23.7587 95.9672 21.3414 95.9672 18.2265C95.9105 16.8616 96.1323 15.4993 96.6191 14.2229C97.106 12.9464 97.8476 11.7825 98.7989 10.8019C100.608 9.04837 103.014 8.04445 105.532 7.99192C108.051 7.93939 110.497 8.84214 112.377 10.5188C113.221 11.3538 113.883 12.3542 114.321 13.4572C114.76 14.5601 114.966 15.7418 114.926 16.9281C114.884 17.7626 114.759 18.5908 114.553 19.4006ZM100.892 15.9473H110.423C110.105 13.1087 108.503 11.8034 105.678 11.8034C103.088 11.8034 101.534 13.1364 100.892 15.9473Z" fill="#717171"/>
<path d="M129.768 12.5354C128.979 12.0106 128.05 11.734 127.102 11.7411C126.558 11.7535 126.024 11.8884 125.54 12.136C125.056 12.3835 124.633 12.7373 124.305 13.1708C123.492 14.1352 123.057 15.3627 123.082 16.6241V27.6747H118.552V8.31546H123.048V10.0905C123.685 9.38646 124.47 8.83196 125.346 8.4666C126.223 8.10125 127.169 7.93407 128.117 7.97704C129.34 7.9001 130.563 8.13788 131.667 8.6677L129.768 12.5354Z" fill="#717171"/>
<path d="M153.361 1.08434L157.892 0V27.9026H153.361V1.08434Z" fill="#717171"/>
<path d="M175.151 27.7231V26.542C174.612 27.0487 173.958 27.4162 173.245 27.6126C172.357 27.9234 171.423 28.0799 170.482 28.0753C167.775 28.0753 165.645 27.2189 164.094 25.5061C162.542 23.7932 161.766 21.4012 161.766 18.3301C161.651 15.5862 162.61 12.9055 164.439 10.8572C165.281 9.92306 166.315 9.18207 167.47 8.68496C168.625 8.18785 169.874 7.94638 171.131 7.97712C172.526 7.95655 173.906 8.2666 175.158 8.88188V1.08434L179.682 0V27.7231H175.151ZM175.151 12.9499C174.308 12.2247 173.238 11.8167 172.126 11.7965C171.35 11.748 170.573 11.8708 169.85 12.1561C169.126 12.4413 168.475 12.8821 167.941 13.4471C166.96 14.5522 166.47 16.1384 166.47 18.2058C166.47 22.2392 168.645 24.0004 172.174 24.0004C173.27 23.975 174.325 23.578 175.165 22.8746L175.151 12.9499Z" fill="#717171"/>
<path d="M183.363 17.9711C183.245 15.3262 184.153 12.7378 185.898 10.7468C186.759 9.82127 187.811 9.09461 188.981 8.61747C190.151 8.14033 191.411 7.9242 192.673 7.98415C195.625 7.98415 197.913 8.8774 199.539 10.6639C201.169 12.4458 201.984 14.8977 201.984 17.9987C201.984 21.0998 201.155 23.524 199.49 25.3681C197.826 27.2121 195.56 28.1307 192.673 28.1307C189.786 28.1307 187.438 27.2121 185.801 25.3681C184.164 23.524 183.363 21.0445 183.363 17.9711ZM188.067 17.9711C188.067 22.244 189.607 24.3804 192.687 24.3804C193.342 24.4011 193.991 24.2601 194.578 23.9697C195.164 23.6793 195.67 23.2487 196.051 22.7159C196.893 21.6109 197.315 20.0293 197.315 17.9711C197.315 13.7581 195.779 11.6515 192.708 11.6515C192.055 11.6326 191.407 11.7745 190.822 12.0647C190.237 12.355 189.732 12.7847 189.351 13.316C188.436 14.6892 187.992 16.3233 188.087 17.9711H188.067Z" fill="#717171"/>
<path d="M30.81 25.7754C30.2866 26.5404 29.5348 27.1205 28.6621 27.433C27.6509 27.862 26.5628 28.0806 25.4643 28.0753C23.6865 28.1804 21.9326 27.6244 20.5399 26.5144C19.9296 25.9525 19.4518 25.262 19.1412 24.4927C18.8306 23.7234 18.695 22.8947 18.7442 22.0665C18.7001 21.0471 18.9076 20.0325 19.3485 19.1122C19.7893 18.192 20.45 17.3944 21.272 16.7899C22.9572 15.5283 25.3515 14.8952 28.4549 14.8906C29.0922 14.9065 29.7253 14.9992 30.3404 15.1669C30.3404 12.8647 28.8969 11.7136 26.01 11.7136C24.5364 11.6736 23.0735 11.9737 21.7348 12.5907L20.7402 9.07524C22.504 8.2869 24.4244 7.91132 26.3553 7.97709C29.3113 7.97709 31.4777 8.64933 32.8544 9.99381C34.2311 11.3383 34.9218 13.8822 34.9264 17.6256V27.723H30.9413L30.81 25.7754ZM30.3956 18.5856C29.8236 18.4557 29.2412 18.3771 28.6552 18.3508C25.0776 18.3508 23.2128 19.5802 23.2128 21.6591C23.2128 23.1923 24.5458 24.2628 26.2379 24.2628C28.9522 24.2628 30.3818 22.7641 30.3818 20.4021L30.3956 18.5856Z" fill="#717171"/>
<path d="M144.044 25.7754C143.52 26.5404 142.769 27.1205 141.896 27.433C140.885 27.862 139.797 28.0806 138.698 28.0753C136.919 28.1769 135.164 27.6214 133.767 26.5144C133.159 25.9508 132.683 25.2599 132.372 24.4911C132.062 23.7222 131.925 22.8944 131.971 22.0666C131.931 21.0441 132.144 20.0275 132.591 19.107C133.038 18.1865 133.705 17.3906 134.534 16.7899C136.21 15.5283 138.602 14.8952 141.709 14.8906C142.347 14.9065 142.98 14.9993 143.595 15.1669C143.595 12.8647 142.152 11.7136 139.265 11.7136C137.791 11.6736 136.328 11.9738 134.989 12.5907L133.995 9.07526C135.731 8.29934 137.619 7.92401 139.52 7.97711C142.485 7.97711 144.652 8.64014 146.019 9.96621C147.401 11.2923 148.091 13.8477 148.091 17.6187V27.7231H144.106L144.044 25.7754ZM143.609 18.5856C143.034 18.4557 142.45 18.3771 141.861 18.3508C138.291 18.3508 136.426 19.5802 136.426 21.6591C136.426 23.1923 137.759 24.2629 139.451 24.2629C142.165 24.2629 143.595 22.7641 143.595 20.4021L143.609 18.5856Z" fill="#717171"/>
</svg>
