<svg width="77" height="28" viewBox="0 0 77 28" fill="none" xmlns="http://www.w3.org/2000/svg">
<path d="M6.59961 7.35153H9.28849L7.94405 3.92932L6.59961 7.35153Z" fill="#707070"/>
<path d="M39.9666 4.41812C39.7222 4.2959 39.3555 4.2959 38.9889 4.2959H36.5444V6.25144H38.9889C39.3555 6.25144 39.7222 6.25145 39.9666 6.12922C40.2111 6.007 40.3333 5.64034 40.3333 5.27367C40.4555 4.78478 40.2111 4.54034 39.9666 4.41812Z" fill="#707070"/>
<path d="M66.122 0.751465V2.21813L65.3886 0.751465H59.6442V2.21813L58.9109 0.751465H51.0887C49.7443 0.751465 48.6443 0.995909 47.6665 1.4848V0.751465H42.1665V1.4848C41.5554 0.995909 40.8221 0.751465 39.8443 0.751465H20.1666L18.8221 3.80701L17.4777 0.751465H11.2444V2.21813L10.5111 0.751465H5.25554L2.8111 6.49589L0 12.8514H2.8111H6.23331L6.96664 10.8959H8.67774L9.41107 12.8514H16.4999V11.3848L17.111 12.8514H20.6555L21.2666 11.3848V12.8514H38.2554V9.67365H38.4999C38.7443 9.67365 38.7443 9.67365 38.7443 10.0403V12.7292H47.5443V11.9959C48.2776 12.3625 49.3776 12.7292 50.8442 12.7292H54.5109L55.2442 10.7736H56.9553L57.6887 12.7292H64.7775V10.8959L65.8775 12.7292H71.6219V0.751465H66.122ZM24.811 11.0181H22.7332V4.2959L19.7999 11.0181H17.9666L15.0333 4.2959V11.0181H10.8777L10.0222 9.18477H5.86664L5.13331 11.1403H2.8111L6.47775 2.46257H9.5333L12.9555 10.6514V2.46257H16.2555L18.9444 8.32921L21.3888 2.46257H24.811V11.0181ZM33.1221 4.2959H28.3554V5.88478H32.9999V7.59588H28.3554V9.30699H33.1221V11.1403H26.2777V2.46257H33.1221V4.2959ZM42.2887 7.84033C42.5332 8.32921 42.6554 8.69588 42.6554 9.42921V11.1403H40.5776V10.0403C40.5776 9.55143 40.5776 8.8181 40.211 8.32921C39.8443 7.96255 39.4776 7.96255 38.7443 7.96255H36.5443V11.1403H34.4665V2.46257H39.111C40.211 2.46257 40.9443 2.46257 41.5554 2.82924C42.1665 3.1959 42.5332 3.80701 42.5332 4.78478C42.5332 6.12922 41.6776 6.86255 41.0665 7.107C41.6776 7.22922 42.0443 7.59588 42.2887 7.84033ZM45.9554 11.0181H43.8776V2.34035H45.9554V11.0181ZM70.0331 11.0181H67.0997L63.1886 4.54034V11.0181H59.0331L58.2998 9.18477H54.022L53.2887 11.1403H50.9665C49.9887 11.1403 48.7665 10.8959 48.0331 10.1625C47.2998 9.42921 46.9332 8.45143 46.9332 6.86255C46.9332 5.64033 47.1776 4.41812 48.0331 3.44034C48.6443 2.70701 49.7443 2.46257 51.0887 2.46257H53.0442V4.2959H51.0887C50.3554 4.2959 49.9887 4.41812 49.4998 4.78478C49.1331 5.15145 48.8887 5.88478 48.8887 6.74033C48.8887 7.71811 49.0109 8.32921 49.4998 8.8181C49.8665 9.18477 50.3554 9.30699 50.9665 9.30699H51.822L54.6331 2.58479H57.6887L61.1109 10.7736V2.58479H64.1664L67.7109 8.57366V2.58479H69.7886V11.0181H70.0331Z" fill="#707070"/>
<path d="M54.7551 7.35141H57.5662L56.2218 3.9292L54.7551 7.35141Z" fill="#707070"/>
<path d="M33.9776 24.9514V17.9847L30.7998 21.4069L33.9776 24.9514Z" fill="#707070"/>
<path d="M20.9001 18.8402V20.4291H25.4223V22.1402H20.9001V23.9735H25.9112L28.2335 21.4069L26.0335 18.8402H20.9001Z" fill="#707070"/>
<path d="M38.6218 18.8402H36.0552V21.0402H38.7441C39.4774 21.0402 39.9663 20.6735 39.9663 19.9402C39.8441 19.2069 39.3552 18.8402 38.6218 18.8402Z" fill="#707070"/>
<path d="M76.3885 20.9179V15.418H74.9219H71.2552C70.1552 15.418 69.2997 15.6624 68.6886 16.1513V15.418H63.0664C62.2108 15.418 61.1108 15.6624 60.6219 16.1513V15.418H50.722V16.1513C49.9886 15.5402 48.6442 15.418 48.0331 15.418H41.4331V16.1513C40.822 15.5402 39.3554 15.418 38.622 15.418H31.2887L29.5776 17.2513L27.9887 15.418H16.9888V27.3957H27.7443L29.4554 25.5624L31.0443 27.3957H37.6442V24.5846H38.4998C39.3553 24.5846 40.4553 24.5846 41.3109 24.2179V27.5179H46.8109V24.3402H47.0553C47.422 24.3402 47.422 24.3402 47.422 24.7068V27.5179H64.0441C65.1441 27.5179 66.2441 27.2735 66.8552 26.7846V27.5179H72.1108C73.2108 27.5179 74.3108 27.3957 75.0441 26.9068C76.2663 26.1735 76.9996 24.829 76.9996 23.2402C76.9996 22.3846 76.7552 21.5291 76.3885 20.9179ZM38.4998 22.8735H36.0554V25.8068H32.1443L29.6998 22.9957L27.1332 25.8068H19.0665V17.1291H27.2554L29.6998 19.9402L32.2665 17.1291H38.7442C40.3331 17.1291 42.1664 17.618 42.1664 19.9402C42.0442 22.3846 40.3331 22.8735 38.4998 22.8735ZM50.722 22.3846C50.9664 22.7513 51.0886 23.2402 51.0886 23.9735V25.6846H49.0109V24.5846C49.0109 24.0957 49.0109 23.2402 48.6442 22.8735C48.3998 22.5068 47.9109 22.5068 47.1775 22.5068H44.9775V25.6846H42.8998V17.0069H47.5442C48.522 17.0069 49.3775 17.0069 49.9886 17.3735C50.5998 17.7402 51.0886 18.3513 51.0886 19.3291C51.0886 20.6735 50.2331 21.4068 49.622 21.6513C50.2331 21.8957 50.5998 22.1402 50.722 22.3846ZM59.1553 18.8402H54.3886V20.4291H59.0331V22.1402H54.3886V23.8513H59.1553V25.6846H52.3109V17.0069H59.1553V18.8402ZM64.2886 25.6846H60.3775V23.8513H64.2886C64.6552 23.8513 64.8997 23.8513 65.1441 23.6068C65.2664 23.4846 65.3886 23.2402 65.3886 22.9957C65.3886 22.7513 65.2664 22.5068 65.1441 22.3846C65.0219 22.2624 64.7775 22.1402 64.4108 22.1402C62.4553 22.0179 60.133 22.1402 60.133 19.4513C60.133 18.2291 60.8664 16.8846 63.0664 16.8846H67.0997V18.9624H63.3108C62.9441 18.9624 62.6997 18.9624 62.4553 19.0846C62.2108 19.2068 62.2108 19.4513 62.2108 19.6957C62.2108 20.0624 62.4553 20.1846 62.6997 20.3068C62.9441 20.4291 63.1886 20.4291 63.433 20.4291H64.533C65.633 20.4291 66.3664 20.6735 66.8552 21.1624C67.2219 21.5291 67.4664 22.1402 67.4664 22.9957C67.4664 24.829 66.3664 25.6846 64.2886 25.6846ZM74.7997 24.829C74.3108 25.3179 73.4552 25.6846 72.233 25.6846H68.3219V23.8513H72.233C72.5997 23.8513 72.8441 23.8513 73.0886 23.6068C73.2108 23.4846 73.333 23.2402 73.333 22.9957C73.333 22.7513 73.2108 22.5068 73.0886 22.3846C72.9663 22.2624 72.7219 22.1402 72.3552 22.1402C70.3997 22.0179 68.0775 22.1402 68.0775 19.4513C68.0775 18.2291 68.8108 16.8846 71.0108 16.8846H75.0441V18.9624H71.3774C71.0108 18.9624 70.7663 18.9624 70.5219 19.0846C70.2775 19.2068 70.2774 19.4513 70.2774 19.6957C70.2774 20.0624 70.3997 20.1846 70.7663 20.3068C71.0108 20.4291 71.2552 20.4291 71.4997 20.4291H72.5997C73.6997 20.4291 74.433 20.6735 74.9219 21.1624C75.0441 21.1624 75.0441 21.2846 75.0441 21.2846C75.4108 21.7735 75.533 22.3846 75.533 22.9957C75.533 23.729 75.2885 24.3402 74.7997 24.829Z" fill="#707070"/>
<path d="M48.5218 19.0846C48.2774 18.9624 47.9107 18.9624 47.544 18.9624H45.0996V20.9179H47.544C47.9107 20.9179 48.2774 20.918 48.5218 20.7957C48.7663 20.6735 48.8885 20.3068 48.8885 19.9402C49.0107 19.4513 48.7663 19.2068 48.5218 19.0846Z" fill="#707070"/>
<path d="M39.9662 4.418C39.7217 4.29577 39.355 4.29578 38.9884 4.29578H36.5439V6.25132H38.9884C39.355 6.25132 39.7217 6.25132 39.9662 6.1291C40.2106 6.00688 40.3328 5.64021 40.3328 5.27355C40.455 4.78466 40.2106 4.54022 39.9662 4.418Z" fill="#707070"/>
<path d="M54.7551 7.35141H57.5662L56.2218 3.9292L54.7551 7.35141Z" fill="#707070"/>
<path d="M33.9776 24.9514V17.9847L30.7998 21.4069L33.9776 24.9514Z" fill="#707070"/>
<path d="M38.6218 18.8402H36.0552V21.0402H38.7441C39.4774 21.0402 39.9663 20.6735 39.9663 19.9402C39.8441 19.2069 39.3552 18.8402 38.6218 18.8402Z" fill="#707070"/>
<path d="M48.5218 19.0846C48.2774 18.9624 47.9107 18.9624 47.544 18.9624H45.0996V20.9179H47.544C47.9107 20.9179 48.2774 20.918 48.5218 20.7957C48.7663 20.6735 48.8885 20.3068 48.8885 19.9402C49.0107 19.4513 48.7663 19.2068 48.5218 19.0846Z" fill="#707070"/>
<path d="M37.7665 25.4402L36.0554 23.6068V25.6846H32.022L29.5776 22.8735L26.8887 25.6846H18.8221V17.1291H27.011L29.5776 19.9402L30.7998 18.4735L27.7443 15.418H16.9888V27.3957H27.7443L29.5776 25.5624L31.1665 27.3957H37.7665V25.4402Z" fill="#707070"/>
<path d="M25.0555 12.7292L23.4666 11.0181H22.7332V10.2848L20.8999 8.45144L19.6777 11.0181H17.9666L15.0333 4.2959V11.0181H10.8777L10.0222 9.18477H5.86664L5.01109 11.0181H2.8111L6.47775 2.46257H9.5333L12.9555 10.6514V2.46257H14.7888L13.0777 0.751465H11.2444V2.21813L10.6333 0.751465H5.25554L2.8111 6.49589L0 12.7292H2.8111H6.35553L7.08886 10.8959H8.79997L9.65552 12.7292H16.4999V11.2625L17.111 12.7292H20.6555L21.2666 11.2625V12.7292H25.0555Z" fill="#707070"/>
<path d="M19.4331 7.10716L17.4775 5.15161L18.9442 8.32938L19.4331 7.10716Z" fill="#707070"/>
<path d="M75.0446 26.7847C76.1446 26.0513 76.8779 24.8291 77.0001 23.4847L75.289 21.7736C75.4113 22.1403 75.5335 22.5069 75.5335 22.9958C75.5335 23.7291 75.289 24.3402 74.8001 24.8291C74.3113 25.318 73.4557 25.6847 72.2335 25.6847H68.3224V23.8514H72.2335C72.6002 23.8514 72.8446 23.8514 73.089 23.6069C73.2113 23.4847 73.3335 23.2402 73.3335 22.9958C73.3335 22.7514 73.2113 22.5069 73.089 22.3847C72.9668 22.2625 72.7224 22.1403 72.3557 22.1403C70.4002 22.018 68.078 22.1403 68.078 19.4514C68.078 18.2292 68.8113 17.1292 70.6446 16.8847L69.3002 15.5403C69.0557 15.6625 68.9335 15.7847 68.8113 15.7847V15.0514H63.1891C62.3335 15.0514 61.2335 15.2958 60.7446 15.7847V15.0514H50.7225V15.7847C49.9891 15.1736 48.6447 15.0514 48.0336 15.0514H41.4336V15.7847C40.8225 15.1736 39.3558 15.0514 38.6225 15.0514H31.2892L29.5781 16.8847L27.9892 15.0514H26.6448L30.3114 18.718L32.1448 16.7625H38.6225C40.2114 16.7625 42.0447 17.2514 42.0447 19.5736C42.0447 22.018 40.3336 22.5069 38.5003 22.5069H36.0559V24.3402L37.8892 26.1736V24.3402H38.5003C39.3558 24.3402 40.4558 24.3402 41.3114 23.9736V27.2736H46.8114V24.0958H47.0558C47.4225 24.0958 47.4225 24.0958 47.4225 24.4625V27.2736H64.0446C65.1446 27.2736 66.2446 27.0291 66.8557 26.5402V27.2736H72.1113C73.089 27.3958 74.189 27.2736 75.0446 26.7847ZM50.7225 22.3847C50.9669 22.7514 51.0891 23.2402 51.0891 23.9736V25.6847H49.0114V24.5847C49.0114 24.0958 49.0114 23.2403 48.6447 22.8736C48.4002 22.5069 47.9114 22.5069 47.178 22.5069H44.978V25.6847H42.9003V17.0069H47.5447C48.5225 17.0069 49.378 17.0069 49.9891 17.3736C50.6002 17.7403 51.0891 18.3514 51.0891 19.3292C51.0891 20.6736 50.2336 21.4069 49.6225 21.6514C50.2336 21.8958 50.6002 22.1403 50.7225 22.3847ZM59.1558 18.8403H54.3891V20.4292H59.0335V22.1403H54.3891V23.8514H59.1558V25.6847H52.3113V17.0069H59.1558V18.8403ZM64.2891 25.6847H60.378V23.8514H64.2891C64.6557 23.8514 64.9002 23.8514 65.1446 23.6069C65.2668 23.4847 65.3891 23.2402 65.3891 22.9958C65.3891 22.7514 65.2668 22.5069 65.1446 22.3847C65.0224 22.2625 64.778 22.1403 64.4113 22.1403C62.4558 22.018 60.1335 22.1403 60.1335 19.4514C60.1335 18.2292 60.8669 16.8847 63.0669 16.8847H67.1002V18.9625H63.3113C62.9446 18.9625 62.7002 18.9625 62.4557 19.0847C62.2113 19.2069 62.2113 19.4514 62.2113 19.6958C62.2113 20.0625 62.4557 20.1847 62.7002 20.3069C62.9446 20.4291 63.1891 20.4292 63.4335 20.4292H64.5335C65.6335 20.4292 66.3668 20.6736 66.8557 21.1625C67.2224 21.5291 67.4668 22.1403 67.4668 22.9958C67.4668 24.8291 66.3668 25.6847 64.2891 25.6847Z" fill="#707070"/>
<path d="M70.1558 19.6956C70.1558 20.0623 70.278 20.1845 70.6446 20.3067C70.8891 20.4289 71.1335 20.4289 71.378 20.4289H72.478C73.2113 20.4289 73.7002 20.5512 74.1891 20.7956L72.3558 18.9623H71.2558C70.8891 18.9623 70.6446 18.9623 70.4002 19.0845C70.278 19.2067 70.1558 19.4512 70.1558 19.6956Z" fill="#707070"/>
<path d="M65.8774 12.3624L66.1219 12.7291H66.2441L65.8774 12.3624Z" fill="#707070"/>
<path d="M59.1555 5.64001L61.2333 10.6511V7.71779L59.1555 5.64001Z" fill="#707070"/>
<path d="M38.2553 9.67362H38.4998C38.7442 9.67362 38.7442 9.67362 38.7442 10.0403V12.7292H47.5442V11.9958C48.2775 12.3625 49.3775 12.7292 50.8442 12.7292H54.5108L55.2441 10.7736H56.9552L57.6886 12.7292H64.7774V11.507L63.0663 9.79585V11.1403H58.9108L58.2997 9.18474H54.0219L53.2886 11.1403H50.9664C49.9886 11.1403 48.7664 10.8958 48.0331 10.1625C47.2997 9.42918 46.9331 8.45141 46.9331 6.86252C46.9331 5.64031 47.1775 4.41809 48.0331 3.44031C48.6442 2.70698 49.7442 2.46254 51.0886 2.46254H53.0441V4.29587H51.0886C50.3553 4.29587 49.9886 4.41809 49.4997 4.78475C49.133 5.15142 48.8886 5.88475 48.8886 6.7403C48.8886 7.71808 49.0108 8.32918 49.4997 8.81807C49.8664 9.18474 50.3553 9.30696 50.9664 9.30696H51.8219L54.633 2.58476H55.8552L54.1441 0.873657H50.9664C49.6219 0.873657 48.5219 1.1181 47.5442 1.60699V0.873657H42.1664V1.60699C41.5553 1.1181 40.822 0.873657 39.8442 0.873657H20.1665L18.8221 3.9292L17.4776 0.873657H12.0999L13.811 2.58476H16.2554L18.3332 7.10697L19.0665 7.8403L21.2665 2.46254H24.6887V11.1403H22.6109V4.41809L20.5332 9.30696L24.0776 12.8514H38.1331L38.2553 9.67362ZM43.8775 2.46254H45.9553V11.1403H43.8775V2.46254ZM33.122 4.29587H28.3553V5.88475H32.9998V7.59585H28.3553V9.30696H33.122V11.1403H26.2776V2.46254H33.122V4.29587ZM36.5442 11.0181H34.4664V2.34032H39.1109C40.2109 2.34032 40.9442 2.34032 41.5553 2.70698C42.1664 3.07365 42.5331 3.68476 42.5331 4.66253C42.5331 6.00697 41.6775 6.7403 41.0664 6.98475C41.5553 7.10697 41.922 7.47363 42.0442 7.71808C42.2886 8.20696 42.4109 8.57363 42.4109 9.30696V11.0181H40.3331V9.91807C40.3331 9.42918 40.3331 8.69585 39.9664 8.20696C39.8442 7.96252 39.4775 7.96252 38.7442 7.96252H36.5442V11.0181Z" fill="#707070"/>
</svg>
