<svg width="46" height="46" viewBox="0 0 46 46" fill="none" xmlns="http://www.w3.org/2000/svg">
<circle cx="23" cy="23" r="23" fill="white"/>
<path d="M23.0038 7.88574H22.9962C14.6626 7.88574 7.88574 14.6645 7.88574 23C7.88574 26.3063 8.9513 29.3707 10.7631 31.8589L8.87951 37.4738L14.6891 35.6167C17.079 37.1999 19.9299 38.1143 23.0038 38.1143C31.3374 38.1143 38.1143 31.3337 38.1143 23C38.1143 14.6664 31.3374 7.88574 23.0038 7.88574Z" fill="#4CAF50"/>
<path d="M31.7984 29.2291C31.4338 30.2587 29.9866 31.1127 28.8322 31.3621C28.0425 31.5302 27.011 31.6644 23.5385 30.2247C19.0968 28.3846 16.2364 23.8711 16.0134 23.5782C15.8 23.2854 14.2186 21.1883 14.2186 19.0194C14.2186 16.8505 15.3201 15.7944 15.7641 15.3409C16.1287 14.9687 16.7314 14.7987 17.3095 14.7987C17.4965 14.7987 17.6647 14.8082 17.8158 14.8157C18.2598 14.8346 18.4827 14.8611 18.7756 15.562C19.1402 16.4405 20.0282 18.6094 20.134 18.8323C20.2417 19.0553 20.3494 19.3576 20.1982 19.6504C20.0565 19.9527 19.9318 20.0868 19.7089 20.3438C19.486 20.6007 19.2744 20.7972 19.0514 21.073C18.8474 21.313 18.6169 21.5699 18.8738 22.0139C19.1308 22.4484 20.0187 23.8975 21.3261 25.0613C23.0133 26.5633 24.3811 27.0432 24.8704 27.2472C25.235 27.3984 25.6696 27.3625 25.936 27.0791C26.2742 26.7144 26.6917 26.1099 27.1168 25.5147C27.4191 25.0878 27.8007 25.0349 28.2012 25.186C28.6093 25.3277 30.7688 26.3951 31.2127 26.6162C31.6567 26.8391 31.9496 26.9449 32.0573 27.132C32.1631 27.319 32.1631 28.1975 31.7984 29.2291Z" fill="#FAFAFA"/>
</svg>
