<svg width="617" height="146" viewBox="0 0 617 146" fill="none" xmlns="http://www.w3.org/2000/svg">
<path fill-rule="evenodd" clip-rule="evenodd" d="M616.966 0L610.211 0C610.723 47.9186 580.665 98.4564 540.577 146H552.388C590.117 99.0898 618.027 48.91 616.966 0ZM55.0076 146H66.968C37.7897 103.175 16.6911 53.7356 11.7328 0L0 0C5.10986 53.2517 25.9793 102.736 55.0076 146ZM31.9273 0C33.8998 24.8335 42.7941 51.3932 59.0999 76.8232C65.4116 86.9614 71.7232 97.0997 76.2476 105.925C79.072 110.249 81.8855 114.588 84.699 118.927L84.7031 118.934L84.7032 118.934C90.5822 128.001 96.4611 137.068 102.439 146H113.376C106.17 135.366 99.1078 124.472 92.0397 113.568L92.0396 113.568L92.0395 113.568L92.0395 113.568L92.0394 113.568L92.0394 113.568C89.1255 109.072 86.2106 104.576 83.284 100.095C78.7595 91.2699 72.4479 81.1316 66.1362 70.9933C58.7399 60.5352 43.931 32.3971 41.6623 0H31.9273ZM61.9116 0C53.1714 62.6106 99.3331 115.975 133.175 146H146.817C114.255 118.754 61.885 63.9719 71.1388 0H61.9116ZM411.905 0H418.456C441.378 48.485 423.497 106.17 392.256 146H383.281C414.772 105.815 434.35 48.0277 412.223 0.789581C412.118 0.525643 412.012 0.262451 411.905 0ZM467.23 146C496.702 96.3825 502.133 46.3543 482.821 0H491.031C507.963 45.4641 500.462 97.5845 472.369 146H467.23Z" fill="#3D6461"/>
<path d="M83 77.9006C83 75.0412 83.3574 72.6584 84.1914 70.633C85.0254 68.6076 86.0977 67.1779 87.4082 66.1056C88.7188 65.1525 90.1485 64.4376 91.5782 64.0802C93.0079 63.7228 94.5568 63.4845 96.2247 63.4845C98.2501 63.4845 100.395 63.7228 102.42 64.3185V53H107.662V83.7386C107.662 84.3343 107.543 84.93 107.424 85.5257C107.305 86.1214 107.067 86.9554 106.59 87.9085C106.113 88.8617 105.518 89.6957 104.684 90.4105C103.85 91.1254 102.778 91.7211 101.229 92.1976C99.6798 92.6742 97.8927 92.9125 95.8673 92.9125C94.795 92.9125 93.7228 92.7933 92.6505 92.6742C91.5782 92.4359 90.5059 92.0785 89.3145 91.3636C88.1231 90.6488 87.0508 89.8148 86.2168 88.8617C85.3828 87.9085 84.668 86.3597 84.0723 84.4534C83.3574 82.6663 83 80.4026 83 77.9006ZM88.2422 77.9006C88.2422 80.1643 88.4805 81.9514 88.8379 83.3811C89.1954 84.8108 89.9102 85.8831 90.6251 86.598C91.4591 87.3128 92.1739 87.6702 93.0079 87.9085C93.7228 88.1468 94.6759 88.266 95.7482 88.266C100.156 88.266 102.301 86.8363 102.301 83.9769V69.4416C100.395 68.6076 98.3693 68.2501 96.1056 68.2501C94.9142 68.2501 93.961 68.3693 93.127 68.6076C92.2931 68.8459 91.4591 69.2033 90.6251 69.9181C89.7911 70.5138 89.1954 71.5861 88.8379 72.8967C88.4805 74.0881 88.2422 75.8752 88.2422 77.9006Z" fill="white"/>
<path d="M114.811 80.5216V63.8418H120.053V80.8791C120.053 83.5002 120.648 85.4065 121.721 86.5979C122.793 87.7893 124.58 88.385 126.963 88.385C129.346 88.385 131.014 87.7893 132.205 86.5979C133.278 85.4065 133.873 83.5002 133.873 80.8791V63.9609H139.115V80.6408C139.115 84.5725 138.043 87.6701 135.899 89.9338C133.754 92.0784 130.776 93.2698 126.963 93.2698C123.15 93.2698 120.172 92.1975 118.027 89.9338C115.883 87.6701 114.811 84.5725 114.811 80.5216Z" fill="white"/>
<path d="M146.026 92.6741V66.3438C150.792 64.4375 155.439 63.4844 159.966 63.4844V68.3692C157.107 68.3692 154.247 68.8458 151.269 69.5606V92.6741H146.026Z" fill="white"/>
<path d="M162.825 78.6154C162.825 68.4883 166.995 63.4844 175.454 63.4844C179.267 63.4844 182.364 64.7949 184.628 67.2969C186.892 69.7989 188.083 73.1349 188.083 77.424C188.083 78.7345 188.083 80.1642 187.964 81.3556H168.187C168.782 86.2404 171.523 88.7424 176.288 88.7424C180.22 88.7424 183.437 88.0276 186.177 86.5979V91.3635C183.198 92.555 179.862 93.2698 176.169 93.2698H176.05C174.382 93.2698 172.833 93.0315 171.403 92.6741C169.974 92.1975 168.544 91.6018 167.233 90.5296C165.923 89.5764 164.851 88.0276 164.017 86.0022C163.183 83.8576 162.825 81.4748 162.825 78.6154ZM168.067 76.4708H182.841C182.722 75.5177 182.603 74.5646 182.364 73.7306C182.126 72.8966 181.769 71.9434 181.173 71.1094C180.696 70.1563 179.862 69.4415 178.909 68.9649C177.956 68.4883 176.765 68.1309 175.454 68.1309C173.071 68.1309 171.284 68.7266 170.093 70.0372C169.021 71.3477 168.306 73.4923 168.067 76.4708Z" fill="white"/>
<path d="M190.108 63.9609H195.708L203.81 86.3596L211.911 63.9609H217.511L206.431 92.6741H201.069L190.108 63.9609Z" fill="white"/>
<path d="M221.085 85.7641C220.251 83.7387 219.894 81.2367 219.894 78.3773C219.894 75.5179 220.251 73.016 221.085 70.9905C221.919 68.9651 222.991 67.4163 224.421 66.4632C225.851 65.3909 227.28 64.676 228.71 64.3186C230.14 63.842 235.501 63.7229 237.288 63.7229C239.075 63.7229 240.624 63.9612 242.054 64.3186C243.484 64.7952 244.913 65.51 246.343 66.4632C247.773 67.5354 248.845 68.9651 249.679 70.9905C250.513 73.016 250.87 75.5179 250.87 78.3773C250.87 81.2367 250.513 83.7387 249.679 85.7641C248.845 87.7895 247.773 89.3384 246.343 90.2915C244.913 91.3638 243.484 92.0786 242.054 92.4361C240.624 92.9126 238.956 93.0318 237.288 93.0318C235.501 93.0318 230.259 92.7935 228.71 92.4361C227.161 92.0786 225.851 91.2446 224.421 90.2915C222.991 89.2192 221.919 87.7895 221.085 85.7641ZM225.851 73.016C225.374 74.4457 225.255 76.1136 225.255 78.2582C225.255 80.4027 225.493 82.1899 225.851 83.5004C226.327 84.9301 226.923 85.8833 227.757 86.5981C228.591 87.313 229.425 87.6704 230.259 87.9087C231.093 88.147 235.978 88.2661 237.169 88.2661C238.361 88.2661 239.433 88.147 240.267 87.9087C241.101 87.6704 241.935 87.1938 242.769 86.5981C243.603 85.8833 244.198 84.9301 244.675 83.5004C245.152 82.0707 245.271 80.4027 245.271 78.2582C245.271 76.1136 245.032 74.3265 244.675 73.016C244.198 71.5863 243.603 70.6331 242.769 69.9183C241.935 69.2034 241.101 68.846 240.267 68.6077C239.433 68.3694 238.361 68.2503 237.169 68.2503C235.978 68.2503 231.093 68.3694 230.259 68.6077C229.425 68.846 228.591 69.3226 227.757 69.9183C226.923 70.6331 226.327 71.5863 225.851 73.016Z" fill="white"/>
<path d="M256.59 92.6742V53H261.832V92.6742H256.59Z" fill="white"/>
<path d="M268.742 78.6154C268.742 68.4883 272.912 63.4844 281.371 63.4844C285.184 63.4844 288.281 64.7949 290.545 67.2969C292.809 69.7989 294 73.1349 294 77.424C294 78.7345 294 80.1642 293.881 81.3556H274.104C274.699 86.2404 277.44 88.7424 282.205 88.7424C286.137 88.7424 289.354 88.0276 292.094 86.5979V91.3635C289.115 92.555 285.779 93.2698 282.086 93.2698H281.967C280.299 93.2698 278.75 93.0315 277.32 92.6741C275.891 92.1975 274.461 91.6018 273.15 90.5296C271.84 89.5764 270.768 88.0276 269.934 86.0022C269.219 83.8576 268.742 81.4748 268.742 78.6154ZM274.104 76.4708H288.877C288.758 75.5177 288.639 74.5646 288.401 73.7306C288.162 72.8966 287.805 71.9434 287.209 71.1094C286.733 70.1563 285.899 69.4415 284.945 68.9649C283.992 68.4883 282.801 68.1309 281.49 68.1309C279.108 68.1309 277.32 68.7266 276.129 70.0372C274.938 71.3477 274.342 73.4923 274.104 76.4708Z" fill="white"/>
<path d="M381.88 70.2001H374.824V87.0001H378.256V81.5761H381.88C385.48 81.5761 387.856 79.3681 387.856 75.8401C387.856 72.3121 385.48 70.2001 381.88 70.2001ZM381.736 78.3121H378.256V73.4641H381.736C383.512 73.4641 384.376 74.4001 384.376 75.8881C384.376 77.3521 383.512 78.3121 381.736 78.3121Z" fill="white"/>
<path d="M397.772 73.5121C395.9 73.5121 394.46 74.3761 393.644 76.1041V73.8001H390.212V87.0001H393.644V81.1201C393.644 78.0001 395.516 77.0401 397.7 77.0401C398.084 77.0401 398.276 77.0641 398.54 77.0881V73.5601C398.324 73.5361 398.084 73.5121 397.772 73.5121Z" fill="white"/>
<path d="M406.725 73.5121C402.933 73.5121 399.861 76.4161 399.861 80.4001C399.861 84.3601 402.885 87.2881 406.725 87.2881C410.589 87.2881 413.613 84.3841 413.613 80.4001C413.613 76.4161 410.541 73.5121 406.725 73.5121ZM406.725 76.7761C408.645 76.7761 410.133 78.2401 410.133 80.4001C410.133 82.5841 408.645 84.0241 406.725 84.0241C404.805 84.0241 403.317 82.5841 403.317 80.4001C403.317 78.2401 404.805 76.7761 406.725 76.7761Z" fill="white"/>
<path d="M423.289 71.2321C423.793 71.2321 424.369 71.3281 424.945 71.4961L425.401 71.6161L426.025 68.8321C425.185 68.4481 423.937 68.2321 422.905 68.2321C420.169 68.2321 417.529 69.8161 417.529 73.5841V73.8001H415.177V77.0401H417.529V87.0001H420.961V77.0401H425.353V73.8001H420.961V73.7521C420.961 72.0481 421.729 71.2321 423.289 71.2321Z" fill="white"/>
<path d="M429.159 67.7041C427.959 67.7041 427.023 68.5441 427.023 69.7201C427.023 70.8961 427.959 71.7601 429.159 71.7601C430.407 71.7601 431.295 70.8961 431.295 69.7201C431.295 68.5441 430.407 67.7041 429.159 67.7041ZM427.431 87.0001H430.863V73.8001H427.431V87.0001Z" fill="white"/>
<path d="M439.714 87.2881C442.978 87.2881 445.594 85.8481 445.594 82.8961C445.594 80.2561 443.482 79.5361 439.714 78.6721C437.794 78.2401 437.194 78.1201 437.194 77.4961C437.194 76.7761 438.034 76.3921 439.402 76.3921C440.986 76.3921 441.706 76.8961 441.97 77.7361H445.45C444.994 75.2881 443.194 73.5121 439.522 73.5121C436.042 73.5121 433.738 75.1201 433.738 77.9041C433.738 80.1841 435.274 81.0241 439.018 81.9121C441.01 82.3921 442.042 82.4641 442.042 83.3521C442.042 84.0721 441.322 84.4321 439.81 84.4321C437.674 84.4321 436.882 83.7121 436.618 82.6561H433.138C433.618 85.5601 436.186 87.2881 439.714 87.2881Z" fill="white"/>
<path d="M453.917 87.2881C457.181 87.2881 459.797 85.8481 459.797 82.8961C459.797 80.2561 457.685 79.5361 453.917 78.6721C451.997 78.2401 451.397 78.1201 451.397 77.4961C451.397 76.7761 452.237 76.3921 453.605 76.3921C455.189 76.3921 455.909 76.8961 456.173 77.7361H459.653C459.197 75.2881 457.397 73.5121 453.725 73.5121C450.245 73.5121 447.941 75.1201 447.941 77.9041C447.941 80.1841 449.477 81.0241 453.221 81.9121C455.213 82.3921 456.245 82.4641 456.245 83.3521C456.245 84.0721 455.525 84.4321 454.013 84.4321C451.877 84.4321 451.085 83.7121 450.821 82.6561H447.341C447.821 85.5601 450.389 87.2881 453.917 87.2881Z" fill="white"/>
<path d="M463.752 67.7041C462.552 67.7041 461.616 68.5441 461.616 69.7201C461.616 70.8961 462.552 71.7601 463.752 71.7601C465 71.7601 465.888 70.8961 465.888 69.7201C465.888 68.5441 465 67.7041 463.752 67.7041ZM462.024 87.0001H465.456V73.8001H462.024V87.0001Z" fill="white"/>
<path d="M474.764 73.5121C470.972 73.5121 467.9 76.4161 467.9 80.4001C467.9 84.3601 470.924 87.2881 474.764 87.2881C478.628 87.2881 481.652 84.3841 481.652 80.4001C481.652 76.4161 478.58 73.5121 474.764 73.5121ZM474.764 76.7761C476.684 76.7761 478.172 78.2401 478.172 80.4001C478.172 82.5841 476.684 84.0241 474.764 84.0241C472.844 84.0241 471.356 82.5841 471.356 80.4001C471.356 78.2401 472.844 76.7761 474.764 76.7761Z" fill="white"/>
<path d="M491.592 73.5121C489.768 73.5121 488.448 74.2561 487.488 75.6001V73.8001H484.056V87.0001H487.488V80.0641C487.488 77.9041 488.52 76.7761 490.464 76.7761C492.288 76.7761 492.936 77.7361 492.936 79.4641V87.0001H496.368V78.7201C496.368 75.4801 494.568 73.5121 491.592 73.5121Z" fill="white"/>
<path d="M508.849 73.8001V75.6481C507.937 74.3761 506.545 73.5121 504.673 73.5121C501.289 73.5121 498.673 76.3201 498.673 80.4001C498.673 84.4561 501.241 87.2881 504.697 87.2881C506.545 87.2881 507.913 86.4721 508.825 85.2241V87.0001H512.257L512.281 73.8001H508.849ZM505.465 84.0241C503.569 84.0241 502.129 82.5841 502.129 80.4001C502.129 78.2401 503.545 76.7761 505.465 76.7761C507.385 76.7761 508.849 78.2401 508.849 80.4001C508.849 82.5841 507.385 84.0241 505.465 84.0241Z" fill="white"/>
<path d="M516.745 67.7041C515.545 67.7041 514.609 68.5441 514.609 69.7201C514.609 70.8961 515.545 71.7601 516.745 71.7601C517.993 71.7601 518.881 70.8961 518.881 69.7201C518.881 68.5441 517.993 67.7041 516.745 67.7041ZM515.017 87.0001H518.449V73.8001H515.017V87.0001Z" fill="white"/>
<path d="M527.3 87.2881C530.564 87.2881 533.18 85.8481 533.18 82.8961C533.18 80.2561 531.068 79.5361 527.3 78.6721C525.38 78.2401 524.78 78.1201 524.78 77.4961C524.78 76.7761 525.62 76.3921 526.988 76.3921C528.572 76.3921 529.292 76.8961 529.556 77.7361H533.036C532.58 75.2881 530.78 73.5121 527.108 73.5121C523.628 73.5121 521.324 75.1201 521.324 77.9041C521.324 80.1841 522.86 81.0241 526.604 81.9121C528.596 82.3921 529.628 82.4641 529.628 83.3521C529.628 84.0721 528.908 84.4321 527.396 84.4321C525.26 84.4321 524.468 83.7121 524.204 82.6561H520.724C521.204 85.5601 523.772 87.2881 527.3 87.2881Z" fill="white"/>
<path d="M338.488 66.2681C337.348 66.2681 336.448 66.8561 335.944 67.7561V66.4001H334.948V76.0001H335.944V71.6681C336.448 72.5561 337.336 73.1321 338.476 73.1321C340.276 73.1321 341.572 71.6921 341.572 69.7001C341.572 67.6961 340.276 66.2681 338.488 66.2681ZM338.296 72.1841C336.952 72.1841 335.932 71.1521 335.932 69.7001C335.932 68.2481 336.952 67.2161 338.296 67.2161C339.628 67.2161 340.564 68.2601 340.564 69.7001C340.564 71.1521 339.628 72.1841 338.296 72.1841Z" fill="white"/>
<path d="M348.444 66.4001V67.7561C347.94 66.8561 347.04 66.2681 345.9 66.2681C344.112 66.2681 342.816 67.6961 342.816 69.7001C342.816 71.6921 344.1 73.1321 345.9 73.1321C347.04 73.1321 347.928 72.5561 348.444 71.6681V73.0001H349.44V66.4001H348.444ZM346.092 72.1841C344.76 72.1841 343.824 71.1521 343.824 69.7001C343.824 68.2601 344.748 67.2161 346.092 67.2161C347.436 67.2161 348.456 68.2481 348.456 69.7001C348.456 71.1521 347.436 72.1841 346.092 72.1841Z" fill="white"/>
<path d="M354.56 66.2681C353.396 66.2681 352.604 66.8921 352.208 67.8761V66.4001H351.212V73.0001H352.208V69.8801C352.208 68.1881 353.168 67.2881 354.548 67.2881C354.716 67.2881 354.86 67.3001 354.968 67.3121V66.2921C354.872 66.2801 354.716 66.2681 354.56 66.2681Z" fill="white"/>
<path d="M361.463 66.4001V67.7561C360.959 66.8561 360.059 66.2681 358.919 66.2681C357.131 66.2681 355.835 67.6961 355.835 69.7001C355.835 71.6921 357.119 73.1321 358.919 73.1321C360.059 73.1321 360.947 72.5561 361.463 71.6681V73.0001H362.459V66.4001H361.463ZM359.111 72.1841C357.779 72.1841 356.843 71.1521 356.843 69.7001C356.843 68.2601 357.767 67.2161 359.111 67.2161C360.455 67.2161 361.475 68.2481 361.475 69.7001C361.475 71.1521 360.455 72.1841 359.111 72.1841Z" fill="white"/>
<path fill-rule="evenodd" clip-rule="evenodd" d="M362 81H335V80H362V81Z" fill="white"/>
</svg>
