<svg width="105" height="151" viewBox="0 0 105 151" fill="none" xmlns="http://www.w3.org/2000/svg">
<path d="M6.07006 1H98.6036C101.472 1 103.792 3.30528 103.792 6.15655V115.839C103.792 118.691 101.472 120.996 98.6036 120.996H6.07006C3.20128 120.996 0.881836 118.691 0.881836 115.839V6.09588C0.881836 3.30528 3.20128 1 6.07006 1Z" stroke="#707070" stroke-width="1.278"/>
<path d="M28.7154 96.6084L27.1284 91.5732H28.044L28.8985 94.4851L29.2037 95.5771C29.2037 95.5165 29.3258 95.2131 29.5089 94.5458L30.3634 91.6339H31.279L32.0725 94.5458L32.3166 95.5165L32.6218 94.5458L33.5374 91.6339H34.3919L32.6829 96.6691H31.7673L30.9738 93.6965L30.7907 92.8472L29.692 96.6691H28.7154V96.6084Z" fill="#707070"/>
<path d="M36.2232 96.6084L34.6362 91.5732H35.5518L36.4063 94.4851L36.7115 95.5771C36.7115 95.5165 36.8336 95.2131 37.0167 94.5458L37.8712 91.6339H38.7868L39.5803 94.5458L39.8245 95.5165L40.0686 94.4851L40.9842 91.5732H41.8387L40.1296 96.6084H39.2141L38.3595 93.6358L38.1764 92.7865L37.0777 96.6084H36.2232Z" fill="#707070"/>
<path d="M43.7301 96.6084L42.1431 91.5732H43.0586L43.9132 94.4851L44.2184 95.5771C44.2184 95.5165 44.3404 95.2131 44.5235 94.5458L45.3781 91.6339H46.2936L47.0871 94.5458L47.3313 95.5165L47.6365 94.5458L48.552 91.6339H49.4066L47.6975 96.6691H46.7819L45.9885 93.6965L45.8053 92.8472L44.7067 96.6691H43.7301V96.6084Z" fill="#707070"/>
<path d="M50.5669 95.6379H49.5293V96.6085H50.5669V95.6379Z" fill="#707070"/>
<path d="M52.0928 96.6084V92.2405H51.2993V91.5731H52.0928V91.0272C52.0928 90.6632 52.1538 90.4205 52.2149 90.2992C52.2759 90.0565 52.459 89.9352 52.6421 89.7532C52.8863 89.6318 53.1305 89.5712 53.5577 89.5712C53.8019 89.5712 54.1071 89.5712 54.4122 89.6319L54.2902 90.3598C54.1071 90.2992 53.9239 90.2992 53.7408 90.2992C53.4967 90.2992 53.2525 90.3598 53.1915 90.4812C53.0694 90.6025 53.0084 90.7845 53.0084 91.0878V91.5731H54.046V92.2405H53.0084V96.6084H52.0928Z" fill="#707070"/>
<path d="M54.4121 95.0919L55.3277 94.9705C55.3887 95.3345 55.5108 95.5772 55.7549 95.7592C55.9991 95.9412 56.3043 96.0018 56.6705 96.0018C57.0978 96.0018 57.403 95.9412 57.5861 95.7592C57.7692 95.5772 57.8913 95.3952 57.8913 95.2132C57.8913 95.0312 57.8302 94.8492 57.6471 94.7885C57.525 94.7279 57.2199 94.6065 56.7316 94.4852C56.0601 94.3032 55.6329 94.1819 55.3887 94.0605C55.1446 93.9392 54.9614 93.7572 54.8394 93.5752C54.7173 93.3932 54.6563 93.1506 54.6563 92.9079C54.6563 92.6652 54.7173 92.4832 54.8394 92.3012C54.9614 92.1192 55.0835 91.9373 55.2666 91.8159C55.3887 91.6946 55.5718 91.6339 55.816 91.5733C56.0601 91.5126 56.3043 91.4519 56.6095 91.4519C57.0367 91.4519 57.403 91.5126 57.7082 91.6339C58.0133 91.7553 58.2575 91.8766 58.3796 92.1193C58.5017 92.3013 58.6237 92.6046 58.6848 92.9079L57.8302 93.0292C57.7692 92.7866 57.7082 92.5439 57.464 92.4226C57.2809 92.3013 57.0367 92.1799 56.6705 92.1799C56.2432 92.1799 55.9991 92.2406 55.816 92.3619C55.6329 92.4832 55.5718 92.6652 55.5718 92.7866C55.5718 92.9079 55.6329 92.9686 55.6939 93.0899C55.7549 93.1506 55.877 93.2719 56.0601 93.3326C56.1212 93.3932 56.4264 93.4539 56.8536 93.5752C57.464 93.7572 57.8913 93.8785 58.1354 93.9392C58.3796 94.0605 58.5627 94.1819 58.7458 94.3639C58.8679 94.5459 58.9289 94.7885 58.9289 95.0919C58.9289 95.3952 58.8679 95.6378 58.6848 95.8805C58.5017 96.1232 58.2575 96.3052 57.9523 96.4265C57.6471 96.5478 57.2809 96.6085 56.8536 96.6085C56.1822 96.6085 55.6329 96.4872 55.3277 96.1838C54.7783 96.0018 54.5342 95.6378 54.4121 95.0919Z" fill="#707070"/>
<path d="M63.2013 94.7885L64.0559 94.9098C63.9338 95.4558 63.6896 95.9411 63.3234 96.2444C62.9572 96.5478 62.4689 96.7298 61.8585 96.7298C61.1261 96.7298 60.5767 96.4871 60.1494 96.0625C59.7222 95.6378 59.478 94.9705 59.478 94.1212C59.478 93.5752 59.6001 93.0899 59.7832 92.7259C59.9663 92.3012 60.2715 91.9979 60.6377 91.8159C61.004 91.6339 61.4312 91.5126 61.8585 91.5126C62.4078 91.5126 62.8962 91.6339 63.2624 91.9372C63.6286 92.2405 63.8728 92.6045 63.9338 93.1505L63.0793 93.2718C63.0182 92.9685 62.8351 92.6652 62.652 92.4832C62.4689 92.3012 62.2247 92.2405 61.9195 92.2405C61.4923 92.2405 61.1261 92.3619 60.8209 92.6652C60.5157 92.9685 60.3936 93.4538 60.3936 94.1212C60.3936 94.7885 60.5157 95.2738 60.8209 95.5771C61.065 95.8805 61.4312 96.0625 61.8585 96.0625C62.2247 96.0625 62.4689 95.9411 62.713 95.7591C62.9572 95.5165 63.1403 95.2131 63.2013 94.7885Z" fill="#707070"/>
<path d="M66.0699 95.6379H65.0322V96.6085H66.0699V95.6379Z" fill="#707070"/>
<path d="M67.7789 94.0605C67.7789 94.7278 67.9009 95.2131 68.2061 95.5165C68.5113 95.8198 68.8775 96.0018 69.3048 96.0018C69.7321 96.0018 70.0983 95.8198 70.4035 95.5165C70.7087 95.2131 70.8307 94.7278 70.8307 94.0605C70.8307 93.4538 70.7087 92.9685 70.4035 92.6652C70.0983 92.3619 69.7321 92.1799 69.3048 92.1799C68.8775 92.1799 68.5113 92.3619 68.2061 92.6652C67.9009 92.9685 67.7789 93.4538 67.7789 94.0605ZM66.8633 94.1212C66.8633 93.2112 67.1074 92.4832 67.6568 92.0585C68.084 91.6946 68.6334 91.5126 69.3048 91.5126C70.0373 91.5126 70.5866 91.7552 71.0749 92.1799C71.5022 92.6045 71.7463 93.2719 71.7463 94.0605C71.7463 94.7278 71.6242 95.2131 71.4411 95.5771C71.258 95.9411 70.9528 96.2445 70.5256 96.4264C70.1593 96.6084 69.7321 96.7298 69.2438 96.7298C68.5113 96.7298 67.9009 96.4871 67.4737 96.0625C67.1074 95.5771 66.8633 94.9098 66.8633 94.1212Z" fill="#707070"/>
<path d="M72.7847 96.6085V91.5733H73.5782V92.3619C73.7613 91.9979 73.9444 91.7553 74.1276 91.6339C74.3107 91.5126 74.4938 91.4519 74.6769 91.4519C74.9821 91.4519 75.2873 91.5126 75.5926 91.7553L75.2873 92.5439C75.1042 92.4226 74.8601 92.3619 74.6159 92.3619C74.4328 92.3619 74.2497 92.4226 74.0665 92.5439C73.9444 92.6652 73.8224 92.7866 73.7613 93.0292C73.6392 93.3326 73.6392 93.6359 73.6392 93.9999V96.6085H72.7847Z" fill="#707070"/>
<path d="M76.6304 93.9998C76.6304 94.6671 76.7525 95.1525 77.0577 95.4558C77.3018 95.7591 77.6681 95.8804 78.0953 95.8804C78.5226 95.8804 78.8278 95.7591 79.133 95.4558C79.4382 95.1525 79.5602 94.6671 79.5602 94.0605C79.5602 93.4538 79.4382 92.9685 79.133 92.6652C78.8278 92.3619 78.5226 92.1799 78.0953 92.1799C77.6681 92.1799 77.3629 92.3619 77.0577 92.6652C76.7525 92.9685 76.6304 93.3932 76.6304 93.9998ZM75.898 97.0331L76.8135 97.1544C76.8746 97.3971 76.9356 97.5791 77.1187 97.7004C77.3629 97.8824 77.6681 97.9431 78.0343 97.9431C78.4615 97.9431 78.7667 97.8824 79.0109 97.7004C79.255 97.5184 79.3771 97.3364 79.4382 97.0331C79.4992 96.8511 79.4992 96.4871 79.4992 95.9411C79.133 96.3658 78.6447 96.6084 78.0343 96.6084C77.3018 96.6084 76.7525 96.3658 76.3252 95.8804C75.898 95.3951 75.7148 94.7885 75.7148 94.1211C75.7148 93.6358 75.8369 93.2112 75.959 92.7865C76.1421 92.3619 76.3863 92.0585 76.7525 91.8765C77.1187 91.6339 77.4849 91.5732 77.9732 91.5732C78.5836 91.5732 79.133 91.8159 79.4992 92.3012V91.6945H80.2927V96.0018C80.2927 96.7904 80.2316 97.3364 80.0485 97.6397C79.8654 97.9431 79.6213 98.2464 79.255 98.4284C78.8888 98.6104 78.4615 98.7317 77.9122 98.7317C77.3018 98.7317 76.7525 98.6104 76.3863 98.3071C76.0811 97.9431 75.898 97.5791 75.898 97.0331Z" fill="#707070"/>
<path d="M54.2287 9.37189C38.1757 9.37189 32.5603 33.092 27.25 52.2016C25.3578 50.3816 19.4981 44.8004 19.4981 44.8004C18.3384 43.7084 16.9956 44.0724 16.1411 44.8004C15.2865 45.589 15.1644 47.045 16.1411 47.955C16.2021 48.0157 24.076 55.4775 26.8227 58.0861C27.5551 58.8141 28.6538 59.1781 29.7525 58.5714C30.9122 57.9041 31.0343 56.7515 31.0953 56.7515C40.4341 16.7731 48.7963 13.8005 54.2287 13.8005C58.8066 13.8005 64.0558 17.0157 64.0558 23.4462C70.8921 23.4462 75.1647 31.9394 69.6713 37.2172C74.2492 39.3405 76.2634 41.8885 76.2634 45.1644C76.2634 48.4403 73.3946 51.7769 69.183 51.7769C65.0324 51.7769 62.8961 49.229 59.6611 49.229C58.1962 49.229 57.2806 50.3816 57.2806 51.4736V59.5421H51.1768V51.5342C51.1768 50.2603 50.2002 49.2896 48.9795 49.2896C48.9795 49.2896 48.4301 49.2896 48.4912 49.2896L40.3121 50.2603C39.3355 50.3816 38.4199 51.4129 38.4199 52.4442C38.4199 53.6575 39.4575 54.6888 40.9225 54.6888C41.1056 54.6888 41.3497 54.6888 41.3497 54.6888L46.5379 54.0822V62.0293C46.5379 63.0606 47.7587 64.0313 48.7963 64.0313H59.6001C60.8819 64.0313 61.9805 63 61.9805 61.7867V54.5068C64.2389 55.8415 67.4129 56.3268 69.0609 56.3268C75.1647 56.3268 80.9633 51.7769 80.9633 45.0431C80.9633 38.9765 76.0803 35.9433 76.0803 35.9433C78.9491 28.6634 74.3102 21.6869 68.3285 19.7456C66.1311 12.2838 59.4169 9.37189 54.2287 9.37189Z" fill="#707070"/>
<path d="M47.3321 72.8882C47.3321 74.7688 49.5294 75.9215 53.1307 77.5594C55.9994 78.8334 57.6475 80.168 57.6475 81.26C57.6475 83.0193 55.6332 83.626 53.8021 83.626C50.9333 83.626 49.2242 82.534 48.2476 80.0467L48.1866 79.8647H48.0035C47.5152 79.8647 47.0879 79.8647 46.8438 80.168C46.6606 80.4107 46.7217 80.714 46.7827 81.078L47.3931 83.626C47.5762 84.2326 47.8204 84.354 48.797 84.536C49.2242 84.5966 51.6047 85.0213 53.5579 85.0213C59.0513 85.0213 61.5539 82.898 61.5539 80.7747C61.5539 79.2581 59.9669 77.7414 56.4877 76.1035L54.9008 75.3755C52.5203 74.2835 51.1164 73.6769 51.1164 72.5242C51.1164 71.4322 52.5813 70.6436 54.7176 70.6436C57.4644 70.6436 58.1968 72.0996 58.563 73.3735L58.6241 73.6162H58.8682C59.4786 73.6162 59.8448 73.5555 60.089 73.3129C60.2111 73.1915 60.2721 73.0095 60.2721 72.7669L60.0279 70.5829C59.9669 69.9156 59.4176 69.7943 58.6241 69.6123C57.7085 69.4303 56.6098 69.2483 54.9008 69.2483C50.2008 69.3696 47.3321 70.7043 47.3321 72.8882Z" fill="#707070"/>
<path d="M63.2012 77.3167C63.2012 81.1387 66.6803 84.9606 73.2724 84.9606C76.6295 84.9606 78.5217 84.2326 79.9256 83.5046L80.2918 83.3226L79.6814 82.6553L79.7424 82.716C79.6204 82.534 79.4983 82.4733 79.2541 82.4733L78.949 82.5946C78.4606 82.8373 76.9347 83.5046 74.127 83.5046C70.7088 83.5046 66.9855 81.3813 66.9855 76.7101C66.9855 72.2815 71.014 70.6436 74.3711 70.6436C76.8126 70.6436 78.1555 71.4929 78.3996 73.1915L78.4607 73.4948H78.7658C79.071 73.4948 79.8645 73.4948 79.8645 72.9488V70.3402C79.8645 69.7336 79.071 69.6123 78.7658 69.5516L78.4607 69.4909C77.6672 69.3696 76.9347 69.3089 74.9205 69.3089C68.1452 69.3696 63.2012 72.7062 63.2012 77.3167Z" fill="#707070"/>
<path d="M38.2984 69.5517L32.3166 69.6124L28.3492 69.5517H27.7388C27.3726 69.5517 27.1284 69.7944 27.1284 70.1584C27.1284 70.3404 27.1284 70.8257 27.7998 70.8257C30.1803 70.8257 30.3024 71.0077 30.3024 71.9177V72.4637L30.3634 74.8296V79.8648C30.3634 80.7141 30.3634 82.0488 30.3024 83.0801C30.3024 83.3834 30.2414 83.6867 28.1661 83.6867C27.5557 83.6867 27.1895 83.8081 27.1895 84.3541C27.1895 84.5361 27.1895 84.9607 27.7388 84.9607H27.8609C28.105 84.9607 28.7764 84.9 32.1335 84.9C35.6737 84.9 36.4062 84.9607 36.5893 84.9607H36.7114C37.1997 84.9607 37.5659 84.9 37.5659 84.3541C37.5659 83.7474 37.0166 83.6867 36.101 83.6867C33.9647 83.6867 33.9647 83.3834 33.9647 83.0801C33.9036 82.1094 33.8426 80.7748 33.8426 79.8648C33.8426 79.8648 33.8426 78.5302 33.8426 78.0449C34.3309 78.0449 35.6127 78.0449 35.6127 78.0449C38.3594 78.0449 38.6646 78.1055 39.0308 80.1075C39.1529 80.5321 39.5191 80.5928 39.8243 80.5928C40.4957 80.5928 40.5568 80.2288 40.5568 80.1075L40.4957 79.3795C40.4347 78.9549 40.3737 78.4089 40.3737 77.6809V74.5869C40.3737 74.1016 39.7633 74.1016 39.4581 74.1016C38.9698 74.1016 38.8477 74.405 38.4815 75.8609C38.3594 76.4069 37.1997 76.7709 35.3685 76.7709C35.3685 76.7709 34.2088 76.7709 33.7816 76.7709C33.7816 76.2249 33.7816 72.221 33.7816 72.221C33.7816 71.0077 34.0257 71.0077 34.2699 70.947C35.3075 70.8864 37.8711 70.8257 38.6035 70.8257C39.336 70.8257 40.0074 71.0077 40.4347 71.2504C41.7775 72.039 42.51 72.585 42.8762 72.949C43.3035 73.2523 43.5476 73.4343 43.8528 73.4343C44.0359 73.4343 44.6463 73.4343 44.6463 72.949C44.6463 72.8277 44.5853 72.7063 44.4022 72.3423C44.158 71.857 43.7918 71.129 43.3645 69.9157C43.2424 69.5517 42.7541 69.5517 41.9606 69.5517H38.2984Z" fill="#707070"/>
<path d="M72.9064 14.6497H73.5778C73.883 14.6497 74.1271 14.589 74.2492 14.5283C74.3713 14.407 74.4323 14.2857 74.4323 14.1643C74.4323 13.9823 74.3713 13.861 74.2492 13.8003C74.1271 13.7397 73.883 13.679 73.5167 13.679H72.8453V14.6497H72.9064ZM75.2868 16.5909H74.6154C74.1882 15.8023 73.883 15.3776 73.7609 15.2563C73.6388 15.135 73.4557 15.135 73.2726 15.135H72.9674V16.5909H72.4181V13.1937H73.6388C74.005 13.1937 74.2492 13.1937 74.4933 13.2544C74.6765 13.315 74.8596 13.4364 74.9816 13.5577C75.1037 13.7397 75.1648 13.9217 75.1648 14.1037C75.1648 14.3463 75.1037 14.5283 74.9206 14.771C74.7375 14.953 74.4933 15.0743 74.1882 15.0743C74.3713 15.135 74.6765 15.4383 74.9816 15.9236L75.2868 16.5909ZM73.7609 17.5009C74.4933 17.5009 75.1037 17.2583 75.6531 16.7123C76.2024 16.1663 76.4466 15.5596 76.4466 14.8317C76.4466 14.1037 76.2024 13.497 75.6531 12.951C75.1037 12.405 74.4933 12.1624 73.7609 12.1624C73.0284 12.1624 72.357 12.405 71.8687 12.951C71.3194 13.497 71.0752 14.1037 71.0752 14.8317C71.0752 15.5596 71.3194 16.1663 71.8687 16.7123C72.4181 17.2583 73.0284 17.5009 73.7609 17.5009ZM73.7609 11.6164C74.6154 11.6164 75.4089 11.9197 76.0193 12.5264C76.6297 13.133 76.9959 13.9217 76.9959 14.771C76.9959 15.681 76.6907 16.4089 76.0803 17.0156C75.47 17.6223 74.6765 17.9256 73.8219 17.9256C72.9064 17.9256 72.1739 17.6223 71.5635 17.0156C70.9531 16.4089 70.5869 15.6203 70.5869 14.771C70.5869 13.9217 70.8921 13.133 71.5635 12.5264C72.1129 11.9804 72.9064 11.6771 73.7609 11.6164Z" fill="#707070"/>
<path d="M72.9064 14.6496H73.5778C73.883 14.6496 74.1271 14.589 74.2492 14.5283C74.3713 14.407 74.4323 14.2856 74.4323 14.1643C74.4323 13.9823 74.3713 13.861 74.2492 13.8003C74.1271 13.7397 73.883 13.679 73.5167 13.679H72.8453V14.6496H72.9064ZM75.2868 16.5909H74.6154C74.1882 15.8023 73.883 15.3776 73.7609 15.2563C73.6388 15.135 73.4557 15.135 73.2726 15.135H72.9674V16.5909H72.4181V13.1937H73.6388C74.005 13.1937 74.2492 13.1937 74.4933 13.2543C74.6765 13.315 74.8596 13.4363 74.9816 13.5577C75.1037 13.7397 75.1648 13.9216 75.1648 14.1036C75.1648 14.3463 75.1037 14.5283 74.9206 14.7103C74.7375 14.8923 74.4933 15.0136 74.1882 15.0136C74.3713 15.0743 74.6765 15.3776 74.9816 15.8629L75.2868 16.5909ZM73.7609 17.5009C74.4933 17.5009 75.1037 17.2582 75.6531 16.7122C76.2024 16.1663 76.4466 15.5596 76.4466 14.8316C76.4466 14.1036 76.2024 13.497 75.6531 12.951C75.1037 12.405 74.4933 12.1624 73.7609 12.1624C73.0284 12.1624 72.357 12.405 71.8687 12.951C71.3194 13.497 71.0752 14.1036 71.0752 14.8316C71.0752 15.5596 71.3194 16.1663 71.8687 16.7122C72.4181 17.2582 73.0284 17.5009 73.7609 17.5009ZM73.7609 11.677C74.6154 11.677 75.4089 11.9804 76.0193 12.587C76.6297 13.1937 76.9959 13.9823 76.9959 14.8316C76.9959 15.7416 76.6907 16.4696 76.0803 17.0762C75.47 17.6829 74.6765 18.0469 73.8219 18.0469C72.9064 18.0469 72.1739 17.7436 71.5635 17.1369C70.9531 16.5303 70.5869 15.7416 70.5869 14.8923C70.5869 14.043 70.8921 13.2543 71.5635 12.6477C72.1129 11.9804 72.9064 11.677 73.7609 11.677Z" stroke="#707070" stroke-width="0.42"/>
<path d="M26.0905 107.71H22.6724V109.652H25.6022V110.38H22.6724V113.231H21.8179V106.982H26.0905V107.71Z" fill="#707070"/>
<path d="M26.0905 107.71H22.6724V109.652H25.6022V110.38H22.6724V113.231H21.8179V106.982H26.0905V107.71Z" stroke="#707070" stroke-width="0.42"/>
<path d="M31.218 108.802C31.1569 108.438 31.0348 108.135 30.7907 107.892C30.5465 107.71 30.1803 107.589 29.692 107.589C29.2647 107.589 28.8985 107.649 28.6544 107.831C28.4102 108.013 28.2271 108.195 28.2271 108.499C28.2271 108.741 28.3492 108.984 28.5323 109.105C28.7154 109.227 29.1427 109.348 29.692 109.53C30.2413 109.651 30.6076 109.773 30.9738 109.894C31.279 110.015 31.5842 110.197 31.8283 110.44C32.0725 110.683 32.1946 111.047 32.1946 111.471C32.1946 112.017 32.0114 112.442 31.5231 112.806C31.0959 113.17 30.5465 113.352 29.8141 113.352C28.9596 113.352 28.2881 113.17 27.8609 112.745C27.4336 112.381 27.1895 111.835 27.1895 111.229L27.9829 111.168C28.044 111.653 28.2271 112.017 28.5933 112.26C28.9596 112.503 29.3868 112.624 29.8751 112.624C30.3634 112.624 30.7297 112.503 30.9738 112.321C31.279 112.139 31.4011 111.896 31.4011 111.532C31.4011 111.168 31.279 110.925 30.9738 110.804C30.6686 110.622 30.1803 110.501 29.4479 110.319C28.7154 110.197 28.2271 109.955 27.9219 109.651C27.6167 109.348 27.4336 109.045 27.4336 108.559C27.4336 108.074 27.6167 107.649 28.044 107.346C28.4102 107.043 28.9596 106.861 29.631 106.861C30.3024 106.861 30.9128 107.043 31.279 107.346C31.7063 107.649 31.9504 108.135 31.9504 108.741L31.218 108.802Z" fill="#707070"/>
<path d="M31.2175 108.802C31.1564 108.438 31.0344 108.135 30.7902 107.892C30.546 107.71 30.1798 107.589 29.6915 107.589C29.2643 107.589 28.898 107.649 28.6539 107.831C28.4097 108.013 28.2266 108.195 28.2266 108.499C28.2266 108.741 28.3487 108.984 28.5318 109.105C28.7149 109.227 29.1422 109.348 29.6915 109.53C30.2409 109.651 30.6071 109.773 30.9733 109.894C31.2785 110.015 31.5837 110.197 31.8278 110.44C32.072 110.683 32.1941 111.047 32.1941 111.471C32.1941 112.017 32.011 112.442 31.5227 112.806C31.0954 113.17 30.546 113.352 29.8746 113.352C29.0201 113.352 28.3487 113.17 27.9214 112.745C27.4942 112.381 27.25 111.835 27.25 111.229L28.0435 111.168C28.1045 111.653 28.2876 112.017 28.5928 112.26C28.9591 112.503 29.3863 112.624 29.8746 112.624C30.3629 112.624 30.7292 112.503 30.9733 112.321C31.2785 112.139 31.4006 111.896 31.4006 111.532C31.4006 111.168 31.2785 110.925 30.9733 110.804C30.6681 110.622 30.1798 110.501 29.4474 110.319C28.7149 110.197 28.2266 109.955 27.9214 109.651C27.6162 109.348 27.4331 109.045 27.4331 108.559C27.4331 108.074 27.6162 107.649 28.0435 107.346C28.4097 107.043 28.9591 106.861 29.6305 106.861C30.3019 106.861 30.9123 107.043 31.2785 107.346C31.7058 107.649 31.9499 108.135 31.9499 108.741L31.2175 108.802Z" stroke="#707070" stroke-width="0.42"/>
<path d="M39.0305 111.229C38.8474 111.957 38.5422 112.442 38.0539 112.806C37.6267 113.17 37.0773 113.291 36.4059 113.352C35.3683 113.352 34.6358 113.049 34.1475 112.381C33.6592 111.775 33.4761 110.986 33.415 110.076C33.415 109.105 33.7202 108.317 34.2696 107.771C34.8189 107.225 35.5514 106.921 36.4059 106.921C37.0163 106.921 37.5656 107.103 37.9929 107.407C38.4201 107.71 38.7253 108.135 38.9085 108.741L38.115 108.923C37.9929 108.499 37.7487 108.195 37.5046 107.953C37.1994 107.71 36.8942 107.649 36.4669 107.649C35.7955 107.649 35.2462 107.892 34.941 108.317C34.5748 108.741 34.3916 109.348 34.3916 110.137C34.3916 110.986 34.5748 111.653 34.941 112.078C35.3072 112.503 35.7955 112.685 36.4059 112.685C36.8942 112.685 37.3215 112.563 37.6267 112.26C37.9318 112.017 38.176 111.593 38.2981 111.107L39.0305 111.229Z" fill="#707070"/>
<path d="M39.0305 111.229C38.8474 111.896 38.5422 112.442 38.0539 112.806C37.6267 113.17 37.0773 113.291 36.4059 113.352C35.3683 113.352 34.6358 113.049 34.1475 112.381C33.6592 111.775 33.4761 110.986 33.415 110.076C33.415 109.105 33.7202 108.317 34.2696 107.771C34.8189 107.225 35.5514 106.921 36.4059 106.921C37.0163 106.921 37.5656 107.103 37.9929 107.407C38.4201 107.71 38.7253 108.135 38.9085 108.741L38.115 108.923C37.9929 108.499 37.7487 108.195 37.5046 107.953C37.1994 107.71 36.8942 107.649 36.4669 107.649C35.7955 107.649 35.2462 107.892 34.941 108.317C34.5748 108.741 34.3916 109.348 34.3916 110.137C34.3916 110.986 34.5748 111.653 34.941 112.078C35.3072 112.503 35.7955 112.685 36.4059 112.685C36.8942 112.685 37.3215 112.563 37.6267 112.26C37.9318 112.017 38.176 111.593 38.2981 111.047L39.0305 111.229Z" stroke="#707070" stroke-width="0.42"/>
<path d="M41.5328 108.499H41.899C42.0821 108.499 42.1431 108.499 42.2042 108.438C42.2652 108.378 42.3263 108.317 42.3263 108.256C42.3263 108.196 42.3263 108.135 42.2652 108.074C42.2042 108.014 42.0821 108.014 41.899 108.014H41.5938V108.499H41.5328ZM42.7535 109.47H42.3873C42.2042 109.106 42.0211 108.863 41.96 108.802C41.899 108.742 41.838 108.742 41.7159 108.742H41.5328V109.47H41.2886V107.771H41.899C42.0821 107.771 42.2042 107.771 42.3263 107.832C42.4483 107.832 42.5094 107.892 42.5704 108.014C42.6314 108.074 42.6314 108.196 42.6314 108.256C42.6314 108.378 42.5704 108.499 42.5094 108.56C42.4483 108.681 42.3263 108.742 42.1431 108.742C42.2652 108.742 42.3873 108.924 42.5704 109.166L42.7535 109.47ZM41.96 109.894C42.3263 109.894 42.6314 109.773 42.9366 109.53C43.1808 109.288 43.3029 108.924 43.3639 108.56C43.3639 108.196 43.2418 107.892 42.9977 107.65C42.7535 107.407 42.3873 107.286 42.0211 107.286C41.6548 107.286 41.3497 107.407 41.0445 107.65C40.7393 107.892 40.6782 108.196 40.6782 108.62C40.6782 108.984 40.8003 109.288 41.0445 109.53C41.2886 109.773 41.5938 109.894 41.96 109.894ZM41.96 106.982C42.3873 106.982 42.7535 107.164 43.1198 107.468C43.4249 107.771 43.6081 108.135 43.6081 108.62C43.6081 109.045 43.4249 109.409 43.1198 109.773C42.8146 110.076 42.4483 110.258 41.96 110.258C41.5328 110.258 41.1055 110.076 40.8003 109.773C40.4951 109.47 40.312 109.106 40.312 108.62C40.312 108.196 40.4951 107.832 40.8003 107.468C41.1665 107.104 41.5328 106.982 41.96 106.982Z" fill="#707070"/>
<path d="M41.5328 108.499H41.899C42.0821 108.499 42.1431 108.499 42.2042 108.438C42.2652 108.378 42.2652 108.317 42.2652 108.256C42.2652 108.196 42.2652 108.135 42.2042 108.074C42.1431 108.014 42.0211 108.014 41.838 108.014H41.5328V108.499ZM42.7535 109.47H42.3873C42.2042 109.106 42.0211 108.863 41.96 108.802C41.899 108.742 41.838 108.742 41.7159 108.742H41.5328V109.47H41.2886V107.771H41.899C42.0821 107.771 42.2042 107.771 42.3263 107.832C42.4483 107.832 42.5094 107.892 42.5704 108.014C42.6314 108.074 42.6314 108.196 42.6314 108.256C42.6314 108.378 42.5704 108.499 42.5094 108.56C42.4483 108.681 42.3263 108.681 42.1431 108.742C42.2652 108.742 42.3873 108.924 42.5704 109.166L42.7535 109.47ZM41.96 109.894C42.3263 109.894 42.6314 109.773 42.9366 109.53C43.1808 109.288 43.3029 108.924 43.3639 108.56C43.3639 108.196 43.2418 107.892 42.9977 107.65C42.7535 107.407 42.3873 107.286 42.0211 107.286C41.6548 107.286 41.3497 107.407 41.0445 107.65C40.8003 107.892 40.6782 108.196 40.6782 108.62C40.6782 108.984 40.8003 109.288 41.0445 109.591C41.2886 109.773 41.5938 109.894 41.96 109.894ZM41.96 106.982C42.3873 106.982 42.7535 107.164 43.1198 107.468C43.4249 107.771 43.6081 108.135 43.6081 108.62C43.6081 109.045 43.4249 109.409 43.1198 109.773C42.8146 110.076 42.4483 110.258 41.96 110.258C41.5328 110.258 41.1055 110.076 40.8003 109.773C40.4951 109.47 40.312 109.106 40.312 108.62C40.312 108.135 40.4951 107.832 40.8003 107.468C41.1665 107.104 41.5328 106.982 41.96 106.982Z" stroke="#707070" stroke-width="0.21"/>
<path d="M53.4963 111.229C53.3132 111.957 53.008 112.442 52.5197 112.806C52.0925 113.17 51.5431 113.291 50.8717 113.352C49.8341 113.352 49.1016 113.049 48.6133 112.381C48.125 111.775 47.9419 110.986 47.8809 110.076C47.8809 109.105 48.186 108.317 48.7354 107.771C49.2847 107.225 50.0172 106.921 50.8717 106.921C51.4821 106.921 52.0314 107.103 52.4587 107.407C52.886 107.71 53.1912 108.135 53.3743 108.741L52.5808 108.923C52.4587 108.499 52.2145 108.195 51.9704 107.953C51.6652 107.71 51.36 107.649 50.9328 107.649C50.2613 107.649 49.712 107.892 49.4068 108.317C49.0406 108.741 48.8575 109.348 48.8575 110.137C48.8575 110.986 49.0406 111.653 49.4068 112.078C49.773 112.503 50.2613 112.685 50.8717 112.685C51.36 112.685 51.7873 112.563 52.0925 112.26C52.3977 112.017 52.6418 111.593 52.7639 111.107L53.4963 111.229Z" fill="#707070"/>
<path d="M53.4963 111.229C53.3132 111.896 53.008 112.442 52.5197 112.806C52.0925 113.17 51.5431 113.291 50.8717 113.352C49.8341 113.352 49.1016 113.049 48.6133 112.381C48.125 111.775 47.9419 110.986 47.8809 110.076C47.8809 109.105 48.186 108.317 48.7354 107.771C49.2847 107.225 50.0172 106.921 50.8717 106.921C51.4821 106.921 52.0314 107.103 52.4587 107.407C52.886 107.71 53.1912 108.135 53.3743 108.741L52.5808 108.923C52.4587 108.499 52.2145 108.195 51.9704 107.953C51.6652 107.71 51.36 107.649 50.9328 107.649C50.2613 107.649 49.712 107.892 49.4068 108.317C49.0406 108.741 48.8575 109.348 48.8575 110.137C48.8575 110.986 49.0406 111.653 49.4068 112.078C49.773 112.503 50.2613 112.685 50.8717 112.685C51.36 112.685 51.7873 112.563 52.0925 112.26C52.3977 112.017 52.6418 111.593 52.7639 111.047L53.4963 111.229Z" stroke="#707070" stroke-width="0.42"/>
<path d="M57.4645 113.231H56.671V108.378C56.3047 108.742 55.7554 109.045 55.145 109.288V108.56C56.0606 108.135 56.6099 107.589 56.9762 106.982H57.4645V113.231Z" fill="#707070"/>
<path d="M57.4645 113.231H56.671V108.378C56.3047 108.742 55.7554 109.045 55.145 109.288V108.56C56.0606 108.135 56.6099 107.589 56.9762 106.982H57.4645V113.231Z" stroke="#707070" stroke-width="0.42"/>
<path d="M61.7979 112.685C62.2252 112.685 62.5304 112.503 62.7135 112.078C62.8966 111.654 63.0187 111.047 63.0187 110.137C63.0187 109.53 62.9577 109.045 62.8966 108.681C62.7746 108.317 62.6525 108.074 62.4694 107.892C62.2862 107.71 62.0421 107.65 61.7369 107.65C61.3096 107.65 61.0045 107.832 60.8213 108.256C60.6382 108.681 60.5162 109.288 60.5162 110.198C60.5162 110.804 60.5772 111.29 60.6382 111.654C60.7603 112.018 60.8824 112.26 61.0655 112.442C61.3096 112.624 61.5538 112.685 61.7979 112.685ZM61.7979 106.982C63.1408 106.982 63.8122 108.014 63.8122 110.137C63.8122 111.229 63.6291 112.018 63.2629 112.503C62.8966 113.049 62.4083 113.292 61.7369 113.292C60.3941 113.292 59.7227 112.26 59.7227 110.137C59.7227 109.045 59.9058 108.256 60.272 107.771C60.6382 107.225 61.1876 106.982 61.7979 106.982Z" fill="#707070"/>
<path d="M61.7979 112.685C62.2252 112.685 62.5304 112.503 62.7135 112.078C62.8966 111.654 63.0187 111.047 63.0187 110.137C63.0187 109.53 62.9577 109.045 62.8966 108.681C62.8356 108.317 62.6525 108.074 62.4694 107.892C62.2862 107.71 62.0421 107.65 61.7369 107.65C61.3096 107.65 61.0045 107.832 60.8213 108.256C60.6382 108.681 60.5162 109.288 60.5162 110.198C60.5162 110.804 60.5772 111.29 60.6382 111.654C60.6993 112.018 60.8824 112.26 61.0655 112.442C61.3096 112.624 61.5538 112.685 61.7979 112.685ZM61.7979 106.982C63.1408 106.982 63.8122 108.014 63.8122 110.137C63.8122 111.229 63.6291 112.018 63.2629 112.503C62.8966 113.049 62.4083 113.292 61.7369 113.292C60.3941 113.292 59.7227 112.26 59.7227 110.137C59.7227 109.045 59.9058 108.256 60.272 107.771C60.6382 107.225 61.1876 106.982 61.7979 106.982Z" stroke="#707070" stroke-width="0.42"/>
<path d="M67.9015 113.231H67.108V108.378C66.7418 108.742 66.1924 109.045 65.582 109.288V108.56C66.4976 108.135 67.0469 107.589 67.4132 106.982H67.9015V113.231Z" fill="#707070"/>
<path d="M67.9015 113.231H67.108V108.378C66.7418 108.742 66.1924 109.045 65.582 109.288V108.56C66.4976 108.135 67.0469 107.589 67.4132 106.982H67.9015V113.231Z" stroke="#707070" stroke-width="0.42"/>
<path d="M72.2354 112.685C72.6017 112.685 72.9069 112.563 73.151 112.321C73.3952 112.078 73.5172 111.775 73.5172 111.411C73.5172 111.047 73.3952 110.743 73.151 110.501C72.9069 110.258 72.6017 110.137 72.2354 110.137C71.8692 110.137 71.564 110.258 71.3199 110.501C71.0757 110.743 70.9536 111.047 70.9536 111.411C70.9536 111.775 71.0757 112.078 71.3199 112.321C71.564 112.563 71.8692 112.685 72.2354 112.685ZM72.2354 109.53C72.5406 109.53 72.7848 109.409 72.9679 109.287C73.151 109.105 73.2731 108.863 73.2731 108.62C73.2731 108.317 73.151 108.074 72.9679 107.892C72.7848 107.71 72.5406 107.589 72.2354 107.589C71.9303 107.589 71.6861 107.71 71.503 107.892C71.3199 108.074 71.1978 108.317 71.1978 108.559C71.1978 108.863 71.3199 109.105 71.503 109.287C71.6861 109.469 71.9303 109.53 72.2354 109.53ZM73.151 109.833C73.9445 110.076 74.3107 110.622 74.3107 111.411C74.3107 111.957 74.1276 112.381 73.7614 112.745C73.3952 113.109 72.9069 113.291 72.2965 113.291C71.6861 113.291 71.1978 113.109 70.8316 112.745C70.4653 112.381 70.2822 111.957 70.2822 111.411C70.2822 111.047 70.4043 110.683 70.5874 110.379C70.7705 110.076 71.0757 109.894 71.442 109.833C70.8316 109.651 70.5264 109.227 70.5264 108.559C70.5264 108.074 70.7095 107.71 71.0147 107.407C71.3199 107.103 71.7471 106.921 72.2965 106.921C72.8458 106.921 73.2731 107.103 73.6393 107.407C73.9445 107.71 74.1276 108.074 74.1276 108.559C74.0666 109.227 73.7614 109.591 73.151 109.833Z" fill="#707070"/>
<path d="M72.2354 112.685C72.6017 112.685 72.9069 112.563 73.151 112.321C73.3952 112.078 73.5172 111.775 73.5172 111.411C73.5172 111.047 73.3952 110.743 73.151 110.501C72.9069 110.258 72.6017 110.137 72.2354 110.137C71.8692 110.137 71.564 110.258 71.3199 110.501C71.0757 110.743 70.9536 111.047 70.9536 111.411C70.9536 111.775 71.0757 112.078 71.3199 112.321C71.564 112.563 71.8692 112.685 72.2354 112.685ZM72.2354 109.53C72.5406 109.53 72.7848 109.409 72.9679 109.287C73.151 109.105 73.2731 108.863 73.2731 108.62C73.2731 108.317 73.151 108.074 72.9679 107.892C72.7848 107.71 72.5406 107.589 72.2354 107.589C71.9303 107.589 71.6861 107.71 71.503 107.892C71.3199 108.074 71.1978 108.317 71.1978 108.559C71.1978 108.863 71.3199 109.105 71.503 109.287C71.6861 109.469 71.9303 109.53 72.2354 109.53ZM73.151 109.833C73.9445 110.076 74.3107 110.622 74.3107 111.411C74.3107 111.957 74.1276 112.381 73.7614 112.745C73.3952 113.109 72.9069 113.291 72.2965 113.291C71.6861 113.291 71.1978 113.109 70.8316 112.745C70.4653 112.381 70.2822 111.957 70.2822 111.411C70.2822 111.047 70.4043 110.683 70.5874 110.379C70.7705 110.076 71.0757 109.894 71.442 109.833C70.8316 109.651 70.5264 109.227 70.5264 108.559C70.5264 108.074 70.7095 107.71 71.0147 107.407C71.3199 107.103 71.7471 106.921 72.2965 106.921C72.8458 106.921 73.2731 107.103 73.6393 107.407C73.9445 107.71 74.1276 108.074 74.1276 108.559C74.0666 109.227 73.7614 109.591 73.151 109.833Z" stroke="#707070" stroke-width="0.42"/>
<path d="M77.4845 112.685C77.8507 112.685 78.1559 112.563 78.4 112.321C78.6442 112.078 78.7663 111.775 78.7663 111.411C78.7663 111.047 78.6442 110.743 78.4 110.501C78.1559 110.258 77.8507 110.137 77.4845 110.137C77.1182 110.137 76.8131 110.258 76.5689 110.501C76.3247 110.743 76.2027 111.047 76.2027 111.411C76.2027 111.775 76.3247 112.078 76.5689 112.321C76.752 112.563 77.0572 112.685 77.4845 112.685ZM77.4845 109.53C77.7897 109.53 78.0338 109.409 78.2169 109.287C78.4 109.105 78.5221 108.863 78.5221 108.62C78.5221 108.317 78.4 108.074 78.2169 107.892C78.0338 107.71 77.7897 107.589 77.4845 107.589C77.1793 107.589 76.9351 107.71 76.752 107.892C76.5689 108.074 76.4468 108.317 76.4468 108.559C76.4468 108.863 76.5689 109.105 76.752 109.287C76.9351 109.469 77.1793 109.53 77.4845 109.53ZM78.339 109.833C79.1325 110.076 79.4987 110.622 79.4987 111.411C79.4987 111.957 79.3156 112.381 78.9494 112.745C78.5831 113.109 78.0948 113.291 77.4845 113.291C76.8741 113.291 76.3858 113.109 76.0196 112.745C75.6533 112.381 75.4702 111.957 75.4702 111.411C75.4702 111.047 75.5923 110.683 75.7754 110.379C76.0196 110.076 76.2637 109.894 76.6299 109.833C76.0196 109.651 75.7144 109.227 75.7144 108.559C75.7144 108.074 75.8975 107.71 76.2027 107.407C76.5079 107.103 76.9962 106.921 77.4845 106.921C78.0338 106.921 78.4611 107.103 78.8273 107.407C79.1325 107.71 79.3156 108.074 79.3156 108.559C79.2546 109.227 78.9494 109.591 78.339 109.833Z" fill="#707070"/>
<path d="M77.4845 112.685C77.8507 112.685 78.1559 112.563 78.4 112.321C78.6442 112.078 78.7663 111.775 78.7663 111.411C78.7663 111.047 78.6442 110.743 78.4 110.501C78.1559 110.258 77.8507 110.137 77.4845 110.137C77.1182 110.137 76.8131 110.258 76.5689 110.501C76.3247 110.743 76.2027 111.047 76.2027 111.411C76.2027 111.775 76.3247 112.078 76.5689 112.321C76.752 112.563 77.0572 112.685 77.4845 112.685ZM77.4845 109.53C77.7897 109.53 78.0338 109.409 78.2169 109.287C78.4 109.105 78.5221 108.863 78.5221 108.62C78.5221 108.317 78.4 108.074 78.2169 107.892C78.0338 107.71 77.7897 107.589 77.4845 107.589C77.1793 107.589 76.9351 107.71 76.752 107.892C76.5689 108.074 76.4468 108.317 76.4468 108.559C76.4468 108.863 76.5689 109.105 76.752 109.287C76.9351 109.469 77.1793 109.53 77.4845 109.53ZM78.339 109.833C79.1325 110.076 79.4987 110.622 79.4987 111.411C79.4987 111.957 79.3156 112.381 78.9494 112.745C78.5832 113.109 78.0948 113.291 77.4845 113.291C76.8741 113.291 76.3858 113.109 76.0196 112.745C75.6533 112.381 75.4702 111.957 75.4702 111.411C75.4702 111.047 75.5923 110.683 75.7754 110.379C76.0196 110.076 76.2637 109.894 76.6299 109.833C76.0196 109.651 75.7144 109.227 75.7144 108.559C75.7144 108.074 75.8975 107.71 76.2027 107.407C76.5079 107.103 76.9962 106.921 77.4845 106.921C78.0338 106.921 78.4611 107.103 78.8273 107.407C79.1325 107.71 79.3156 108.074 79.3156 108.559C79.2546 109.227 78.9494 109.591 78.339 109.833Z" stroke="#707070" stroke-width="0.42"/>
<path d="M81.6353 109.469C82.0015 109.227 82.4288 109.105 82.8561 109.105C83.4054 109.105 83.8327 109.287 84.1989 109.651C84.5651 110.015 84.8093 110.501 84.8093 111.107C84.8093 111.714 84.6262 112.26 84.1989 112.685C83.8327 113.109 83.2833 113.352 82.6729 113.352C82.1236 113.352 81.6963 113.231 81.3301 112.927C80.9639 112.624 80.7197 112.199 80.6587 111.653L81.4522 111.593C81.5132 111.957 81.6353 112.26 81.8795 112.442C82.0626 112.624 82.3678 112.745 82.6729 112.745C83.0392 112.745 83.4054 112.624 83.6496 112.321C83.8937 112.017 84.0158 111.653 84.0158 111.229C84.0158 110.804 83.8937 110.44 83.6496 110.197C83.4054 109.955 83.1002 109.833 82.6729 109.833C82.1846 109.833 81.8184 110.015 81.5132 110.44L80.7808 110.379L81.3911 107.164H84.5041V107.892H82.0015L81.6353 109.469Z" fill="#707070"/>
<path d="M81.6348 109.469C82.001 109.227 82.4283 109.105 82.7945 109.105C83.3439 109.105 83.7711 109.287 84.1374 109.651C84.5036 110.015 84.7477 110.501 84.7477 111.107C84.7477 111.714 84.5646 112.26 84.1374 112.685C83.7711 113.109 83.2218 113.352 82.6114 113.352C82.0621 113.352 81.6348 113.231 81.2686 112.927C80.9024 112.624 80.6582 112.199 80.5972 111.653L81.3907 111.593C81.4517 111.957 81.5738 112.26 81.8179 112.442C82.001 112.624 82.3062 112.745 82.6114 112.745C82.9776 112.745 83.3439 112.624 83.588 112.321C83.8322 112.017 83.9543 111.653 83.9543 111.229C83.9543 110.804 83.8322 110.44 83.588 110.197C83.3439 109.955 83.0387 109.833 82.6114 109.833C82.1231 109.833 81.7569 110.015 81.4517 110.44L80.7193 110.379L81.3296 107.164H84.4426V107.892H81.94L81.6348 109.469Z" stroke="#707070" stroke-width="0.42"/>
<path d="M15.592 135.919C15.1037 134.585 14.7985 133.796 14.7374 133.614C14.6764 133.432 14.6154 133.19 14.4933 132.886C14.4323 133.311 14.3102 133.675 14.1881 134.039L13.4556 135.919H15.592ZM17.4842 138.407H16.5686L15.8361 136.526H13.2115L12.5401 138.407H11.6855L14.066 132.219H14.9816L17.4842 138.407Z" fill="#707070"/>
<path d="M15.592 135.919C15.1037 134.585 14.7985 133.796 14.7374 133.614C14.6764 133.432 14.6154 133.19 14.4933 132.886C14.4323 133.311 14.3102 133.675 14.1881 134.039L13.5167 135.919H15.592ZM17.4842 138.407H16.5686L15.8361 136.526H13.2115L12.5401 138.407H11.6855L14.066 132.219H14.9816L17.4842 138.407Z" stroke="#707070" stroke-width="0.42"/>
<path d="M27.3108 138.407H26.5173V135.556C26.5173 135.374 26.5173 135.192 26.4563 135.01C26.4563 134.888 26.3342 134.706 26.2121 134.646C26.0901 134.524 25.907 134.464 25.6628 134.464C25.3576 134.464 25.1135 134.585 24.8693 134.767C24.6252 134.949 24.5641 135.313 24.5641 135.798V138.407H23.7706V135.495C23.7706 135.131 23.7096 134.828 23.5875 134.706C23.4654 134.585 23.2823 134.464 22.9771 134.464C22.6719 134.464 22.3668 134.585 22.1836 134.828C22.0005 135.07 21.8785 135.495 21.8785 136.102V138.407H21.146V133.918H21.8174V134.524C22.1226 134.039 22.5499 133.796 23.1602 133.796C23.4654 133.796 23.7706 133.857 23.9537 133.978C24.1369 134.1 24.32 134.282 24.442 134.585C24.8083 134.039 25.2355 133.796 25.8459 133.796C26.3342 133.796 26.6394 133.918 26.8836 134.16C27.1277 134.403 27.2498 134.767 27.2498 135.313V138.407H27.3108Z" fill="#707070"/>
<path d="M27.3108 138.407H26.5173V135.556C26.5173 135.374 26.5173 135.192 26.4563 135.01C26.4563 134.888 26.3342 134.706 26.2121 134.646C26.0901 134.524 25.907 134.464 25.6628 134.464C25.3576 134.464 25.1135 134.585 24.8693 134.767C24.6252 134.949 24.5641 135.313 24.5641 135.798V138.407H23.7706V135.495C23.7706 135.131 23.7096 134.828 23.5875 134.706C23.4654 134.585 23.2823 134.464 22.9771 134.464C22.6719 134.464 22.3668 134.585 22.1836 134.828C22.0005 135.07 21.8785 135.495 21.8785 136.102V138.407H21.146V133.918H21.8174V134.524C22.1226 134.039 22.5499 133.796 23.1602 133.796C23.4654 133.796 23.7706 133.857 23.9537 133.978C24.1369 134.1 24.32 134.282 24.442 134.585C24.8083 134.039 25.2355 133.796 25.8459 133.796C26.3342 133.796 26.6394 133.918 26.8836 134.16C27.1277 134.403 27.2498 134.767 27.2498 135.313V138.407H27.3108Z" stroke="#707070" stroke-width="0.42"/>
<path d="M31.7672 136.466V136.162C31.34 136.284 30.8517 136.405 30.3023 136.466C29.6919 136.526 29.4478 136.769 29.4478 137.194C29.4478 137.376 29.5088 137.558 29.6919 137.679C29.8751 137.8 30.0582 137.861 30.3634 137.861C30.7296 137.861 31.0958 137.74 31.34 137.497C31.5841 137.376 31.7062 137.012 31.7672 136.466ZM32.7438 138.407H31.9503C31.8893 138.286 31.8283 138.104 31.7672 137.861C31.2789 138.286 30.6686 138.528 30.1192 138.528C29.6309 138.528 29.2647 138.407 28.9595 138.164C28.6543 137.922 28.5322 137.618 28.5322 137.254C28.5322 136.89 28.6543 136.587 28.9595 136.344C29.2036 136.102 29.6919 135.92 30.3634 135.859L31.0958 135.738C31.34 135.677 31.5841 135.616 31.7672 135.556C31.7672 135.313 31.7672 135.192 31.7672 135.07C31.7672 134.949 31.7062 134.888 31.6452 134.767C31.5841 134.646 31.462 134.585 31.2789 134.524C31.0958 134.464 30.9127 134.403 30.6686 134.403C30.3634 134.403 30.0582 134.464 29.8751 134.585C29.6919 134.706 29.5699 134.949 29.5088 135.252L28.7764 135.131C28.8374 134.646 29.0816 134.342 29.3868 134.1C29.753 133.857 30.1802 133.736 30.7906 133.736C31.34 133.736 31.7062 133.796 32.0114 133.978C32.2555 134.16 32.4387 134.342 32.4997 134.585C32.5607 134.828 32.5607 135.131 32.5607 135.434V136.466C32.5607 137.072 32.5607 137.497 32.6218 137.74C32.5607 138.043 32.6218 138.225 32.7438 138.407Z" fill="#707070"/>
<path d="M31.7672 136.466V136.162C31.34 136.284 30.8517 136.405 30.3023 136.466C29.6919 136.526 29.4478 136.769 29.4478 137.194C29.4478 137.376 29.5088 137.558 29.6919 137.679C29.8751 137.8 30.0582 137.861 30.3634 137.861C30.7296 137.861 31.0958 137.74 31.34 137.497C31.5841 137.376 31.7672 137.012 31.7672 136.466ZM32.7438 138.407H31.9503C31.8893 138.286 31.8283 138.104 31.7672 137.861C31.2789 138.286 30.6686 138.528 30.1192 138.528C29.6309 138.528 29.2647 138.407 28.9595 138.164C28.6543 137.922 28.5322 137.618 28.5322 137.254C28.5322 136.89 28.6543 136.587 28.9595 136.344C29.2036 136.102 29.6919 135.92 30.3634 135.859L31.0958 135.738C31.34 135.677 31.5841 135.616 31.7672 135.556C31.7672 135.313 31.7672 135.192 31.7672 135.07C31.7672 134.949 31.7062 134.888 31.6452 134.767C31.5841 134.646 31.462 134.585 31.2789 134.524C31.0958 134.464 30.9127 134.403 30.6686 134.403C30.3634 134.403 30.0582 134.464 29.8751 134.585C29.6919 134.706 29.5699 134.949 29.5088 135.252L28.7764 135.131C28.8374 134.646 29.0816 134.342 29.3868 134.1C29.753 133.857 30.1802 133.736 30.7906 133.736C31.34 133.736 31.7062 133.796 32.0114 133.978C32.2555 134.16 32.4387 134.342 32.4997 134.585C32.5607 134.828 32.5607 135.131 32.5607 135.434V136.466C32.5607 137.072 32.5607 137.497 32.6218 137.74C32.5607 138.043 32.6218 138.225 32.7438 138.407Z" stroke="#707070" stroke-width="0.42"/>
<path d="M36.4669 134.1L36.2228 134.828C36.0396 134.706 35.8565 134.646 35.6734 134.646C35.3682 134.646 35.1851 134.767 35.002 135.01C34.8799 135.252 34.7578 135.616 34.7578 136.102V138.468H33.9644V133.918H34.6358V134.585C34.8799 134.039 35.1851 133.796 35.6124 133.796C35.9786 133.857 36.2228 133.918 36.4669 134.1Z" fill="#707070"/>
<path d="M36.4669 134.1L36.2228 134.828C36.0396 134.706 35.8565 134.646 35.6734 134.646C35.3682 134.646 35.1851 134.767 35.002 135.01C34.8799 135.252 34.7578 135.616 34.7578 136.102V138.468H33.9644V133.918H34.6358V134.585C34.8799 134.039 35.1851 133.796 35.6124 133.796C35.9786 133.857 36.2228 133.918 36.4669 134.1Z" stroke="#707070" stroke-width="0.42"/>
<path d="M40.9836 136.89C40.8615 137.436 40.6784 137.861 40.3122 138.164C39.9459 138.407 39.5797 138.589 39.0914 138.589C38.42 138.589 37.9317 138.346 37.5655 137.921C37.1992 137.497 37.0161 136.951 37.0161 136.223C37.0161 135.616 37.1382 135.192 37.3213 134.828C37.5044 134.464 37.8096 134.221 38.1148 134.1C38.42 133.978 38.7862 133.857 39.0914 133.857C39.5797 133.857 39.9459 133.978 40.3122 134.221C40.6174 134.464 40.8615 134.828 40.9225 135.252L40.1901 135.374C40.129 135.07 40.007 134.828 39.8239 134.706C39.6407 134.585 39.4576 134.464 39.1524 134.464C38.7252 134.464 38.42 134.646 38.1758 134.888C37.9317 135.192 37.8706 135.616 37.8706 136.162C37.8706 136.708 37.9927 137.133 38.1758 137.436C38.3589 137.739 38.7252 137.861 39.0914 137.861C39.3966 137.861 39.7018 137.739 39.8849 137.557C40.068 137.375 40.1901 137.072 40.2511 136.708L40.9836 136.89Z" fill="#707070"/>
<path d="M40.9836 136.89C40.8615 137.436 40.6784 137.861 40.3122 138.164C39.9459 138.407 39.5797 138.589 39.0914 138.589C38.42 138.589 37.9317 138.346 37.5655 137.921C37.1992 137.497 37.0161 136.951 37.0161 136.223C37.0161 135.616 37.1382 135.192 37.3213 134.828C37.5044 134.464 37.8096 134.221 38.1148 134.1C38.42 133.978 38.7862 133.857 39.0914 133.857C39.5797 133.857 39.9459 133.978 40.3122 134.221C40.6174 134.464 40.8615 134.828 40.9225 135.252L40.1901 135.374C40.129 135.07 40.007 134.828 39.8239 134.706C39.6407 134.585 39.4576 134.464 39.1524 134.464C38.7252 134.464 38.42 134.585 38.1758 134.888C37.9317 135.192 37.8706 135.616 37.8706 136.162C37.8706 136.708 37.9927 137.133 38.1758 137.436C38.42 137.739 38.7252 137.861 39.0914 137.861C39.3966 137.861 39.7018 137.739 39.8849 137.557C40.068 137.375 40.1901 137.072 40.2511 136.708L40.9836 136.89Z" stroke="#707070" stroke-width="0.42"/>
<path d="M44.9518 136.466V136.162C44.5245 136.284 44.0362 136.405 43.4869 136.466C42.8765 136.526 42.6324 136.769 42.6324 137.194C42.6324 137.376 42.6934 137.558 42.8765 137.679C43.0596 137.8 43.2427 137.861 43.5479 137.861C43.9142 137.861 44.2804 137.74 44.5245 137.497C44.7687 137.376 44.9518 137.012 44.9518 136.466ZM45.9284 138.407H45.1349C45.0739 138.286 45.0128 138.104 44.9518 137.861C44.4635 138.286 43.8531 138.528 43.3038 138.528C42.8155 138.528 42.4493 138.407 42.1441 138.164C41.8389 137.922 41.7168 137.618 41.7168 137.254C41.7168 136.89 41.8389 136.587 42.083 136.344C42.3272 136.102 42.8155 135.92 43.4869 135.859L44.2194 135.738C44.4635 135.677 44.7077 135.616 44.8908 135.556C44.8908 135.313 44.8908 135.192 44.8908 135.07C44.8908 134.949 44.8297 134.888 44.7687 134.767C44.7077 134.646 44.5856 134.585 44.4025 134.524C44.2194 134.464 44.0362 134.403 43.7921 134.403C43.4869 134.403 43.1817 134.464 42.9986 134.585C42.8155 134.706 42.6934 134.949 42.5713 135.252L41.8389 135.131C41.8999 134.646 42.1441 134.342 42.4493 134.1C42.8155 133.857 43.2427 133.736 43.8531 133.736C44.4025 133.736 44.7687 133.796 45.0739 133.978C45.318 134.16 45.5012 134.342 45.5622 134.585C45.6232 134.828 45.6232 135.131 45.6232 135.434V136.466C45.6232 137.072 45.6232 137.497 45.6843 137.74C45.7453 138.043 45.8063 138.225 45.9284 138.407Z" fill="#707070"/>
<path d="M44.9518 136.466V136.162C44.5245 136.284 44.0362 136.405 43.4869 136.466C42.8765 136.526 42.6324 136.769 42.6324 137.194C42.6324 137.376 42.6934 137.558 42.8765 137.679C43.0596 137.8 43.2427 137.861 43.5479 137.861C43.9142 137.861 44.2804 137.74 44.5245 137.497C44.7687 137.376 44.9518 137.012 44.9518 136.466ZM45.9284 138.407H45.1349C45.0739 138.286 45.0128 138.104 44.9518 137.861C44.4635 138.286 43.8531 138.528 43.3038 138.528C42.8155 138.528 42.4493 138.407 42.1441 138.164C41.8389 137.922 41.7168 137.618 41.7168 137.254C41.7168 136.89 41.8389 136.587 42.083 136.344C42.3272 136.102 42.8155 135.92 43.4869 135.859L44.2194 135.738C44.4635 135.677 44.7077 135.616 44.8908 135.556C44.8908 135.313 44.8908 135.192 44.8908 135.07C44.8908 134.949 44.8297 134.888 44.7687 134.767C44.7077 134.646 44.5856 134.585 44.4025 134.524C44.2194 134.464 44.0362 134.403 43.7921 134.403C43.4869 134.403 43.1817 134.464 42.9986 134.585C42.8155 134.706 42.6934 134.949 42.5713 135.252L41.8389 135.131C41.8999 134.646 42.1441 134.342 42.4493 134.1C42.8155 133.857 43.2427 133.736 43.8531 133.736C44.4025 133.736 44.7687 133.796 45.0739 133.978C45.318 134.16 45.5012 134.342 45.5622 134.585C45.6232 134.828 45.6232 135.131 45.6232 135.434V136.466C45.6232 137.072 45.6232 137.497 45.6843 137.74C45.7453 138.043 45.8063 138.225 45.9284 138.407Z" stroke="#707070" stroke-width="0.42"/>
<path d="M51.7872 137.921C52.1534 137.921 52.3976 137.8 52.6417 137.497C52.8859 137.193 53.008 136.829 53.008 136.223C53.008 135.677 52.8859 135.252 52.7028 134.888C52.4586 134.585 52.1534 134.403 51.7872 134.403C51.421 134.403 51.1158 134.585 50.8716 134.888C50.6885 135.191 50.5664 135.616 50.5664 136.162C50.5664 136.526 50.6275 136.829 50.7496 137.133C50.8716 137.375 50.9937 137.557 51.2379 137.739C51.3599 137.861 51.543 137.921 51.7872 137.921ZM53.6794 138.407H52.9469V137.861C52.6417 138.285 52.2755 138.528 51.6651 138.528C51.1158 138.528 50.6275 138.285 50.2613 137.861C49.895 137.436 49.7119 136.89 49.7119 136.162C49.7119 135.434 49.895 134.888 50.2613 134.464C50.6275 134.039 51.0547 133.857 51.6651 133.857C52.2145 133.857 52.6417 134.039 52.8859 134.464V132.219H53.6794V138.407Z" fill="#707070"/>
<path d="M51.7872 137.921C52.1534 137.921 52.3976 137.8 52.6417 137.497C52.8859 137.193 53.008 136.829 53.008 136.223C53.008 135.677 52.8859 135.252 52.7028 134.888C52.4586 134.585 52.1534 134.403 51.7872 134.403C51.3599 134.403 51.1158 134.585 50.8716 134.888C50.6885 135.191 50.5664 135.616 50.5664 136.162C50.5664 136.526 50.6275 136.829 50.7496 137.133C50.8716 137.375 50.9937 137.557 51.2379 137.739C51.3599 137.861 51.543 137.921 51.7872 137.921ZM53.6794 138.407H52.9469V137.861C52.6417 138.285 52.2755 138.528 51.6651 138.528C51.1158 138.528 50.6275 138.285 50.2613 137.861C49.895 137.436 49.7119 136.89 49.7119 136.162C49.7119 135.434 49.895 134.888 50.2613 134.464C50.6275 134.039 51.0547 133.857 51.6651 133.857C52.2145 133.857 52.6417 134.039 52.8859 134.464V132.219H53.6794V138.407Z" stroke="#707070" stroke-width="0.42"/>
<path d="M57.0367 137.921C57.464 137.921 57.8302 137.739 58.0133 137.436C58.2575 137.133 58.3795 136.708 58.3795 136.162C58.3795 135.616 58.2575 135.192 58.0133 134.888C57.7692 134.585 57.464 134.464 57.0367 134.464C56.6705 134.464 56.3043 134.585 56.0601 134.888C55.816 135.192 55.6939 135.616 55.6939 136.162C55.6939 136.708 55.816 137.133 56.0601 137.436C56.3653 137.739 56.6705 137.921 57.0367 137.921ZM57.0367 133.857C57.6471 133.857 58.1354 134.039 58.5627 134.464C58.9899 134.828 59.173 135.434 59.173 136.162C59.173 137.072 58.9289 137.679 58.5016 138.043C58.0744 138.407 57.5861 138.589 57.0367 138.589C56.4874 138.589 55.938 138.407 55.5718 138.043C55.1445 137.679 54.9614 137.072 54.9614 136.284C54.9614 135.495 55.1445 134.888 55.5718 134.524C55.938 134.039 56.4263 133.857 57.0367 133.857Z" fill="#707070"/>
<path d="M57.0367 137.921C57.464 137.921 57.8302 137.739 58.0133 137.436C58.2575 137.133 58.3795 136.708 58.3795 136.162C58.3795 135.616 58.2575 135.192 58.0133 134.888C57.7692 134.585 57.464 134.464 57.0367 134.464C56.6705 134.464 56.3043 134.585 56.0601 134.888C55.816 135.192 55.6939 135.616 55.6939 136.162C55.6939 136.708 55.816 137.133 56.0601 137.436C56.3653 137.739 56.6705 137.921 57.0367 137.921ZM57.0367 133.857C57.6471 133.857 58.1354 134.039 58.5627 134.464C58.9899 134.828 59.173 135.434 59.173 136.162C59.173 137.072 58.9289 137.679 58.5016 138.043C58.0744 138.407 57.5861 138.589 57.0367 138.589C56.4874 138.589 55.938 138.407 55.5718 138.043C55.1445 137.679 54.9614 137.072 54.9614 136.284C54.9614 135.495 55.1445 134.888 55.5718 134.524C55.938 134.039 56.4263 133.857 57.0367 133.857Z" stroke="#707070" stroke-width="0.42"/>
<path d="M69.366 138.407H68.5725V135.556C68.5725 135.374 68.5725 135.192 68.5115 135.01C68.5115 134.888 68.3894 134.706 68.2673 134.646C68.1452 134.524 67.9621 134.464 67.718 134.464C67.4128 134.464 67.1686 134.585 66.9245 134.767C66.6803 134.949 66.6193 135.313 66.6193 135.798V138.407H65.8258V135.495C65.8258 135.131 65.7648 134.828 65.6427 134.706C65.5206 134.585 65.3375 134.464 65.0323 134.464C64.7271 134.464 64.4219 134.585 64.2388 134.828C64.0557 135.07 63.9336 135.495 63.9336 136.102V138.407H63.1401V133.918H63.8116V134.524C64.1167 134.039 64.544 133.796 65.1544 133.796C65.4596 133.796 65.7648 133.857 65.9479 133.978C66.131 134.1 66.3141 134.282 66.4362 134.585C66.8024 134.039 67.2297 133.796 67.8401 133.796C68.3284 133.796 68.6946 133.918 68.8777 134.16C69.1218 134.403 69.2439 134.767 69.2439 135.313V138.407H69.366Z" fill="#707070"/>
<path d="M69.366 138.407H68.5725V135.556C68.5725 135.374 68.5725 135.192 68.5115 135.01C68.5115 134.888 68.3894 134.706 68.2673 134.646C68.1452 134.524 67.9621 134.464 67.718 134.464C67.4128 134.464 67.1686 134.585 66.9245 134.767C66.6803 134.949 66.6193 135.313 66.6193 135.798V138.407H65.8258V135.495C65.8258 135.131 65.7648 134.828 65.6427 134.706C65.5206 134.585 65.3375 134.464 65.0323 134.464C64.7271 134.464 64.4219 134.585 64.2388 134.828C64.0557 135.07 63.9336 135.495 63.9336 136.102V138.407H63.1401V133.918H63.8116V134.524C64.1167 134.039 64.544 133.796 65.1544 133.796C65.4596 133.796 65.7648 133.857 65.9479 133.978C66.131 134.1 66.3141 134.282 66.4362 134.585C66.8024 134.039 67.2297 133.796 67.8401 133.796C68.3284 133.796 68.6946 133.918 68.8777 134.16C69.1218 134.403 69.2439 134.767 69.2439 135.313V138.407H69.366Z" stroke="#707070" stroke-width="0.42"/>
<path d="M73.7609 136.466V136.162C73.3336 136.284 72.8453 136.405 72.296 136.466C71.6856 136.526 71.4414 136.769 71.4414 137.194C71.4414 137.376 71.5025 137.558 71.6856 137.679C71.8687 137.8 72.0518 137.861 72.357 137.861C72.7232 137.861 73.0895 137.74 73.3336 137.497C73.5778 137.376 73.7609 137.012 73.7609 136.466ZM74.7985 138.407H74.005C73.944 138.286 73.883 138.104 73.8219 137.861C73.3336 138.286 72.7232 138.528 72.1739 138.528C71.6856 138.528 71.3194 138.407 71.0142 138.164C70.709 137.922 70.5869 137.618 70.5869 137.254C70.5869 136.89 70.709 136.587 71.0142 136.344C71.2583 136.102 71.7466 135.92 72.4181 135.859L73.1505 135.738C73.3947 135.677 73.6388 135.616 73.8219 135.556C73.8219 135.313 73.8219 135.192 73.8219 135.07C73.8219 134.949 73.7609 134.888 73.6999 134.767C73.6388 134.646 73.5167 134.585 73.3336 134.524C73.1505 134.464 72.9674 134.403 72.7232 134.403C72.4181 134.403 72.1129 134.464 71.9297 134.585C71.7466 134.706 71.6246 134.949 71.5025 135.252L70.77 135.131C70.8311 134.646 71.0752 134.342 71.3804 134.1C71.7466 133.857 72.1739 133.736 72.7843 133.736C73.3336 133.736 73.6999 133.796 74.005 133.978C74.2492 134.16 74.4323 134.342 74.4933 134.585C74.5544 134.828 74.5544 135.131 74.5544 135.434V136.466C74.5544 137.072 74.5544 137.497 74.6154 137.74C74.5544 138.043 74.6765 138.225 74.7985 138.407Z" fill="#707070"/>
<path d="M73.7609 136.466V136.162C73.3336 136.284 72.8453 136.405 72.296 136.466C71.6856 136.526 71.4414 136.769 71.4414 137.194C71.4414 137.376 71.5025 137.558 71.6856 137.679C71.8687 137.8 72.0518 137.861 72.357 137.861C72.7232 137.861 73.0895 137.74 73.3336 137.497C73.5778 137.376 73.7609 137.012 73.7609 136.466ZM74.7985 138.407H74.005C73.944 138.286 73.883 138.104 73.8219 137.861C73.3336 138.286 72.7232 138.528 72.1739 138.528C71.6856 138.528 71.3194 138.407 71.0142 138.164C70.709 137.922 70.5869 137.618 70.5869 137.254C70.5869 136.89 70.709 136.587 71.0142 136.344C71.2583 136.102 71.7466 135.92 72.4181 135.859L73.1505 135.738C73.3947 135.677 73.6388 135.616 73.8219 135.556C73.8219 135.313 73.8219 135.192 73.8219 135.07C73.8219 134.949 73.7609 134.888 73.6999 134.767C73.6388 134.646 73.5167 134.585 73.3336 134.524C73.1505 134.464 72.9674 134.403 72.7232 134.403C72.4181 134.403 72.1129 134.464 71.9297 134.585C71.7466 134.706 71.6246 134.949 71.5025 135.252L70.77 135.131C70.8311 134.646 71.0752 134.342 71.3804 134.1C71.7466 133.857 72.1739 133.736 72.7843 133.736C73.3336 133.736 73.6999 133.796 74.005 133.978C74.2492 134.16 74.4323 134.342 74.4933 134.585C74.5544 134.828 74.5544 135.131 74.5544 135.434V136.466C74.5544 137.072 74.5544 137.497 74.6154 137.74C74.5544 138.043 74.6765 138.225 74.7985 138.407Z" stroke="#707070" stroke-width="0.42"/>
<path d="M79.7424 138.407H78.9489V135.677C78.9489 135.192 78.8878 134.888 78.7047 134.706C78.5216 134.524 78.3385 134.464 78.0333 134.464C77.7891 134.464 77.606 134.524 77.3619 134.646C77.1788 134.767 76.9956 134.888 76.9346 135.131C76.8736 135.313 76.8125 135.616 76.8125 135.98V138.407H76.0801V133.918H76.7515V134.585C76.9346 134.342 77.1177 134.16 77.3619 134.039C77.606 133.918 77.8502 133.857 78.2164 133.857C78.4606 133.857 78.7047 133.918 78.9489 133.978C79.193 134.039 79.3761 134.16 79.4982 134.342C79.6203 134.524 79.6813 134.706 79.7424 134.888C79.8034 135.07 79.8034 135.313 79.8034 135.677V138.407H79.7424Z" fill="#707070"/>
<path d="M79.7424 138.407H78.9489V135.677C78.9489 135.192 78.8878 134.888 78.7047 134.706C78.5216 134.524 78.3385 134.464 78.0333 134.464C77.7891 134.464 77.606 134.524 77.3619 134.646C77.1788 134.767 76.9956 134.888 76.9346 135.131C76.8736 135.313 76.8125 135.616 76.8125 135.98V138.407H76.0801V133.918H76.7515V134.585C76.9346 134.342 77.1177 134.16 77.3619 134.039C77.606 133.918 77.8502 133.857 78.2164 133.857C78.4606 133.857 78.7047 133.918 78.9489 133.978C79.193 134.039 79.3761 134.16 79.4982 134.342C79.6203 134.524 79.6813 134.706 79.7424 134.888C79.8034 135.07 79.8034 135.313 79.8034 135.677V138.407H79.7424Z" stroke="#707070" stroke-width="0.42"/>
<path d="M84.3815 135.737C84.3205 135.252 84.1984 134.949 83.9542 134.767C83.7101 134.585 83.4049 134.463 83.0997 134.463C82.7335 134.463 82.4283 134.585 82.1841 134.827C81.94 135.07 81.8179 135.373 81.7569 135.737H84.3815ZM85.175 136.405H81.7569C81.7569 136.89 81.94 137.254 82.1841 137.557C82.4283 137.8 82.7335 137.982 83.1608 137.982C83.4659 137.982 83.7101 137.921 83.8932 137.739C84.0763 137.557 84.2594 137.375 84.3205 137.011L85.114 137.133C84.9919 137.618 84.7477 137.982 84.3815 138.225C84.0153 138.467 83.588 138.589 83.0997 138.589C82.4283 138.589 81.8789 138.407 81.5127 137.982C81.1465 137.557 80.9634 137.011 80.9634 136.283C80.9634 135.555 81.1465 135.009 81.5127 134.585C81.8789 134.16 82.4283 133.918 83.0997 133.918C83.4049 133.918 83.7711 133.978 84.0763 134.16C84.3815 134.281 84.6257 134.524 84.8698 134.888C85.114 135.131 85.175 135.677 85.175 136.405Z" fill="#707070"/>
<path d="M84.3815 135.738C84.3205 135.252 84.1984 134.949 83.9542 134.767C83.7101 134.585 83.4049 134.464 83.0997 134.464C82.7335 134.464 82.4283 134.585 82.1841 134.828C81.94 135.07 81.8179 135.374 81.7569 135.738H84.3815ZM85.175 136.405H81.7569C81.7569 136.89 81.94 137.254 82.1841 137.557C82.4283 137.8 82.7335 137.921 83.1608 137.921C83.4659 137.921 83.7101 137.861 83.8932 137.679C84.0763 137.497 84.2594 137.315 84.3205 136.951L85.114 137.072C84.9919 137.557 84.7477 137.921 84.3815 138.164C84.0153 138.407 83.588 138.528 83.0997 138.528C82.4283 138.528 81.8789 138.346 81.5127 137.921C81.1465 137.497 80.9634 136.951 80.9634 136.223C80.9634 135.495 81.1465 134.949 81.5127 134.524C81.8789 134.1 82.4283 133.857 83.0997 133.857C83.4049 133.857 83.7711 133.918 84.0763 134.1C84.3815 134.221 84.6257 134.464 84.8698 134.828C85.114 135.131 85.175 135.677 85.175 136.405Z" stroke="#707070" stroke-width="0.42"/>
<path d="M86.4566 132.219H87.2501V133.068H86.4566V132.219ZM87.2501 138.649C87.2501 138.953 87.2501 139.195 87.1891 139.438C87.128 139.681 87.067 139.863 86.8839 139.984C86.7007 140.166 86.4566 140.227 86.0904 140.227C85.9072 140.227 85.6631 140.227 85.48 140.166L85.6021 139.499C85.7241 139.559 85.8462 139.559 85.9683 139.559C86.1514 139.559 86.2735 139.499 86.3345 139.377C86.3956 139.256 86.4566 139.013 86.4566 138.589V133.918H87.2501V138.649Z" fill="#707070"/>
<path d="M86.4566 132.219H87.2501V133.068H86.4566V132.219ZM87.2501 138.649C87.2501 138.953 87.2501 139.195 87.1891 139.438C87.128 139.681 87.067 139.863 86.8839 139.984C86.7007 140.166 86.4566 140.227 86.0904 140.227C85.9072 140.227 85.6631 140.227 85.48 140.166L85.6021 139.499C85.7241 139.559 85.8462 139.559 85.9683 139.559C86.1514 139.559 86.2735 139.499 86.3345 139.377C86.3956 139.256 86.4566 139.013 86.4566 138.589V133.918H87.2501V138.649V138.649Z" stroke="#707070" stroke-width="0.42"/>
<path d="M90.6075 137.921C91.0348 137.921 91.401 137.739 91.5841 137.436C91.8283 137.133 91.9504 136.708 91.9504 136.162C91.9504 135.616 91.8283 135.192 91.5841 134.888C91.34 134.585 91.0348 134.464 90.6075 134.464C90.2413 134.464 89.8751 134.585 89.6309 134.888C89.3868 135.192 89.2647 135.616 89.2647 136.162C89.2647 136.708 89.3868 137.133 89.6309 137.436C89.8751 137.739 90.2413 137.921 90.6075 137.921ZM90.6075 133.857C91.2179 133.857 91.7062 134.039 92.1335 134.464C92.5607 134.828 92.7438 135.434 92.7438 136.162C92.7438 137.072 92.4997 137.679 92.0724 138.043C91.6452 138.407 91.1569 138.589 90.6075 138.589C90.0582 138.589 89.5088 138.407 89.1426 138.043C88.7153 137.679 88.5322 137.072 88.5322 136.284C88.5322 135.495 88.7153 134.888 89.1426 134.524C89.5088 134.039 89.9971 133.857 90.6075 133.857Z" fill="#707070"/>
<path d="M90.6075 137.921C91.0348 137.921 91.401 137.739 91.5841 137.436C91.8283 137.133 91.9504 136.708 91.9504 136.162C91.9504 135.616 91.8283 135.192 91.5841 134.888C91.34 134.585 91.0348 134.464 90.6075 134.464C90.2413 134.464 89.8751 134.585 89.6309 134.888C89.3868 135.192 89.2647 135.616 89.2647 136.162C89.2647 136.708 89.3868 137.133 89.6309 137.436C89.8751 137.739 90.2413 137.921 90.6075 137.921ZM90.6075 133.857C91.2179 133.857 91.7062 134.039 92.1335 134.464C92.5607 134.828 92.7438 135.434 92.7438 136.162C92.7438 137.072 92.4997 137.679 92.0724 138.043C91.6452 138.407 91.1569 138.589 90.6075 138.589C90.0582 138.589 89.5088 138.407 89.1426 138.043C88.7153 137.679 88.5322 137.072 88.5322 136.284C88.5322 135.495 88.7153 134.888 89.1426 134.524C89.5088 134.039 89.9971 133.857 90.6075 133.857Z" stroke="#707070" stroke-width="0.42"/>
<path d="M11.5026 141.986L11.3805 142.653C11.2584 142.653 11.0753 142.593 10.9532 142.593C10.7701 142.593 10.587 142.653 10.526 142.714C10.4039 142.775 10.3428 142.957 10.3428 143.321V143.745H11.1974V144.352H10.3428V148.235H9.54935V144.352H8.87793V143.745H9.54935V143.26C9.54935 143.017 9.54935 142.835 9.61039 142.653C9.67142 142.471 9.7935 142.289 9.97661 142.168C10.1597 142.047 10.4649 141.925 10.8311 141.925C11.0143 141.925 11.2584 141.925 11.5026 141.986Z" fill="#707070"/>
<path d="M11.5026 141.986L11.3805 142.653C11.2584 142.653 11.0753 142.593 10.9532 142.593C10.7701 142.593 10.587 142.653 10.526 142.714C10.4039 142.775 10.3428 142.957 10.3428 143.321V143.745H11.1974V144.352H10.3428V148.235H9.54935V144.352H8.87793V143.745H9.54935V143.26C9.54935 143.017 9.54935 142.835 9.61039 142.653C9.67142 142.471 9.7935 142.289 9.97661 142.168C10.1597 142.047 10.4649 141.925 10.8311 141.925C11.0143 141.925 11.2584 141.925 11.5026 141.986Z" stroke="#707070" stroke-width="0.42"/>
<path d="M12.9063 141.986H12.1128V148.174H12.9063V141.986Z" fill="#707070"/>
<path d="M12.9063 141.986H12.1128V148.174H12.9063V141.986Z" stroke="#707070" stroke-width="0.42"/>
<path d="M16.2638 147.689C16.691 147.689 17.0573 147.507 17.2404 147.203C17.4845 146.9 17.6066 146.475 17.6066 145.929C17.6066 145.383 17.4845 144.959 17.2404 144.655C16.9962 144.352 16.691 144.231 16.2638 144.231C15.8975 144.231 15.5313 144.352 15.2872 144.655C15.043 144.959 14.9209 145.383 14.9209 145.929C14.9209 146.475 15.043 146.9 15.2872 147.203C15.5313 147.567 15.8975 147.689 16.2638 147.689ZM16.2638 143.624C16.8741 143.624 17.3625 143.806 17.7897 144.231C18.217 144.655 18.4001 145.201 18.4001 145.929C18.4001 146.839 18.1559 147.446 17.7287 147.81C17.3014 148.174 16.8131 148.356 16.2638 148.356C15.7144 148.356 15.1651 148.174 14.7989 147.81C14.3716 147.446 14.1885 146.839 14.1885 146.051C14.1885 145.262 14.3716 144.655 14.7989 144.291C15.1651 143.806 15.6534 143.624 16.2638 143.624Z" fill="#707070"/>
<path d="M16.2638 147.689C16.691 147.689 17.0573 147.507 17.2404 147.203C17.4845 146.9 17.6066 146.475 17.6066 145.929C17.6066 145.383 17.4845 144.959 17.2404 144.655C16.9962 144.352 16.691 144.231 16.2638 144.231C15.8975 144.231 15.5313 144.352 15.2872 144.655C15.043 144.959 14.9209 145.383 14.9209 145.929C14.9209 146.475 15.043 146.9 15.2872 147.203C15.5313 147.567 15.8975 147.689 16.2638 147.689ZM16.2638 143.624C16.8741 143.624 17.3625 143.806 17.7897 144.231C18.217 144.595 18.4001 145.201 18.4001 145.929C18.4001 146.839 18.1559 147.446 17.7287 147.81C17.3014 148.174 16.8131 148.356 16.2638 148.356C15.7144 148.356 15.1651 148.174 14.7989 147.81C14.3716 147.446 14.1885 146.839 14.1885 146.051C14.1885 145.262 14.3716 144.655 14.7989 144.291C15.1651 143.806 15.6534 143.624 16.2638 143.624Z" stroke="#707070" stroke-width="0.42"/>
<path d="M22.0621 143.867L21.818 144.595C21.6349 144.473 21.4517 144.413 21.2686 144.413C20.9634 144.413 20.7803 144.534 20.5972 144.777C20.4751 145.019 20.3531 145.383 20.3531 145.869V148.235H19.5596V143.745H20.231V144.413C20.4751 143.867 20.7803 143.624 21.2076 143.624C21.5738 143.624 21.818 143.685 22.0621 143.867Z" fill="#707070"/>
<path d="M22.0621 143.867L21.818 144.595C21.6349 144.473 21.4517 144.413 21.2686 144.413C20.9634 144.413 20.7803 144.534 20.5972 144.777C20.4751 145.019 20.3531 145.383 20.3531 145.869V148.235H19.5596V143.745H20.231V144.413C20.4751 143.867 20.7803 143.624 21.2076 143.624C21.5738 143.624 21.818 143.685 22.0621 143.867Z" stroke="#707070" stroke-width="0.42"/>
<path d="M26.0294 145.565C25.9684 145.08 25.8463 144.777 25.6022 144.595C25.358 144.413 25.0528 144.291 24.7477 144.291C24.3814 144.291 24.0762 144.413 23.8321 144.655C23.5879 144.898 23.4659 145.201 23.4048 145.565H26.0294ZM26.8229 146.172H23.4048C23.4659 146.657 23.5879 147.021 23.8321 147.325C24.0762 147.567 24.3814 147.689 24.8087 147.689C25.1139 147.689 25.358 147.628 25.5411 147.446C25.7243 147.264 25.9074 147.082 25.9684 146.718L26.7619 146.839C26.6398 147.325 26.3957 147.689 26.0294 147.931C25.6632 148.174 25.236 148.295 24.7477 148.295C24.0762 148.295 23.5269 148.113 23.1607 147.689C22.7944 147.264 22.6113 146.718 22.6113 145.99C22.6113 145.262 22.7944 144.716 23.1607 144.291C23.5269 143.867 24.0762 143.624 24.7477 143.624C25.0528 143.624 25.4191 143.685 25.7243 143.867C26.0294 143.988 26.2736 144.231 26.5178 144.595C26.7009 144.898 26.8229 145.444 26.8229 146.172Z" fill="#707070"/>
<path d="M26.0294 145.565C25.9684 145.08 25.8463 144.777 25.6022 144.595C25.358 144.413 25.0528 144.291 24.7477 144.291C24.3814 144.291 24.0762 144.413 23.8321 144.655C23.5879 144.898 23.4659 145.201 23.4048 145.565H26.0294ZM26.8229 146.172H23.4048C23.4659 146.657 23.5879 147.021 23.8321 147.325C24.0762 147.567 24.3814 147.689 24.8087 147.689C25.1139 147.689 25.358 147.628 25.5411 147.446C25.7243 147.264 25.9074 147.082 25.9684 146.718L26.7619 146.839C26.6398 147.325 26.3957 147.689 26.0294 147.931C25.6632 148.174 25.236 148.295 24.7477 148.295C24.0762 148.295 23.5269 148.113 23.1607 147.689C22.7944 147.264 22.6113 146.718 22.6113 145.99C22.6113 145.262 22.7944 144.716 23.1607 144.291C23.5269 143.867 24.0762 143.624 24.7477 143.624C25.0528 143.624 25.4191 143.685 25.7243 143.867C26.0294 143.988 26.2736 144.231 26.5178 144.595C26.7009 144.898 26.8229 145.444 26.8229 146.172Z" stroke="#707070" stroke-width="0.42"/>
<path d="M30.6071 144.959C30.546 144.716 30.485 144.534 30.3019 144.413C30.1188 144.292 29.8746 144.231 29.6305 144.231C29.3253 144.231 29.0811 144.292 28.898 144.352C28.7149 144.474 28.6538 144.595 28.6538 144.777C28.6538 144.959 28.7149 145.08 28.898 145.141C29.0201 145.202 29.3253 145.323 29.7525 145.444C30.2408 145.565 30.6071 145.687 30.8512 145.747C31.0954 145.869 31.2785 145.99 31.4005 146.111C31.5226 146.293 31.5837 146.536 31.5837 146.839C31.5837 147.264 31.4005 147.567 31.0954 147.871C30.7902 148.174 30.3019 148.295 29.7525 148.295C29.2032 148.295 28.7149 148.174 28.4097 147.931C28.1045 147.689 27.8604 147.325 27.7993 146.839L28.5928 146.718C28.6538 147.021 28.7759 147.264 28.959 147.446C29.1421 147.628 29.4473 147.689 29.7525 147.689C30.1188 147.689 30.3629 147.628 30.546 147.507C30.7291 147.385 30.7902 147.203 30.7902 147.021C30.7902 146.9 30.7291 146.779 30.6681 146.718C30.6071 146.657 30.485 146.597 30.3629 146.536C30.2408 146.475 29.9356 146.415 29.5084 146.293C28.837 146.111 28.4097 145.929 28.2266 145.747C28.0435 145.505 27.9214 145.262 27.9214 144.959C27.9214 144.595 28.0435 144.292 28.3487 144.049C28.6538 143.806 29.0811 143.685 29.5694 143.685C30.1188 143.685 30.546 143.806 30.8512 143.988C31.1564 144.17 31.3395 144.534 31.4005 144.959H30.6071Z" fill="#707070"/>
<path d="M30.6071 144.959C30.546 144.716 30.485 144.534 30.3019 144.413C30.1188 144.292 29.8746 144.231 29.6305 144.231C29.3253 144.231 29.0811 144.292 28.898 144.352C28.7149 144.474 28.6538 144.595 28.6538 144.777C28.6538 144.959 28.7149 145.08 28.898 145.141C29.0201 145.202 29.3253 145.323 29.7525 145.444C30.2408 145.565 30.6071 145.687 30.8512 145.747C31.0954 145.869 31.2785 145.99 31.4005 146.111C31.5226 146.293 31.5837 146.536 31.5837 146.839C31.5837 147.264 31.4005 147.567 31.0954 147.871C30.7902 148.174 30.3019 148.295 29.7525 148.295C29.2032 148.295 28.7149 148.174 28.4097 147.931C28.1045 147.689 27.8604 147.325 27.7993 146.839L28.5928 146.718C28.6538 147.021 28.7759 147.264 28.959 147.446C29.1421 147.628 29.4473 147.689 29.7525 147.689C30.1188 147.689 30.3629 147.628 30.546 147.507C30.7291 147.385 30.7902 147.203 30.7902 147.021C30.7902 146.9 30.7291 146.779 30.6681 146.718C30.6071 146.657 30.485 146.597 30.3629 146.536C30.2408 146.475 29.9356 146.415 29.5084 146.293C28.837 146.172 28.4097 145.929 28.2266 145.747C28.0435 145.505 27.9214 145.262 27.9214 144.959C27.9214 144.595 28.0435 144.292 28.3487 144.049C28.6538 143.806 29.0811 143.685 29.5694 143.685C30.1188 143.685 30.546 143.806 30.8512 143.988C31.1564 144.17 31.3395 144.534 31.4005 144.959H30.6071Z" stroke="#707070" stroke-width="0.42"/>
<path d="M34.5753 148.235C34.3311 148.295 34.148 148.295 34.026 148.295C33.6597 148.295 33.4156 148.235 33.2935 148.113C33.1104 147.992 33.0493 147.871 32.9883 147.689C32.9273 147.507 32.9273 147.264 32.9273 146.961V144.352H32.3779V143.745H32.9273V142.653L33.7208 142.168V143.745H34.5143V144.352H33.7208V146.961C33.7208 147.203 33.7208 147.325 33.7818 147.446C33.8428 147.567 33.9649 147.567 34.148 147.567C34.2701 147.567 34.3922 147.567 34.5143 147.507L34.5753 148.235Z" fill="#707070"/>
<path d="M34.5753 148.235C34.3311 148.295 34.148 148.295 34.026 148.295C33.6597 148.295 33.4156 148.235 33.2935 148.113C33.1104 147.992 33.0493 147.871 32.9883 147.689C32.9273 147.507 32.9273 147.264 32.9273 146.961V144.352H32.3779V143.745H32.9273V142.653L33.7208 142.168V143.745H34.5143V144.352H33.7208V146.961C33.7208 147.203 33.7208 147.325 33.7818 147.446C33.8428 147.567 33.9649 147.567 34.148 147.567C34.2701 147.567 34.3922 147.567 34.5143 147.507L34.5753 148.235Z" stroke="#707070" stroke-width="0.42"/>
<path d="M38.4811 146.233V145.929C38.0538 146.051 37.5655 146.172 37.0162 146.233C36.4058 146.293 36.1617 146.536 36.1617 146.961C36.1617 147.143 36.2227 147.325 36.4058 147.446C36.5889 147.567 36.772 147.628 37.0772 147.628C37.4435 147.628 37.8097 147.507 38.0538 147.264C38.359 147.143 38.4811 146.779 38.4811 146.233ZM39.5187 148.235H38.7253C38.6642 148.113 38.6032 147.931 38.5421 147.689C38.0538 148.113 37.4435 148.356 36.8941 148.356C36.4058 148.356 36.0396 148.235 35.7344 147.992C35.4292 147.749 35.3071 147.446 35.3071 147.082C35.3071 146.718 35.4292 146.415 35.6734 146.172C35.9175 145.929 36.4058 145.747 37.0772 145.687L37.8097 145.565C38.0538 145.505 38.298 145.444 38.4811 145.383C38.4811 145.141 38.4811 145.019 38.4811 144.898C38.4811 144.777 38.4201 144.716 38.359 144.595C38.298 144.473 38.1759 144.413 37.9928 144.352C37.8097 144.291 37.6266 144.291 37.3824 144.231C37.0772 144.231 36.772 144.291 36.5889 144.413C36.4058 144.534 36.2837 144.777 36.2227 145.08L35.4902 144.959C35.5513 144.473 35.7954 144.17 36.1006 143.927C36.4668 143.685 36.8941 143.563 37.5045 143.563C38.0538 143.563 38.4201 143.624 38.7253 143.806C38.9694 143.988 39.1525 144.17 39.2136 144.413C39.2746 144.655 39.2746 144.959 39.2746 145.262V146.293C39.2746 146.9 39.2746 147.325 39.3356 147.567C39.3356 147.81 39.3967 147.992 39.5187 148.235Z" fill="#707070"/>
<path d="M38.4811 146.233V145.929C38.0538 146.051 37.5655 146.172 37.0162 146.233C36.4058 146.293 36.1617 146.536 36.1617 146.961C36.1617 147.143 36.2227 147.325 36.4058 147.446C36.5889 147.567 36.772 147.628 37.0772 147.628C37.4435 147.628 37.8097 147.507 38.0538 147.264C38.359 147.143 38.4811 146.779 38.4811 146.233ZM39.5187 148.235H38.7253C38.6642 148.113 38.6032 147.931 38.5421 147.689C38.0538 148.113 37.4435 148.356 36.8941 148.356C36.4058 148.356 36.0396 148.235 35.7344 147.992C35.4292 147.749 35.3071 147.446 35.3071 147.082C35.3071 146.718 35.4292 146.415 35.6734 146.172C35.9175 145.929 36.4058 145.747 37.0772 145.687L37.8097 145.565C38.0538 145.505 38.298 145.444 38.4811 145.383C38.4811 145.141 38.4811 145.019 38.4811 144.898C38.4811 144.777 38.4201 144.716 38.359 144.595C38.298 144.473 38.1759 144.413 37.9928 144.352C37.8097 144.291 37.6266 144.291 37.3824 144.231C37.0772 144.231 36.772 144.291 36.5889 144.413C36.4058 144.534 36.2837 144.777 36.2227 145.08L35.4902 144.959C35.5513 144.473 35.7954 144.17 36.1006 143.927C36.4668 143.685 36.8941 143.563 37.5045 143.563C38.0538 143.563 38.4201 143.624 38.7253 143.806C38.9694 143.988 39.1525 144.17 39.2136 144.413C39.2746 144.655 39.2746 144.959 39.2746 145.262V146.293C39.2746 146.9 39.2746 147.325 39.3356 147.567C39.3356 147.81 39.3967 147.992 39.5187 148.235Z" stroke="#707070" stroke-width="0.42"/>
<path d="M41.5938 141.986H40.8003V148.174H41.5938V141.986Z" fill="#707070"/>
<path d="M41.5938 141.986H40.8003V148.174H41.5938V141.986Z" stroke="#707070" stroke-width="0.42"/>
<path d="M48.3077 143.867L48.0636 144.595C47.8805 144.473 47.6974 144.413 47.5142 144.413C47.209 144.413 47.0259 144.534 46.8428 144.777C46.7207 145.019 46.5987 145.383 46.5987 145.869V148.235H45.8052V143.745H46.4766V144.413C46.7207 143.867 47.0259 143.624 47.4532 143.624C47.7584 143.624 48.0636 143.685 48.3077 143.867Z" fill="#707070"/>
<path d="M48.3077 143.867L48.0636 144.595C47.8805 144.473 47.6974 144.413 47.5142 144.413C47.209 144.413 47.0259 144.534 46.8428 144.777C46.7207 145.019 46.5987 145.383 46.5987 145.869V148.235H45.8052V143.745H46.4766V144.413C46.7207 143.867 47.0259 143.624 47.4532 143.624C47.7584 143.624 48.0636 143.685 48.3077 143.867Z" stroke="#707070" stroke-width="0.42"/>
<path d="M52.276 145.565C52.215 145.08 52.0929 144.777 51.8488 144.595C51.6046 144.413 51.2994 144.291 50.9942 144.291C50.628 144.291 50.3228 144.413 50.0787 144.655C49.8345 144.898 49.7124 145.201 49.6514 145.565H52.276ZM53.0695 146.172H49.6514C49.7124 146.657 49.8345 147.021 50.0787 147.325C50.3228 147.567 50.628 147.689 51.0553 147.689C51.3605 147.689 51.6046 147.628 51.7877 147.446C51.9708 147.264 52.154 147.082 52.215 146.718L53.0085 146.839C52.8864 147.325 52.6423 147.689 52.276 147.931C51.9098 148.174 51.4825 148.295 50.9942 148.295C50.3228 148.295 49.7735 148.113 49.4073 147.689C49.041 147.264 48.8579 146.718 48.8579 145.99C48.8579 145.262 49.041 144.716 49.4073 144.291C49.7735 143.867 50.3228 143.624 50.9942 143.624C51.2994 143.624 51.6657 143.685 51.9708 143.867C52.276 143.988 52.5202 144.231 52.7643 144.595C52.9475 144.898 53.0695 145.444 53.0695 146.172Z" fill="#707070"/>
<path d="M52.276 145.565C52.215 145.08 52.0929 144.777 51.8488 144.595C51.6046 144.413 51.2994 144.291 50.9942 144.291C50.628 144.291 50.3228 144.413 50.0787 144.655C49.8345 144.898 49.7124 145.201 49.6514 145.565H52.276ZM53.0695 146.172H49.6514C49.7124 146.657 49.8345 147.021 50.0787 147.325C50.3228 147.567 50.628 147.689 51.0553 147.689C51.3605 147.689 51.6046 147.628 51.7877 147.446C51.9708 147.264 52.154 147.082 52.215 146.718L53.0085 146.839C52.8864 147.325 52.6423 147.689 52.276 147.931C51.9098 148.174 51.4825 148.295 50.9942 148.295C50.3228 148.295 49.7735 148.113 49.4073 147.689C49.041 147.264 48.8579 146.718 48.8579 145.99C48.8579 145.262 49.041 144.716 49.4073 144.291C49.7735 143.867 50.3228 143.624 50.9942 143.624C51.2994 143.624 51.6657 143.685 51.9708 143.867C52.276 143.988 52.5202 144.231 52.7643 144.595C52.9475 144.898 53.0695 145.444 53.0695 146.172Z" stroke="#707070" stroke-width="0.42"/>
<path d="M56.8536 144.959C56.7926 144.716 56.7316 144.534 56.5485 144.413C56.3653 144.292 56.1212 144.231 55.877 144.231C55.5718 144.231 55.3277 144.292 55.1446 144.352C54.9615 144.474 54.9004 144.595 54.8394 144.777C54.8394 144.959 54.9004 145.08 55.0835 145.141C55.2056 145.202 55.5108 145.323 55.9381 145.444C56.4264 145.565 56.7926 145.687 57.0368 145.747C57.2809 145.869 57.464 145.99 57.5861 146.111C57.7082 146.293 57.7692 146.536 57.7692 146.839C57.7692 147.264 57.5861 147.567 57.2809 147.871C56.9757 148.174 56.4874 148.295 55.9381 148.295C55.3887 148.295 54.9004 148.174 54.5952 147.931C54.2901 147.689 54.0459 147.325 53.9849 146.839L54.7784 146.718C54.8394 147.021 54.9615 147.264 55.1446 147.446C55.3277 147.628 55.6329 147.689 55.9381 147.689C56.3043 147.689 56.5485 147.628 56.7316 147.507C56.9147 147.385 56.9757 147.203 56.9757 147.021C56.9757 146.9 56.9147 146.779 56.8536 146.718C56.7926 146.657 56.6705 146.597 56.5485 146.536C56.4264 146.475 56.1212 146.415 55.6939 146.293C55.0225 146.111 54.5952 145.929 54.4121 145.747C54.229 145.505 54.1069 145.262 54.1069 144.959C54.1069 144.595 54.229 144.292 54.5342 144.049C54.8394 143.806 55.2667 143.685 55.755 143.685C56.3043 143.685 56.7316 143.806 57.0368 143.988C57.3419 144.17 57.5251 144.534 57.5861 144.959H56.8536Z" fill="#707070"/>
<path d="M56.8536 144.959C56.7926 144.716 56.7316 144.534 56.5485 144.413C56.3653 144.292 56.1212 144.231 55.877 144.231C55.5718 144.231 55.3277 144.292 55.1446 144.352C54.9615 144.474 54.9004 144.595 54.8394 144.777C54.8394 144.959 54.9004 145.08 55.0835 145.141C55.2056 145.202 55.5108 145.323 55.9381 145.444C56.4264 145.565 56.7926 145.687 57.0368 145.747C57.2809 145.869 57.464 145.99 57.5861 146.111C57.7082 146.293 57.7692 146.536 57.7692 146.839C57.7692 147.264 57.5861 147.567 57.2809 147.871C56.9757 148.174 56.4874 148.295 55.9381 148.295C55.3887 148.295 54.9004 148.174 54.5952 147.931C54.2901 147.689 54.0459 147.325 53.9849 146.839L54.7784 146.718C54.8394 147.021 54.9615 147.264 55.1446 147.446C55.3277 147.628 55.6329 147.689 55.9381 147.689C56.3043 147.689 56.5485 147.628 56.7316 147.507C56.9147 147.385 56.9757 147.203 56.9757 147.021C56.9757 146.9 56.9147 146.779 56.8536 146.718C56.7926 146.657 56.6705 146.597 56.5485 146.536C56.4264 146.475 56.1212 146.415 55.6939 146.293C55.0225 146.172 54.5952 145.929 54.4121 145.747C54.229 145.505 54.1069 145.262 54.1069 144.959C54.1069 144.595 54.229 144.292 54.5342 144.049C54.8394 143.806 55.2667 143.685 55.755 143.685C56.3043 143.685 56.7316 143.806 57.0368 143.988C57.3419 144.17 57.5251 144.534 57.5861 144.959H56.8536Z" stroke="#707070" stroke-width="0.42"/>
<path d="M61.004 147.689C61.3702 147.689 61.6754 147.567 61.9196 147.264C62.1637 146.961 62.2858 146.536 62.2858 145.929C62.2858 145.383 62.1637 144.959 61.9196 144.655C61.6754 144.352 61.4313 144.231 61.065 144.231C60.6988 144.231 60.3936 144.413 60.1495 144.716C59.9053 145.019 59.7832 145.444 59.7832 145.99C59.7832 146.536 59.9053 146.961 60.1495 147.264C60.3326 147.567 60.6378 147.689 61.004 147.689ZM59.7832 144.291C60.0884 143.867 60.5157 143.624 61.065 143.624C61.6754 143.624 62.1027 143.867 62.4689 144.291C62.8351 144.716 62.9572 145.262 62.9572 145.99C62.9572 146.718 62.7741 147.325 62.4079 147.749C62.0416 148.174 61.5533 148.417 61.004 148.417C60.5157 148.417 60.1495 148.235 59.8443 147.871V150.054H59.0508V143.867H59.7222L59.7832 144.291Z" fill="#707070"/>
<path d="M66.1319 147.689C66.5592 147.689 66.9254 147.507 67.1085 147.203C67.3527 146.9 67.4748 146.475 67.4748 145.929C67.4748 145.383 67.3527 144.959 67.1085 144.655C66.8644 144.352 66.5592 144.231 66.1319 144.231C65.7657 144.231 65.3995 144.352 65.1553 144.655C64.9112 144.959 64.7891 145.383 64.7891 145.929C64.7891 146.475 64.9112 146.9 65.1553 147.203C65.3995 147.567 65.7047 147.689 66.1319 147.689ZM66.1319 143.624C66.7423 143.624 67.2306 143.806 67.6579 144.231C68.0851 144.655 68.2682 145.201 68.2682 145.929C68.2682 146.839 68.0241 147.446 67.5968 147.81C67.1696 148.174 66.6813 148.356 66.1319 148.356C65.5826 148.356 65.0332 148.174 64.667 147.81C64.2398 147.446 64.0566 146.839 64.0566 146.051C64.0566 145.262 64.2398 144.655 64.667 144.291C65.0332 143.806 65.5215 143.624 66.1319 143.624Z" fill="#707070"/>
<path d="M66.1319 147.689C66.5592 147.689 66.9254 147.507 67.1085 147.203C67.3527 146.9 67.4748 146.475 67.4748 145.929C67.4748 145.383 67.3527 144.959 67.1085 144.655C66.8644 144.352 66.5592 144.231 66.1319 144.231C65.7657 144.231 65.3995 144.352 65.1553 144.655C64.9112 144.959 64.7891 145.383 64.7891 145.929C64.7891 146.475 64.9112 146.9 65.1553 147.203C65.3995 147.567 65.7047 147.689 66.1319 147.689ZM66.1319 143.624C66.7423 143.624 67.2306 143.806 67.6579 144.231C68.0851 144.595 68.2682 145.201 68.2682 145.929C68.2682 146.839 68.0241 147.446 67.5968 147.81C67.1696 148.174 66.6813 148.356 66.1319 148.356C65.5826 148.356 65.0332 148.174 64.667 147.81C64.2398 147.446 64.0566 146.839 64.0566 146.051C64.0566 145.262 64.2398 144.655 64.667 144.291C65.0332 143.806 65.5215 143.624 66.1319 143.624Z" stroke="#707070" stroke-width="0.42"/>
<path d="M73.2121 148.235H72.4186V145.505C72.4186 145.02 72.3576 144.716 72.1744 144.534C71.9913 144.352 71.7472 144.292 71.503 144.292C71.2589 144.292 71.0758 144.352 70.8316 144.474C70.6485 144.595 70.4654 144.716 70.4043 144.959C70.3433 145.141 70.2823 145.444 70.2823 145.808V148.295H69.4888V143.806H70.1602V144.413C70.3433 144.17 70.5264 143.988 70.7706 143.867C71.0147 143.746 71.2589 143.685 71.6251 143.685C71.8692 143.685 72.1134 143.746 72.3576 143.806C72.6017 143.867 72.7848 143.988 72.9069 144.17C73.029 144.352 73.151 144.534 73.151 144.716C73.2121 144.898 73.2121 145.141 73.2121 145.505V148.235Z" fill="#707070"/>
<path d="M73.2121 148.235H72.4186V145.505C72.4186 145.02 72.3576 144.716 72.1744 144.534C71.9913 144.352 71.7472 144.292 71.503 144.292C71.2589 144.292 71.0758 144.352 70.8316 144.474C70.6485 144.595 70.4654 144.716 70.4043 144.959C70.3433 145.141 70.2823 145.444 70.2823 145.808V148.295H69.4888V143.806H70.1602V144.413C70.3433 144.17 70.5264 143.988 70.7706 143.867C71.0147 143.746 71.2589 143.685 71.6251 143.685C71.8692 143.685 72.1134 143.746 72.3576 143.806C72.6017 143.867 72.7848 143.988 72.9069 144.17C73.029 144.352 73.151 144.534 73.151 144.716C73.2121 144.898 73.2121 145.141 73.2121 145.505V148.235V148.235Z" stroke="#707070" stroke-width="0.42"/>
<path d="M77.2404 144.959C77.1793 144.716 77.1183 144.534 76.9352 144.413C76.7521 144.292 76.569 144.231 76.2638 144.231C75.9586 144.231 75.7144 144.292 75.5313 144.352C75.3482 144.474 75.2872 144.595 75.2872 144.777C75.2872 144.959 75.3482 145.08 75.4703 145.141C75.5923 145.202 75.8975 145.323 76.3248 145.444C76.8131 145.565 77.1793 145.687 77.4235 145.747C77.6676 145.869 77.8508 145.99 77.9728 146.111C78.0949 146.293 78.1559 146.536 78.1559 146.839C78.1559 147.264 77.9728 147.567 77.6676 147.871C77.3624 148.174 76.8741 148.295 76.3248 148.295C75.7755 148.295 75.2872 148.174 74.982 147.931C74.6768 147.689 74.4326 147.325 74.3716 146.839L75.1651 146.718C75.2261 147.021 75.3482 147.264 75.5313 147.446C75.7144 147.628 76.0196 147.689 76.3248 147.689C76.691 147.689 76.9352 147.628 77.1183 147.507C77.3014 147.385 77.3624 147.203 77.3624 147.021C77.3624 146.9 77.3014 146.779 77.2404 146.718C77.1793 146.657 77.0573 146.597 76.9352 146.536C76.8131 146.475 76.5079 146.415 76.0807 146.293C75.4092 146.111 74.982 145.929 74.7989 145.747C74.6157 145.505 74.4937 145.262 74.4937 144.959C74.4937 144.595 74.6768 144.292 74.9209 144.049C75.2261 143.806 75.6534 143.685 76.1417 143.685C76.691 143.685 77.1183 143.806 77.4235 143.988C77.7287 144.17 77.9118 144.534 77.9728 144.959H77.2404Z" fill="#707070"/>
<path d="M77.2404 144.959C77.1793 144.716 77.1183 144.534 76.9352 144.413C76.7521 144.292 76.569 144.231 76.2638 144.231C75.9586 144.231 75.7144 144.292 75.5313 144.352C75.3482 144.474 75.2872 144.595 75.2872 144.777C75.2872 144.959 75.3482 145.08 75.4703 145.141C75.5923 145.202 75.8975 145.323 76.3248 145.444C76.8131 145.565 77.1793 145.687 77.4235 145.747C77.6676 145.869 77.8508 145.99 77.9728 146.111C78.0949 146.293 78.1559 146.536 78.1559 146.839C78.1559 147.264 77.9728 147.567 77.6676 147.871C77.3624 148.174 76.8741 148.295 76.3248 148.295C75.7755 148.295 75.2872 148.174 74.982 147.931C74.6768 147.689 74.4326 147.325 74.3716 146.839L75.1651 146.718C75.2261 147.021 75.3482 147.264 75.5313 147.446C75.7144 147.628 76.0196 147.689 76.3248 147.689C76.691 147.689 76.9352 147.628 77.1183 147.507C77.3014 147.385 77.3624 147.203 77.3624 147.021C77.3624 146.9 77.3014 146.779 77.2404 146.718C77.1793 146.657 77.0573 146.597 76.9352 146.536C76.8131 146.475 76.5079 146.415 76.0807 146.293C75.4092 146.172 74.982 145.929 74.7989 145.747C74.6157 145.505 74.4937 145.262 74.4937 144.959C74.4937 144.595 74.6157 144.292 74.9209 144.049C75.2261 143.806 75.6534 143.685 76.1417 143.685C76.691 143.685 77.1183 143.806 77.4235 143.988C77.7287 144.17 77.9118 144.534 77.9728 144.959H77.2404Z" stroke="#707070" stroke-width="0.42"/>
<path d="M82.3673 141.925L81.4518 143.139H80.8414L81.3907 141.925H82.3673ZM82.3063 146.233V145.929C81.879 146.051 81.3907 146.172 80.8414 146.233C80.292 146.293 79.9869 146.536 79.9869 146.961C79.9869 147.143 80.0479 147.325 80.231 147.446C80.4141 147.567 80.5972 147.628 80.9024 147.628C81.2687 147.628 81.6349 147.507 81.879 147.264C82.1842 147.143 82.3063 146.779 82.3063 146.233ZM83.3439 148.235H82.5505C82.4894 148.113 82.4284 147.931 82.3673 147.689C81.879 148.113 81.2687 148.356 80.7193 148.356C80.231 148.356 79.8648 148.235 79.5596 147.992C79.2544 147.749 79.1323 147.446 79.1323 147.082C79.1323 146.718 79.2544 146.415 79.4986 146.172C79.7427 145.929 80.231 145.747 80.9024 145.687L81.6349 145.565C81.879 145.505 82.1232 145.444 82.3063 145.383C82.3063 145.141 82.3063 145.019 82.3063 144.898C82.3063 144.777 82.2453 144.716 82.1842 144.595C82.1232 144.473 82.0011 144.413 81.818 144.352C81.6349 144.291 81.4518 144.291 81.2076 144.231C80.9024 144.231 80.5972 144.291 80.4141 144.413C80.231 144.534 80.1089 144.777 79.9869 145.08L79.2544 144.959C79.3154 144.473 79.5596 144.17 79.8648 143.927C80.231 143.685 80.6583 143.563 81.2687 143.563C81.818 143.563 82.1842 143.624 82.4894 143.806C82.7336 143.988 82.9167 144.17 82.9777 144.413C83.0388 144.655 83.0388 144.959 83.0388 145.262V146.293C83.0388 146.9 83.0388 147.325 83.0998 147.567C83.1608 147.81 83.2219 147.992 83.3439 148.235Z" fill="#707070"/>
<path d="M82.3673 141.925L81.4518 143.139H80.8414L81.3907 141.925H82.3673ZM82.3063 146.233V145.929C81.879 146.051 81.3907 146.172 80.8414 146.233C80.231 146.293 79.9869 146.536 79.9869 146.961C79.9869 147.143 80.0479 147.325 80.231 147.446C80.4141 147.567 80.5972 147.628 80.9024 147.628C81.2687 147.628 81.6349 147.507 81.879 147.264C82.1842 147.143 82.3063 146.779 82.3063 146.233ZM83.3439 148.235H82.5505C82.4894 148.113 82.4284 147.931 82.3673 147.689C81.879 148.113 81.2687 148.356 80.7193 148.356C80.231 148.356 79.8648 148.235 79.5596 147.992C79.2544 147.749 79.1323 147.446 79.1323 147.082C79.1323 146.718 79.2544 146.415 79.4986 146.172C79.7427 145.929 80.231 145.747 80.9024 145.687L81.6349 145.565C81.879 145.505 82.1232 145.444 82.3063 145.383C82.3063 145.141 82.3063 145.019 82.3063 144.898C82.3063 144.777 82.2453 144.716 82.1842 144.595C82.1232 144.473 82.0011 144.413 81.818 144.352C81.6349 144.291 81.4518 144.291 81.2076 144.231C80.9024 144.231 80.5972 144.291 80.4141 144.413C80.231 144.534 80.1089 144.777 79.9869 145.08L79.2544 144.959C79.3154 144.473 79.5596 144.17 79.8648 143.927C80.231 143.685 80.6583 143.563 81.2687 143.563C81.818 143.563 82.1842 143.624 82.4894 143.806C82.7336 143.988 82.9167 144.17 82.9777 144.413C83.0388 144.655 83.0388 144.959 83.0388 145.262V146.293C83.0388 146.9 83.0388 147.325 83.0998 147.567C83.1608 147.81 83.2219 147.992 83.3439 148.235Z" stroke="#707070" stroke-width="0.42"/>
<path d="M88.2878 143.745L86.5787 148.234H85.8463L84.1372 143.745H84.9307L85.8463 146.354C86.0294 146.839 86.1515 147.203 86.1515 147.324C86.2125 147.142 86.2735 146.9 86.3956 146.596L87.4333 143.745H88.2878Z" fill="#707070"/>
<path d="M88.2878 143.745L86.5787 148.234H85.8463L84.1372 143.745H84.9307L85.8463 146.354C86.0294 146.839 86.1515 147.203 86.1515 147.324C86.2125 147.142 86.2735 146.9 86.3956 146.596L87.4333 143.745H88.2878V143.745Z" stroke="#707070" stroke-width="0.42"/>
<path d="M92.4992 145.565C92.4381 145.08 92.3161 144.777 92.0719 144.595C91.8278 144.413 91.5226 144.291 91.2174 144.291C90.8512 144.291 90.546 144.413 90.3018 144.655C90.0577 144.898 89.9356 145.201 89.8746 145.565H92.4992ZM93.2927 146.172H89.8746C89.9356 146.657 90.0577 147.021 90.3018 147.325C90.546 147.567 90.8512 147.689 91.2784 147.689C91.5836 147.689 91.8278 147.628 92.0109 147.446C92.194 147.264 92.3771 147.082 92.4992 146.718L93.2927 146.839C93.1706 147.325 92.9264 147.689 92.5602 147.931C92.194 148.174 91.7667 148.295 91.2784 148.295C90.607 148.295 90.0577 148.113 89.6914 147.689C89.3252 147.264 89.1421 146.718 89.1421 145.99C89.1421 145.262 89.3252 144.716 89.6914 144.291C90.0577 143.867 90.607 143.624 91.2784 143.624C91.5836 143.624 91.9498 143.685 92.255 143.867C92.5602 143.988 92.8044 144.231 93.0485 144.595C93.1706 144.898 93.2927 145.444 93.2927 146.172Z" fill="#707070"/>
<path d="M92.4992 145.565C92.4381 145.08 92.3161 144.777 92.0719 144.595C91.8278 144.413 91.5226 144.291 91.2174 144.291C90.8512 144.291 90.546 144.413 90.3018 144.655C90.0577 144.898 89.9356 145.201 89.8746 145.565H92.4992ZM93.2927 146.172H89.8746C89.9356 146.657 90.0577 147.021 90.3018 147.325C90.546 147.567 90.8512 147.689 91.2784 147.689C91.5836 147.689 91.8278 147.628 92.0109 147.446C92.194 147.264 92.3771 147.082 92.4992 146.718L93.2927 146.839C93.1706 147.325 92.9264 147.689 92.5602 147.931C92.194 148.174 91.7667 148.295 91.2784 148.295C90.607 148.295 90.0577 148.113 89.6914 147.689C89.3252 147.264 89.1421 146.718 89.1421 145.99C89.1421 145.262 89.3252 144.716 89.6914 144.291C90.0577 143.867 90.607 143.624 91.2784 143.624C91.5836 143.624 91.9498 143.685 92.255 143.867C92.5602 143.988 92.8044 144.231 93.0485 144.595C93.1706 144.898 93.2927 145.444 93.2927 146.172Z" stroke="#707070" stroke-width="0.42"/>
<path d="M95.3687 141.986H94.5752V148.174H95.3687V141.986Z" fill="#707070"/>
<path d="M95.3687 141.986H94.5752V148.174H95.3687V141.986Z" stroke="#707070" stroke-width="0.42"/>
</svg>
