<svg width="38" height="34" viewBox="0 0 38 34" fill="none" xmlns="http://www.w3.org/2000/svg">
<path d="M33.6328 11.2518L37.8373 7.48996C37.9617 7.37853 38.0197 7.22168 37.994 7.06656C37.9682 6.91136 37.8616 6.77603 37.7062 6.70132L23.9018 0.0608281C23.6834 -0.0441602 23.4132 -0.00942968 23.2376 0.146492L18.9997 3.90768L14.7621 0.146758C14.6566 0.0524609 14.5152 0 14.3663 0C14.2728 0 14.1808 0.0211836 14.0984 0.0610938L9.66454 2.19327C9.53285 2.25702 9.43708 2.36194 9.39443 2.48944C9.35178 2.61694 9.36749 2.75174 9.43857 2.86862C9.53734 3.02932 9.72664 3.12966 9.9324 3.12966C10.0252 3.12966 10.118 3.10841 10.1995 3.06923L14.2646 1.11363L18.0707 4.49165L5.26063 10.6368L1.48666 7.26L8.22578 4.01818C8.35821 3.95509 8.45398 3.85017 8.49663 3.72267C8.53928 3.59517 8.52357 3.46036 8.45174 3.34349C8.35372 3.18279 8.16442 3.08251 7.95866 3.08251C7.86588 3.08251 7.77385 3.1037 7.69154 3.14287L0.293986 6.70159C0.139103 6.77523 0.0313587 6.91209 0.00591904 7.06682C-0.0195206 7.22082 0.0389158 7.37886 0.163046 7.48983L4.3671 11.2519L0.162747 15.0137C0.0383172 15.1252 -0.0197451 15.282 0.00599386 15.4371C0.0318076 15.5923 0.13843 15.7277 0.293761 15.8024L4.59703 17.8724V26.8601C4.59696 26.8773 4.59793 26.8944 4.59987 26.9113C4.6007 26.9186 4.60227 26.9256 4.60339 26.9328C4.60481 26.9415 4.60594 26.9502 4.60788 26.9587C4.61028 26.9696 4.61357 26.9801 4.61671 26.9906C4.61821 26.9955 4.61933 27.0004 4.62097 27.0052C4.62464 27.0159 4.62906 27.0263 4.63347 27.0368C4.63542 27.0415 4.63706 27.0462 4.63923 27.0508C4.64357 27.0602 4.64858 27.0692 4.65352 27.0782C4.65659 27.0839 4.65936 27.0895 4.66265 27.095C4.66714 27.1024 4.67215 27.1096 4.67694 27.1167C4.68158 27.1236 4.686 27.1305 4.69093 27.1372C4.69505 27.1427 4.69969 27.1479 4.7041 27.1533C4.71046 27.1611 4.71675 27.169 4.72363 27.1766C4.72745 27.1807 4.73171 27.1846 4.73568 27.1886C4.74361 27.1967 4.75154 27.2048 4.76007 27.2125C4.76448 27.2164 4.76935 27.22 4.77391 27.2239C4.78244 27.231 4.79082 27.2382 4.79988 27.2448C4.80863 27.2513 4.81791 27.2571 4.82704 27.263C4.83242 27.2665 4.83744 27.2703 4.84297 27.2736C4.85906 27.2833 4.87575 27.2922 4.89295 27.3005L18.7303 33.9388C18.7502 33.9485 18.771 33.9569 18.7923 33.9645C18.7969 33.9661 18.8016 33.9675 18.8064 33.969C18.8219 33.9741 18.8377 33.9786 18.8539 33.9824C18.8598 33.9838 18.8655 33.9852 18.8714 33.9864C18.8871 33.9896 18.903 33.9922 18.9192 33.9943C18.9247 33.995 18.9301 33.9959 18.9357 33.9965C18.9568 33.9986 18.9782 34 18.9999 34C19.0217 34 19.0431 33.9986 19.0642 33.9965C19.0697 33.9959 19.0752 33.995 19.0807 33.9943C19.0969 33.9922 19.1128 33.9896 19.1285 33.9864C19.1343 33.9852 19.1401 33.9838 19.1459 33.9824C19.1621 33.9785 19.1779 33.9741 19.1934 33.969C19.1981 33.9675 19.2028 33.9661 19.2075 33.9645C19.2287 33.9569 19.2495 33.9485 19.2694 33.9388L33.1067 27.3005C33.124 27.2922 33.1406 27.2833 33.1567 27.2736C33.1623 27.2703 33.1674 27.2665 33.1727 27.263C33.1819 27.257 33.1911 27.2512 33.1998 27.2448C33.2089 27.2382 33.2173 27.231 33.2258 27.2239C33.2304 27.22 33.2352 27.2165 33.2396 27.2125C33.2482 27.2048 33.2561 27.1967 33.264 27.1886C33.268 27.1846 33.2723 27.1807 33.2761 27.1766C33.283 27.1691 33.2892 27.1612 33.2956 27.1533C33.3 27.1479 33.3047 27.1427 33.3088 27.1372C33.3137 27.1305 33.3181 27.1236 33.3228 27.1167C33.3276 27.1096 33.3326 27.1024 33.3371 27.095C33.3403 27.0895 33.3431 27.0839 33.3462 27.0782C33.3511 27.0692 33.3561 27.0602 33.3605 27.0508C33.3626 27.0462 33.3643 27.0415 33.3662 27.0368C33.3706 27.0264 33.3751 27.016 33.3787 27.0052C33.3804 27.0004 33.3815 26.9955 33.383 26.9906C33.3861 26.9801 33.3894 26.9696 33.3918 26.9587C33.3938 26.9502 33.3949 26.9415 33.3963 26.9328C33.3974 26.9256 33.3991 26.9186 33.3998 26.9113C33.4018 26.8943 33.4027 26.8772 33.4027 26.8601V17.8724L37.7057 15.8024C37.8606 15.7281 37.9683 15.5913 37.9938 15.4372C38.0192 15.2825 37.9609 15.1244 37.8374 15.0135L33.6328 11.2518ZM23.7351 1.1137L36.513 7.26033L32.7391 10.637L19.9292 4.49145L23.7351 1.1137ZM5.42315 17.1369L1.48688 15.2434L5.26078 11.8667L18.0708 18.0122L14.2649 21.39L5.42794 17.1391C5.42636 17.1383 5.42479 17.1376 5.42315 17.1369ZM18.4388 32.6666L5.71929 26.5645V18.4123L14.0982 22.4429C14.1824 22.4833 14.2743 22.503 14.3654 22.503C14.5108 22.503 14.6545 22.4529 14.7624 22.3572L18.4388 19.0943V32.6666ZM19 17.3257L6.3395 11.2519L19.0003 5.17809L31.6608 11.2519L19 17.3257ZM32.579 17.1359C32.576 17.1373 32.573 17.1387 32.57 17.1402L29.7742 18.4851C29.6418 18.5482 29.546 18.6538 29.5034 18.7813C29.4607 18.9088 29.4764 19.0436 29.5475 19.1605C29.6463 19.3212 29.8356 19.4208 30.0413 19.4208C30.1341 19.4208 30.2269 19.4002 30.3085 19.3611L32.2806 18.4123V26.5646L19.5612 32.6667V19.0941L23.2379 22.3572C23.3442 22.4515 23.4848 22.5033 23.6344 22.5033C23.7272 22.5033 23.8192 22.482 23.9016 22.4429L28.3355 20.31C28.4671 20.2469 28.5629 20.1413 28.6056 20.0138C28.6482 19.8863 28.6325 19.7521 28.5614 19.6353C28.4627 19.4739 28.2734 19.3743 28.0668 19.3743C27.9748 19.3743 27.882 19.3949 27.8005 19.4347L23.7354 21.3896L19.9293 18.0123L32.7394 11.8665L36.5134 15.2432L32.579 17.1359Z" fill="#C5C5C5"/>
</svg>
