<?xml version="1.0" encoding="utf-8"?>
<!-- Generator: Adobe Illustrator 25.2.1, SVG Export Plug-In . SVG Version: 6.00 Build 0)  -->
<svg version="1.1" id="Camada_1" xmlns="http://www.w3.org/2000/svg" xmlns:xlink="http://www.w3.org/1999/xlink" x="0px" y="0px"
	 viewBox="0 0 202 29" style="enable-background:new 0 0 202 29;" xml:space="preserve">
<style type="text/css">
	.st0{fill:#FFFFFF;}
</style>
<path class="st0" d="M0,26.1l1.7-4.2c1.6,1.2,3.5,1.9,5.5,2c2.8,0,4.1-0.9,4.1-2.7c0-1-0.4-1.9-1-2.6c-0.7-0.8-2-1.7-4-2.8
	c-1.5-0.7-2.8-1.5-4.1-2.5c-0.7-0.7-1.3-1.5-1.6-2.3c-0.4-0.9-0.6-2-0.6-3c0-1,0.2-1.9,0.6-2.8s1-1.7,1.7-2.3c1.6-1.4,3.7-2.1,5.8-2
	c3.1,0,5.4,0.8,6.8,1.9l-1.4,4.1C11.9,5.6,10.1,5,8.2,5C7.3,4.9,6.4,5.2,5.7,5.8C5.4,6.1,5.2,6.5,5,6.8C4.9,7.2,4.8,7.6,4.8,8
	c0,1.5,1.6,2.9,5,4.6c1.4,0.6,2.7,1.4,3.8,2.4c0.8,0.7,1.4,1.6,1.8,2.6c0.4,1,0.6,2.1,0.6,3.3c0,1-0.2,2-0.6,3s-1.1,1.7-1.9,2.4
	c-1.7,1.4-4,2.1-6.8,2.1C4.3,28.1,2,27.4,0,26.1z"/>
<path class="st0" d="M23.1,5.6h-2.6c0.2-1.2,0.6-2.4,1.4-3.4c0.3-0.4,0.7-0.7,1.1-1c0.4-0.2,0.9-0.3,1.4-0.3c1,0,1.9,0.2,2.8,0.7
	c0.6,0.3,1.2,0.6,1.8,0.7c0.7,0,1.3-0.5,1.6-1.4h2.7c-0.4,1.8-1,3-1.7,3.7c-0.3,0.3-0.7,0.6-1.1,0.8c-0.4,0.2-0.9,0.3-1.3,0.2
	c-0.9,0-1.8-0.3-2.6-0.7c-0.6-0.3-1.2-0.6-1.9-0.7C24.1,4.2,23.5,4.7,23.1,5.6z"/>
<path class="st0" d="M38.5,18c-0.1-2.6,0.8-5.2,2.6-7.2c0.9-0.9,1.9-1.7,3.1-2.1c1.2-0.5,2.4-0.7,3.7-0.6c2.9,0,5.2,0.9,6.9,2.7
	c1.6,1.8,2.4,4.2,2.4,7.3c0,3.1-0.8,5.5-2.5,7.4c-1.7,1.8-3.9,2.8-6.8,2.7c-2.9,0-5.2-0.9-6.9-2.8C39.3,23.5,38.5,21,38.5,18z
	 M43.2,18c0,4.3,1.5,6.4,4.6,6.4c0.7,0,1.3-0.1,1.9-0.4s1.1-0.7,1.5-1.3c0.8-1.1,1.2-2.7,1.2-4.7c0-4.2-1.5-6.3-4.6-6.3
	c-0.7,0-1.3,0.1-1.9,0.4c-0.6,0.3-1.1,0.7-1.5,1.3C43.5,14.7,43.1,16.3,43.2,18z"/>
<path class="st0" d="M91.9,3.5l-2,3.8c-0.9-0.6-1.8-1.1-2.8-1.5c-1-0.4-2-0.6-3-0.6c-1.1,0-2.3,0.2-3.3,0.6c-1,0.5-2,1.1-2.7,2
	c-1.5,1.8-2.2,4-2.2,7c-0.1,2.4,0.7,4.7,2.3,6.6c0.8,0.8,1.7,1.5,2.7,1.9c1,0.4,2.2,0.6,3.3,0.6c1.5,0.1,2.9-0.4,4-1.4l0-5h-3.7v-4
	H93v11.8c-1.3,1-2.8,1.7-4.3,2.1c-1.7,0.5-3.5,0.8-5.2,0.8c-3.8,0-6.8-1.2-9-3.7c-2.4-2.7-3.6-6.2-3.5-9.8c-0.1-3.7,1.3-7.2,3.8-9.9
	c2.4-2.5,5.6-3.8,9.7-3.8C87.2,0.8,89.8,1.8,91.9,3.5z"/>
<path class="st0" d="M114.6,19.4h-13.9c0,0.6,0.2,1.3,0.4,1.9c0.3,0.6,0.7,1.1,1.2,1.5c1.1,0.9,2.5,1.4,4,1.3c2.1,0,3.6-0.5,4.7-1.6
	l1.7,3.4c-2.1,1.5-4.6,2.3-7.1,2.2c-3,0-5.3-0.9-7-2.6c-1.7-1.7-2.6-4.1-2.6-7.3c-0.1-1.4,0.2-2.7,0.7-4c0.5-1.3,1.2-2.4,2.2-3.4
	C100.6,9,103,8,105.5,8c2.5-0.1,5,0.9,6.8,2.5c0.8,0.8,1.5,1.8,1.9,2.9c0.4,1.1,0.6,2.3,0.6,3.5C114.9,17.8,114.8,18.6,114.6,19.4z
	 M100.9,15.9h9.5c-0.3-2.8-1.9-4.1-4.7-4.1C103.1,11.8,101.5,13.1,100.9,15.9z"/>
<path class="st0" d="M129.8,12.5c-0.8-0.5-1.7-0.8-2.7-0.8c-0.5,0-1.1,0.1-1.6,0.4c-0.5,0.2-0.9,0.6-1.2,1c-0.8,1-1.2,2.2-1.2,3.5
	v11.1h-4.5V8.3h4.5v1.8c0.6-0.7,1.4-1.3,2.3-1.6c0.9-0.4,1.8-0.5,2.8-0.5c1.2-0.1,2.4,0.2,3.6,0.7L129.8,12.5z"/>
<path class="st0" d="M153.4,1.1l4.5-1.1v27.9h-4.5V1.1z"/>
<path class="st0" d="M175.2,27.7v-1.2c-0.5,0.5-1.2,0.9-1.9,1.1c-0.9,0.3-1.8,0.5-2.8,0.5c-2.7,0-4.8-0.9-6.4-2.6
	c-1.6-1.7-2.3-4.1-2.3-7.2c-0.1-2.7,0.8-5.4,2.7-7.5c0.8-0.9,1.9-1.7,3-2.2c1.2-0.5,2.4-0.7,3.7-0.7c1.4,0,2.8,0.3,4,0.9V1.1
	l4.5-1.1v27.7H175.2z M175.2,12.9c-0.8-0.7-1.9-1.1-3-1.2c-0.8,0-1.6,0.1-2.3,0.4c-0.7,0.3-1.4,0.7-1.9,1.3c-1,1.1-1.5,2.7-1.5,4.8
	c0,4,2.2,5.8,5.7,5.8c1.1,0,2.2-0.4,3-1.1L175.2,12.9z"/>
<path class="st0" d="M183.4,18c-0.1-2.6,0.8-5.2,2.5-7.2c0.9-0.9,1.9-1.7,3.1-2.1c1.2-0.5,2.4-0.7,3.7-0.6c3,0,5.2,0.9,6.9,2.7
	c1.6,1.8,2.4,4.2,2.4,7.3c0,3.1-0.8,5.5-2.5,7.4c-1.7,1.8-3.9,2.8-6.8,2.8c-2.9,0-5.2-0.9-6.9-2.8C184.2,23.5,183.4,21,183.4,18z
	 M188.1,18c0,4.3,1.5,6.4,4.6,6.4c0.7,0,1.3-0.1,1.9-0.4c0.6-0.3,1.1-0.7,1.5-1.3c0.8-1.1,1.3-2.7,1.3-4.7c0-4.2-1.5-6.3-4.6-6.3
	c-0.7,0-1.3,0.1-1.9,0.4c-0.6,0.3-1.1,0.7-1.5,1.3C188.4,14.7,188,16.3,188.1,18L188.1,18z"/>
<path class="st0" d="M30.8,25.8c-0.5,0.8-1.3,1.3-2.1,1.7c-1,0.4-2.1,0.6-3.2,0.6c-1.8,0.1-3.5-0.5-4.9-1.6c-0.6-0.6-1.1-1.3-1.4-2
	c-0.3-0.8-0.4-1.6-0.4-2.4c0-1,0.2-2,0.6-3c0.4-0.9,1.1-1.7,1.9-2.3c1.7-1.3,4.1-1.9,7.2-1.9c0.6,0,1.3,0.1,1.9,0.3
	c0-2.3-1.4-3.5-4.3-3.5c-1.5,0-2.9,0.3-4.3,0.9l-1-3.5c1.8-0.8,3.7-1.2,5.6-1.1c3,0,5.1,0.7,6.5,2c1.4,1.3,2.1,3.9,2.1,7.6v10.1h-4
	L30.8,25.8z M30.4,18.6c-0.6-0.1-1.2-0.2-1.7-0.2c-3.6,0-5.4,1.2-5.4,3.3c0,1.5,1.3,2.6,3,2.6c2.7,0,4.1-1.5,4.1-3.9L30.4,18.6z"/>
<path class="st0" d="M144,25.8c-0.5,0.8-1.3,1.3-2.1,1.7c-1,0.4-2.1,0.6-3.2,0.6c-1.8,0.1-3.5-0.5-4.9-1.6c-0.6-0.6-1.1-1.3-1.4-2
	c-0.3-0.8-0.4-1.6-0.4-2.4c0-1,0.2-2,0.6-3c0.4-0.9,1.1-1.7,1.9-2.3c1.7-1.3,4.1-1.9,7.2-1.9c0.6,0,1.3,0.1,1.9,0.3
	c0-2.3-1.4-3.5-4.3-3.5c-1.5,0-2.9,0.3-4.3,0.9l-1-3.5c1.7-0.8,3.6-1.2,5.5-1.1c3,0,5.1,0.7,6.5,2c1.4,1.3,2.1,3.9,2.1,7.7v10.1h-4
	L144,25.8z M143.6,18.6c-0.6-0.1-1.2-0.2-1.7-0.2c-3.6,0-5.4,1.2-5.4,3.3c0,1.5,1.3,2.6,3,2.6c2.7,0,4.1-1.5,4.1-3.9L143.6,18.6z"/>
</svg>
