<svg width="59" height="19" viewBox="0 0 59 19" fill="none" xmlns="http://www.w3.org/2000/svg">
<path d="M23.4131 1.05115L20.4414 18.4901H25.1941L28.1683 1.05115H23.4131Z" fill="#707070"/>
<path d="M16.4558 1.07056L11.8009 12.9634L11.3046 11.1677C10.3866 9.00401 7.7804 5.89664 4.7207 3.93834L8.97714 18.4814L14.0061 18.4728L21.491 1.06689L16.4558 1.07056Z" fill="#707070"/>
<path d="M9.50058 2.31863C9.22431 1.25636 8.42363 0.93975 7.42981 0.901855H0.0611205L0 1.24902C5.73433 2.64012 9.52869 5.99198 11.1032 10.0223L9.50058 2.31863Z" fill="#707070"/>
<path d="M37.8006 4.39425C39.3555 4.3698 40.4825 4.70963 41.3578 5.06169L41.7868 5.26338L42.4298 1.48369C41.4886 1.13041 40.0131 0.751465 38.1722 0.751465C33.4757 0.751465 30.1654 3.11683 30.1397 6.50657C30.1092 9.01129 32.4978 10.4097 34.302 11.2446C36.154 12.1003 36.775 12.6443 36.7664 13.4083C36.7517 14.5757 35.2897 15.1111 33.9243 15.1111C32.021 15.1111 31.0101 14.8483 29.4491 14.198L28.8366 13.9193L28.168 17.8224C29.2804 18.3102 31.3328 18.7295 33.4635 18.7515C38.4594 18.7515 41.7062 16.4142 41.7404 12.7922C41.7612 10.8107 40.4935 9.29856 37.7468 8.05781C36.0843 7.24858 35.0673 6.71072 35.077 5.89415C35.077 5.16926 35.9401 4.39425 37.8006 4.39425Z" fill="#707070"/>
<path d="M54.6271 1.07056H50.955C49.8145 1.07056 48.9661 1.38105 48.4649 2.51789L41.408 18.4997H46.3991C46.3991 18.4997 47.2132 16.3507 47.3978 15.8801C47.9442 15.8801 52.7935 15.8874 53.4842 15.8874C53.626 16.4962 54.0636 18.4997 54.0636 18.4997H58.4728L54.6271 1.07056ZM48.7657 12.3106C49.1568 11.3095 50.6592 7.43687 50.6592 7.43687C50.6335 7.48455 51.0467 6.42838 51.2924 5.77195L51.6126 7.27551C51.6126 7.27551 52.5233 11.439 52.714 12.3106H48.7657Z" fill="#707070"/>
</svg>
