<svg width="52" height="34" viewBox="0 0 52 34" fill="none" xmlns="http://www.w3.org/2000/svg">
<path d="M32.4872 16.9999C32.4872 25.9756 25.2161 33.2483 16.2436 33.2483C7.27112 33.2483 0 25.974 0 16.9999C0 8.02579 7.2729 0.751465 16.2436 0.751465C25.2143 0.751465 32.4872 8.02579 32.4872 16.9999Z" fill="#707070"/>
<path d="M35.7514 0.751465C32.1085 0.751465 28.7547 1.96525 26.0445 3.99149L26.0575 3.99309C26.5906 4.50812 27.1787 4.8706 27.632 5.4635L24.2523 5.51714C23.7226 6.05177 23.2401 6.63344 22.7851 7.23793H28.7449C29.1983 7.78218 29.6175 8.25515 29.9978 8.85625H21.7046C21.4008 9.37947 21.1197 9.91731 20.8743 10.4762H30.9419C31.2051 11.0334 31.4407 11.4544 31.6407 12.0442H20.278C20.0977 12.6049 19.9434 13.1784 19.8263 13.7632H32.1167C32.237 14.3255 32.3294 14.8453 32.3929 15.3752H19.5825C19.5288 15.9098 19.5012 16.4524 19.5012 17.0001H32.4854C32.4854 17.5753 32.4447 18.1082 32.3863 18.625H19.5825C19.6377 19.1758 19.719 19.7169 19.8263 20.2499H32.0971C31.9704 20.7763 31.824 21.306 31.6405 21.8552H20.2406C20.4128 22.4109 20.6225 22.9503 20.8515 23.4767H30.9419C30.6625 24.0682 30.3456 24.541 29.9963 25.0951H21.6756C22.0038 25.6637 22.3661 26.2064 22.7592 26.7264L28.7451 26.8157C28.2349 27.4282 27.5802 27.7971 26.9837 28.3333C27.0161 28.3593 26.0299 28.3301 24.0882 28.2993C27.0422 31.3475 31.1709 33.2485 35.7512 33.2485C44.7253 33.2485 51.9997 25.974 51.9997 17.0001C51.9997 8.02615 44.7269 0.751465 35.7514 0.751465Z" fill="#D8D8D8"/>
</svg>
