<svg width="152" height="44" viewBox="0 0 152 44" fill="none" xmlns="http://www.w3.org/2000/svg">
<path d="M16.4999 43.9995C16.2945 43.9995 16.0877 43.9538 15.8983 43.8599C7.19987 39.6248 0 35.054 0 21.9997V6.87481C0 6.29608 0.361175 5.78043 0.905013 5.58307L16.0299 0.083058C16.3333 -0.0270349 16.6663 -0.0270349 16.9698 0.083058L32.0947 5.58299C32.6385 5.78035 32.9997 6.296 32.9997 6.87473V21.9996C32.9997 35.054 25.7998 39.6247 17.1014 43.8598C16.9121 43.9538 16.7053 43.9995 16.4999 43.9995ZM2.75001 7.83754V21.9997C2.75001 32.2571 7.37982 36.566 16.4999 41.0911C25.62 36.566 30.2498 32.2571 30.2498 21.9997V7.83754L16.4999 2.83841L2.75001 7.83754Z" fill="#707070"/>
<path d="M15.5278 27.4995L9.05566 21.0275L11 19.0831L15.5278 23.6109L24.1805 14.9581L26.1248 16.9024L15.5278 27.4995Z" fill="#707070"/>
<path d="M53.924 13.8765C52.82 13.6365 52.4 13.5165 52.4 13.0245C52.4 12.4845 52.832 12.0525 53.852 12.0525C54.884 12.0525 55.304 12.4725 55.484 13.0605H57.224C57.032 11.6685 56.096 10.4565 53.84 10.4565C52.244 10.4565 50.672 11.3325 50.672 13.0965C50.672 14.7525 52.016 15.2445 53.516 15.5565C54.992 15.8805 55.58 15.9645 55.58 16.5885C55.58 17.1885 55.076 17.5485 54.104 17.5485C52.916 17.5485 52.412 17.1285 52.184 16.3005H50.456C50.648 17.7525 51.656 19.1445 54.116 19.1445C55.532 19.1445 57.308 18.4725 57.308 16.5165C57.308 14.8485 56.168 14.3565 53.924 13.8765ZM59.3058 9.35249C58.7058 9.35249 58.2378 9.77249 58.2378 10.3605C58.2378 10.9485 58.7058 11.3805 59.3058 11.3805C59.9298 11.3805 60.3738 10.9485 60.3738 10.3605C60.3738 9.77249 59.9298 9.35249 59.3058 9.35249ZM58.4418 19.0005H60.1578V12.4005H58.4418V19.0005ZM66.4436 17.2245C65.9036 17.4165 65.4476 17.5485 65.0636 17.5485C64.3796 17.5485 64.0076 17.1405 64.0076 16.3605V14.0205H66.4556V12.4005H64.0076V10.6005L62.2916 10.9725V12.4005H61.1156V14.0205H62.2916V16.4565C62.2916 18.3525 63.4436 19.1445 64.7636 19.1445C65.5556 19.1445 66.3716 18.8565 66.7316 18.6165L66.4436 17.2245ZM70.8001 12.2565C68.7841 12.2565 67.3561 13.7325 67.3561 15.7125C67.3561 17.6805 68.7721 19.1445 70.8361 19.1445C72.2521 19.1445 73.5721 18.4605 74.0641 16.9005H72.2881C72.0601 17.4285 71.4841 17.7285 70.8241 17.7285C69.9361 17.7285 69.2161 17.2005 69.1081 16.1445H74.1721C74.3401 13.9725 72.9841 12.2565 70.8001 12.2565ZM70.7881 13.6725C71.6161 13.6725 72.1561 14.1645 72.3481 14.8845H69.1921C69.4081 14.1765 69.9481 13.6725 70.7881 13.6725ZM82.6939 10.6005H79.1659V19.0005H80.8819V16.2885H82.6939C84.4939 16.2885 85.6819 15.1845 85.6819 13.4205C85.6819 11.6565 84.4939 10.6005 82.6939 10.6005ZM82.6219 14.6565H80.8819V12.2325H82.6219C83.5099 12.2325 83.9419 12.7005 83.9419 13.4445C83.9419 14.1765 83.5099 14.6565 82.6219 14.6565ZM90.6398 12.2565C89.7038 12.2565 88.9838 12.6885 88.5758 13.5525V12.4005H86.8598V19.0005H88.5758V16.0605C88.5758 14.5005 89.5118 14.0205 90.6038 14.0205C90.7958 14.0205 90.8918 14.0325 91.0238 14.0445V12.2805C90.9158 12.2685 90.7958 12.2565 90.6398 12.2565ZM95.1163 12.2565C93.2203 12.2565 91.6843 13.7085 91.6843 15.7005C91.6843 17.6805 93.1963 19.1445 95.1163 19.1445C97.0483 19.1445 98.5603 17.6925 98.5603 15.7005C98.5603 13.7085 97.0243 12.2565 95.1163 12.2565ZM95.1163 13.8885C96.0763 13.8885 96.8203 14.6205 96.8203 15.7005C96.8203 16.7925 96.0763 17.5125 95.1163 17.5125C94.1562 17.5125 93.4123 16.7925 93.4123 15.7005C93.4123 14.6205 94.1562 13.8885 95.1163 13.8885ZM104.53 17.2245C103.99 17.4165 103.534 17.5485 103.15 17.5485C102.465 17.5485 102.094 17.1405 102.094 16.3605V14.0205H104.542V12.4005H102.094V10.6005L100.378 10.9725V12.4005H99.2015V14.0205H100.378V16.4565C100.378 18.3525 101.53 19.1445 102.85 19.1445C103.642 19.1445 104.458 18.8565 104.818 18.6165L104.53 17.2245ZM108.886 12.2565C106.87 12.2565 105.442 13.7325 105.442 15.7125C105.442 17.6805 106.858 19.1445 108.922 19.1445C110.338 19.1445 111.658 18.4605 112.15 16.9005H110.374C110.146 17.4285 109.57 17.7285 108.91 17.7285C108.022 17.7285 107.302 17.2005 107.194 16.1445H112.258C112.426 13.9725 111.07 12.2565 108.886 12.2565ZM108.874 13.6725C109.702 13.6725 110.242 14.1645 110.434 14.8845H107.278C107.494 14.1765 108.034 13.6725 108.874 13.6725ZM118.358 12.4005V13.3125C117.902 12.6765 117.194 12.2565 116.282 12.2565C114.578 12.2565 113.27 13.6605 113.27 15.6525C113.27 17.6325 114.554 19.0485 116.282 19.0485C117.206 19.0485 117.89 18.6405 118.358 18.0165V18.9645C118.358 20.0805 117.806 20.6205 116.762 20.6205C116.054 20.6205 115.43 20.3565 115.238 19.6125H113.462C113.714 21.3405 115.214 22.1445 116.81 22.1445C118.802 22.1445 120.074 20.8725 120.074 18.9165V12.4005H118.358ZM116.666 17.4165C115.718 17.4165 114.998 16.6845 114.998 15.6525C114.998 14.6205 115.706 13.8885 116.666 13.8885C117.626 13.8885 118.358 14.6205 118.358 15.6525C118.358 16.6965 117.626 17.4165 116.666 17.4165ZM122.306 9.35249C121.706 9.35249 121.238 9.77249 121.238 10.3605C121.238 10.9485 121.706 11.3805 122.306 11.3805C122.93 11.3805 123.374 10.9485 123.374 10.3605C123.374 9.77249 122.93 9.35249 122.306 9.35249ZM121.442 19.0005H123.158V12.4005H121.442V19.0005ZM129.564 9.76049V13.3245C129.108 12.6885 128.412 12.2565 127.476 12.2565C125.784 12.2565 124.476 13.6605 124.476 15.7005C124.476 17.7285 125.772 19.1445 127.488 19.1445C128.412 19.1445 129.108 18.7365 129.564 18.1125V19.0005H131.28V9.76049H129.564ZM127.872 17.5125C126.924 17.5125 126.204 16.7925 126.204 15.7005C126.204 14.6205 126.912 13.8885 127.872 13.8885C128.832 13.8885 129.564 14.6205 129.564 15.7005C129.564 16.7925 128.832 17.5125 127.872 17.5125ZM135.921 12.2565C134.025 12.2565 132.489 13.7085 132.489 15.7005C132.489 17.6805 134.001 19.1445 135.921 19.1445C137.853 19.1445 139.365 17.6925 139.365 15.7005C139.365 13.7085 137.829 12.2565 135.921 12.2565ZM135.921 13.8885C136.881 13.8885 137.625 14.6205 137.625 15.7005C137.625 16.7925 136.881 17.5125 135.921 17.5125C134.961 17.5125 134.217 16.7925 134.217 15.7005C134.217 14.6205 134.961 13.8885 135.921 13.8885Z" fill="#707070"/>
<path d="M53.31 32.0405C51.9 31.7205 51.46 31.5005 51.46 30.9205C51.46 30.1405 52.12 29.6705 53.15 29.6705C54.17 29.6705 54.77 30.0805 55.03 30.7505H55.87C55.62 29.7005 54.78 28.8905 53.14 28.8905C51.79 28.8905 50.63 29.6105 50.63 30.9205C50.63 32.1605 51.64 32.5205 53.12 32.8505C54.48 33.1505 55.13 33.3105 55.13 34.0805C55.13 34.8805 54.47 35.3305 53.39 35.3305C52.17 35.3305 51.51 34.8305 51.28 33.9005H50.44C50.66 35.1305 51.55 36.1105 53.41 36.1105C54.73 36.1105 55.97 35.4805 55.97 34.0505C55.97 32.7305 54.98 32.4105 53.31 32.0405ZM61.0453 30.5005V33.3205C61.0453 34.5405 60.4153 35.3205 59.3253 35.3205C58.4253 35.3205 57.9653 34.8105 57.9653 33.8305V30.5005H57.1353V33.9905C57.1353 35.3305 57.8653 36.1105 59.0853 36.1105C60.0353 36.1105 60.6753 35.6305 61.0453 34.9105V36.0005H61.8753V30.5005H61.0453ZM67.7979 30.5005V31.6305C67.3779 30.8805 66.6279 30.3905 65.6779 30.3905C64.1879 30.3905 63.1079 31.5805 63.1079 33.2505C63.1079 34.9105 64.1779 36.1105 65.6779 36.1105C66.6279 36.1105 67.3679 35.6305 67.7979 34.8905V36.0005H68.6279V30.5005H67.7979ZM65.8379 35.3205C64.7279 35.3205 63.9479 34.4605 63.9479 33.2505C63.9479 32.0505 64.7179 31.1805 65.8379 31.1805C66.9579 31.1805 67.8079 32.0405 67.8079 33.2505C67.8079 34.4605 66.9579 35.3205 65.8379 35.3205ZM75.7233 36.1105C76.9833 36.1105 78.0933 35.3605 78.3933 34.0805H77.5333C77.2733 34.8505 76.5733 35.3405 75.7233 35.3405C74.5733 35.3405 73.7233 34.4705 73.7233 33.2505C73.7233 32.0405 74.5633 31.1605 75.7233 31.1605C76.5733 31.1605 77.2733 31.6405 77.5333 32.4205H78.3933C78.1033 31.1605 77.0033 30.3905 75.7233 30.3905C74.1133 30.3905 72.8833 31.6105 72.8833 33.2505C72.8833 34.8905 74.1133 36.1105 75.7233 36.1105ZM82.1586 30.3905C80.5986 30.3905 79.3286 31.6005 79.3286 33.2505C79.3286 34.8905 80.5786 36.1105 82.1586 36.1105C83.7486 36.1105 84.9986 34.9005 84.9986 33.2505C84.9986 31.6005 83.7286 30.3905 82.1586 30.3905ZM82.1586 31.1805C83.2686 31.1805 84.1586 32.0405 84.1586 33.2505C84.1586 34.4605 83.2786 35.3205 82.1586 35.3205C81.0486 35.3205 80.1686 34.4605 80.1686 33.2505C80.1686 32.0305 81.0586 31.1805 82.1586 31.1805ZM92.4778 30.3905C91.5378 30.3905 90.9378 30.8905 90.5878 31.6505C90.3678 30.8405 89.7678 30.3905 88.8678 30.3905C87.9878 30.3905 87.4378 30.8305 87.0778 31.5405V30.5005H86.2478V36.0005H87.0778V33.1805C87.0778 32.0705 87.5878 31.1805 88.6178 31.1805C89.4478 31.1805 89.8578 31.6505 89.8578 32.5805V36.0005H90.6978L90.6878 33.1805C90.6878 32.0705 91.1978 31.1805 92.2378 31.1805C93.0578 31.1805 93.4778 31.6505 93.4778 32.5805V36.0005H94.3078V32.4305C94.3078 31.1305 93.6378 30.3905 92.4778 30.3905ZM98.74 30.3905C97.79 30.3905 97.04 30.8805 96.62 31.6305V30.5005H95.79V38.5005H96.62V34.8905C97.04 35.6305 97.78 36.1105 98.73 36.1105C100.23 36.1105 101.31 34.9105 101.31 33.2505C101.31 31.5805 100.23 30.3905 98.74 30.3905ZM98.58 35.3205C97.46 35.3205 96.61 34.4605 96.61 33.2505C96.61 32.0405 97.46 31.1805 98.58 31.1805C99.69 31.1805 100.47 32.0505 100.47 33.2505C100.47 34.4605 99.69 35.3205 98.58 35.3205ZM105.356 30.3905C104.386 30.3905 103.726 30.9105 103.396 31.7305V30.5005H102.566V36.0005H103.396V33.4005C103.396 31.9905 104.196 31.2405 105.346 31.2405C105.486 31.2405 105.606 31.2505 105.696 31.2605V30.4105C105.616 30.4005 105.486 30.3905 105.356 30.3905ZM111.108 30.5005V31.6305C110.688 30.8805 109.938 30.3905 108.988 30.3905C107.498 30.3905 106.418 31.5805 106.418 33.2505C106.418 34.9105 107.488 36.1105 108.988 36.1105C109.938 36.1105 110.678 35.6305 111.108 34.8905V36.0005H111.938V30.5005H111.108ZM109.148 35.3205C108.038 35.3205 107.258 34.4605 107.258 33.2505C107.258 32.0505 108.028 31.1805 109.148 31.1805C110.268 31.1805 111.118 32.0405 111.118 33.2505C111.118 34.4605 110.268 35.3205 109.148 35.3205ZM118.744 36.1105C119.984 36.1105 121.014 35.5605 121.014 34.4305C121.014 33.4005 120.164 33.1805 118.754 32.8305C117.644 32.5505 117.204 32.4305 117.204 31.9905C117.204 31.5205 117.724 31.1805 118.614 31.1805C119.354 31.1805 119.884 31.4105 120.094 31.9705H120.934C120.714 30.9805 119.884 30.3905 118.594 30.3905C117.294 30.3905 116.364 30.9905 116.364 32.0505C116.364 32.9505 117.024 33.2205 118.544 33.6005C119.554 33.8505 120.164 33.9605 120.164 34.5005C120.164 35.0305 119.564 35.3205 118.744 35.3205C117.724 35.3205 117.154 35.0505 116.934 34.2805H116.084C116.304 35.4405 117.304 36.1105 118.744 36.1105ZM124.756 30.3905C123.116 30.3905 121.946 31.6005 121.946 33.2705C121.946 34.9505 123.136 36.1105 124.766 36.1105C125.916 36.1105 126.916 35.5405 127.376 34.3705H126.516C126.186 35.0105 125.556 35.3305 124.796 35.3305C123.686 35.3305 122.876 34.6405 122.796 33.5005H127.506C127.576 31.6905 126.466 30.3905 124.756 30.3905ZM124.756 31.1705C125.746 31.1705 126.426 31.8005 126.606 32.7205H122.836C123.026 31.8205 123.746 31.1705 124.756 31.1705ZM133.189 30.5005V31.6205C132.769 30.8805 131.999 30.3905 131.069 30.3905C129.579 30.3905 128.499 31.5805 128.499 33.2305C128.499 34.8705 129.569 36.0705 131.069 36.0705C132.009 36.0705 132.759 35.5905 133.189 34.8505V35.9605C133.189 37.1805 132.539 37.8705 131.389 37.8705C130.499 37.8705 129.809 37.4205 129.579 36.6305H128.719C128.989 37.9205 130.109 38.6105 131.409 38.6105C133.019 38.6105 134.019 37.5805 134.019 35.9405V30.5005H133.189ZM131.229 35.2805C130.119 35.2805 129.339 34.4205 129.339 33.2305C129.339 32.0505 130.109 31.1805 131.229 31.1805C132.349 31.1805 133.199 32.0405 133.199 33.2305C133.199 34.4205 132.349 35.2805 131.229 35.2805ZM139.356 30.5005V33.3205C139.356 34.5405 138.726 35.3205 137.636 35.3205C136.736 35.3205 136.276 34.8105 136.276 33.8305V30.5005H135.446V33.9905C135.446 35.3305 136.176 36.1105 137.396 36.1105C138.346 36.1105 138.986 35.6305 139.356 34.9105V36.0005H140.186V30.5005H139.356ZM144.428 30.3905C143.458 30.3905 142.798 30.9105 142.468 31.7305V30.5005H141.638V36.0005H142.468V33.4005C142.468 31.9905 143.268 31.2405 144.418 31.2405C144.558 31.2405 144.678 31.2505 144.768 31.2605V30.4105C144.688 30.4005 144.558 30.3905 144.428 30.3905ZM150.181 30.5005V31.6305C149.761 30.8805 149.011 30.3905 148.061 30.3905C146.571 30.3905 145.491 31.5805 145.491 33.2505C145.491 34.9105 146.561 36.1105 148.061 36.1105C149.011 36.1105 149.751 35.6305 150.181 34.8905V36.0005H151.011V30.5005H150.181ZM148.221 35.3205C147.111 35.3205 146.331 34.4605 146.331 33.2505C146.331 32.0505 147.101 31.1805 148.221 31.1805C149.341 31.1805 150.191 32.0405 150.191 33.2505C150.191 34.4605 149.341 35.3205 148.221 35.3205Z" fill="#707070"/>
</svg>
