<svg width="36" height="42" viewBox="0 0 36 42" fill="none" xmlns="http://www.w3.org/2000/svg">
<path d="M21.3745 0C12.5924 0 9.52035 12.9765 6.61526 23.4307C5.58011 22.4351 2.37449 19.3818 2.37449 19.3818C1.74005 18.7844 1.00543 18.9835 0.53794 19.3818C0.0704542 19.8132 0.00367045 20.6097 0.53794 21.1075C0.571332 21.1407 4.87888 25.2229 6.38151 26.6499C6.78222 27.0482 7.38327 27.2473 7.98432 26.9154C8.61877 26.5504 8.68555 25.9198 8.71894 25.9198C13.8279 4.04893 18.4026 2.42272 21.3745 2.42272C23.8788 2.42272 26.7505 4.18168 26.7505 7.69961C30.4904 7.69961 32.8279 12.3459 29.8226 15.2333C32.327 16.3949 33.4289 17.7888 33.4289 19.5809C33.4289 21.3731 31.8595 23.1984 29.5555 23.1984C27.2848 23.1984 26.1161 21.8045 24.3463 21.8045C23.5449 21.8045 23.044 22.4351 23.044 23.0325V27.4465H19.7049V23.0656C19.7049 22.3687 19.1706 21.8377 18.5028 21.8377C18.5028 21.8377 18.2022 21.8377 18.2356 21.8377L13.7611 22.3687C13.2268 22.4351 12.726 22.9993 12.726 23.5635C12.726 24.2272 13.2936 24.7914 14.095 24.7914C14.1952 24.7914 14.3288 24.7914 14.3288 24.7914L17.1671 24.4595V28.8072C17.1671 29.3714 17.8349 29.9024 18.4026 29.9024H24.3129C25.0142 29.9024 25.6152 29.3382 25.6152 28.6744V24.6919C26.8507 25.422 28.5871 25.6875 29.4887 25.6875C32.8279 25.6875 36.0001 23.1984 36.0001 19.5145C36.0001 16.1957 33.3287 14.5363 33.3287 14.5363C34.8981 10.5538 32.3604 6.73716 29.088 5.67514C27.8859 1.59302 24.2128 0 21.3745 0Z" fill="#C5C5C5"/>
<path d="M17.6005 34.7479C17.6005 35.7767 18.8026 36.4073 20.7727 37.3033C22.3422 38.0003 23.2437 38.7304 23.2437 39.3278C23.2437 40.2903 22.1418 40.6221 21.1401 40.6221C19.5706 40.6221 18.6357 40.0248 18.1014 38.6641L18.068 38.5645H17.9678C17.7007 38.5645 17.467 38.5645 17.3334 38.7304C17.2332 38.8632 17.2666 39.0291 17.3 39.2282L17.6339 40.6221C17.7341 40.954 17.8677 41.0204 18.4019 41.12C18.6357 41.1532 19.9379 41.3855 21.0065 41.3855C24.0118 41.3855 25.3808 40.2239 25.3808 39.0623C25.3808 38.2326 24.5126 37.4029 22.6093 36.5068L21.7411 36.1086C20.4388 35.5112 19.6708 35.1793 19.6708 34.5487C19.6708 33.9514 20.4722 33.5199 21.6409 33.5199C23.1436 33.5199 23.5443 34.3164 23.7446 35.0134L23.778 35.1461H23.9116C24.2455 35.1461 24.4458 35.1129 24.5794 34.9802C24.6462 34.9138 24.6796 34.8142 24.6796 34.6815L24.546 33.4867C24.5126 33.1217 24.2121 33.0553 23.778 32.9557C23.2771 32.8562 22.6761 32.7566 21.7411 32.7566C19.1699 32.823 17.6005 33.5531 17.6005 34.7479Z" fill="#C5C5C5"/>
<path d="M26.2817 37.1706C26.2817 39.2614 28.1851 41.3523 31.7914 41.3523C33.6279 41.3523 34.6631 40.954 35.4311 40.5558L35.6314 40.4562L35.2975 40.0911L35.3309 40.1243C35.2641 40.0248 35.1974 39.9916 35.0638 39.9916L34.8968 40.058C34.6297 40.1907 33.7949 40.5558 32.2589 40.5558C30.3889 40.5558 28.352 39.3942 28.352 36.8387C28.352 34.416 30.5559 33.5199 32.3924 33.5199C33.7281 33.5199 34.4627 33.9846 34.5963 34.9138L34.6297 35.0798H34.7967C34.9636 35.0798 35.3977 35.0798 35.3977 34.7811V33.354C35.3977 33.0221 34.9636 32.9557 34.7967 32.9225L34.6297 32.8894C34.1956 32.823 33.7949 32.7898 32.693 32.7898C28.9865 32.823 26.2817 34.6483 26.2817 37.1706Z" fill="#C5C5C5"/>
<path d="M12.6593 32.9224L9.38689 32.9556L7.21642 32.9224H6.8825C6.68215 32.9224 6.54858 33.0551 6.54858 33.2542C6.54858 33.3538 6.54858 33.6193 6.9159 33.6193C8.21818 33.6193 8.28496 33.7189 8.28496 34.2167V34.5154L8.31835 35.8097V38.5643C8.31835 39.029 8.31835 39.7591 8.28496 40.3233C8.28496 40.4892 8.25157 40.6552 7.11625 40.6552C6.78233 40.6552 6.58198 40.7215 6.58198 41.0202C6.58198 41.1198 6.58198 41.3521 6.8825 41.3521H6.94929C7.08285 41.3521 7.45016 41.3189 9.28672 41.3189C11.2234 41.3189 11.6241 41.3521 11.7243 41.3521H11.7911C12.0582 41.3521 12.2586 41.3189 12.2586 41.0202C12.2586 40.6884 11.9581 40.6552 11.4572 40.6552C10.2885 40.6552 10.2885 40.4892 10.2885 40.3233C10.2551 39.7923 10.2217 39.0621 10.2217 38.5643C10.2217 38.5643 10.2217 37.8342 10.2217 37.5687C10.4888 37.5687 11.1901 37.5687 11.1901 37.5687C12.6927 37.5687 12.8596 37.6019 13.06 38.6971C13.1268 38.9294 13.3271 38.9626 13.4941 38.9626C13.8614 38.9626 13.8948 38.7634 13.8948 38.6971L13.8614 38.2988C13.828 38.0665 13.7946 37.7678 13.7946 37.3696V35.677C13.7946 35.4115 13.4607 35.4115 13.2937 35.4115C13.0266 35.4115 12.9598 35.5774 12.7595 36.3739C12.6927 36.6726 12.0582 36.8717 11.0565 36.8717C11.0565 36.8717 10.422 36.8717 10.1883 36.8717C10.1883 36.573 10.1883 34.3826 10.1883 34.3826C10.1883 33.7189 10.3219 33.7189 10.4554 33.6857C11.0231 33.6525 12.4255 33.6193 12.8263 33.6193C13.227 33.6193 13.5943 33.7189 13.828 33.8516C14.5626 34.2831 14.9633 34.5818 15.1637 34.7809C15.3974 34.9468 15.531 35.0464 15.6979 35.0464C15.7981 35.0464 16.132 35.0464 16.132 34.7809C16.132 34.7145 16.0987 34.6481 15.9985 34.449C15.8649 34.1835 15.6646 33.7853 15.4308 33.1215C15.364 32.9224 15.0969 32.9224 14.6628 32.9224H12.6593Z" fill="#C5C5C5"/>
<path d="M31.5926 2.88744H31.9599C32.1269 2.88744 32.2605 2.85425 32.3272 2.82107C32.394 2.75469 32.4274 2.68831 32.4274 2.62194C32.4274 2.52237 32.394 2.456 32.3272 2.42281C32.2605 2.38962 32.1269 2.35643 31.9265 2.35643H31.5592V2.88744H31.5926ZM32.8949 3.94946H32.5276C32.2939 3.51801 32.1269 3.2857 32.0601 3.21932C31.9933 3.15294 31.8931 3.15295 31.793 3.15295H31.626V3.94946H31.3255V2.09093H31.9933C32.1937 2.09093 32.3272 2.09093 32.4608 2.12412C32.561 2.15731 32.6612 2.22368 32.7279 2.29006C32.7947 2.38962 32.8281 2.48919 32.8281 2.58875C32.8281 2.7215 32.7947 2.82107 32.6946 2.92063C32.5944 3.02019 32.4608 3.08657 32.2939 3.08657C32.394 3.11976 32.561 3.2857 32.7279 3.5512L32.8949 3.94946ZM32.0601 4.44728C32.4608 4.44728 32.7947 4.31452 33.0953 4.01583C33.3958 3.71714 33.5294 3.38526 33.5294 2.98701C33.5294 2.58875 33.3958 2.25687 33.0953 1.95818C32.7947 1.65949 32.4608 1.52673 32.0601 1.52673C31.6594 1.52673 31.2921 1.65949 31.025 1.95818C30.7244 2.25687 30.5909 2.58875 30.5909 2.98701C30.5909 3.38526 30.7244 3.71714 31.025 4.01583C31.3255 4.31452 31.6594 4.44728 32.0601 4.44728ZM32.0601 1.26123C32.5276 1.26123 32.9617 1.42717 33.2956 1.75905C33.6295 2.09093 33.8299 2.52237 33.8299 2.98701C33.8299 3.48482 33.6629 3.88308 33.329 4.21496C32.9951 4.54684 32.561 4.74597 32.0935 4.74597C31.5926 4.74597 31.1919 4.58003 30.858 4.24815C30.5241 3.91627 30.3237 3.48482 30.3237 3.02019C30.3237 2.55556 30.4907 2.12412 30.858 1.79224C31.1585 1.42717 31.5926 1.26123 32.0601 1.26123Z" stroke="#C5C5C5" stroke-width="0.42"/>
</svg>
