<svg version="1.1" xmlns="http://www.w3.org/2000/svg" xmlns:xlink="http://www.w3.org/1999/xlink" style="display: none;">
<defs>
<g id="logo">
    <path d="M0 25.7656C0 22.9062 0.357425 20.5234 1.19142 18.498C2.02541 16.4726 3.09769 15.0429 4.40825 13.9706C5.7188 13.0174 7.14851 12.3026 8.57821 11.9452C10.0079 11.5877 11.5568 11.3495 13.2247 11.3495C15.2501 11.3495 17.3947 11.5877 19.4201 12.1835V0.86499H24.6623V31.6036C24.6623 32.1993 24.5432 32.795 24.4241 33.3907C24.3049 33.9864 24.0666 34.8204 23.5901 35.7735C23.1135 36.7267 22.5178 37.5606 21.6838 38.2755C20.8498 38.9903 19.7775 39.5861 18.2287 40.0626C16.6798 40.5392 14.8927 40.7775 12.8673 40.7775C11.795 40.7775 10.7228 40.6583 9.65048 40.5392C8.57821 40.3009 7.50593 39.9435 6.31451 39.2286C5.1231 38.5138 4.05082 37.6798 3.21683 36.7267C2.38284 35.7735 1.66798 34.2247 1.07228 32.3184C0.357425 30.5313 0 28.2676 0 25.7656ZM5.24224 25.7656C5.24224 28.0293 5.48052 29.8164 5.83795 31.2461C6.19537 32.6758 6.91022 33.7481 7.62507 34.463C8.45906 35.1778 9.17391 35.5352 10.0079 35.7735C10.7228 36.0118 11.6759 36.1309 12.7482 36.1309C17.1564 36.1309 19.301 34.7012 19.301 31.8418V17.3066C17.3947 16.4726 15.3693 16.1151 13.1056 16.1151C11.9142 16.1151 10.961 16.2343 10.127 16.4726C9.29306 16.7108 8.45906 17.0683 7.62507 17.7831C6.79108 18.3788 6.19537 19.4511 5.83795 20.7617C5.48052 21.9531 5.24224 23.7402 5.24224 25.7656Z"/>
    <path d="M31.8109 28.3866V11.7068H37.0531V28.7441C37.0531 31.3652 37.6488 33.2714 38.7211 34.4629C39.7933 35.6543 41.5805 36.25 43.9633 36.25C46.3461 36.25 48.0141 35.6543 49.2055 34.4629C50.2778 33.2714 50.8735 31.3652 50.8735 28.7441V11.8259H56.1158V28.5058C56.1158 32.4375 55.0435 35.5351 52.8989 37.7988C50.7544 39.9434 47.7758 41.1348 43.9633 41.1348C40.1508 41.1348 37.1722 40.0625 35.0277 37.7988C32.8831 35.5351 31.8109 32.4375 31.8109 28.3866Z"/>
    <path d="M63.026 40.5391V14.2088C67.7917 12.3025 72.4382 11.3494 76.9656 11.3494V16.2342C74.1062 16.2342 71.2468 16.7107 68.2682 17.4256V40.5391H63.026Z"/>
    <path d="M79.825 26.4804C79.825 16.3533 83.9949 11.3494 92.454 11.3494C96.2665 11.3494 99.3642 12.6599 101.628 15.1619C103.892 17.6639 105.083 20.9998 105.083 25.289C105.083 26.5995 105.083 28.0292 104.964 29.2206H85.1863C85.782 34.1054 88.5223 36.6074 93.288 36.6074C97.2197 36.6074 100.436 35.8926 103.177 34.4629V39.2285C100.198 40.42 96.8622 41.1348 93.1688 41.1348H93.0497C91.3817 41.1348 89.8329 40.8965 88.4032 40.5391C86.9735 40.0625 85.5438 39.4668 84.2332 38.3945C82.9226 37.4414 81.8504 35.8926 81.0164 33.8672C80.1824 31.7226 79.825 29.3398 79.825 26.4804ZM85.0672 24.3358H99.8408C99.7216 23.3827 99.6025 22.4295 99.3642 21.5956C99.1259 20.7616 98.7685 19.8084 98.1728 18.9744C97.6962 18.0213 96.8622 17.3065 95.9091 16.8299C94.956 16.3533 93.7645 15.9959 92.454 15.9959C90.0711 15.9959 88.284 16.5916 87.0926 17.9022C86.0203 19.2127 85.3055 21.3573 85.0672 24.3358Z"/>
    <path d="M107.108 11.8259H112.708L120.81 34.2246L128.911 11.8259H134.511L123.431 40.5391H118.069L107.108 11.8259Z"/>
    <path d="M138.085 33.6291C137.251 31.6037 136.894 29.1017 136.894 26.2423C136.894 23.3829 137.251 20.8809 138.085 18.8555C138.919 16.8301 139.992 15.2813 141.421 14.3282C142.851 13.2559 144.281 12.541 145.71 12.1836C147.14 11.707 152.501 11.5879 154.289 11.5879C156.076 11.5879 157.625 11.8262 159.054 12.1836C160.484 12.6602 161.914 13.375 163.343 14.3282C164.773 15.4004 165.845 16.8301 166.679 18.8555C167.513 20.8809 167.871 23.3829 167.871 26.2423C167.871 29.1017 167.513 31.6037 166.679 33.6291C165.845 35.6545 164.773 37.2034 163.343 38.1565C161.914 39.2288 160.484 39.9436 159.054 40.3011C157.625 40.7776 155.957 40.8968 154.289 40.8968C152.501 40.8968 147.259 40.6585 145.71 40.3011C144.162 39.9436 142.851 39.1096 141.421 38.1565C139.992 37.0842 138.919 35.6545 138.085 33.6291ZM142.851 20.8809C142.374 22.3106 142.255 23.9786 142.255 26.1232C142.255 28.2677 142.494 30.0549 142.851 31.3654C143.328 32.7951 143.923 33.7483 144.757 34.4631C145.591 35.178 146.425 35.5354 147.259 35.7737C148.093 36.0119 152.978 36.1311 154.169 36.1311C155.361 36.1311 156.433 36.0119 157.267 35.7737C158.101 35.5354 158.935 35.0588 159.769 34.4631C160.603 33.7483 161.199 32.7951 161.675 31.3654C162.152 29.9357 162.271 28.2677 162.271 26.1232C162.271 23.9786 162.033 22.1915 161.675 20.8809C161.199 19.4512 160.603 18.4981 159.769 17.7833C158.935 17.0684 158.101 16.711 157.267 16.4727C156.433 16.2344 155.361 16.1153 154.169 16.1153C152.978 16.1153 148.093 16.2344 147.259 16.4727C146.425 16.711 145.591 17.1876 144.757 17.7833C143.923 18.4981 143.328 19.4512 142.851 20.8809Z" />
    <path d="M173.59 40.5392V0.86499H178.832V40.5392H173.59Z"/>
    <path d="M185.742 26.4804C185.742 16.3533 189.912 11.3494 198.371 11.3494C202.184 11.3494 205.281 12.6599 207.545 15.1619C209.809 17.6639 211 20.9998 211 25.289C211 26.5995 211 28.0292 210.881 29.2206H191.103C191.699 34.1054 194.439 36.6074 199.205 36.6074C203.137 36.6074 206.353 35.8926 209.094 34.4629V39.2285C206.115 40.42 202.779 41.1348 199.086 41.1348H198.967C197.299 41.1348 195.75 40.8965 194.32 40.5391C192.89 40.0625 191.461 39.4668 190.15 38.3945C188.84 37.4414 187.767 35.8926 186.933 33.8672C186.219 31.7226 185.742 29.3398 185.742 26.4804ZM191.103 24.3358H205.877C205.758 23.3827 205.639 22.4295 205.4 21.5956C205.162 20.7616 204.805 19.8084 204.209 18.9744C203.732 18.0213 202.898 17.3065 201.945 16.8299C200.992 16.3533 199.801 15.9959 198.49 15.9959C196.107 15.9959 194.32 16.5916 193.129 17.9022C191.937 19.2127 191.342 21.3573 191.103 24.3358Z"/>
</g>
<g id="icon-chat">
    <path fill-rule="evenodd" clip-rule="evenodd" d="M3.62402 16.2293L2.81091 18.9045L5.92515 18.4648L6.52103 18.8074C7.87883 19.588 9.41937 20 11 20C15.9749 20 20 15.9756 20 11C20 6.02506 15.9756 2 11 2C6.02506 2 2 6.02442 2 11C2 12.5806 2.41197 14.1212 3.19262 15.479L3.62402 16.2293ZM0 11C0 4.91975 4.92059 0 11 0C17.0802 0 22 4.92059 22 11C22 17.0802 17.0794 22 11 22C9.0706 22 7.18619 21.4968 5.52417 20.5412L1.45876 21.1152C1.14891 21.2149 0.813385 21.1307 0.587631 20.9049C0.359695 20.677 0.278458 20.3406 0.377319 20.0338L1.45876 16.4758C0.503204 14.8138 0 12.9294 0 11Z"/>
</g>
</defs>
</svg>