<svg width="242" height="25" viewBox="0 0 242 25" fill="none" xmlns="http://www.w3.org/2000/svg">
<path d="M150.868 22.162C149.727 22.1718 148.588 22.063 147.47 21.8374C147.181 19.1518 147.073 16.4499 147.145 13.7498L147.27 13.5979C149.596 13.0638 151.99 12.8891 154.37 13.0799C154.535 12.3892 154.667 11.809 154.874 11.1598C152.341 11.5558 149.772 11.6716 147.214 11.5052L147.111 11.3601C147.016 8.82665 147.071 6.28978 147.276 3.76286L147.553 3.36919C149.973 3.08678 152.423 3.20344 154.805 3.71452C154.915 2.93407 155.039 2.3332 155.219 1.53894C152.498 1.64945 149.777 1.74614 147.049 1.74614H142.815C142.87 5.63455 142.905 9.52297 142.815 13.3976C142.76 16.9683 142.539 20.3801 142.304 23.868H156.006L156.193 21.796C154.422 22.068 152.632 22.2019 150.84 22.1966" fill="#717171"/>
<path d="M128.49 1.58035H128.401C124.395 1.58035 120.859 1.45603 119.111 1.25574L119.422 3.24484C121.646 3.30009 123.518 3.24484 125.749 3.24484L126.253 3.51419C126.529 10.292 126.434 17.0798 125.97 23.8472H131.011C130.542 17.0869 130.445 10.3059 130.721 3.53491L131.232 3.26556C133.463 3.26556 135.666 3.32081 137.897 3.26556C138.001 2.5749 138.098 1.93949 138.208 1.27646C136.468 1.47675 132.586 1.60107 128.58 1.60107L128.49 1.58035Z" fill="#717171"/>
<path d="M107.978 10.7937C107.529 11.2328 106.996 11.5757 106.411 11.8014C105.825 12.027 105.2 12.1307 104.573 12.106C104.413 12.1138 104.255 12.083 104.11 12.0162C104.034 8.99801 104.006 6.02817 104.11 3.16194C105.491 3.16194 107.011 3.22409 108.088 4.19792C109.414 5.38586 109.469 7.7272 108.903 9.29499C108.702 9.86338 108.385 10.3834 107.971 10.8214L107.978 10.7937ZM109.214 12.7483C110.442 12.2972 111.56 11.591 112.495 10.6763C114.622 8.4593 114.691 4.72283 111.977 2.94092C108.765 0.827506 102.666 1.50435 99.593 1.90494C99.9308 9.21618 99.8916 16.54 99.4756 23.8472H104.435C104.248 20.4906 104.041 16.9406 104.144 13.5909C104.504 13.4676 104.887 13.4298 105.263 13.4804C107.764 17.9006 110.913 24.455 116.542 24.455C117.625 24.4377 118.7 24.2632 119.733 23.937C115.236 21.9617 111.59 16.3397 109.221 12.7414" fill="#717171"/>
<path d="M83.1692 0.067749C80.227 8.13465 77.0845 16.1947 73.5 23.8264H76.1521C78.3761 17.8522 80.3997 11.9333 82.8032 6.02124C85.1583 12.4237 87.0922 17.9282 89.3714 23.4535L89.8548 23.8264H94.7792C91.3008 16.5806 88.252 9.13622 85.6487 1.53195L83.1692 0.067749Z" fill="#717171"/>
<path d="M64.4801 3.18262C67.1184 3.02377 69.6324 4.70207 69.6669 7.4578V7.53377H70.0537C70.3448 5.87893 70.4721 4.19941 70.4335 2.51959C67.1529 1.00014 62.3321 0.806751 59.1551 2.51959C55.978 4.23242 55.1216 8.73552 57.8083 11.3669L58.2779 11.8159C59.357 12.6655 60.5131 13.4124 61.7312 14.0467C62.4633 14.4818 63.078 14.8617 63.5684 15.2001C63.9521 15.4609 64.3126 15.7544 64.6458 16.0772C65.1727 16.5782 65.5345 17.2279 65.6829 17.9397C65.8313 18.6514 65.7593 19.3915 65.4765 20.0613C65.1937 20.7312 64.7136 21.2989 64.1 21.689C63.4864 22.0791 62.7686 22.273 62.042 22.2448C59.5211 22.3001 56.9933 20.8635 56.7723 18.163H56.3234L55.9297 23.5225C59.7767 24.2546 64.7563 24.9039 68.1129 22.6868C68.793 22.1956 69.3523 21.556 69.7484 20.8165C70.1445 20.0769 70.367 19.2569 70.399 18.4186C70.6338 14.7512 67.9195 13.066 64.9428 11.4084C63.5131 10.6141 61.8556 9.75079 61.2754 8.13465C60.4052 5.70353 61.7589 3.34838 64.487 3.18262" fill="#717171"/>
<path d="M40.2448 22.5487C34.5124 22.5073 33.3797 17.1961 33.3797 12.5687C33.3797 7.94127 34.5124 2.6232 40.2448 2.58866C45.9773 2.55413 47.11 7.92746 47.11 12.5687C47.11 17.2099 45.9773 22.5073 40.2448 22.5487ZM48.4153 4.00452C44.3197 -0.243042 36.17 -0.243042 32.0743 4.00452C29.8366 6.31823 29.0423 9.45382 29.0009 12.5687C28.9595 15.6836 29.8366 18.7846 32.0743 21.126C36.17 25.3735 44.3197 25.3735 48.4153 21.126C50.6531 18.8123 51.4404 15.6767 51.4888 12.5687C51.5371 9.46072 50.6531 6.35276 48.4153 4.00452Z" fill="#717171"/>
<path d="M19.1589 1.27644C17.3435 6.59686 15.1864 11.7945 12.7012 16.837L3.89532 0.0401611C3.14941 0.48909 2.41731 0.938019 1.6783 1.37313C1.38823 7.69958 0.780445 16.4433 0 23.8265H2.27227C2.39659 18.4877 2.72811 13.142 3.1356 7.81008L11.237 23.4328L18.8964 7.27137C19.3385 12.7966 19.6493 18.3219 20.2778 23.8472H24.9535C23.801 16.0357 23.0839 8.16614 22.8056 0.274986L19.1589 1.29716" fill="#717171"/>
<path d="M214.678 21.1882C214.678 21.1656 214.672 21.1435 214.66 21.1242C214.648 21.1048 214.632 21.089 214.612 21.0783C214.592 21.0677 214.57 21.0627 214.547 21.0638C214.525 21.0649 214.503 21.072 214.484 21.0846C212.965 22.0655 211.202 22.6036 209.394 22.6385C204.104 22.6385 200.664 17.5069 200.664 12.2165C200.664 6.92604 204.117 1.80134 209.394 1.80134C211.064 1.82118 212.7 2.27839 214.139 3.12741C214.194 3.16067 214.256 3.17869 214.32 3.17959C214.384 3.1805 214.447 3.16426 214.503 3.13255C214.559 3.10085 214.605 3.05483 214.637 2.99928C214.669 2.94373 214.685 2.88066 214.684 2.81661V1.29716C214.684 1.22274 214.662 1.15009 214.62 1.08855C214.578 1.02701 214.519 0.979392 214.45 0.951829C211.975 0.023129 209.299 -0.231896 206.694 0.212824C203.787 0.648259 201.131 2.1059 199.203 4.32381C197.275 6.54173 196.202 9.37453 196.175 12.3132C196.23 19.4753 202.052 24.4343 209.235 24.4343C211.072 24.4399 212.893 24.0978 214.602 23.4259C214.625 23.4165 214.646 23.4004 214.661 23.3795C214.675 23.3587 214.684 23.334 214.684 23.3085L214.678 21.1882Z" fill="#717171"/>
<path d="M225.341 4.57776C220.541 4.57776 216.653 9.02561 216.653 14.5025C216.653 19.9795 220.541 24.4342 225.341 24.4342C230.141 24.4342 234.016 19.9864 234.016 14.5025C234.016 9.0187 230.141 4.57776 225.341 4.57776ZM225.341 22.7421C222.185 22.7421 219.63 19.054 219.63 14.5025C219.63 9.95109 222.185 6.26988 225.341 6.26988C228.498 6.26988 231.06 9.958 231.06 14.5025C231.06 19.0471 228.491 22.7421 225.341 22.7421Z" fill="#717171"/>
<path d="M238.885 24.4342C240.388 24.4342 241.606 23.2159 241.606 21.713C241.606 20.2101 240.388 18.9918 238.885 18.9918C237.382 18.9918 236.164 20.2101 236.164 21.713C236.164 23.2159 237.382 24.4342 238.885 24.4342Z" fill="#717171"/>
<path d="M184.641 17.0442C183.965 18.0044 183.236 18.9267 182.458 19.8068L186.285 24.0199C185.966 23.9841 185.646 23.9656 185.325 23.9646H183.508C183.24 23.9685 182.974 23.9078 182.733 23.7876C182.493 23.6674 182.285 23.4913 182.127 23.274L181.927 22.9977C181.595 22.5488 181.236 22.0653 180.773 21.5473C179.949 22.3857 178.996 23.0854 177.948 23.6193C176.815 24.1588 175.57 24.4215 174.316 24.3859C173.574 24.389 172.836 24.2938 172.119 24.1028C171.46 23.9238 170.844 23.6112 170.31 23.1842C169.798 22.773 169.383 22.2542 169.094 21.6647C168.77 20.9789 168.609 20.227 168.625 19.4684C168.629 18.8037 168.772 18.1473 169.046 17.5415C169.338 16.8885 169.727 16.2832 170.199 15.7458C170.698 15.1523 171.272 14.6254 171.905 14.178C172.577 13.7121 173.297 13.3207 174.053 13.0108C173.52 12.2494 173.042 11.4508 172.623 10.6211C172.256 9.91928 172.06 9.14077 172.05 8.3488C172.044 7.74437 172.162 7.14512 172.396 6.58762C172.622 6.06666 172.948 5.59504 173.356 5.1994C173.772 4.78748 174.264 4.4613 174.806 4.23938C175.395 4.00643 176.024 3.89145 176.657 3.90095C177.676 3.85914 178.679 4.15806 179.509 4.75047C179.89 5.0457 180.192 5.43021 180.388 5.86993C180.584 6.30965 180.669 6.79101 180.635 7.27137C180.635 7.83376 180.5 8.38786 180.241 8.88752C179.979 9.41672 179.642 9.90524 179.24 10.3379C178.834 10.7846 178.39 11.1959 177.914 11.5673C177.473 11.9084 177.012 12.2221 176.533 12.5066C177.43 13.66 178.301 14.7927 179.164 15.8977C180.027 17.0028 180.898 18.0457 181.795 19.0264C182.486 18.0111 183.177 17.0373 183.75 16.1118L184.641 17.0442ZM171.056 18.9642C171.056 19.5042 171.169 20.0382 171.387 20.532C171.827 21.5613 172.653 22.3771 173.687 22.8043C174.246 23.0411 174.848 23.1587 175.455 23.1496C176.353 23.1793 177.244 22.9896 178.052 22.5971C178.842 22.1796 179.56 21.6387 180.179 20.9948C179.164 19.7999 178.197 18.6189 177.279 17.4379C176.36 16.2569 175.455 15.0482 174.557 13.7912C173.577 14.3473 172.706 15.0775 171.988 15.9461C171.347 16.8051 171.02 17.8585 171.063 18.9297L171.056 18.9642ZM179.074 7.22303C179.098 6.56849 178.868 5.93015 178.432 5.44113C178.189 5.21058 177.902 5.03047 177.589 4.91117C177.275 4.79188 176.941 4.73575 176.606 4.74602C176.271 4.75629 175.941 4.83276 175.636 4.97102C175.331 5.10929 175.056 5.30661 174.827 5.55163C174.357 6.111 174.111 6.82451 174.136 7.55455C174.173 8.27306 174.351 8.97723 174.661 9.62653C175.017 10.4233 175.482 11.1671 176.042 11.8366C176.97 11.2874 177.754 10.525 178.328 9.61271C178.793 8.89488 179.053 8.06392 179.081 7.20922L179.074 7.22303Z" fill="#717171"/>
</svg>
