<svg width="125" height="34" viewBox="0 0 125 34" fill="none" xmlns="http://www.w3.org/2000/svg">
<path d="M45.7757 15.6858C45.7757 7.43892 35.5273 0.715757 22.8879 0.715757C10.2466 0.715757 0.00173049 7.43892 0.00173049 15.6858C0.00173049 15.8987 0 16.4891 0 16.5636C0 25.3108 8.95499 32.3976 22.8844 32.3976C36.9021 32.3976 45.7757 25.3143 45.7757 16.5636V15.6858Z" fill="#28316B"/>
<path d="M44.8983 15.679C44.8983 23.4532 35.0482 29.7573 22.8918 29.7573C10.7388 29.7573 0.886963 23.4532 0.886963 15.679C0.886963 7.90314 10.7388 1.59897 22.8918 1.59897C35.0482 1.59897 44.8983 7.90314 44.8983 15.679Z" fill="#50B4E9"/>
<path d="M15.5854 11.2368C15.5732 11.2594 15.3533 11.4879 15.4953 11.668C15.8433 12.113 16.9168 12.3657 18.0024 12.1233C18.6483 11.9779 19.4742 11.32 20.2758 10.6845C21.145 9.99367 22.009 9.3011 22.8747 9.02753C23.7924 8.73492 24.3793 8.85958 24.7689 8.97559C25.1948 9.10545 25.6969 9.38421 26.4951 9.98502C28.0015 11.1174 34.0563 16.4017 35.1004 17.3159C35.9453 16.935 39.6887 15.3213 44.7774 14.2028C44.3359 11.4896 42.6841 9.00675 40.1821 6.97405C36.695 8.43884 32.4322 9.20414 28.2647 7.16624C28.2439 7.16104 25.9878 6.09102 23.7612 6.14469C20.4542 6.22087 19.0205 7.65277 17.5038 9.16778L15.5854 11.2368Z" fill="white"/>
<path d="M34.8563 17.8906C34.7853 17.8283 27.7384 11.6591 26.1403 10.4593C25.2174 9.76669 24.7032 9.59008 24.163 9.52082C23.8807 9.48619 23.4946 9.53641 23.2211 9.61259C22.48 9.81344 21.5087 10.4627 20.6464 11.1449C19.753 11.8583 18.9115 12.5266 18.1306 12.7032C17.1333 12.9266 15.9144 12.6616 15.3569 12.2859C15.1318 12.1353 14.9742 11.9587 14.898 11.7821C14.692 11.3042 15.0712 10.925 15.1318 10.8592L17.0779 8.75726C17.303 8.53217 17.5315 8.30536 17.7653 8.082C17.1385 8.16511 16.5585 8.32613 15.9923 8.48196C15.2876 8.68108 14.6106 8.86807 13.9232 8.86807C13.6375 8.86807 12.1035 8.61875 11.8126 8.5391C10.0535 8.0543 8.5073 7.58854 6.20103 6.50986C3.43593 8.56853 1.58675 11.1432 1.05347 13.9775C1.44997 14.0832 2.08887 14.2719 2.35724 14.3308C8.61638 15.7228 10.5642 17.1565 10.9192 17.456C11.3018 17.0301 11.8524 16.76 12.4688 16.76C13.1631 16.7634 13.7865 17.1097 14.1656 17.6465C14.524 17.3625 15.0175 17.1236 15.6564 17.1236C15.9456 17.1236 16.2468 17.1755 16.5516 17.2794C17.258 17.5201 17.6216 17.991 17.8103 18.4187C18.0475 18.3096 18.3384 18.2299 18.6812 18.2317C19.0189 18.2317 19.3703 18.3079 19.7218 18.4602C20.875 18.9554 21.055 20.0912 20.9511 20.9448C21.0342 20.9345 21.1139 20.931 21.2005 20.931C22.5666 20.9327 23.6816 22.0426 23.6799 23.4121C23.6799 23.8363 23.5708 24.2328 23.3838 24.5843C23.7561 24.7921 24.7049 25.2665 25.536 25.1609C26.2026 25.076 26.4554 24.8492 26.5454 24.7211C26.6077 24.6345 26.6735 24.5306 26.6112 24.4562L24.8486 22.4945C24.8486 22.4945 24.556 22.2209 24.6512 22.1136C24.7516 22.0062 24.9317 22.162 25.0598 22.2677C25.955 23.0191 27.0544 24.1497 27.0544 24.1497C27.0718 24.1636 27.1462 24.3056 27.5496 24.3783C27.8994 24.4406 28.5175 24.406 28.9469 24.0545C29.0543 23.9662 29.1633 23.8537 29.2534 23.7411C29.2464 23.7463 29.2395 23.7532 29.2326 23.7567C29.6845 23.1784 29.1824 22.5932 29.1824 22.5932L27.122 20.28C27.122 20.28 26.8259 20.0064 26.9263 19.8956C27.0164 19.8021 27.2068 19.9458 27.3349 20.0532C27.9877 20.5968 28.9106 21.5249 29.7936 22.3906C29.9667 22.5153 30.7441 22.9966 31.7726 22.3213C32.3959 21.911 32.5206 21.4089 32.505 21.0279C32.46 20.5258 32.0687 20.1674 32.0687 20.1674L29.2534 17.3383C29.2534 17.3383 28.9556 17.0837 29.0595 16.9556C29.146 16.8465 29.3382 17.0024 29.4663 17.1097C30.3632 17.8594 32.7924 20.086 32.7924 20.086C32.8253 20.1103 33.6668 20.7076 34.7005 20.0462C35.0727 19.809 35.3099 19.4523 35.329 19.0385C35.3653 18.3165 34.8563 17.8906 34.8563 17.8906Z" fill="white"/>
<path d="M21.1993 21.4785C20.763 21.4733 20.2868 21.733 20.2228 21.6949C20.1881 21.6724 20.2505 21.4975 20.292 21.3954C20.3319 21.2967 20.9067 19.567 19.506 18.9644C18.4325 18.5039 17.778 19.0216 17.5529 19.257C17.4923 19.3176 17.4663 19.3124 17.4594 19.2345C17.4386 18.9229 17.3001 18.0797 16.3738 17.7974C15.0492 17.394 14.1991 18.3169 13.9827 18.6493C13.8874 17.8961 13.2503 17.3109 12.4694 17.3092C11.621 17.3092 10.9319 17.9966 10.9319 18.845C10.9319 19.6916 11.6193 20.379 12.4677 20.379C12.8798 20.3807 13.2537 20.2163 13.529 19.9513C13.5377 19.96 13.5412 19.9739 13.536 20.0033C13.4719 20.3825 13.3542 21.7624 14.7999 22.3251C15.3799 22.5502 15.8717 22.3823 16.2803 22.0949C16.4015 22.01 16.4205 22.0464 16.4032 22.1607C16.3513 22.5156 16.4171 23.2757 17.4836 23.7068C18.294 24.0375 18.7736 23.6999 19.087 23.409C19.2237 23.2844 19.2618 23.3069 19.2705 23.4973C19.3068 24.5258 20.1604 25.3396 21.1976 25.3413C22.2641 25.3413 23.1299 24.4791 23.1299 23.4125C23.1299 22.3442 22.2659 21.4906 21.1993 21.4785Z" fill="white"/>
<path d="M21.1992 25.2035C20.2314 25.2035 19.4453 24.4503 19.4107 23.4946C19.4072 23.4115 19.3985 23.1933 19.215 23.1933C19.1388 23.1933 19.0713 23.2383 18.9968 23.3059C18.7822 23.505 18.512 23.7041 18.1173 23.7041C17.9372 23.7041 17.7433 23.6625 17.5372 23.5794C16.5157 23.1656 16.5019 22.4627 16.5434 22.1804C16.5538 22.106 16.5573 22.0281 16.507 21.9675L16.443 21.9121H16.3806C16.3287 21.9121 16.2733 21.9311 16.2023 21.983C15.9062 22.1908 15.6223 22.2895 15.3349 22.2895C15.1756 22.2895 15.0145 22.2601 14.8501 22.196C13.5065 21.6731 13.6121 20.404 13.6779 20.0213C13.6865 19.9434 13.6675 19.8845 13.619 19.843L13.5238 19.7633L13.4355 19.8499C13.1723 20.1044 12.8295 20.2412 12.4693 20.2412C11.7006 20.2412 11.0721 19.6144 11.0721 18.844C11.0721 18.0735 11.7023 17.4484 12.4711 17.4484C13.1671 17.4484 13.761 17.9713 13.8493 18.6691L13.8978 19.0431L14.1021 18.7262C14.1263 18.6881 14.6908 17.8345 15.7296 17.8345C15.9253 17.8345 16.1296 17.8692 16.3339 17.9315C17.1633 18.1825 17.3018 18.9323 17.3243 19.2474C17.3399 19.4292 17.468 19.4378 17.494 19.4378C17.5632 19.4378 17.6186 19.3928 17.655 19.353C17.8108 19.1885 18.1502 18.9184 18.6835 18.9184C18.9276 18.9201 19.1856 18.9755 19.4522 19.0915C20.7681 19.656 20.1708 21.3286 20.1638 21.3441C20.0513 21.6212 20.0478 21.7441 20.1535 21.8134L20.2054 21.8393H20.2435C20.3024 21.8393 20.3751 21.8134 20.498 21.7718C20.6763 21.7095 20.9464 21.6177 21.1992 21.6177H21.201C22.1896 21.6298 22.9947 22.4332 22.9947 23.4132C22.993 24.4001 22.1879 25.2035 21.1992 25.2035ZM35.1286 17.1541C32.9592 15.2581 27.9415 10.8949 26.5805 9.87511C25.8049 9.29162 25.275 8.98169 24.811 8.84491C24.6015 8.78258 24.3124 8.70985 23.9401 8.70985C23.5955 8.70985 23.225 8.77219 22.8354 8.89512C21.9559 9.17215 21.0832 9.86819 20.2348 10.54L20.1933 10.5746C19.4037 11.2014 18.59 11.8507 17.9736 11.9875C17.7035 12.0481 17.4264 12.0792 17.1511 12.0792C16.4603 12.0792 15.8404 11.8801 15.6084 11.5823C15.5686 11.5338 15.5946 11.4559 15.6829 11.3399L15.695 11.3243L17.6048 9.26565C19.1007 7.77142 20.5136 6.35683 23.767 6.28238C23.8206 6.28065 23.876 6.27892 23.9297 6.27892C25.9538 6.28238 27.9778 7.18792 28.2046 7.29181C30.104 8.21986 32.0623 8.69081 34.0326 8.69254C36.0861 8.69254 38.2037 8.1835 40.4303 7.15849C40.181 6.94898 39.9213 6.74641 39.6563 6.54556C37.6998 7.39396 35.8368 7.82336 34.0378 7.82336C32.2008 7.8199 30.3655 7.37838 28.5855 6.5092C28.4903 6.46591 26.2568 5.40974 23.9297 5.40974C23.8691 5.40974 23.8085 5.40974 23.7479 5.41147C21.0157 5.47553 19.4765 6.44687 18.4411 7.29527C17.4334 7.32124 16.5659 7.56364 15.7937 7.78008C15.1028 7.97053 14.509 8.13675 13.9289 8.13675C13.6883 8.13675 13.2589 8.11597 13.2208 8.11424C12.5524 8.09346 9.18826 7.2693 6.51146 6.25468C6.2379 6.4486 5.97472 6.64771 5.7202 6.85202C8.51647 7.9965 11.9187 8.88473 12.9922 8.95226C13.29 8.97477 13.6086 9.00766 13.9272 9.00766C14.6371 9.00766 15.3453 8.80855 16.0326 8.61809C16.4378 8.50208 16.8845 8.37915 17.3537 8.28738C17.2291 8.41205 17.1044 8.53671 16.978 8.66311L15.0371 10.7616C14.8864 10.9157 14.5523 11.3278 14.7721 11.8351C14.8587 12.0394 15.0336 12.2351 15.2829 12.4013C15.7452 12.7129 16.5728 12.9224 17.3416 12.9224C17.6325 12.9242 17.9112 12.8947 18.164 12.8359C18.9778 12.6558 19.8297 11.9753 20.7335 11.2568C21.4538 10.6837 22.477 9.95822 23.2596 9.74352C23.4795 9.68465 23.7496 9.64829 23.9661 9.64829C24.0301 9.65002 24.0907 9.65002 24.1461 9.65695C24.6638 9.72448 25.166 9.89935 26.0594 10.5711C27.6523 11.7676 34.701 17.9349 34.7702 17.9955C34.7754 17.999 35.2239 18.3851 35.1927 19.0327C35.1754 19.3911 34.9763 19.7097 34.63 19.9313C34.3287 20.1218 34.0171 20.2187 33.7054 20.2187C33.2327 20.2187 32.9089 19.9971 32.8882 19.9815C32.8605 19.9607 30.4468 17.7462 29.5569 17.0034C29.4166 16.8857 29.2799 16.7801 29.1413 16.7801C29.0652 16.7801 28.9994 16.8112 28.9543 16.8667C28.8141 17.0398 28.9717 17.2787 29.1569 17.4363L31.9792 20.2689C31.9826 20.2724 32.3306 20.5996 32.367 21.0359C32.3895 21.5052 32.1644 21.8982 31.6969 22.2047C31.3645 22.4246 31.0286 22.5354 30.6979 22.5354C30.2633 22.5354 29.962 22.338 29.8928 22.2895L29.4894 21.893C28.7483 21.1641 27.9847 20.4109 27.4272 19.9451C27.2904 19.8309 27.145 19.727 27.0065 19.727C26.9372 19.727 26.8749 19.7547 26.8281 19.8032C26.7641 19.8742 26.7191 20.0006 26.8783 20.2118C26.9441 20.3001 27.0203 20.3711 27.0203 20.3711L29.0807 22.6825C29.098 22.7051 29.5032 23.1881 29.1258 23.6695L29.053 23.763C28.9907 23.8305 28.9249 23.8911 28.8626 23.9465C28.5111 24.2356 28.0419 24.2651 27.8566 24.2651C27.7562 24.2651 27.6592 24.2564 27.5778 24.2408C27.3735 24.2062 27.2368 24.1491 27.1727 24.0712L27.1485 24.0435C27.0342 23.9292 25.997 22.8678 25.1383 22.1527C25.0257 22.0592 24.8837 21.938 24.7383 21.938C24.6656 21.938 24.6015 21.9675 24.553 22.0211C24.3816 22.2081 24.6361 22.4869 24.7452 22.5873L26.5026 24.5231C26.5009 24.5404 26.4767 24.5819 26.4334 24.6425C26.371 24.7308 26.1581 24.9438 25.5226 25.0234C25.4464 25.0321 25.3668 25.0356 25.2889 25.0356C24.6309 25.0356 23.9314 24.717 23.5696 24.5248C23.7358 24.1785 23.8206 23.7976 23.8206 23.4132C23.8206 21.9675 22.6467 20.7918 21.201 20.7918C21.1698 20.7918 21.1386 20.7918 21.1057 20.7935C21.156 20.1339 21.0625 18.8838 19.7795 18.3349C19.4107 18.1739 19.0419 18.0942 18.6835 18.0942C18.4047 18.0942 18.1346 18.141 17.8801 18.2397C17.6169 17.722 17.1754 17.3463 16.5988 17.1506C16.2802 17.0398 15.9651 16.9844 15.6586 16.9844C15.1236 16.9844 14.6336 17.1402 14.1956 17.4519C13.7748 16.9307 13.1394 16.6208 12.4711 16.6208C11.8876 16.6208 11.3249 16.8545 10.9076 17.2683C10.3622 16.8493 8.19269 15.4728 2.39064 14.1552C2.11015 14.0929 1.46606 13.9076 1.06956 13.7916C1.00376 14.105 0.955283 14.4219 0.920654 14.7422C0.920654 14.7422 1.99068 14.9984 2.20192 15.0469C8.12862 16.3645 10.0886 17.7324 10.4193 17.9904C10.3068 18.2605 10.2496 18.5513 10.2479 18.844C10.2479 20.0698 11.2435 21.0654 12.4693 21.0671C12.6061 21.0671 12.7412 21.055 12.8762 21.0308C13.0615 21.9311 13.6502 22.615 14.5523 22.9648C14.8137 23.0669 15.0821 23.1189 15.3435 23.1189C15.5132 23.1189 15.6811 23.0981 15.8491 23.0565C16.0153 23.4773 16.391 24.0054 17.2273 24.3447C17.5217 24.4625 17.8143 24.5231 18.1 24.5231C18.3337 24.5231 18.5623 24.4832 18.7787 24.4036C19.1804 25.3819 20.1344 26.0294 21.1992 26.0294C21.9039 26.0311 22.5809 25.7437 23.0761 25.2347C23.4986 25.4684 24.392 25.8926 25.2924 25.8944C25.4101 25.8944 25.5192 25.8892 25.63 25.8753C26.5251 25.761 26.9407 25.4113 27.1329 25.1395C27.1675 25.091 27.1987 25.039 27.2246 24.9888C27.4376 25.0494 27.6679 25.0979 27.9363 25.0979C28.4245 25.0979 28.8937 24.9334 29.3699 24.5871C29.8339 24.2495 30.1663 23.7682 30.2131 23.3578C30.2148 23.3526 30.2166 23.3457 30.2166 23.3388C30.3741 23.3717 30.5369 23.3872 30.6944 23.3872C31.2 23.3872 31.6952 23.2314 32.1679 22.9215C33.0804 22.3224 33.2396 21.5415 33.2258 21.029C33.3851 21.0602 33.5478 21.0792 33.7106 21.0792C34.1833 21.0792 34.6473 20.9373 35.0888 20.655C35.6567 20.2932 35.9961 19.7391 36.048 19.095C36.0844 18.657 35.9753 18.2154 35.7433 17.8345C37.2739 17.1748 40.7697 15.9005 44.8888 14.9725C44.8628 14.6521 44.8178 14.337 44.7589 14.0236C39.7775 15.13 36.0602 16.7368 35.1286 17.1541Z" fill="#28316B"/>
<path d="M121.716 12.0859C121.314 12.6174 120.742 12.884 119.991 12.884C119.243 12.884 118.666 12.6174 118.263 12.0859C117.858 11.5543 117.657 10.7977 117.657 9.81594C117.657 8.83595 117.858 8.08104 118.263 7.55295C118.666 7.02314 119.243 6.75823 119.991 6.75823C120.742 6.75823 121.314 7.02314 121.716 7.55295C122.114 8.08104 122.316 8.83595 122.316 9.81594C122.316 10.7977 122.114 11.5543 121.716 12.0859ZM123.762 6.14703C122.934 5.11336 121.681 4.59566 120 4.59566C118.318 4.59566 117.063 5.11336 116.237 6.14703C115.41 7.18243 114.998 8.40482 114.998 9.81594C114.998 11.253 115.41 12.4806 116.237 13.5004C117.063 14.5185 118.318 15.0293 120 15.0293C121.681 15.0293 122.934 14.5185 123.762 13.5004C124.588 12.4806 125 11.253 125 9.81594C125 8.40482 124.588 7.18243 123.762 6.14703Z" fill="#28316B"/>
<path d="M101.347 10.8768C101.33 11.7356 101.084 12.3278 100.612 12.6516C100.141 12.9771 99.6229 13.1398 99.0637 13.1398C98.7087 13.1398 98.4092 13.0394 98.1616 12.8455C97.914 12.6481 97.7911 12.333 97.7911 11.8932C97.7911 11.4032 97.9937 11.0396 98.3971 10.8041C98.6378 10.6673 99.0291 10.5496 99.5779 10.4561L100.163 10.3453C100.452 10.2899 100.683 10.231 100.851 10.1687C101.02 10.1081 101.183 10.0267 101.347 9.92109V10.8768ZM102.649 5.28257C101.813 4.85664 100.854 4.64367 99.7753 4.64367C98.1149 4.64367 96.9444 5.0748 96.2622 5.93879C95.8328 6.49285 95.5939 7.19927 95.5385 8.05807H98.0162C98.0768 7.67715 98.1997 7.37761 98.3815 7.15772C98.6378 6.85645 99.0723 6.70581 99.687 6.70581C100.234 6.70581 100.651 6.782 100.935 6.93783C101.216 7.08846 101.358 7.36722 101.358 7.76892C101.358 8.09962 101.173 8.34029 100.806 8.49785C100.598 8.58962 100.257 8.66407 99.7788 8.72467L98.8992 8.83029C97.9019 8.95841 97.1435 9.16965 96.631 9.46399C95.6926 10.0042 95.2251 10.8768 95.2251 12.0837C95.2251 13.0134 95.5142 13.732 96.0995 14.241C96.6812 14.7483 97.4188 14.9613 98.314 15.0029C103.917 15.2539 103.855 12.0508 103.907 11.3842V7.6962C103.907 6.51363 103.486 5.70851 102.649 5.28257Z" fill="#28316B"/>
<path d="M89.8716 6.83911C90.5123 6.83911 90.9832 7.0365 91.2862 7.433C91.494 7.72388 91.6256 8.05458 91.6758 8.41992H94.4409C94.2885 7.02438 93.802 6.05304 92.9761 5.50245C92.1485 4.95185 91.0906 4.67482 89.7972 4.67482C88.2735 4.67482 87.0806 5.14404 86.2148 6.07728C85.3491 7.01226 84.9163 8.31776 84.9163 9.99552C84.9163 11.4828 85.3076 12.6948 86.0902 13.6298C86.8745 14.5631 88.0969 15.0288 89.7574 15.0288C91.4213 15.0288 92.6748 14.4696 93.5198 13.351C94.0513 12.655 94.3474 11.9209 94.4097 11.14H91.655C91.5996 11.656 91.4386 12.075 91.1719 12.3988C90.907 12.7191 90.4586 12.8836 89.8249 12.8836C88.9332 12.8836 88.3237 12.4767 88.0034 11.6612C87.8251 11.2266 87.7368 10.65 87.7368 9.93319C87.7368 9.18175 87.8251 8.57921 88.0034 8.12211C88.3376 7.26851 88.9626 6.83911 89.8716 6.83911Z" fill="#28316B"/>
<path d="M84.175 4.67472C78.4977 4.67472 78.8318 9.70281 78.8318 9.70281V14.8105H81.4082V10.0197C81.4082 9.23532 81.5104 8.65356 81.7043 8.27437C82.0592 7.60431 82.7501 7.26841 83.7803 7.26841C83.8565 7.26841 83.9603 7.2736 84.085 7.28053C84.2114 7.28572 84.3551 7.29784 84.5179 7.31516V4.6955C84.4036 4.68684 84.3291 4.68338 84.2962 4.67991C84.2651 4.67818 84.2235 4.67472 84.175 4.67472Z" fill="#28316B"/>
<path d="M71.2469 7.34287C71.6088 6.97061 72.1179 6.78535 72.7758 6.78535C73.3783 6.78535 73.8839 6.95849 74.2943 7.3117C74.6994 7.66492 74.928 8.17915 74.973 8.85788H70.5648C70.6565 8.22071 70.8868 7.71686 71.2469 7.34287ZM74.7098 12.1407C74.6007 12.2948 74.4865 12.4281 74.3583 12.5303C73.993 12.8298 73.4995 12.9216 72.9178 12.9216C72.3655 12.9216 71.9343 12.8384 71.5465 12.5926C70.9041 12.1978 70.5405 11.5295 70.5007 10.5478H77.6325C77.6411 9.70109 77.6152 9.05353 77.5459 8.60509C77.4282 7.83806 77.1667 7.1628 76.7668 6.58104C76.3218 5.92136 75.7556 5.43829 75.0751 5.13183C74.3912 4.82709 73.6259 4.67473 72.7758 4.67473C71.3404 4.67473 70.1735 5.12663 69.2731 6.03044C68.3762 6.93598 67.9243 8.23629 67.9243 9.93137C67.9243 11.7407 68.423 13.048 69.4185 13.8496C70.4141 14.653 71.5655 15.0547 72.8676 15.0547C74.4449 15.0547 75.6725 14.5785 76.5486 13.6263C77.023 13.1259 77.3174 12.6307 77.4438 12.1407H74.7098Z" fill="#28316B"/>
<path d="M66.8896 14.808H64.5366V8.88128C64.5366 8.34107 64.3565 7.05288 62.8051 7.05288C61.7697 7.05288 61.02 7.79913 61.02 8.88128V14.808H58.6653V8.88128C58.6653 8.34107 58.5042 7.05288 56.9529 7.05288C55.8984 7.05288 55.166 7.79913 55.166 8.88128V14.808H52.8113V8.93841C52.8113 6.49016 54.4371 4.64099 56.9529 4.64099C58.2012 4.64099 59.2176 5.16561 59.879 6.00536C60.575 5.16561 61.6087 4.64099 62.8051 4.64099C65.3746 4.64099 66.8896 6.41398 66.8896 8.93841V14.808Z" fill="#28316B"/>
<path d="M111.141 12.1061C110.765 12.6463 110.211 12.9147 109.489 12.9147C108.764 12.9147 108.224 12.6428 107.867 12.1026C107.512 11.5607 107.335 10.7712 107.335 9.86735C107.335 9.02761 107.508 8.32638 107.858 7.7602C108.21 7.19575 108.757 6.91179 109.507 6.91179C109.998 6.91179 110.428 7.06762 110.8 7.37928C111.402 7.89179 111.707 8.8181 111.707 10.0145C111.707 10.8699 111.517 11.5676 111.141 12.1061ZM114.23 1.5807C114.23 1.5807 111.636 1.30367 111.636 3.38832L111.633 6.14996C111.345 5.68594 110.971 5.3258 110.512 5.06781C110.052 4.80637 109.526 4.67478 108.932 4.67478C107.642 4.67478 106.618 5.15438 105.848 6.11014C105.077 7.07108 104.693 8.45104 104.693 10.1219C104.693 11.5694 105.084 12.7589 105.865 13.6834C106.648 14.6063 108.178 15.0132 109.539 15.0132C114.284 15.0132 114.228 10.9443 114.228 10.9443L114.23 1.5807Z" fill="#28316B"/>
<path d="M59.7034 24.1907C59.7034 23.2176 59.5147 22.4731 59.1338 21.9485C58.7546 21.4256 58.2127 21.1624 57.5045 21.1624C56.824 21.1624 56.2925 21.4256 55.9133 21.9485C55.5601 22.4229 55.3852 23.1709 55.3852 24.1907C55.3852 25.1413 55.5722 25.8477 55.9531 26.3204C56.3306 26.8467 56.8743 27.1082 57.5807 27.1082C58.2369 27.1082 58.7546 26.8467 59.1338 26.3204C59.5147 25.7992 59.7034 25.0911 59.7034 24.1907ZM55.3852 31.1615C55.3852 31.5251 55.2467 31.8367 54.9714 32.0895C54.7255 32.3181 54.3931 32.4341 54.0555 32.4341H52.8088V23.4791C52.8088 21.7373 53.3958 20.6482 54.3619 19.9106C55.0597 19.3791 56.1315 18.8735 58.2542 18.9722C59.3485 19.0224 60.4029 19.4985 61.099 20.3435C61.9577 21.391 62.3162 22.5562 62.3162 24.0799C62.3162 25.6503 61.937 26.916 61.1803 27.8925C60.4237 28.8396 59.4506 29.3123 58.2629 29.3123C57.6309 29.3123 57.0751 29.1998 56.5972 28.9764C56.0899 28.7271 55.6899 28.3392 55.3852 27.8163V31.1615Z" fill="#50B4E9"/>
<path d="M75.1458 24.1923C75.1458 25.9082 75.6427 26.8605 76.6349 27.0492C77.627 27.2327 78.3576 27.0042 78.8303 26.3566C79.0537 26.0865 79.2147 25.6537 79.3134 25.0702C79.4121 24.4849 79.419 23.9066 79.3324 23.3335C79.2459 22.7587 79.0415 22.2497 78.7178 21.8012C78.3957 21.3528 77.923 21.1277 77.3049 21.1277C76.4617 21.1277 75.8921 21.4411 75.5943 22.0627C75.293 22.6842 75.1458 23.3941 75.1458 24.1923ZM79.3878 28.4846V27.8526C78.9411 28.5521 78.3403 28.9849 77.5837 29.1598C76.827 29.333 76.0756 29.2724 75.3328 28.9711C74.5883 28.6733 73.9511 28.121 73.4161 27.3124C72.8828 26.4986 72.6179 25.4355 72.6179 24.1161C72.6179 22.5734 72.9711 21.3216 73.6758 20.3641C74.384 19.4049 75.5198 18.9686 77.0816 18.9253C78.6225 18.8855 79.516 19.2335 80.3921 19.8966C81.3513 20.6238 81.9175 21.7389 81.9175 23.4807V28.7495C81.9209 30.4255 80.7522 33.5334 77.0816 33.2685C74.8082 33.1023 73.5442 32.1691 72.8413 30.0567H75.5562C75.7553 30.403 76.0583 30.6714 76.4686 30.8584C76.8773 31.0471 77.2876 31.0938 77.6945 31.009C78.1031 30.9207 78.4754 30.6766 78.813 30.2801C79.1472 29.8801 79.3376 29.2827 79.3878 28.4846Z" fill="#50B4E9"/>
<path d="M69.1114 25.2305C69.0958 26.091 68.8499 26.6814 68.3772 27.0052C67.9063 27.3307 67.3886 27.4935 66.8293 27.4935C66.4744 27.4935 66.1731 27.3931 65.9255 27.1991C65.6797 27.0035 65.555 26.6866 65.555 26.2468C65.555 25.7568 65.7576 25.3932 66.1627 25.1578C66.4034 25.021 66.7947 24.9032 67.3418 24.8098L67.9271 24.6989C68.218 24.6435 68.4482 24.5864 68.6145 24.5223C68.7841 24.4617 68.9469 24.3804 69.1114 24.2747V25.2305ZM70.4134 19.6362C69.5771 19.212 68.6162 18.9973 67.5375 18.9973C65.8788 18.9973 64.7083 19.4284 64.0261 20.2942C63.6002 20.8465 63.3595 21.5529 63.3041 22.4117H65.7818C65.8424 22.0308 65.9654 21.7313 66.1472 21.5114C66.4034 21.2118 66.838 21.0595 67.4509 21.0595C68.0015 21.0595 68.4171 21.1356 68.6993 21.2915C68.9798 21.4421 69.1235 21.7209 69.1235 22.1226C69.1235 22.4533 68.9382 22.6957 68.5712 22.8532C68.3634 22.9433 68.0223 23.0177 67.5427 23.0783L66.6649 23.1839C65.6675 23.3121 64.9074 23.5233 64.3967 23.8176C63.4565 24.3578 62.989 25.2305 62.989 26.4373C62.989 27.3671 63.2799 28.0856 63.8634 28.5929C64.4452 29.102 65.1845 29.3149 66.0796 29.3565C71.6808 29.6076 71.6185 26.4027 71.6704 25.7378V22.0498C71.6704 20.8673 71.2514 20.0639 70.4134 19.6362Z" fill="#50B4E9"/>
<path d="M89.6161 26.3837C89.2162 26.917 88.6431 27.1836 87.8934 27.1836C87.1454 27.1836 86.5688 26.917 86.1654 26.3837C85.7585 25.8521 85.5577 25.0972 85.5577 24.1155C85.5577 23.1372 85.7585 22.3806 86.1654 21.8542C86.5688 21.3227 87.1454 21.0595 87.8934 21.0595C88.6431 21.0595 89.2162 21.3227 89.6161 21.8542C90.0161 22.3806 90.2187 23.1372 90.2187 24.1155C90.2187 25.0972 90.0161 25.8521 89.6161 26.3837ZM91.6644 20.4483C90.8368 19.4129 89.5832 18.8952 87.9003 18.8952C86.2208 18.8952 84.9655 19.4129 84.1396 20.4483C83.312 21.4837 82.8999 22.7061 82.8999 24.1155C82.8999 25.5526 83.312 26.7802 84.1396 27.8C84.9655 28.8181 86.2208 29.3289 87.9003 29.3289C89.5832 29.3289 90.8368 28.8181 91.6644 27.8C92.4886 26.7802 92.9007 25.5526 92.9007 24.1155C92.9007 22.7061 92.4886 21.4837 91.6644 20.4483Z" fill="#50B4E9"/>
</svg>
